<svg width="666" height="270" viewBox="0 0 666 270" fill="none" xmlns="http://www.w3.org/2000/svg">
<path d="M99.9492 267V229.35H3.04922V189.3L81.9492 45.75H158.899V186H183.199V229.35H158.899V267H99.9492ZM46.6992 210L31.3992 186H99.9492V83.4L111.499 86.7L46.6992 210Z" fill="#0A1429"/>
<path d="M468 135C468 209.559 407.559 270 333 270C258.441 270 198 209.559 198 135C198 60.4406 258.441 0 333 0C407.559 0 468 60.4406 468 135Z" fill="#E7EDF9"/>
<path d="M214.479 135C214.479 63.2092 270.52 4.51744 341.24 0.257492C338.512 0.092697 335.766 0 333 0C258.441 0 198 60.4406 198 135C198 209.559 258.441 270 333 270C335.766 270 338.512 269.907 341.24 269.743C270.52 265.483 214.479 206.791 214.479 135Z" fill="#ADC2EB"/>
<path d="M447.669 206.263C442.44 195.247 431.22 187.627 418.214 187.627C400.218 187.627 385.627 202.216 385.627 220.213C385.627 233.22 393.247 244.44 404.264 249.668C421.843 238.72 436.72 223.843 447.669 206.263V206.263Z" fill="#ADC2EB"/>
<path d="M402.107 220.213C402.107 205.062 412.448 192.328 426.457 188.678C423.825 187.992 421.062 187.627 418.214 187.627C400.218 187.627 385.627 202.216 385.627 220.213C385.627 233.22 393.247 244.44 404.264 249.668C407.088 247.909 409.836 246.039 412.516 244.082C406.114 238.133 402.107 229.642 402.107 220.213V220.213Z" fill="#85A3E0"/>
<path d="M365.009 58.6175C365.009 76.6152 350.419 91.2036 332.421 91.2036C314.425 91.2036 299.835 76.6152 299.835 58.6175C299.835 40.6198 314.425 26.0293 332.421 26.0293C350.419 26.0293 365.009 40.6198 365.009 58.6175Z" fill="#ADC2EB"/>
<path d="M316.314 58.6175C316.314 43.4667 326.653 30.7321 340.661 27.084C338.03 26.398 335.27 26.0293 332.423 26.0293C314.425 26.0293 299.835 40.6198 299.835 58.6175C299.835 76.6152 314.425 91.2036 332.423 91.2036C335.27 91.2036 338.03 90.837 340.661 90.151C326.653 86.5008 316.314 73.7683 316.314 58.6175V58.6175Z" fill="#85A3E0"/>
<path d="M463.528 100.44C454.11 64.7788 430.468 34.9015 399.037 17.2375C392.653 26.2189 388.902 37.2004 388.902 49.0574C388.902 79.4291 413.523 104.052 443.896 104.052C450.814 104.052 457.43 102.77 463.528 100.44Z" fill="#ADC2EB"/>
<path d="M405.38 49.0574C405.38 40.3583 407.407 32.135 411.003 24.8222C407.158 22.0949 403.165 19.5591 399.037 17.2375C392.653 26.2189 388.902 37.2004 388.902 49.0574C388.902 79.4291 413.523 104.052 443.896 104.052C446.686 104.052 449.423 103.833 452.101 103.431C425.654 99.4414 405.38 76.6173 405.38 49.0574V49.0574Z" fill="#85A3E0"/>
<path d="M430.324 142.3C430.324 151.298 423.027 158.592 414.029 158.592C405.032 158.592 397.735 151.298 397.735 142.3C397.735 133.301 405.032 126.006 414.029 126.006C423.027 126.006 430.324 133.301 430.324 142.3Z" fill="#ADC2EB"/>
<path d="M414.215 142.3C414.215 136.308 417.451 131.076 422.269 128.243C419.851 126.824 417.037 126.006 414.029 126.006C405.032 126.006 397.735 133.301 397.735 142.298C397.735 151.298 405.032 158.592 414.029 158.592C417.037 158.592 419.851 157.775 422.269 156.353C417.451 153.525 414.215 148.291 414.215 142.3V142.3Z" fill="#85A3E0"/>
<path d="M355.111 136.73C355.111 142.138 350.728 146.521 345.323 146.521C339.915 146.521 335.534 142.138 335.534 136.73C335.534 131.325 339.915 126.942 345.323 126.942C350.728 126.942 355.111 131.325 355.111 136.73Z" fill="#85A3E0"/>
<path d="M360.176 220.213C360.176 224.317 356.852 227.642 352.75 227.642C348.647 227.642 345.322 224.317 345.322 220.213C345.322 216.112 348.647 212.787 352.75 212.787C356.852 212.787 360.176 216.112 360.176 220.213V220.213Z" fill="#85A3E0"/>
<path d="M573.949 267V229.35H477.049V189.3L555.949 45.75H632.899V186H657.199V229.35H632.899V267H573.949ZM520.699 210L505.399 186H573.949V83.4L585.499 86.7L520.699 210Z" fill="url(#paint0_linear_149_146)"/>
<defs>
<linearGradient id="paint0_linear_149_146" x1="527.067" y1="-63.7497" x2="670.732" y2="-57.9991" gradientUnits="userSpaceOnUse">
<stop stop-color="#3366CC"/>
<stop offset="0.164583" stop-color="#3061C2"/>
<stop offset="0.4875" stop-color="#3061C2"/>
<stop offset="1" stop-color="#4775D1"/>
</linearGradient>
</defs>
</svg>
