<svg width="373" height="600" viewBox="0 0 373 600" fill="none" xmlns="http://www.w3.org/2000/svg">
<g clip-path="url(#clip0_1_3325)">
<rect width="373" height="600" rx="20" fill="#0A1429"/>
<g opacity="0.6">
<path d="M-83.8417 483.137C-83.8417 483.137 33.5415 363.073 131.677 347.895C263.455 327.513 201.765 170.499 399.762 332.09C597.759 493.68 535.346 314.311 707.06 275.672C878.774 237.033 930.675 585.007 1046.32 390.048C1098.56 301.982 1272.35 300.471 1272.35 300.471" stroke="#1465DF" stroke-linecap="round"/>
<path d="M129.143 347.055C31.0073 362.233 -86.3759 482.297 -86.3759 482.297V562.36H1269.82V299.631C1269.82 299.631 1096.02 301.142 1043.79 389.209C928.141 584.167 871.17 234.49 699.456 273.129C527.742 311.769 595.225 492.84 397.228 331.25C199.231 169.659 260.92 326.673 129.143 347.055Z" fill="url(#paint0_linear_1_3325)" fill-opacity="0.1"/>
<path d="M-83.835 579.774C-83.835 579.774 57.6458 378.586 132.201 444.532C274.449 570.353 202.457 267.136 400.929 428.726C599.401 590.317 541.92 504.81 714.046 466.171C886.172 427.532 866.507 520.803 1049.04 486.685C1149.75 467.86 1275.61 397.108 1275.61 397.108" stroke="#25C63A" stroke-linecap="round"/>
<path d="M129.66 443.694C52.7743 380.481 -86.376 578.936 -86.376 578.936V658.999H1273.07V396.27C1273.07 396.27 1148.56 476.913 1046.5 485.847C806.793 506.829 873.467 424.992 701.341 463.631C529.214 502.27 596.86 589.479 398.388 427.888C199.916 266.298 274.449 562.734 129.66 443.694Z" fill="url(#paint1_linear_1_3325)" fill-opacity="0.1"/>
<path d="M-85.5654 540.88C-85.5654 540.88 -78.8597 534.908 -14.9053 507.844C107.466 456.059 208.857 216.062 405.967 377.652C603.078 539.243 543.467 474.25 714.413 435.611C885.358 396.972 827.11 435.611 1049.63 435.611C1151.39 435.611 1274.65 346.034 1274.65 346.034" stroke="#FF7D05" stroke-linecap="round"/>
<path d="M-36.354 519.279C-134.051 534.457 -77.9935 527.859 -77.9935 527.859V607.921H1272.13V345.193C1272.13 345.193 1148.86 434.77 1047.11 434.77C818.279 434.77 877.789 396.131 706.843 434.77C535.898 473.409 600.556 538.402 403.445 376.811C206.334 215.221 94.8331 498.897 -36.354 519.279Z" fill="url(#paint2_linear_1_3325)" fill-opacity="0.1"/>
</g>
<g clip-path="url(#clip1_1_3325)">
<g opacity="0.6">
<path d="M-146.842 507.137C-146.842 507.137 -29.4585 387.073 68.6775 371.895C200.455 351.513 138.765 194.499 336.762 356.09C534.759 517.68 472.346 338.311 644.06 299.672C815.774 261.033 867.675 609.007 983.32 414.048C1035.56 325.982 1209.35 324.471 1209.35 324.471" stroke="#1465DF" stroke-linecap="round"/>
<path d="M66.1433 371.055C-31.9927 386.233 -149.376 506.297 -149.376 506.297V586.36H1206.82V323.631C1206.82 323.631 1033.02 325.142 980.785 413.209C865.141 608.167 808.17 258.49 636.456 297.129C464.742 335.769 532.225 516.84 334.228 355.25C136.231 193.659 197.92 350.673 66.1433 371.055Z" fill="url(#paint3_linear_1_3325)" fill-opacity="0.1"/>
<path d="M-146.835 603.774C-146.835 603.774 -5.35419 402.586 69.2011 468.532C211.449 594.353 139.457 291.136 337.929 452.726C536.401 614.317 478.92 528.81 651.046 490.171C823.172 451.532 803.507 544.803 986.037 510.685C1086.75 491.86 1212.61 421.108 1212.61 421.108" stroke="#25C63A" stroke-linecap="round"/>
<path d="M66.6601 467.694C-10.2257 404.481 -149.376 602.936 -149.376 602.936V682.999H1210.07V420.27C1210.07 420.27 1085.56 500.913 983.496 509.847C743.793 530.829 810.467 448.992 638.341 487.631C466.214 526.27 533.86 613.479 335.388 451.888C136.916 290.298 211.449 586.734 66.6601 467.694Z" fill="url(#paint4_linear_1_3325)" fill-opacity="0.1"/>
<path d="M-148.565 564.88C-148.565 564.88 -141.86 558.908 -77.9053 531.844C44.4661 480.059 145.857 240.062 342.967 401.652C540.078 563.243 480.467 498.25 651.413 459.611C822.358 420.972 764.11 459.611 986.63 459.611C1088.39 459.611 1211.65 370.034 1211.65 370.034" stroke="#FF7D05" stroke-linecap="round"/>
<path d="M-99.354 543.279C-197.051 558.457 -140.994 551.859 -140.994 551.859V631.921H1209.13V369.193C1209.13 369.193 1085.86 458.77 984.108 458.77C755.279 458.77 814.789 420.131 643.843 458.77C472.898 497.409 537.556 562.402 340.445 400.811C143.334 239.221 31.8331 522.897 -99.354 543.279Z" fill="url(#paint5_linear_1_3325)" fill-opacity="0.1"/>
</g>
<rect x="44" y="395" width="57" height="334" fill="#3366CC"/>
<rect x="156" y="491" width="57" height="238" fill="#3366CC"/>
<rect x="268" y="347" width="57" height="382" fill="#3366CC"/>
</g>
<g filter="url(#filter0_d_1_3325)">
<rect x="-13" y="27" width="400" height="100" rx="16" fill="white"/>
<circle cx="43" cy="77" r="32" fill="#F9FAFB"/>
<g clip-path="url(#clip2_1_3325)">
<path d="M29.9629 77.001C29.9629 77.001 34.7036 67.5195 42.9999 67.5195C51.2962 67.5195 56.037 77.001 56.037 77.001C56.037 77.001 51.2962 86.4825 42.9999 86.4825C34.7036 86.4825 29.9629 77.001 29.9629 77.001Z" stroke="#3366CC" stroke-width="2" stroke-linecap="round" stroke-linejoin="round"/>
<path d="M42.9999 80.5564C44.9636 80.5564 46.5554 78.9645 46.5554 77.0009C46.5554 75.0372 44.9636 73.4453 42.9999 73.4453C41.0362 73.4453 39.4443 75.0372 39.4443 77.0009C39.4443 78.9645 41.0362 80.5564 42.9999 80.5564Z" stroke="#3366CC" stroke-width="2" stroke-linecap="round" stroke-linejoin="round"/>
</g>
<path d="M96.144 62H94.032V50.2H97.824C98.7307 50.2 99.496 50.3733 100.12 50.72C100.749 51.0613 101.227 51.528 101.552 52.12C101.883 52.7067 102.048 53.3627 102.048 54.088C102.048 54.8187 101.883 55.488 101.552 56.096C101.221 56.704 100.739 57.192 100.104 57.56C99.4747 57.9227 98.7147 58.104 97.824 58.104H96.144V62ZM96.144 57.432L95.192 56.432H97.592C98.0827 56.432 98.5013 56.3387 98.848 56.152C99.1947 55.96 99.4587 55.6907 99.64 55.344C99.8267 54.992 99.92 54.5733 99.92 54.088C99.92 53.6027 99.8293 53.1973 99.648 52.872C99.472 52.5413 99.2107 52.2933 98.864 52.128C98.5173 51.9627 98.0933 51.88 97.592 51.88H95.192L96.144 50.832V57.432ZM105.898 62.176C105.263 62.176 104.706 62.0773 104.226 61.88C103.746 61.6773 103.37 61.3867 103.098 61.008C102.826 60.6293 102.69 60.1733 102.69 59.64C102.69 59.0587 102.847 58.5813 103.162 58.208C103.482 57.8293 103.911 57.5387 104.45 57.336C104.989 57.128 105.586 56.9947 106.242 56.936C107.213 56.84 107.89 56.7493 108.274 56.664C108.663 56.5733 108.858 56.4293 108.858 56.232C108.858 56.2267 108.858 56.224 108.858 56.224C108.858 56.2187 108.858 56.216 108.858 56.216C108.858 55.8427 108.69 55.5547 108.354 55.352C108.018 55.1493 107.543 55.048 106.93 55.048C106.285 55.048 105.789 55.1627 105.442 55.392C105.101 55.616 104.93 55.9733 104.93 56.464H102.85C102.85 55.7973 103.026 55.2347 103.378 54.776C103.735 54.312 104.223 53.96 104.842 53.72C105.461 53.48 106.162 53.36 106.946 53.36C107.677 53.36 108.346 53.4693 108.954 53.688C109.562 53.9067 110.05 54.2373 110.418 54.68C110.786 55.1227 110.97 55.6747 110.97 56.336C110.97 56.448 110.97 56.56 110.97 56.672C110.97 56.784 110.97 56.896 110.97 57.008V60.208C110.97 60.4107 110.975 60.6107 110.986 60.808C111.002 61 111.031 61.1733 111.074 61.328C111.127 61.4987 111.191 61.6427 111.266 61.76C111.341 61.8773 111.399 61.9573 111.442 62H109.362C109.325 61.9627 109.271 61.8907 109.202 61.784C109.138 61.672 109.079 61.544 109.026 61.4C108.973 61.24 108.933 61.0693 108.906 60.888C108.879 60.7013 108.866 60.496 108.866 60.272L109.282 60.56C109.122 60.8853 108.877 61.1707 108.546 61.416C108.221 61.656 107.831 61.8427 107.378 61.976C106.925 62.1093 106.431 62.176 105.898 62.176ZM106.41 60.52C106.847 60.52 107.253 60.4453 107.626 60.296C107.999 60.1467 108.301 59.9173 108.53 59.608C108.759 59.2933 108.874 58.8907 108.874 58.4V57.264L109.386 57.84C109.045 57.968 108.634 58.0747 108.154 58.16C107.674 58.24 107.189 58.304 106.698 58.352C106.069 58.4107 105.594 58.52 105.274 58.68C104.959 58.84 104.802 59.1013 104.802 59.464C104.802 59.816 104.935 60.08 105.202 60.256C105.469 60.432 105.871 60.52 106.41 60.52ZM118.316 61.16C118.817 61.208 119.257 61.3013 119.636 61.44C120.014 61.5787 120.31 61.784 120.524 62.056C120.737 62.3333 120.844 62.7013 120.844 63.16C120.844 63.672 120.67 64.1147 120.324 64.488C119.977 64.8613 119.468 65.1493 118.796 65.352C118.129 65.5547 117.308 65.656 116.332 65.656C114.913 65.656 113.822 65.4507 113.06 65.04C112.297 64.6347 111.916 64.0827 111.916 63.384C111.916 63.1867 111.94 63.008 111.988 62.848C112.036 62.688 112.094 62.5547 112.164 62.448L114.092 62.728C114.06 62.7707 114.028 62.8373 113.996 62.928C113.964 63.024 113.948 63.1387 113.948 63.272C113.948 63.6027 114.169 63.84 114.612 63.984C115.06 64.1333 115.654 64.208 116.396 64.208C116.94 64.208 117.393 64.1707 117.756 64.096C118.124 64.0213 118.401 63.9147 118.588 63.776C118.78 63.6373 118.876 63.4747 118.876 63.288C118.876 63.0107 118.75 62.832 118.5 62.752C118.249 62.672 117.95 62.6187 117.604 62.592L114.38 62.296C113.804 62.2373 113.329 62.0667 112.956 61.784C112.588 61.5013 112.404 61.128 112.404 60.664C112.404 60.3813 112.478 60.12 112.628 59.88C112.782 59.64 112.958 59.44 113.156 59.28C113.353 59.1147 113.521 59.0133 113.66 58.976L114.86 59.568C114.748 59.584 114.614 59.656 114.46 59.784C114.31 59.912 114.236 60.064 114.236 60.24C114.236 60.4053 114.31 60.544 114.46 60.656C114.609 60.7627 114.897 60.8373 115.324 60.88L118.316 61.16ZM119.268 53.504H121.156L120.388 56.8C120.244 57.4187 120.012 57.9733 119.692 58.464C119.372 58.9547 118.945 59.3413 118.412 59.624C117.878 59.9067 117.206 60.048 116.396 60.048C115.553 60.048 114.825 59.912 114.212 59.64C113.604 59.3627 113.134 58.976 112.804 58.48C112.473 57.9787 112.308 57.4027 112.308 56.752C112.308 56.0853 112.476 55.4987 112.812 54.992C113.153 54.48 113.62 54.08 114.212 53.792C114.809 53.504 115.484 53.36 116.236 53.36C116.844 53.36 117.39 53.4613 117.876 53.664C118.361 53.8613 118.748 54.12 119.036 54.44C119.329 54.76 119.486 55.1013 119.508 55.464L119.036 55.552L119.268 53.504ZM116.388 58.424C116.798 58.424 117.153 58.3573 117.452 58.224C117.75 58.0907 117.982 57.8987 118.148 57.648C118.313 57.392 118.396 57.0827 118.396 56.72C118.396 56.3627 118.313 56.056 118.148 55.8C117.982 55.544 117.75 55.3493 117.452 55.216C117.153 55.0773 116.801 55.008 116.396 55.008C116.001 55.008 115.652 55.0773 115.348 55.216C115.044 55.3547 114.804 55.5547 114.628 55.816C114.457 56.072 114.372 56.3787 114.372 56.736C114.372 57.0933 114.454 57.4 114.62 57.656C114.79 57.9067 115.025 58.0987 115.324 58.232C115.628 58.36 115.982 58.424 116.388 58.424ZM122.693 58.432V56.936H128.637L128.397 57.336C128.397 57.304 128.397 57.2693 128.397 57.232C128.397 57.1893 128.397 57.1547 128.397 57.128C128.397 56.76 128.314 56.416 128.149 56.096C127.983 55.7707 127.733 55.5093 127.397 55.312C127.061 55.1093 126.634 55.008 126.117 55.008C125.605 55.008 125.159 55.1173 124.781 55.336C124.407 55.5493 124.117 55.8587 123.909 56.264C123.706 56.6693 123.605 57.1547 123.605 57.72C123.605 58.3013 123.703 58.8027 123.901 59.224C124.098 59.64 124.386 59.96 124.765 60.184C125.149 60.4027 125.615 60.512 126.165 60.512C126.538 60.512 126.861 60.4773 127.133 60.408C127.405 60.3387 127.626 60.2453 127.797 60.128C127.973 60.0053 128.103 59.8747 128.189 59.736C128.279 59.5973 128.333 59.4587 128.349 59.32H130.445C130.413 59.6773 130.293 60.0267 130.085 60.368C129.882 60.704 129.597 61.0107 129.229 61.288C128.861 61.56 128.413 61.7787 127.885 61.944C127.362 62.104 126.765 62.184 126.093 62.184C125.181 62.184 124.383 61.9973 123.701 61.624C123.018 61.2507 122.485 60.7307 122.101 60.064C121.722 59.3973 121.533 58.6347 121.533 57.776C121.533 56.896 121.725 56.1253 122.109 55.464C122.498 54.8027 123.037 54.288 123.725 53.92C124.413 53.5467 125.202 53.36 126.093 53.36C127.01 53.36 127.802 53.5467 128.469 53.92C129.141 54.2933 129.658 54.8133 130.021 55.48C130.383 56.1413 130.565 56.912 130.565 57.792C130.565 57.904 130.562 58.024 130.557 58.152C130.551 58.28 130.543 58.3733 130.533 58.432H122.693ZM135.411 62.176C134.904 62.176 134.422 62.12 133.963 62.008C133.51 61.896 133.104 61.728 132.747 61.504C132.395 61.28 132.115 61.0027 131.907 60.672C131.704 60.336 131.603 59.9493 131.603 59.512C131.603 59.48 131.603 59.448 131.603 59.416C131.603 59.384 131.603 59.3547 131.603 59.328H133.699C133.699 59.3547 133.699 59.3787 133.699 59.4C133.699 59.416 133.699 59.44 133.699 59.472C133.699 59.8187 133.856 60.08 134.171 60.256C134.491 60.4267 134.926 60.512 135.475 60.512C135.774 60.512 136.054 60.48 136.315 60.416C136.582 60.352 136.795 60.2533 136.955 60.12C137.12 59.9867 137.203 59.816 137.203 59.608C137.203 59.272 137.03 59.032 136.683 58.888C136.342 58.744 135.803 58.6133 135.067 58.496C134.662 58.4267 134.262 58.3333 133.867 58.216C133.472 58.0987 133.112 57.9413 132.787 57.744C132.467 57.5467 132.208 57.3013 132.011 57.008C131.819 56.7147 131.723 56.3573 131.723 55.936C131.723 55.376 131.888 54.9067 132.219 54.528C132.555 54.144 133.003 53.8533 133.563 53.656C134.128 53.4587 134.75 53.36 135.427 53.36C136.078 53.36 136.683 53.4667 137.243 53.68C137.803 53.8933 138.254 54.2 138.595 54.6C138.942 55 139.115 55.4827 139.115 56.048C139.115 56.0693 139.115 56.0933 139.115 56.12C139.115 56.1413 139.115 56.16 139.115 56.176H137.035C137.035 56.16 137.035 56.144 137.035 56.128C137.035 56.112 137.035 56.0933 137.035 56.072C137.035 55.8267 136.958 55.6267 136.803 55.472C136.648 55.3173 136.448 55.2027 136.203 55.128C135.958 55.0533 135.699 55.016 135.427 55.016C135.187 55.016 134.939 55.0427 134.683 55.096C134.427 55.144 134.214 55.232 134.043 55.36C133.872 55.4827 133.787 55.656 133.787 55.88C133.787 56.0933 133.875 56.2667 134.051 56.4C134.227 56.5333 134.472 56.6453 134.787 56.736C135.102 56.8213 135.464 56.8987 135.875 56.968C136.264 57.032 136.656 57.12 137.051 57.232C137.451 57.344 137.816 57.4933 138.147 57.68C138.478 57.8667 138.744 58.112 138.947 58.416C139.155 58.7147 139.259 59.0853 139.259 59.528C139.259 59.9973 139.152 60.3973 138.939 60.728C138.726 61.0587 138.435 61.3333 138.067 61.552C137.704 61.7653 137.294 61.9227 136.835 62.024C136.376 62.1253 135.902 62.176 135.411 62.176ZM146.811 62.04L143.803 50.2H146.131L148.435 60.656H148.331L150.611 50.2H152.939L149.955 62.04H146.811ZM154.135 62V53.504H156.215V62H154.135ZM155.183 51.936C154.842 51.936 154.543 51.8453 154.287 51.664C154.037 51.4773 153.911 51.2187 153.911 50.888C153.911 50.5627 154.037 50.3093 154.287 50.128C154.543 49.9467 154.842 49.856 155.183 49.856C155.519 49.856 155.813 49.9467 156.063 50.128C156.314 50.3093 156.439 50.5627 156.439 50.888C156.439 51.2187 156.314 51.4773 156.063 51.664C155.813 51.8453 155.519 51.936 155.183 51.936ZM158.764 58.432V56.936H164.708L164.468 57.336C164.468 57.304 164.468 57.2693 164.468 57.232C164.468 57.1893 164.468 57.1547 164.468 57.128C164.468 56.76 164.386 56.416 164.22 56.096C164.055 55.7707 163.804 55.5093 163.468 55.312C163.132 55.1093 162.706 55.008 162.188 55.008C161.676 55.008 161.231 55.1173 160.852 55.336C160.479 55.5493 160.188 55.8587 159.98 56.264C159.778 56.6693 159.676 57.1547 159.676 57.72C159.676 58.3013 159.775 58.8027 159.972 59.224C160.17 59.64 160.458 59.96 160.836 60.184C161.22 60.4027 161.687 60.512 162.236 60.512C162.61 60.512 162.932 60.4773 163.204 60.408C163.476 60.3387 163.698 60.2453 163.868 60.128C164.044 60.0053 164.175 59.8747 164.26 59.736C164.351 59.5973 164.404 59.4587 164.42 59.32H166.516C166.484 59.6773 166.364 60.0267 166.156 60.368C165.954 60.704 165.668 61.0107 165.3 61.288C164.932 61.56 164.484 61.7787 163.956 61.944C163.434 62.104 162.836 62.184 162.164 62.184C161.252 62.184 160.455 61.9973 159.772 61.624C159.09 61.2507 158.556 60.7307 158.172 60.064C157.794 59.3973 157.604 58.6347 157.604 57.776C157.604 56.896 157.796 56.1253 158.18 55.464C158.57 54.8027 159.108 54.288 159.796 53.92C160.484 53.5467 161.274 53.36 162.164 53.36C163.082 53.36 163.874 53.5467 164.54 53.92C165.212 54.2933 165.73 54.8133 166.092 55.48C166.455 56.1413 166.636 56.912 166.636 57.792C166.636 57.904 166.634 58.024 166.628 58.152C166.623 58.28 166.615 58.3733 166.604 58.432H158.764ZM174.712 62L172.736 53.504H174.344L176.272 61.336H175.928L177.16 53.504H179.344L177.6 62H174.712ZM168.856 62L167.104 53.504H169.288L170.528 61.336H170.184L172.096 53.504H173.704L171.76 62H168.856ZM181.078 58.432V56.936H187.022L186.782 57.336C186.782 57.304 186.782 57.2693 186.782 57.232C186.782 57.1893 186.782 57.1547 186.782 57.128C186.782 56.76 186.699 56.416 186.534 56.096C186.368 55.7707 186.118 55.5093 185.782 55.312C185.446 55.1093 185.019 55.008 184.502 55.008C183.99 55.008 183.544 55.1173 183.166 55.336C182.792 55.5493 182.502 55.8587 182.294 56.264C182.091 56.6693 181.99 57.1547 181.99 57.72C181.99 58.3013 182.088 58.8027 182.286 59.224C182.483 59.64 182.771 59.96 183.15 60.184C183.534 60.4027 184 60.512 184.55 60.512C184.923 60.512 185.246 60.4773 185.518 60.408C185.79 60.3387 186.011 60.2453 186.182 60.128C186.358 60.0053 186.488 59.8747 186.574 59.736C186.664 59.5973 186.718 59.4587 186.734 59.32H188.83C188.798 59.6773 188.678 60.0267 188.47 60.368C188.267 60.704 187.982 61.0107 187.614 61.288C187.246 61.56 186.798 61.7787 186.27 61.944C185.747 62.104 185.15 62.184 184.478 62.184C183.566 62.184 182.768 61.9973 182.086 61.624C181.403 61.2507 180.87 60.7307 180.486 60.064C180.107 59.3973 179.918 58.6347 179.918 57.776C179.918 56.896 180.11 56.1253 180.494 55.464C180.883 54.8027 181.422 54.288 182.11 53.92C182.798 53.5467 183.587 53.36 184.478 53.36C185.395 53.36 186.187 53.5467 186.854 53.92C187.526 54.2933 188.043 54.8133 188.406 55.48C188.768 56.1413 188.95 56.912 188.95 57.792C188.95 57.904 188.947 58.024 188.942 58.152C188.936 58.28 188.928 58.3733 188.918 58.432H181.078ZM193.892 62.176C193.193 62.176 192.545 62.008 191.948 61.672C191.356 61.3307 190.881 60.8293 190.524 60.168C190.167 59.5067 189.988 58.6933 189.988 57.728C189.988 56.7893 190.169 55.9947 190.532 55.344C190.9 54.6933 191.38 54.2 191.972 53.864C192.569 53.528 193.209 53.36 193.892 53.36C194.559 53.36 195.175 53.5253 195.74 53.856C196.305 54.1813 196.759 54.6347 197.1 55.216C197.441 55.7973 197.612 56.464 197.612 57.216C197.612 57.2373 197.612 57.2587 197.612 57.28C197.612 57.3013 197.612 57.3227 197.612 57.344L196.572 57.368C196.572 57.352 196.572 57.336 196.572 57.32C196.572 57.2987 196.572 57.28 196.572 57.264C196.572 56.8427 196.465 56.4747 196.252 56.16C196.044 55.8453 195.772 55.6 195.436 55.424C195.105 55.2427 194.753 55.152 194.38 55.152C193.767 55.152 193.244 55.36 192.812 55.776C192.38 56.1867 192.164 56.8373 192.164 57.728C192.164 58.6133 192.38 59.2667 192.812 59.688C193.244 60.1093 193.767 60.32 194.38 60.32C194.769 60.32 195.129 60.2267 195.46 60.04C195.791 59.8533 196.057 59.5973 196.26 59.272C196.468 58.9413 196.572 58.5627 196.572 58.136L197.612 58.184C197.612 58.9307 197.444 59.608 197.108 60.216C196.777 60.8187 196.332 61.296 195.772 61.648C195.212 62 194.585 62.176 193.892 62.176ZM196.572 62V49.496H198.684V62H196.572Z" fill="#3366CC"/>
<path d="M107.896 84.626H99.72L98.978 90.016C99.006 89.9227 99.104 89.7967 99.272 89.638C99.44 89.4793 99.6733 89.3207 99.972 89.162C100.28 88.994 100.658 88.8587 101.106 88.756C101.563 88.644 102.091 88.588 102.688 88.588C104.555 88.588 105.973 89.1947 106.944 90.408C107.924 91.612 108.414 93.1893 108.414 95.14C108.414 96.6987 108.143 98.0147 107.602 99.088C107.07 100.161 106.281 100.973 105.236 101.524C104.191 102.065 102.889 102.336 101.33 102.336C100.061 102.336 98.9827 102.149 98.096 101.776C97.2187 101.393 96.5047 100.889 95.954 100.264C95.4127 99.6293 95.016 98.9293 94.764 98.164C94.512 97.3893 94.386 96.6053 94.386 95.812C94.386 95.7933 94.386 95.784 94.386 95.784C94.386 95.7747 94.386 95.7653 94.386 95.756H98.684C98.684 95.7653 98.684 95.7747 98.684 95.784C98.684 95.784 98.684 95.7933 98.684 95.812C98.7307 96.8107 98.964 97.5853 99.384 98.136C99.8133 98.6867 100.485 98.962 101.4 98.962C101.988 98.962 102.478 98.8267 102.87 98.556C103.271 98.2853 103.57 97.8747 103.766 97.324C103.962 96.764 104.06 96.0687 104.06 95.238C104.06 94.118 103.864 93.25 103.472 92.634C103.08 92.0087 102.45 91.696 101.582 91.696C101.069 91.696 100.616 91.794 100.224 91.99C99.8413 92.186 99.524 92.4287 99.272 92.718C99.0293 93.0073 98.8567 93.292 98.754 93.572L94.624 92.494L96.234 81.35H107.896V84.626ZM117.831 102.336C116.515 102.336 115.395 102.051 114.471 101.482C113.556 100.913 112.809 100.138 112.231 99.158C111.661 98.1687 111.246 97.0347 110.985 95.756C110.723 94.4773 110.593 93.1333 110.593 91.724C110.593 90.3147 110.723 88.9707 110.985 87.692C111.246 86.404 111.661 85.2607 112.231 84.262C112.809 83.2633 113.556 82.4793 114.471 81.91C115.395 81.3313 116.515 81.042 117.831 81.042C119.147 81.042 120.262 81.3313 121.177 81.91C122.101 82.4793 122.847 83.2633 123.417 84.262C123.995 85.2607 124.415 86.404 124.677 87.692C124.938 88.9707 125.069 90.3147 125.069 91.724C125.069 93.1333 124.938 94.4773 124.677 95.756C124.415 97.0347 123.995 98.1687 123.417 99.158C122.847 100.138 122.101 100.913 121.177 101.482C120.262 102.051 119.147 102.336 117.831 102.336ZM117.831 98.962C118.456 98.962 118.979 98.724 119.399 98.248C119.828 97.7627 120.15 96.988 120.365 95.924C120.579 94.86 120.687 93.46 120.687 91.724C120.687 89.9787 120.579 88.5787 120.365 87.524C120.15 86.46 119.828 85.6853 119.399 85.2C118.979 84.7147 118.456 84.472 117.831 84.472C117.215 84.472 116.692 84.7147 116.263 85.2C115.833 85.6853 115.511 86.46 115.297 87.524C115.082 88.5787 114.975 89.9787 114.975 91.724C114.975 93.4693 115.082 94.874 115.297 95.938C115.511 96.9927 115.833 97.7627 116.263 98.248C116.692 98.724 117.215 98.962 117.831 98.962ZM135.546 81.322V102H131.234V85.382C131.112 85.4753 130.851 85.5967 130.45 85.746C130.058 85.886 129.586 86.0213 129.036 86.152C128.485 86.2827 127.916 86.3713 127.328 86.418V83.002C127.916 82.9273 128.49 82.8013 129.05 82.624C129.61 82.4373 130.09 82.2273 130.492 81.994C130.902 81.7607 131.173 81.5367 131.304 81.322H135.546ZM147.281 91.976L147.407 88.658L155.667 102H150.907L144.985 91.99L146.931 92.242L143.543 96.792L143.921 94.062V102H139.567V81.35H143.921V92.074L143.109 91.626L150.655 81.35H155.247L147.281 91.976Z" fill="#0A1429"/>
</g>
<g opacity="0.7">
<rect x="6" y="139" width="362" height="100" rx="16" fill="white"/>
<circle cx="62" cy="189" r="32" fill="#F9FAFB"/>
<g clip-path="url(#clip3_1_3325)">
<path d="M70.1508 183.249C69.8121 183.321 69.5018 183.453 69.2276 183.632C68.6618 182.594 67.4619 182.002 66.2481 182.26C65.899 182.334 65.58 182.473 65.2996 182.66C64.7167 181.672 63.5481 181.117 62.3661 181.369C62.0692 181.432 61.7942 181.542 61.5461 181.688L60.9422 178.847C60.6277 177.367 59.168 176.419 57.6884 176.734C56.2087 177.048 55.2607 178.508 55.5753 179.988L58.0424 191.595L56.6637 190.262L56.6329 190.237C55.3344 189.178 53.4671 189.279 52.2896 190.47C51.6739 191.093 51.3424 191.919 51.3564 192.795C51.3703 193.664 51.7228 194.473 52.3497 195.075L58.5857 201.445L58.61 201.469C60.1874 202.967 62.3993 203.591 64.5269 203.139L69.7693 202.025C73.5558 201.22 75.9815 197.485 75.1767 193.698L73.4047 185.362C73.0902 183.882 71.6305 182.934 70.1508 183.249ZM73.3426 194.088C73.9325 196.863 72.1546 199.601 69.3794 200.191L64.1371 201.305C62.6192 201.628 61.0415 201.185 59.9131 200.121L53.6786 193.753L53.6543 193.728C53.3874 193.475 53.2372 193.133 53.2313 192.765C53.2255 192.397 53.3647 192.05 53.6235 191.788C54.1101 191.296 54.877 191.247 55.4213 191.668L61.1531 197.21L57.4095 179.598C57.3099 179.129 57.61 178.667 58.0784 178.568C58.5468 178.468 59.0088 178.768 59.1084 179.237L61.0562 188.4L62.8902 188.011L62.0872 184.233C61.9877 183.764 62.2877 183.302 62.7561 183.203C63.2245 183.103 63.6866 183.403 63.7861 183.871L64.5892 187.649L66.4232 187.26L65.9692 185.124C65.8697 184.656 66.1697 184.193 66.6381 184.094C67.1065 183.994 67.5686 184.294 67.6681 184.763L68.1221 186.899L69.9561 186.509L69.8873 186.185L69.8719 186.113C69.7724 185.644 70.0724 185.182 70.5408 185.082C71.0092 184.983 71.4713 185.283 71.5708 185.751L73.3428 194.088L73.3426 194.088Z" fill="url(#paint6_linear_1_3325)"/>
<path d="M57.5664 171.903L55.7324 172.293L56.2717 174.83L58.1057 174.44L57.5664 171.903Z" fill="url(#paint7_linear_1_3325)"/>
<path d="M60.6825 172.373L59.3721 174.611L60.9902 175.559L62.3006 173.32L60.6825 172.373Z" fill="url(#paint8_linear_1_3325)"/>
<path d="M64.2858 175.763L61.8096 176.535L62.3676 178.325L64.8438 177.553L64.2858 175.763Z" fill="url(#paint9_linear_1_3325)"/>
<path d="M53.0216 174L51.9287 175.523L54.0363 177.035L55.1292 175.512L53.0216 174Z" fill="url(#paint10_linear_1_3325)"/>
<path d="M51.1098 178.565L51.3281 180.428L53.9042 180.126L53.6859 178.263L51.1098 178.565Z" fill="url(#paint11_linear_1_3325)"/>
</g>
<path d="M104.032 174V162.2H108.576C109.765 162.2 110.659 162.472 111.256 163.016C111.853 163.56 112.152 164.36 112.152 165.416C112.152 166.035 112.035 166.56 111.8 166.992C111.565 167.424 111.28 167.757 110.944 167.992C110.608 168.227 110.288 168.36 109.984 168.392C110.293 168.413 110.592 168.493 110.88 168.632C111.168 168.771 111.403 168.989 111.584 169.288C111.771 169.581 111.864 169.979 111.864 170.48C111.864 170.88 111.864 171.28 111.864 171.68C111.864 172.075 111.864 172.472 111.864 172.872C111.864 173.123 111.885 173.355 111.928 173.568C111.971 173.776 112.024 173.92 112.088 174H109.968C109.915 173.904 109.867 173.757 109.824 173.56C109.787 173.357 109.768 173.128 109.768 172.872C109.768 172.509 109.768 172.155 109.768 171.808C109.768 171.456 109.768 171.096 109.768 170.728C109.768 170.243 109.632 169.875 109.36 169.624C109.088 169.373 108.677 169.248 108.128 169.248H105.528L106.088 168.536V174H104.032ZM106.088 168.36L105.528 167.568H108.144C108.491 167.568 108.803 167.488 109.08 167.328C109.357 167.163 109.576 166.933 109.736 166.64C109.901 166.347 109.984 166.003 109.984 165.608C109.984 165.032 109.819 164.6 109.488 164.312C109.157 164.024 108.688 163.88 108.08 163.88H105.472L106.088 163.136V168.36ZM114.395 170.432V168.936H120.339L120.099 169.336C120.099 169.304 120.099 169.269 120.099 169.232C120.099 169.189 120.099 169.155 120.099 169.128C120.099 168.76 120.016 168.416 119.851 168.096C119.686 167.771 119.435 167.509 119.099 167.312C118.763 167.109 118.336 167.008 117.819 167.008C117.307 167.008 116.862 167.117 116.483 167.336C116.11 167.549 115.819 167.859 115.611 168.264C115.408 168.669 115.307 169.155 115.307 169.72C115.307 170.301 115.406 170.803 115.603 171.224C115.8 171.64 116.088 171.96 116.467 172.184C116.851 172.403 117.318 172.512 117.867 172.512C118.24 172.512 118.563 172.477 118.835 172.408C119.107 172.339 119.328 172.245 119.499 172.128C119.675 172.005 119.806 171.875 119.891 171.736C119.982 171.597 120.035 171.459 120.051 171.32H122.147C122.115 171.677 121.995 172.027 121.787 172.368C121.584 172.704 121.299 173.011 120.931 173.288C120.563 173.56 120.115 173.779 119.587 173.944C119.064 174.104 118.467 174.184 117.795 174.184C116.883 174.184 116.086 173.997 115.403 173.624C114.72 173.251 114.187 172.731 113.803 172.064C113.424 171.397 113.235 170.635 113.235 169.776C113.235 168.896 113.427 168.125 113.811 167.464C114.2 166.803 114.739 166.288 115.427 165.92C116.115 165.547 116.904 165.36 117.795 165.36C118.712 165.36 119.504 165.547 120.171 165.92C120.843 166.293 121.36 166.813 121.723 167.48C122.086 168.141 122.267 168.912 122.267 169.792C122.267 169.904 122.264 170.024 122.259 170.152C122.254 170.28 122.246 170.373 122.235 170.432H114.395ZM124.651 174V167.184H122.851V165.504H124.651V164.744C124.651 164.248 124.718 163.813 124.851 163.44C124.984 163.061 125.166 162.741 125.395 162.48C125.624 162.219 125.886 162.008 126.179 161.848C126.478 161.683 126.795 161.563 127.131 161.488C127.472 161.413 127.811 161.376 128.147 161.376C128.467 161.376 128.71 161.395 128.875 161.432C129.046 161.469 129.16 161.501 129.219 161.528V163.224C129.155 163.203 129.043 163.179 128.883 163.152C128.728 163.12 128.56 163.104 128.379 163.104C128.054 163.104 127.784 163.152 127.571 163.248C127.358 163.339 127.192 163.467 127.075 163.632C126.958 163.797 126.875 163.989 126.827 164.208C126.779 164.421 126.755 164.656 126.755 164.912V165.504H129.107V167.184H126.755V174H124.651ZM130.583 170.432V168.936H136.527L136.287 169.336C136.287 169.304 136.287 169.269 136.287 169.232C136.287 169.189 136.287 169.155 136.287 169.128C136.287 168.76 136.204 168.416 136.039 168.096C135.874 167.771 135.623 167.509 135.287 167.312C134.951 167.109 134.524 167.008 134.007 167.008C133.495 167.008 133.05 167.117 132.671 167.336C132.298 167.549 132.007 167.859 131.799 168.264C131.596 168.669 131.495 169.155 131.495 169.72C131.495 170.301 131.594 170.803 131.791 171.224C131.988 171.64 132.276 171.96 132.655 172.184C133.039 172.403 133.506 172.512 134.055 172.512C134.428 172.512 134.751 172.477 135.023 172.408C135.295 172.339 135.516 172.245 135.687 172.128C135.863 172.005 135.994 171.875 136.079 171.736C136.17 171.597 136.223 171.459 136.239 171.32H138.335C138.303 171.677 138.183 172.027 137.975 172.368C137.772 172.704 137.487 173.011 137.119 173.288C136.751 173.56 136.303 173.779 135.775 173.944C135.252 174.104 134.655 174.184 133.983 174.184C133.071 174.184 132.274 173.997 131.591 173.624C130.908 173.251 130.375 172.731 129.991 172.064C129.612 171.397 129.423 170.635 129.423 169.776C129.423 168.896 129.615 168.125 129.999 167.464C130.388 166.803 130.927 166.288 131.615 165.92C132.303 165.547 133.092 165.36 133.983 165.36C134.9 165.36 135.692 165.547 136.359 165.92C137.031 166.293 137.548 166.813 137.911 167.48C138.274 168.141 138.455 168.912 138.455 169.792C138.455 169.904 138.452 170.024 138.447 170.152C138.442 170.28 138.434 170.373 138.423 170.432H130.583ZM139.87 174V165.504H141.974V168.328L141.486 168.056C141.539 167.688 141.638 167.341 141.782 167.016C141.926 166.685 142.118 166.397 142.358 166.152C142.598 165.901 142.888 165.707 143.23 165.568C143.571 165.429 143.96 165.36 144.398 165.36C144.744 165.36 145.016 165.387 145.214 165.44C145.416 165.488 145.542 165.528 145.59 165.56L145.206 167.488C145.152 167.451 145.043 167.405 144.878 167.352C144.718 167.293 144.502 167.264 144.23 167.264C143.798 167.264 143.435 167.339 143.142 167.488C142.854 167.632 142.624 167.829 142.454 168.08C142.283 168.325 142.16 168.597 142.086 168.896C142.011 169.189 141.974 169.483 141.974 169.776V174H139.87ZM146.597 174V165.504H148.701V168.328L148.213 168.056C148.266 167.688 148.365 167.341 148.509 167.016C148.653 166.685 148.845 166.397 149.085 166.152C149.325 165.901 149.615 165.707 149.957 165.568C150.298 165.429 150.687 165.36 151.125 165.36C151.471 165.36 151.743 165.387 151.941 165.44C152.143 165.488 152.269 165.528 152.317 165.56L151.933 167.488C151.879 167.451 151.77 167.405 151.605 167.352C151.445 167.293 151.229 167.264 150.957 167.264C150.525 167.264 150.162 167.339 149.869 167.488C149.581 167.632 149.351 167.829 149.181 168.08C149.01 168.325 148.887 168.597 148.813 168.896C148.738 169.189 148.701 169.483 148.701 169.776V174H146.597ZM156.079 174.176C155.445 174.176 154.887 174.077 154.407 173.88C153.927 173.677 153.551 173.387 153.279 173.008C153.007 172.629 152.871 172.173 152.871 171.64C152.871 171.059 153.029 170.581 153.343 170.208C153.663 169.829 154.093 169.539 154.631 169.336C155.17 169.128 155.767 168.995 156.423 168.936C157.394 168.84 158.071 168.749 158.455 168.664C158.845 168.573 159.039 168.429 159.039 168.232C159.039 168.227 159.039 168.224 159.039 168.224C159.039 168.219 159.039 168.216 159.039 168.216C159.039 167.843 158.871 167.555 158.535 167.352C158.199 167.149 157.725 167.048 157.111 167.048C156.466 167.048 155.97 167.163 155.623 167.392C155.282 167.616 155.111 167.973 155.111 168.464H153.031C153.031 167.797 153.207 167.235 153.559 166.776C153.917 166.312 154.405 165.96 155.023 165.72C155.642 165.48 156.343 165.36 157.127 165.36C157.858 165.36 158.527 165.469 159.135 165.688C159.743 165.907 160.231 166.237 160.599 166.68C160.967 167.123 161.151 167.675 161.151 168.336C161.151 168.448 161.151 168.56 161.151 168.672C161.151 168.784 161.151 168.896 161.151 169.008V172.208C161.151 172.411 161.157 172.611 161.167 172.808C161.183 173 161.213 173.173 161.255 173.328C161.309 173.499 161.373 173.643 161.447 173.76C161.522 173.877 161.581 173.957 161.623 174H159.543C159.506 173.963 159.453 173.891 159.383 173.784C159.319 173.672 159.261 173.544 159.207 173.4C159.154 173.24 159.114 173.069 159.087 172.888C159.061 172.701 159.047 172.496 159.047 172.272L159.463 172.56C159.303 172.885 159.058 173.171 158.727 173.416C158.402 173.656 158.013 173.843 157.559 173.976C157.106 174.109 156.613 174.176 156.079 174.176ZM156.591 172.52C157.029 172.52 157.434 172.445 157.807 172.296C158.181 172.147 158.482 171.917 158.711 171.608C158.941 171.293 159.055 170.891 159.055 170.4V169.264L159.567 169.84C159.226 169.968 158.815 170.075 158.335 170.16C157.855 170.24 157.37 170.304 156.879 170.352C156.25 170.411 155.775 170.52 155.455 170.68C155.141 170.84 154.983 171.101 154.983 171.464C154.983 171.816 155.117 172.08 155.383 172.256C155.65 172.432 156.053 172.52 156.591 172.52ZM164.977 161.496V174H162.905V161.496H164.977ZM170.24 174.176C169.734 174.176 169.251 174.12 168.792 174.008C168.339 173.896 167.934 173.728 167.576 173.504C167.224 173.28 166.944 173.003 166.736 172.672C166.534 172.336 166.432 171.949 166.432 171.512C166.432 171.48 166.432 171.448 166.432 171.416C166.432 171.384 166.432 171.355 166.432 171.328H168.528C168.528 171.355 168.528 171.379 168.528 171.4C168.528 171.416 168.528 171.44 168.528 171.472C168.528 171.819 168.686 172.08 169 172.256C169.32 172.427 169.755 172.512 170.304 172.512C170.603 172.512 170.883 172.48 171.144 172.416C171.411 172.352 171.624 172.253 171.784 172.12C171.95 171.987 172.032 171.816 172.032 171.608C172.032 171.272 171.859 171.032 171.512 170.888C171.171 170.744 170.632 170.613 169.896 170.496C169.491 170.427 169.091 170.333 168.696 170.216C168.302 170.099 167.942 169.941 167.616 169.744C167.296 169.547 167.038 169.301 166.84 169.008C166.648 168.715 166.552 168.357 166.552 167.936C166.552 167.376 166.718 166.907 167.048 166.528C167.384 166.144 167.832 165.853 168.392 165.656C168.958 165.459 169.579 165.36 170.256 165.36C170.907 165.36 171.512 165.467 172.072 165.68C172.632 165.893 173.083 166.2 173.424 166.6C173.771 167 173.944 167.483 173.944 168.048C173.944 168.069 173.944 168.093 173.944 168.12C173.944 168.141 173.944 168.16 173.944 168.176H171.864C171.864 168.16 171.864 168.144 171.864 168.128C171.864 168.112 171.864 168.093 171.864 168.072C171.864 167.827 171.787 167.627 171.632 167.472C171.478 167.317 171.278 167.203 171.032 167.128C170.787 167.053 170.528 167.016 170.256 167.016C170.016 167.016 169.768 167.043 169.512 167.096C169.256 167.144 169.043 167.232 168.872 167.36C168.702 167.483 168.616 167.656 168.616 167.88C168.616 168.093 168.704 168.267 168.88 168.4C169.056 168.533 169.302 168.645 169.616 168.736C169.931 168.821 170.294 168.899 170.704 168.968C171.094 169.032 171.486 169.12 171.88 169.232C172.28 169.344 172.646 169.493 172.976 169.68C173.307 169.867 173.574 170.112 173.776 170.416C173.984 170.715 174.088 171.085 174.088 171.528C174.088 171.997 173.982 172.397 173.768 172.728C173.555 173.059 173.264 173.333 172.896 173.552C172.534 173.765 172.123 173.923 171.664 174.024C171.206 174.125 170.731 174.176 170.24 174.176Z" fill="#3366CC"/>
<path d="M112.814 193.322V214H108.502V197.382C108.381 197.475 108.119 197.597 107.718 197.746C107.326 197.886 106.855 198.021 106.304 198.152C105.753 198.283 105.184 198.371 104.596 198.418V195.002C105.184 194.927 105.758 194.801 106.318 194.624C106.878 194.437 107.359 194.227 107.76 193.994C108.171 193.761 108.441 193.537 108.572 193.322H112.814ZM124.381 214V210.038H115.645V207.028L123.009 193.322H128.624V206.762H131.088V210.038H128.624V214H124.381ZM118.907 208.624L117.745 206.762H124.381V196.094L125.264 196.332L118.907 208.624ZM143.281 203.108C144.083 203.136 144.779 203.365 145.367 203.794C145.964 204.223 146.417 204.793 146.725 205.502C147.042 206.211 147.201 207.014 147.201 207.91C147.201 209.058 146.953 210.122 146.459 211.102C145.964 212.073 145.194 212.857 144.149 213.454C143.113 214.042 141.773 214.336 140.131 214.336C138.731 214.336 137.564 214.154 136.631 213.79C135.697 213.417 134.955 212.908 134.405 212.264C133.863 211.62 133.476 210.883 133.243 210.052C133.019 209.212 132.907 208.316 132.907 207.364C132.907 207.355 132.907 207.345 132.907 207.336C132.907 207.327 132.907 207.317 132.907 207.308H137.247C137.247 207.317 137.247 207.327 137.247 207.336C137.247 207.345 137.247 207.355 137.247 207.364C137.247 208.307 137.363 209.039 137.597 209.562C137.839 210.085 138.18 210.449 138.619 210.654C139.057 210.859 139.58 210.962 140.187 210.962C140.98 210.962 141.619 210.715 142.105 210.22C142.599 209.725 142.847 208.918 142.847 207.798C142.847 207.322 142.791 206.897 142.679 206.524C142.576 206.151 142.408 205.833 142.175 205.572C141.941 205.311 141.624 205.115 141.223 204.984C140.821 204.844 140.327 204.774 139.739 204.774H139.011V201.736H139.739C140.317 201.736 140.803 201.661 141.195 201.512C141.596 201.353 141.918 201.143 142.161 200.882C142.403 200.611 142.576 200.308 142.679 199.972C142.791 199.627 142.847 199.272 142.847 198.908C142.847 198.04 142.604 197.41 142.119 197.018C141.633 196.626 141.013 196.43 140.257 196.43C139.389 196.43 138.67 196.668 138.101 197.144C137.531 197.62 137.247 198.483 137.247 199.734H132.907C132.907 198.838 133.042 197.989 133.313 197.186C133.583 196.374 134.008 195.66 134.587 195.044C135.165 194.419 135.917 193.929 136.841 193.574C137.765 193.219 138.875 193.042 140.173 193.042C141.815 193.042 143.155 193.313 144.191 193.854C145.227 194.395 145.987 195.095 146.473 195.954C146.958 196.813 147.201 197.723 147.201 198.684C147.201 199.468 147.042 200.191 146.725 200.854C146.417 201.517 145.964 202.049 145.367 202.45C144.779 202.851 144.083 203.071 143.281 203.108ZM157.855 203.976L157.981 200.658L166.241 214H161.481L155.559 203.99L157.505 204.242L154.117 208.792L154.495 206.062V214H150.141V193.35H154.495V204.074L153.683 203.626L161.229 193.35H165.821L157.855 203.976Z" fill="#10AB61"/>
</g>
<g opacity="0.5">
<rect x="19.5" y="251" width="335" height="100" rx="12" fill="white"/>
<circle cx="75.5" cy="301" r="32" fill="#F9FAFB"/>
<path d="M90.6667 293L78 305.667L71.3334 299L61.3334 309" stroke="#3366CC" stroke-width="2" stroke-linecap="round" stroke-linejoin="round"/>
<path d="M82.6666 293H90.6666V301" stroke="#3366CC" stroke-width="2" stroke-linecap="round" stroke-linejoin="round"/>
<path d="M124.88 285.176C124.043 285.176 123.312 285.043 122.688 284.776C122.064 284.509 121.579 284.109 121.232 283.576C120.885 283.037 120.712 282.371 120.712 281.576C120.712 281.485 120.712 281.405 120.712 281.336C120.712 281.261 120.712 281.179 120.712 281.088H122.816C122.816 281.168 122.816 281.243 122.816 281.312C122.816 281.376 122.816 281.451 122.816 281.536C122.816 282.176 122.989 282.656 123.336 282.976C123.688 283.291 124.205 283.448 124.888 283.448C125.576 283.448 126.101 283.333 126.464 283.104C126.832 282.875 127.016 282.507 127.016 282C127.016 281.632 126.891 281.32 126.64 281.064C126.395 280.803 126.056 280.573 125.624 280.376C125.192 280.179 124.701 279.995 124.152 279.824C123.533 279.632 122.971 279.384 122.464 279.08C121.957 278.776 121.552 278.392 121.248 277.928C120.944 277.464 120.792 276.893 120.792 276.216C120.792 275.539 120.965 274.963 121.312 274.488C121.664 274.013 122.144 273.653 122.752 273.408C123.365 273.157 124.061 273.032 124.84 273.032C125.656 273.032 126.373 273.16 126.992 273.416C127.616 273.672 128.104 274.053 128.456 274.56C128.808 275.067 128.984 275.699 128.984 276.456C128.984 276.557 128.984 276.645 128.984 276.72C128.984 276.795 128.984 276.88 128.984 276.976H126.872C126.872 276.907 126.872 276.837 126.872 276.768C126.872 276.693 126.872 276.621 126.872 276.552C126.872 275.944 126.707 275.496 126.376 275.208C126.045 274.915 125.544 274.768 124.872 274.768C124.216 274.768 123.712 274.883 123.36 275.112C123.008 275.341 122.832 275.707 122.832 276.208C122.832 276.581 122.952 276.893 123.192 277.144C123.432 277.395 123.76 277.613 124.176 277.8C124.597 277.981 125.075 278.165 125.608 278.352C126.317 278.587 126.931 278.853 127.448 279.152C127.965 279.445 128.365 279.813 128.648 280.256C128.931 280.693 129.072 281.251 129.072 281.928C129.072 282.621 128.896 283.211 128.544 283.696C128.197 284.176 127.709 284.544 127.08 284.8C126.456 285.051 125.723 285.176 124.88 285.176ZM130.477 285V276.504H132.557V285H130.477ZM131.525 274.936C131.184 274.936 130.885 274.845 130.629 274.664C130.379 274.477 130.253 274.219 130.253 273.888C130.253 273.563 130.379 273.309 130.629 273.128C130.885 272.947 131.184 272.856 131.525 272.856C131.861 272.856 132.155 272.947 132.405 273.128C132.656 273.309 132.781 273.563 132.781 273.888C132.781 274.219 132.656 274.477 132.405 274.664C132.155 274.845 131.861 274.936 131.525 274.936ZM138.226 285.16C137.922 285.16 137.613 285.131 137.298 285.072C136.984 285.013 136.696 284.904 136.434 284.744C136.173 284.584 135.962 284.349 135.802 284.04C135.642 283.731 135.562 283.323 135.562 282.816C135.562 282.699 135.562 282.581 135.562 282.464C135.562 282.341 135.562 282.216 135.562 282.088V278.184H133.554V276.504H134.37C134.648 276.504 134.866 276.493 135.026 276.472C135.186 276.445 135.304 276.387 135.378 276.296C135.453 276.205 135.501 276.064 135.522 275.872C135.549 275.675 135.562 275.403 135.562 275.056V273.704H137.674V276.504H140.202V278.184H137.674V281.592C137.674 281.693 137.674 281.795 137.674 281.896C137.674 281.992 137.674 282.085 137.674 282.176C137.674 282.571 137.722 282.888 137.818 283.128C137.914 283.368 138.141 283.488 138.498 283.488C138.669 283.488 138.829 283.472 138.978 283.44C139.133 283.408 139.248 283.376 139.322 283.344V284.992C139.221 285.029 139.074 285.067 138.882 285.104C138.69 285.141 138.472 285.16 138.226 285.16ZM142.021 281.432V279.936H147.965L147.725 280.336C147.725 280.304 147.725 280.269 147.725 280.232C147.725 280.189 147.725 280.155 147.725 280.128C147.725 279.76 147.642 279.416 147.477 279.096C147.311 278.771 147.061 278.509 146.725 278.312C146.389 278.109 145.962 278.008 145.445 278.008C144.933 278.008 144.487 278.117 144.109 278.336C143.735 278.549 143.445 278.859 143.237 279.264C143.034 279.669 142.933 280.155 142.933 280.72C142.933 281.301 143.031 281.803 143.229 282.224C143.426 282.64 143.714 282.96 144.093 283.184C144.477 283.403 144.943 283.512 145.493 283.512C145.866 283.512 146.189 283.477 146.461 283.408C146.733 283.339 146.954 283.245 147.125 283.128C147.301 283.005 147.431 282.875 147.517 282.736C147.607 282.597 147.661 282.459 147.677 282.32H149.773C149.741 282.677 149.621 283.027 149.413 283.368C149.21 283.704 148.925 284.011 148.557 284.288C148.189 284.56 147.741 284.779 147.213 284.944C146.69 285.104 146.093 285.184 145.421 285.184C144.509 285.184 143.711 284.997 143.029 284.624C142.346 284.251 141.813 283.731 141.429 283.064C141.05 282.397 140.861 281.635 140.861 280.776C140.861 279.896 141.053 279.125 141.437 278.464C141.826 277.803 142.365 277.288 143.053 276.92C143.741 276.547 144.53 276.36 145.421 276.36C146.338 276.36 147.13 276.547 147.797 276.92C148.469 277.293 148.986 277.813 149.349 278.48C149.711 279.141 149.893 279.912 149.893 280.792C149.893 280.904 149.89 281.024 149.885 281.152C149.879 281.28 149.871 281.373 149.861 281.432H142.021ZM157.075 285H154.963V273.2H158.755C159.662 273.2 160.427 273.373 161.051 273.72C161.681 274.061 162.158 274.528 162.483 275.12C162.814 275.707 162.979 276.363 162.979 277.088C162.979 277.819 162.814 278.488 162.483 279.096C162.153 279.704 161.67 280.192 161.035 280.56C160.406 280.923 159.646 281.104 158.755 281.104H157.075V285ZM157.075 280.432L156.123 279.432H158.523C159.014 279.432 159.433 279.339 159.779 279.152C160.126 278.96 160.39 278.691 160.571 278.344C160.758 277.992 160.851 277.573 160.851 277.088C160.851 276.603 160.761 276.197 160.579 275.872C160.403 275.541 160.142 275.293 159.795 275.128C159.449 274.963 159.025 274.88 158.523 274.88H156.123L157.075 273.832V280.432ZM164.701 281.432V279.936H170.645L170.405 280.336C170.405 280.304 170.405 280.269 170.405 280.232C170.405 280.189 170.405 280.155 170.405 280.128C170.405 279.76 170.323 279.416 170.157 279.096C169.992 278.771 169.741 278.509 169.405 278.312C169.069 278.109 168.643 278.008 168.125 278.008C167.613 278.008 167.168 278.117 166.789 278.336C166.416 278.549 166.125 278.859 165.917 279.264C165.715 279.669 165.613 280.155 165.613 280.72C165.613 281.301 165.712 281.803 165.909 282.224C166.107 282.64 166.395 282.96 166.773 283.184C167.157 283.403 167.624 283.512 168.173 283.512C168.547 283.512 168.869 283.477 169.141 283.408C169.413 283.339 169.635 283.245 169.805 283.128C169.981 283.005 170.112 282.875 170.197 282.736C170.288 282.597 170.341 282.459 170.357 282.32H172.453C172.421 282.677 172.301 283.027 172.093 283.368C171.891 283.704 171.605 284.011 171.237 284.288C170.869 284.56 170.421 284.779 169.893 284.944C169.371 285.104 168.773 285.184 168.101 285.184C167.189 285.184 166.392 284.997 165.709 284.624C165.027 284.251 164.493 283.731 164.109 283.064C163.731 282.397 163.541 281.635 163.541 280.776C163.541 279.896 163.733 279.125 164.117 278.464C164.507 277.803 165.045 277.288 165.733 276.92C166.421 276.547 167.211 276.36 168.101 276.36C169.019 276.36 169.811 276.547 170.477 276.92C171.149 277.293 171.667 277.813 172.029 278.48C172.392 279.141 172.573 279.912 172.573 280.792C172.573 280.904 172.571 281.024 172.565 281.152C172.56 281.28 172.552 281.373 172.541 281.432H164.701ZM173.988 285V276.504H176.092V279.328L175.604 279.056C175.657 278.688 175.756 278.341 175.9 278.016C176.044 277.685 176.236 277.397 176.476 277.152C176.716 276.901 177.007 276.707 177.348 276.568C177.689 276.429 178.079 276.36 178.516 276.36C178.863 276.36 179.135 276.387 179.332 276.44C179.535 276.488 179.66 276.528 179.708 276.56L179.324 278.488C179.271 278.451 179.161 278.405 178.996 278.352C178.836 278.293 178.62 278.264 178.348 278.264C177.916 278.264 177.553 278.339 177.26 278.488C176.972 278.632 176.743 278.829 176.572 279.08C176.401 279.325 176.279 279.597 176.204 279.896C176.129 280.189 176.092 280.483 176.092 280.776V285H173.988ZM181.747 285V278.184H179.947V276.504H181.747V275.744C181.747 275.248 181.813 274.813 181.947 274.44C182.08 274.061 182.261 273.741 182.491 273.48C182.72 273.219 182.981 273.008 183.275 272.848C183.573 272.683 183.891 272.563 184.227 272.488C184.568 272.413 184.907 272.376 185.243 272.376C185.563 272.376 185.805 272.395 185.971 272.432C186.141 272.469 186.256 272.501 186.315 272.528V274.224C186.251 274.203 186.139 274.179 185.979 274.152C185.824 274.12 185.656 274.104 185.475 274.104C185.149 274.104 184.88 274.152 184.667 274.248C184.453 274.339 184.288 274.467 184.171 274.632C184.053 274.797 183.971 274.989 183.923 275.208C183.875 275.421 183.851 275.656 183.851 275.912V276.504H186.203V278.184H183.851V285H181.747ZM191.071 285.168C190.175 285.168 189.385 284.981 188.703 284.608C188.02 284.229 187.484 283.707 187.095 283.04C186.711 282.373 186.519 281.611 186.519 280.752C186.519 279.888 186.711 279.128 187.095 278.472C187.484 277.811 188.02 277.293 188.703 276.92C189.385 276.547 190.175 276.36 191.071 276.36C191.967 276.36 192.756 276.547 193.439 276.92C194.121 277.293 194.655 277.811 195.039 278.472C195.428 279.128 195.623 279.888 195.623 280.752C195.623 281.611 195.428 282.373 195.039 283.04C194.655 283.707 194.121 284.229 193.439 284.608C192.756 284.981 191.967 285.168 191.071 285.168ZM191.071 283.448C191.556 283.448 191.98 283.336 192.343 283.112C192.705 282.888 192.988 282.576 193.191 282.176C193.393 281.771 193.495 281.296 193.495 280.752C193.495 280.208 193.393 279.739 193.191 279.344C192.988 278.944 192.705 278.635 192.343 278.416C191.98 278.197 191.556 278.088 191.071 278.088C190.591 278.088 190.167 278.197 189.799 278.416C189.436 278.635 189.153 278.944 188.951 279.344C188.748 279.739 188.647 280.208 188.647 280.752C188.647 281.296 188.748 281.771 188.951 282.176C189.153 282.576 189.436 282.888 189.799 283.112C190.167 283.336 190.591 283.448 191.071 283.448ZM197.044 285V276.504H199.148V279.328L198.66 279.056C198.713 278.688 198.812 278.341 198.956 278.016C199.1 277.685 199.292 277.397 199.532 277.152C199.772 276.901 200.062 276.707 200.404 276.568C200.745 276.429 201.134 276.36 201.572 276.36C201.918 276.36 202.19 276.387 202.388 276.44C202.59 276.488 202.716 276.528 202.764 276.56L202.38 278.488C202.326 278.451 202.217 278.405 202.052 278.352C201.892 278.293 201.676 278.264 201.404 278.264C200.972 278.264 200.609 278.339 200.316 278.488C200.028 278.632 199.798 278.829 199.628 279.08C199.457 279.325 199.334 279.597 199.26 279.896C199.185 280.189 199.148 280.483 199.148 280.776V285H197.044ZM209.05 285V281.552C209.05 281.237 209.05 280.963 209.05 280.728C209.05 280.488 209.05 280.288 209.05 280.128C209.05 279.92 209.037 279.704 209.01 279.48C208.984 279.251 208.925 279.04 208.834 278.848C208.744 278.656 208.602 278.501 208.41 278.384C208.224 278.261 207.965 278.2 207.634 278.2C207.314 278.2 207.042 278.267 206.818 278.4C206.6 278.528 206.418 278.701 206.274 278.92C206.136 279.133 206.034 279.379 205.97 279.656C205.906 279.928 205.874 280.208 205.874 280.496L205.17 280.024C205.17 279.325 205.301 278.701 205.562 278.152C205.824 277.603 206.194 277.168 206.674 276.848C207.16 276.523 207.733 276.36 208.394 276.36C209.077 276.36 209.618 276.504 210.018 276.792C210.418 277.075 210.704 277.459 210.874 277.944C211.05 278.429 211.138 278.973 211.138 279.576C211.138 279.8 211.138 280.099 211.138 280.472C211.138 280.84 211.138 281.275 211.138 281.776V285H209.05ZM203.77 285V276.504H205.874V285H203.77ZM214.298 285V281.56C214.298 281.224 214.298 280.939 214.298 280.704C214.298 280.469 214.298 280.272 214.298 280.112C214.298 279.888 214.285 279.664 214.258 279.44C214.232 279.211 214.173 279.005 214.082 278.824C213.992 278.637 213.85 278.488 213.658 278.376C213.466 278.259 213.205 278.2 212.874 278.2C212.549 278.2 212.274 278.264 212.05 278.392C211.832 278.52 211.656 278.691 211.522 278.904C211.389 279.117 211.29 279.357 211.226 279.624C211.168 279.891 211.138 280.157 211.138 280.424L210.434 279.96C210.434 279.283 210.562 278.672 210.818 278.128C211.074 277.584 211.442 277.155 211.922 276.84C212.402 276.52 212.973 276.36 213.634 276.36C214.301 276.36 214.837 276.496 215.242 276.768C215.648 277.04 215.941 277.413 216.122 277.888C216.309 278.357 216.402 278.893 216.402 279.496C216.402 279.731 216.402 280.029 216.402 280.392C216.402 280.755 216.402 281.184 216.402 281.68V285H214.298ZM221.019 285.176C220.384 285.176 219.827 285.077 219.347 284.88C218.867 284.677 218.491 284.387 218.219 284.008C217.947 283.629 217.811 283.173 217.811 282.64C217.811 282.059 217.968 281.581 218.283 281.208C218.603 280.829 219.032 280.539 219.571 280.336C220.109 280.128 220.707 279.995 221.363 279.936C222.333 279.84 223.011 279.749 223.395 279.664C223.784 279.573 223.979 279.429 223.979 279.232C223.979 279.227 223.979 279.224 223.979 279.224C223.979 279.219 223.979 279.216 223.979 279.216C223.979 278.843 223.811 278.555 223.475 278.352C223.139 278.149 222.664 278.048 222.051 278.048C221.405 278.048 220.909 278.163 220.563 278.392C220.221 278.616 220.051 278.973 220.051 279.464H217.971C217.971 278.797 218.147 278.235 218.499 277.776C218.856 277.312 219.344 276.96 219.963 276.72C220.581 276.48 221.283 276.36 222.067 276.36C222.797 276.36 223.467 276.469 224.075 276.688C224.683 276.907 225.171 277.237 225.539 277.68C225.907 278.123 226.091 278.675 226.091 279.336C226.091 279.448 226.091 279.56 226.091 279.672C226.091 279.784 226.091 279.896 226.091 280.008V283.208C226.091 283.411 226.096 283.611 226.107 283.808C226.123 284 226.152 284.173 226.195 284.328C226.248 284.499 226.312 284.643 226.387 284.76C226.461 284.877 226.52 284.957 226.563 285H224.483C224.445 284.963 224.392 284.891 224.323 284.784C224.259 284.672 224.2 284.544 224.147 284.4C224.093 284.24 224.053 284.069 224.027 283.888C224 283.701 223.987 283.496 223.987 283.272L224.403 283.56C224.243 283.885 223.997 284.171 223.667 284.416C223.341 284.656 222.952 284.843 222.499 284.976C222.045 285.109 221.552 285.176 221.019 285.176ZM221.531 283.52C221.968 283.52 222.373 283.445 222.747 283.296C223.12 283.147 223.421 282.917 223.651 282.608C223.88 282.293 223.995 281.891 223.995 281.4V280.264L224.507 280.84C224.165 280.968 223.755 281.075 223.275 281.16C222.795 281.24 222.309 281.304 221.819 281.352C221.189 281.411 220.715 281.52 220.395 281.68C220.08 281.84 219.923 282.101 219.923 282.464C219.923 282.816 220.056 283.08 220.323 283.256C220.589 283.432 220.992 283.52 221.531 283.52ZM233.732 285V281.232C233.732 281.019 233.732 280.832 233.732 280.672C233.732 280.507 233.732 280.357 233.732 280.224C233.732 279.84 233.676 279.496 233.564 279.192C233.457 278.883 233.271 278.64 233.004 278.464C232.743 278.288 232.38 278.2 231.916 278.2C231.511 278.2 231.151 278.299 230.836 278.496C230.521 278.688 230.273 278.955 230.092 279.296C229.916 279.632 229.828 280.021 229.828 280.464L229.116 280.024C229.116 279.315 229.276 278.685 229.596 278.136C229.921 277.581 230.356 277.147 230.9 276.832C231.444 276.517 232.047 276.36 232.708 276.36C233.391 276.36 233.964 276.493 234.428 276.76C234.897 277.027 235.249 277.405 235.484 277.896C235.724 278.387 235.844 278.963 235.844 279.624C235.844 279.88 235.844 280.168 235.844 280.488C235.844 280.808 235.844 281.123 235.844 281.432V285H233.732ZM227.724 285V276.504H229.828V285H227.724ZM241.745 285.176C240.849 285.176 240.057 284.992 239.369 284.624C238.681 284.256 238.142 283.739 237.753 283.072C237.363 282.405 237.169 281.624 237.169 280.728C237.169 279.837 237.363 279.064 237.753 278.408C238.142 277.752 238.681 277.248 239.369 276.896C240.057 276.539 240.849 276.36 241.745 276.36C242.417 276.36 243.011 276.459 243.529 276.656C244.046 276.853 244.481 277.117 244.833 277.448C245.19 277.773 245.462 278.133 245.649 278.528C245.835 278.917 245.929 279.307 245.929 279.696C245.929 279.707 245.929 279.717 245.929 279.728C245.929 279.739 245.929 279.749 245.929 279.76H243.841C243.841 279.733 243.838 279.704 243.833 279.672C243.827 279.64 243.822 279.608 243.817 279.576C243.774 279.304 243.665 279.059 243.489 278.84C243.313 278.616 243.078 278.437 242.785 278.304C242.491 278.171 242.137 278.104 241.721 278.104C241.278 278.104 240.873 278.203 240.505 278.4C240.142 278.592 239.851 278.883 239.633 279.272C239.419 279.661 239.313 280.147 239.313 280.728C239.313 281.304 239.419 281.795 239.633 282.2C239.846 282.6 240.134 282.907 240.497 283.12C240.865 283.328 241.273 283.432 241.721 283.432C242.195 283.432 242.582 283.36 242.881 283.216C243.185 283.067 243.414 282.869 243.569 282.624C243.723 282.373 243.811 282.101 243.833 281.808H245.929C245.929 282.203 245.838 282.6 245.657 283C245.475 283.395 245.209 283.757 244.857 284.088C244.505 284.419 244.067 284.683 243.545 284.88C243.027 285.077 242.427 285.176 241.745 285.176ZM248.134 281.432V279.936H254.078L253.838 280.336C253.838 280.304 253.838 280.269 253.838 280.232C253.838 280.189 253.838 280.155 253.838 280.128C253.838 279.76 253.755 279.416 253.59 279.096C253.424 278.771 253.174 278.509 252.838 278.312C252.502 278.109 252.075 278.008 251.558 278.008C251.046 278.008 250.6 278.117 250.222 278.336C249.848 278.549 249.558 278.859 249.35 279.264C249.147 279.669 249.046 280.155 249.046 280.72C249.046 281.301 249.144 281.803 249.342 282.224C249.539 282.64 249.827 282.96 250.206 283.184C250.59 283.403 251.056 283.512 251.606 283.512C251.979 283.512 252.302 283.477 252.574 283.408C252.846 283.339 253.067 283.245 253.238 283.128C253.414 283.005 253.544 282.875 253.63 282.736C253.72 282.597 253.774 282.459 253.79 282.32H255.886C255.854 282.677 255.734 283.027 255.526 283.368C255.323 283.704 255.038 284.011 254.67 284.288C254.302 284.56 253.854 284.779 253.326 284.944C252.803 285.104 252.206 285.184 251.534 285.184C250.622 285.184 249.824 284.997 249.142 284.624C248.459 284.251 247.926 283.731 247.542 283.064C247.163 282.397 246.974 281.635 246.974 280.776C246.974 279.896 247.166 279.125 247.55 278.464C247.939 277.803 248.478 277.288 249.166 276.92C249.854 276.547 250.643 276.36 251.534 276.36C252.451 276.36 253.243 276.547 253.91 276.92C254.582 277.293 255.099 277.813 255.462 278.48C255.824 279.141 256.006 279.912 256.006 280.792C256.006 280.904 256.003 281.024 255.998 281.152C255.992 281.28 255.984 281.373 255.974 281.432H248.134Z" fill="#3366CC"/>
<path d="M128.33 323.336C127.079 323.336 126.048 323.126 125.236 322.706C124.424 322.277 123.794 321.745 123.346 321.11C122.898 320.466 122.581 319.817 122.394 319.164C122.217 318.501 122.128 317.941 122.128 317.484C122.128 317.456 122.128 317.437 122.128 317.428C122.128 317.419 122.128 317.405 122.128 317.386H126.16C126.16 317.405 126.16 317.419 126.16 317.428C126.16 317.437 126.16 317.456 126.16 317.484C126.16 317.717 126.188 317.979 126.244 318.268C126.309 318.548 126.421 318.819 126.58 319.08C126.739 319.341 126.958 319.556 127.238 319.724C127.527 319.892 127.896 319.976 128.344 319.976C129.016 319.976 129.576 319.687 130.024 319.108C130.472 318.52 130.803 317.629 131.018 316.434C131.242 315.239 131.354 313.723 131.354 311.884L132.166 311.87C132.129 312.458 131.919 313.027 131.536 313.578C131.163 314.129 130.617 314.581 129.898 314.936C129.179 315.281 128.297 315.454 127.252 315.454C125.964 315.454 124.891 315.169 124.032 314.6C123.173 314.021 122.525 313.256 122.086 312.304C121.657 311.352 121.442 310.302 121.442 309.154C121.442 307.791 121.708 306.573 122.24 305.5C122.772 304.427 123.561 303.582 124.606 302.966C125.661 302.35 126.972 302.042 128.54 302.042C130.201 302.042 131.55 302.443 132.586 303.246C133.631 304.039 134.401 305.173 134.896 306.648C135.391 308.113 135.638 309.859 135.638 311.884C135.638 313.723 135.479 315.356 135.162 316.784C134.845 318.203 134.373 319.397 133.748 320.368C133.132 321.339 132.367 322.076 131.452 322.58C130.547 323.084 129.506 323.336 128.33 323.336ZM128.344 312.346C128.895 312.346 129.375 312.215 129.786 311.954C130.206 311.693 130.533 311.319 130.766 310.834C131.009 310.339 131.13 309.737 131.13 309.028C131.13 308.309 131.023 307.684 130.808 307.152C130.593 306.611 130.285 306.186 129.884 305.878C129.492 305.57 129.03 305.416 128.498 305.416C127.901 305.416 127.401 305.547 127 305.808C126.608 306.069 126.309 306.457 126.104 306.97C125.908 307.474 125.81 308.104 125.81 308.86C125.81 309.579 125.908 310.199 126.104 310.722C126.309 311.245 126.599 311.646 126.972 311.926C127.355 312.206 127.812 312.346 128.344 312.346ZM145.657 323.336C144.043 323.336 142.685 323.061 141.583 322.51C140.482 321.95 139.651 321.199 139.091 320.256C138.531 319.313 138.251 318.263 138.251 317.106C138.251 316.051 138.457 315.174 138.867 314.474C139.287 313.774 139.796 313.233 140.393 312.85C141 312.458 141.569 312.211 142.101 312.108C141.653 312.005 141.163 311.777 140.631 311.422C140.109 311.067 139.665 310.563 139.301 309.91C138.937 309.247 138.755 308.407 138.755 307.39C138.755 306.326 139.049 305.393 139.637 304.59C140.235 303.787 141.051 303.162 142.087 302.714C143.133 302.266 144.323 302.042 145.657 302.042C146.992 302.042 148.177 302.266 149.213 302.714C150.249 303.162 151.066 303.787 151.663 304.59C152.261 305.393 152.559 306.326 152.559 307.39C152.559 308.398 152.373 309.233 151.999 309.896C151.635 310.559 151.192 311.067 150.669 311.422C150.147 311.777 149.657 312.005 149.199 312.108C149.741 312.211 150.31 312.458 150.907 312.85C151.505 313.233 152.013 313.774 152.433 314.474C152.853 315.174 153.063 316.051 153.063 317.106C153.063 318.263 152.779 319.313 152.209 320.256C151.649 321.199 150.819 321.95 149.717 322.51C148.625 323.061 147.272 323.336 145.657 323.336ZM145.657 319.962C146.217 319.962 146.717 319.841 147.155 319.598C147.603 319.355 147.958 319.005 148.219 318.548C148.481 318.091 148.611 317.535 148.611 316.882C148.611 316.257 148.485 315.711 148.233 315.244C147.991 314.768 147.645 314.399 147.197 314.138C146.759 313.877 146.245 313.746 145.657 313.746C145.069 313.746 144.551 313.877 144.103 314.138C143.655 314.399 143.305 314.768 143.053 315.244C142.811 315.72 142.689 316.266 142.689 316.882C142.689 317.535 142.82 318.091 143.081 318.548C143.343 319.005 143.697 319.355 144.145 319.598C144.593 319.841 145.097 319.962 145.657 319.962ZM145.657 310.484C146.479 310.484 147.132 310.251 147.617 309.784C148.112 309.308 148.359 308.683 148.359 307.908C148.359 307.348 148.238 306.886 147.995 306.522C147.762 306.149 147.44 305.873 147.029 305.696C146.619 305.519 146.161 305.43 145.657 305.43C145.153 305.43 144.696 305.519 144.285 305.696C143.875 305.873 143.548 306.149 143.305 306.522C143.072 306.886 142.955 307.348 142.955 307.908C142.955 308.683 143.198 309.308 143.683 309.784C144.178 310.251 144.836 310.484 145.657 310.484ZM158.351 323.42C157.707 323.42 157.161 323.196 156.713 322.748C156.265 322.3 156.041 321.754 156.041 321.11C156.041 320.475 156.265 319.934 156.713 319.486C157.161 319.038 157.707 318.814 158.351 318.814C158.985 318.814 159.527 319.038 159.975 319.486C160.423 319.934 160.647 320.475 160.647 321.11C160.647 321.754 160.423 322.3 159.975 322.748C159.527 323.196 158.985 323.42 158.351 323.42ZM170.181 323.336C168.931 323.336 167.899 323.126 167.087 322.706C166.275 322.277 165.645 321.745 165.197 321.11C164.749 320.466 164.432 319.817 164.245 319.164C164.068 318.501 163.979 317.941 163.979 317.484C163.979 317.456 163.979 317.437 163.979 317.428C163.979 317.419 163.979 317.405 163.979 317.386H168.011C168.011 317.405 168.011 317.419 168.011 317.428C168.011 317.437 168.011 317.456 168.011 317.484C168.011 317.717 168.039 317.979 168.095 318.268C168.161 318.548 168.273 318.819 168.431 319.08C168.59 319.341 168.809 319.556 169.089 319.724C169.379 319.892 169.747 319.976 170.195 319.976C170.867 319.976 171.427 319.687 171.875 319.108C172.323 318.52 172.655 317.629 172.869 316.434C173.093 315.239 173.205 313.723 173.205 311.884L174.017 311.87C173.98 312.458 173.77 313.027 173.387 313.578C173.014 314.129 172.468 314.581 171.749 314.936C171.031 315.281 170.149 315.454 169.103 315.454C167.815 315.454 166.742 315.169 165.883 314.6C165.025 314.021 164.376 313.256 163.937 312.304C163.508 311.352 163.293 310.302 163.293 309.154C163.293 307.791 163.559 306.573 164.091 305.5C164.623 304.427 165.412 303.582 166.457 302.966C167.512 302.35 168.823 302.042 170.391 302.042C172.053 302.042 173.401 302.443 174.437 303.246C175.483 304.039 176.253 305.173 176.747 306.648C177.242 308.113 177.489 309.859 177.489 311.884C177.489 313.723 177.331 315.356 177.013 316.784C176.696 318.203 176.225 319.397 175.599 320.368C174.983 321.339 174.218 322.076 173.303 322.58C172.398 323.084 171.357 323.336 170.181 323.336ZM170.195 312.346C170.746 312.346 171.227 312.215 171.637 311.954C172.057 311.693 172.384 311.319 172.617 310.834C172.86 310.339 172.981 309.737 172.981 309.028C172.981 308.309 172.874 307.684 172.659 307.152C172.445 306.611 172.137 306.186 171.735 305.878C171.343 305.57 170.881 305.416 170.349 305.416C169.752 305.416 169.253 305.547 168.851 305.808C168.459 306.069 168.161 306.457 167.955 306.97C167.759 307.474 167.661 308.104 167.661 308.86C167.661 309.579 167.759 310.199 167.955 310.722C168.161 311.245 168.45 311.646 168.823 311.926C169.206 312.206 169.663 312.346 170.195 312.346ZM195.992 303.876L180.508 322.482L178.982 321.194L194.48 302.588L195.992 303.876ZM183.084 309.546C182.394 309.546 181.745 309.406 181.138 309.126C180.541 308.837 180.056 308.421 179.682 307.88C179.318 307.339 179.136 306.699 179.136 305.962C179.136 305.206 179.318 304.562 179.682 304.03C180.056 303.489 180.541 303.073 181.138 302.784C181.745 302.485 182.394 302.336 183.084 302.336C183.784 302.336 184.438 302.485 185.044 302.784C185.66 303.073 186.155 303.489 186.528 304.03C186.911 304.562 187.102 305.206 187.102 305.962C187.102 306.699 186.911 307.339 186.528 307.88C186.155 308.421 185.66 308.837 185.044 309.126C184.438 309.406 183.784 309.546 183.084 309.546ZM183.084 307.782C183.411 307.782 183.728 307.721 184.036 307.6C184.354 307.469 184.61 307.269 184.806 306.998C185.012 306.727 185.114 306.382 185.114 305.962C185.114 305.523 185.012 305.169 184.806 304.898C184.61 304.627 184.354 304.431 184.036 304.31C183.728 304.179 183.411 304.114 183.084 304.114C182.758 304.114 182.44 304.179 182.132 304.31C181.834 304.431 181.586 304.627 181.39 304.898C181.204 305.169 181.11 305.523 181.11 305.962C181.11 306.382 181.204 306.727 181.39 306.998C181.586 307.269 181.834 307.469 182.132 307.6C182.44 307.721 182.758 307.782 183.084 307.782ZM191.624 322.874C190.934 322.874 190.285 322.734 189.678 322.454C189.081 322.165 188.596 321.749 188.222 321.208C187.858 320.667 187.676 320.027 187.676 319.29C187.676 318.534 187.858 317.89 188.222 317.358C188.596 316.817 189.081 316.401 189.678 316.112C190.285 315.823 190.934 315.678 191.624 315.678C192.324 315.678 192.982 315.823 193.598 316.112C194.214 316.401 194.709 316.817 195.082 317.358C195.465 317.89 195.656 318.534 195.656 319.29C195.656 320.027 195.465 320.667 195.082 321.208C194.709 321.749 194.214 322.165 193.598 322.454C192.982 322.734 192.324 322.874 191.624 322.874ZM191.624 321.11C191.96 321.11 192.282 321.049 192.59 320.928C192.898 320.797 193.15 320.597 193.346 320.326C193.552 320.055 193.654 319.71 193.654 319.29C193.654 318.861 193.552 318.511 193.346 318.24C193.15 317.969 192.898 317.769 192.59 317.638C192.282 317.507 191.96 317.442 191.624 317.442C191.298 317.442 190.985 317.507 190.686 317.638C190.388 317.769 190.14 317.969 189.944 318.24C189.758 318.511 189.664 318.861 189.664 319.29C189.664 319.71 189.758 320.055 189.944 320.326C190.14 320.597 190.388 320.797 190.686 320.928C190.985 321.049 191.298 321.11 191.624 321.11Z" fill="#10AB61"/>
</g>
</g>
<defs>
<filter id="filter0_d_1_3325" x="-58" y="6" width="490" height="190" filterUnits="userSpaceOnUse" color-interpolation-filters="sRGB">
<feFlood flood-opacity="0" result="BackgroundImageFix"/>
<feColorMatrix in="SourceAlpha" type="matrix" values="0 0 0 0 0 0 0 0 0 0 0 0 0 0 0 0 0 0 127 0" result="hardAlpha"/>
<feOffset dy="24"/>
<feGaussianBlur stdDeviation="22.5"/>
<feComposite in2="hardAlpha" operator="out"/>
<feColorMatrix type="matrix" values="0 0 0 0 0.881 0 0 0 0 0.940787 0 0 0 0 0.999 0 0 0 0.35 0"/>
<feBlend mode="normal" in2="BackgroundImageFix" result="effect1_dropShadow_1_3325"/>
<feBlend mode="normal" in="SourceGraphic" in2="effect1_dropShadow_1_3325" result="shape"/>
</filter>
<linearGradient id="paint0_linear_1_3325" x1="591.721" y1="193.519" x2="591.721" y2="562.361" gradientUnits="userSpaceOnUse">
<stop stop-color="#3366CC"/>
<stop offset="1" stop-color="#3366CC" stop-opacity="0"/>
</linearGradient>
<linearGradient id="paint1_linear_1_3325" x1="593.347" y1="290.157" x2="593.347" y2="658.999" gradientUnits="userSpaceOnUse">
<stop stop-color="#25C63A"/>
<stop offset="1" stop-color="#25C63A" stop-opacity="0"/>
</linearGradient>
<linearGradient id="paint2_linear_1_3325" x1="597.067" y1="239.083" x2="597.067" y2="607.925" gradientUnits="userSpaceOnUse">
<stop stop-color="#FF7D05"/>
<stop offset="1" stop-color="#FF7D05" stop-opacity="0"/>
</linearGradient>
<linearGradient id="paint3_linear_1_3325" x1="528.721" y1="217.519" x2="528.721" y2="586.361" gradientUnits="userSpaceOnUse">
<stop stop-color="#3366CC"/>
<stop offset="1" stop-color="#3366CC" stop-opacity="0"/>
</linearGradient>
<linearGradient id="paint4_linear_1_3325" x1="530.347" y1="314.157" x2="530.347" y2="682.999" gradientUnits="userSpaceOnUse">
<stop stop-color="#25C63A"/>
<stop offset="1" stop-color="#25C63A" stop-opacity="0"/>
</linearGradient>
<linearGradient id="paint5_linear_1_3325" x1="534.067" y1="263.083" x2="534.067" y2="631.925" gradientUnits="userSpaceOnUse">
<stop stop-color="#FF7D05"/>
<stop offset="1" stop-color="#FF7D05" stop-opacity="0"/>
</linearGradient>
<linearGradient id="paint6_linear_1_3325" x1="59.6372" y1="176.32" x2="65.3028" y2="202.974" gradientUnits="userSpaceOnUse">
<stop stop-color="#3366CC"/>
<stop offset="1" stop-color="#9DB6E7"/>
</linearGradient>
<linearGradient id="paint7_linear_1_3325" x1="56.6494" y1="172.098" x2="57.1887" y2="174.635" gradientUnits="userSpaceOnUse">
<stop stop-color="#3366CC"/>
<stop offset="1" stop-color="#9DB6E7"/>
</linearGradient>
<linearGradient id="paint8_linear_1_3325" x1="60.0273" y1="173.492" x2="61.6454" y2="174.439" gradientUnits="userSpaceOnUse">
<stop stop-color="#3366CC"/>
<stop offset="1" stop-color="#9DB6E7"/>
</linearGradient>
<linearGradient id="paint9_linear_1_3325" x1="63.0477" y1="176.149" x2="63.6057" y2="177.939" gradientUnits="userSpaceOnUse">
<stop stop-color="#3366CC"/>
<stop offset="1" stop-color="#9DB6E7"/>
</linearGradient>
<linearGradient id="paint10_linear_1_3325" x1="52.4752" y1="174.762" x2="54.5827" y2="176.274" gradientUnits="userSpaceOnUse">
<stop stop-color="#3366CC"/>
<stop offset="1" stop-color="#9DB6E7"/>
</linearGradient>
<linearGradient id="paint11_linear_1_3325" x1="51.219" y1="179.497" x2="53.7951" y2="179.195" gradientUnits="userSpaceOnUse">
<stop stop-color="#3366CC"/>
<stop offset="1" stop-color="#9DB6E7"/>
</linearGradient>
<clipPath id="clip0_1_3325">
<rect width="373" height="600" rx="20" fill="white"/>
</clipPath>
<clipPath id="clip1_1_3325">
<rect width="668" height="400" fill="white" transform="translate(-54 283)"/>
</clipPath>
<clipPath id="clip2_1_3325">
<rect width="28.4444" height="28.4444" fill="white" transform="translate(28.7773 62.7793)"/>
</clipPath>
<clipPath id="clip3_1_3325">
<rect width="32" height="32" fill="white" transform="translate(43 175) rotate(-12)"/>
</clipPath>
</defs>
</svg>
