<svg width="668" height="400" viewBox="0 0 668 400" fill="none" xmlns="http://www.w3.org/2000/svg">
<g clip-path="url(#clip0_1_1948)">
<g opacity="0.6">
<path d="M-92.8417 224.137C-92.8417 224.137 24.5414 104.073 122.677 88.8948C254.454 68.5131 192.765 -88.5007 390.762 73.0897C588.759 234.68 526.346 55.3107 698.06 16.6716C869.774 -21.9675 921.675 326.007 1037.32 131.048C1089.56 42.9817 1263.35 41.4709 1263.35 41.4709" stroke="#1465DF" stroke-linecap="round"/>
<path d="M120.143 88.0549C22.0073 103.233 -95.3759 223.297 -95.3759 223.297V303.36H1260.82V40.631C1260.82 40.631 1087.02 42.1418 1034.79 130.209C919.141 325.167 862.17 -24.5096 690.456 14.1295C518.741 52.7686 586.225 233.84 388.228 72.2498C190.231 -89.3406 251.92 67.6733 120.143 88.0549Z" fill="url(#paint0_linear_1_1948)" fill-opacity="0.1"/>
<path d="M-92.835 320.774C-92.835 320.774 48.6458 119.586 123.201 185.532C265.449 311.353 193.457 8.13614 391.929 169.726C590.401 331.317 532.92 245.81 705.046 207.171C877.172 168.532 857.507 261.803 1040.04 227.685C1140.75 208.86 1266.61 138.108 1266.61 138.108" stroke="#25C63A" stroke-linecap="round"/>
<path d="M120.66 184.694C43.7743 121.481 -95.376 319.936 -95.376 319.936V399.999H1264.07V137.27C1264.07 137.27 1139.56 217.913 1037.5 226.847C797.793 247.829 864.467 165.992 692.341 204.631C520.214 243.27 587.86 330.479 389.388 168.888C190.916 7.2981 265.449 303.734 120.66 184.694Z" fill="url(#paint1_linear_1_1948)" fill-opacity="0.1"/>
<path d="M-94.5654 281.88C-94.5654 281.88 -87.8597 275.908 -23.9053 248.844C98.4661 197.059 199.857 -42.9381 396.967 118.652C594.078 280.243 534.467 215.25 705.413 176.611C876.358 137.972 818.11 176.611 1040.63 176.611C1142.39 176.611 1265.65 87.0335 1265.65 87.0335" stroke="#FF7D05" stroke-linecap="round"/>
<path d="M-45.354 260.279C-143.051 275.457 -86.9935 268.859 -86.9935 268.859V348.921H1263.13V86.1926C1263.13 86.1926 1139.86 175.77 1038.11 175.77C809.279 175.77 868.789 137.131 697.843 175.77C526.898 214.409 591.556 279.402 394.445 117.811C197.334 -43.779 85.8331 239.897 -45.354 260.279Z" fill="url(#paint2_linear_1_1948)" fill-opacity="0.1"/>
</g>
<rect x="98" y="112" width="57" height="334" fill="#3366CC"/>
<rect x="210" y="208" width="57" height="238" fill="#3366CC"/>
<rect x="322" y="64" width="57" height="382" fill="#3366CC"/>
<rect x="434" y="208" width="57" height="238" fill="#3366CC"/>
<rect x="546" y="351" width="57" height="95" fill="#3366CC"/>
</g>
<defs>
<linearGradient id="paint0_linear_1_1948" x1="582.721" y1="-65.4809" x2="582.721" y2="303.361" gradientUnits="userSpaceOnUse">
<stop stop-color="#3366CC"/>
<stop offset="1" stop-color="#3366CC" stop-opacity="0"/>
</linearGradient>
<linearGradient id="paint1_linear_1_1948" x1="584.347" y1="31.157" x2="584.347" y2="399.999" gradientUnits="userSpaceOnUse">
<stop stop-color="#25C63A"/>
<stop offset="1" stop-color="#25C63A" stop-opacity="0"/>
</linearGradient>
<linearGradient id="paint2_linear_1_1948" x1="588.067" y1="-19.9167" x2="588.067" y2="348.925" gradientUnits="userSpaceOnUse">
<stop stop-color="#FF7D05"/>
<stop offset="1" stop-color="#FF7D05" stop-opacity="0"/>
</linearGradient>
<clipPath id="clip0_1_1948">
<rect width="668" height="400" fill="white"/>
</clipPath>
</defs>
</svg>
