<svg width="372" height="973" viewBox="0 0 372 973" fill="none" xmlns="http://www.w3.org/2000/svg">
<path d="M135.92 362.411H-63.3606C-66.7686 362.411 -70.0372 361.058 -72.4471 358.648C-74.8569 356.238 -76.2107 352.969 -76.2107 349.561C-76.2107 346.153 -74.8569 342.885 -72.4471 340.475C-70.0372 338.065 -66.7686 336.711 -63.3606 336.711H46.277C94.5081 336.711 140.764 317.551 174.868 283.447C208.973 249.342 228.133 203.087 228.133 154.856C228.133 106.624 208.973 60.3688 174.868 26.2643C140.764 -7.84026 94.5081 -27 46.277 -27H-158.4V144.473C-197.5 162.616 -230.601 191.554 -253.805 227.88C-277.008 264.206 -289.347 306.406 -289.369 349.51C-289.424 369.6 -286.762 389.604 -281.454 408.98C-337.685 444.089 -380.954 496.554 -404.718 558.44C-428.482 620.325 -431.448 688.266 -413.167 751.987C-394.887 815.709 -356.354 871.744 -303.396 911.619C-250.438 951.495 -185.936 973.041 -119.644 973H135.92C216.896 973 294.555 940.832 351.814 883.574C409.072 826.315 441.24 748.656 441.24 667.68C441.24 586.704 409.072 509.045 351.814 451.786C294.555 394.528 216.896 362.36 135.92 362.36V362.411ZM135.92 902.118H-119.644C-175.92 902.154 -230.327 881.928 -272.913 845.14C-315.499 808.352 -343.417 757.461 -351.559 701.778C-359.702 646.095 -347.526 589.341 -317.257 541.9C-286.988 494.458 -240.651 459.499 -186.722 443.419C-204.177 420.449 -214.87 393.061 -217.594 364.341C-220.318 335.621 -214.967 306.711 -202.142 280.869C-189.317 255.027 -169.529 233.281 -145.009 218.082C-120.488 202.883 -92.2097 194.835 -63.3606 194.845H46.277C56.8148 194.845 66.921 190.659 74.3723 183.208C81.8237 175.757 86.0098 165.65 86.0098 155.113C86.0098 144.575 81.8237 134.469 74.3723 127.017C66.921 119.566 56.8148 115.38 46.277 115.38H-87.3647V44.0871H46.277C61.0275 43.7694 75.693 46.4003 89.4132 51.8255C103.133 57.2506 115.632 65.3609 126.177 75.6805C136.721 86.0002 145.099 98.3214 150.818 111.922C156.537 125.522 159.483 140.127 159.483 154.881C159.483 169.635 156.537 184.241 150.818 197.841C145.099 211.441 136.721 223.762 126.177 234.082C115.632 244.402 103.133 252.512 89.4132 257.937C75.693 263.362 61.0275 265.993 46.277 265.675H-63.3606C-74.5479 265.398 -85.6777 267.363 -96.0944 271.453C-106.511 275.542 -116.004 281.675 -124.015 289.49C-132.025 297.304 -138.391 306.643 -142.737 316.955C-147.084 327.267 -149.323 338.345 -149.323 349.536C-149.323 360.726 -147.084 371.804 -142.737 382.116C-138.391 392.429 -132.025 401.767 -124.015 409.581C-116.004 417.396 -106.511 423.529 -96.0944 427.619C-85.6777 431.708 -74.5479 433.673 -63.3606 433.396H135.92C197.448 434.307 256.148 459.389 299.336 503.222C342.524 547.055 366.734 606.119 366.734 667.654C366.734 729.189 342.524 788.254 299.336 832.087C256.148 875.92 197.448 901.001 135.92 901.913V902.118ZM135.92 504.688H-119.644C-141.316 504.304 -162.847 508.24 -182.981 516.268C-203.115 524.295 -221.448 536.253 -236.91 551.443C-252.372 566.633 -264.653 584.751 -273.036 604.739C-281.42 624.727 -285.738 646.185 -285.738 667.86C-285.738 689.535 -281.42 710.993 -273.036 730.981C-264.653 750.969 -252.372 769.087 -236.91 784.277C-221.448 799.467 -203.115 811.425 -182.981 819.452C-162.847 827.48 -141.316 831.416 -119.644 831.031H135.92C157.591 831.416 179.123 827.48 199.256 819.452C219.39 811.425 237.723 799.467 253.185 784.277C268.647 769.087 280.928 750.969 289.312 730.981C297.695 710.993 302.013 689.535 302.013 667.86C302.013 646.185 297.695 624.727 289.312 604.739C280.928 584.751 268.647 566.633 253.185 551.443C237.723 536.253 219.39 524.295 199.256 516.268C179.123 508.24 157.591 504.304 135.92 504.688ZM135.92 759.996H-119.644C-144.073 759.996 -167.502 750.291 -184.776 733.017C-202.05 715.743 -211.754 692.315 -211.754 667.886C-211.754 643.456 -202.05 620.028 -184.776 602.754C-167.502 585.48 -144.073 575.776 -119.644 575.776H135.92C160.349 575.776 183.777 585.48 201.051 602.754C218.325 620.028 228.03 643.456 228.03 667.886C228.03 692.315 218.325 715.743 201.051 733.017C183.777 750.291 160.349 759.996 135.92 759.996Z" fill="#2E5CB8" fill-opacity="0.25"/>
</svg>
