<svg width="36" height="36" viewBox="0 0 36 36" fill="none" xmlns="http://www.w3.org/2000/svg">
<circle cx="18" cy="18" r="18" fill="#3366CC"/>
<path d="M20.0734 15.669H16.3527C16.289 15.669 16.228 15.6438 16.183 15.5988C16.138 15.5538 16.1127 15.4927 16.1127 15.4291C16.1127 15.3655 16.138 15.3045 16.183 15.2595C16.228 15.2145 16.289 15.1892 16.3527 15.1892H18.3997C19.3002 15.1892 20.1638 14.8315 20.8006 14.1947C21.4373 13.5579 21.795 12.6943 21.795 11.7938C21.795 10.8933 21.4373 10.0297 20.8006 9.39292C20.1638 8.75616 19.3002 8.39844 18.3997 8.39844H14.5782V11.6C13.8482 11.9387 13.2302 12.479 12.7969 13.1572C12.3637 13.8355 12.1333 14.6234 12.1329 15.4281C12.1319 15.8032 12.1816 16.1767 12.2807 16.5385C11.2308 17.194 10.423 18.1736 9.97926 19.329C9.53557 20.4845 9.48019 21.753 9.82151 22.9427C10.1628 24.1324 10.8823 25.1786 11.871 25.9231C12.8598 26.6676 14.0641 27.0699 15.3018 27.0692H20.0734C21.5852 27.0692 23.0352 26.4686 24.1043 25.3995C25.1733 24.3304 25.7739 22.8805 25.7739 21.3686C25.7739 19.8567 25.1733 18.4068 24.1043 17.3377C23.0352 16.2687 21.5852 15.6681 20.0734 15.6681V15.669ZM20.0734 25.7457H15.3018C14.2511 25.7464 13.2353 25.3688 12.4402 24.6819C11.6451 23.9951 11.1238 23.0449 10.9718 22.0053C10.8197 20.9656 11.0471 19.906 11.6122 19.0202C12.1774 18.1344 13.0425 17.4817 14.0494 17.1815C13.7235 16.7526 13.5239 16.2413 13.473 15.7051C13.4221 15.1688 13.5221 14.6291 13.7615 14.1466C14.001 13.6641 14.3704 13.2581 14.8282 12.9743C15.286 12.6905 15.814 12.5403 16.3527 12.5404H18.3997C18.5964 12.5404 18.7851 12.4623 18.9242 12.3232C19.0633 12.184 19.1415 11.9954 19.1415 11.7986C19.1415 11.6019 19.0633 11.4132 18.9242 11.2741C18.7851 11.1349 18.5964 11.0568 18.3997 11.0568H15.9045V9.72569H18.3997C18.6751 9.71975 18.9489 9.76887 19.2051 9.87017C19.4612 9.97146 19.6946 10.1229 19.8914 10.3156C20.0883 10.5082 20.2447 10.7383 20.3515 10.9922C20.4583 11.2461 20.5133 11.5188 20.5133 11.7943C20.5133 12.0698 20.4583 12.3425 20.3515 12.5964C20.2447 12.8503 20.0883 13.0804 19.8914 13.273C19.6946 13.4657 19.4612 13.6171 19.2051 13.7184C18.9489 13.8197 18.6751 13.8688 18.3997 13.8629H16.3527C16.1438 13.8577 15.936 13.8944 15.7415 13.9708C15.547 14.0471 15.3698 14.1616 15.2202 14.3075C15.0706 14.4534 14.9518 14.6278 14.8706 14.8203C14.7895 15.0129 14.7477 15.2197 14.7477 15.4286C14.7477 15.6376 14.7895 15.8444 14.8706 16.0369C14.9518 16.2295 15.0706 16.4038 15.2202 16.5497C15.3698 16.6956 15.547 16.8101 15.7415 16.8865C15.936 16.9629 16.1438 16.9995 16.3527 16.9944H20.0734C21.2221 17.0114 22.3181 17.4797 23.1245 18.2981C23.9308 19.1165 24.3828 20.2192 24.3828 21.3681C24.3828 22.517 23.9308 23.6198 23.1245 24.4382C22.3181 25.2566 21.2221 25.7249 20.0734 25.7419V25.7457ZM20.0734 18.3254H15.3018C14.8972 18.3183 14.4952 18.3918 14.1193 18.5416C13.7433 18.6915 13.4011 18.9148 13.1124 19.1984C12.8237 19.482 12.5944 19.8203 12.4379 20.1935C12.2813 20.5666 12.2007 20.9673 12.2007 21.372C12.2007 21.7767 12.2813 22.1773 12.4379 22.5505C12.5944 22.9237 12.8237 23.262 13.1124 23.5456C13.4011 23.8292 13.7433 24.0524 14.1193 24.2023C14.4952 24.3522 14.8972 24.4257 15.3018 24.4185H20.0734C20.478 24.4257 20.88 24.3522 21.2559 24.2023C21.6318 24.0524 21.9741 23.8292 22.2628 23.5456C22.5515 23.262 22.7808 22.9237 22.9373 22.5505C23.0938 22.1773 23.1744 21.7767 23.1744 21.372C23.1744 20.9673 23.0938 20.5666 22.9373 20.1935C22.7808 19.8203 22.5515 19.482 22.2628 19.1984C21.9741 18.9148 21.6318 18.6915 21.2559 18.5416C20.88 18.3918 20.478 18.3183 20.0734 18.3254ZM20.0734 23.0922H15.3018C14.8457 23.0922 14.4083 22.911 14.0857 22.5885C13.7632 22.266 13.582 21.8286 13.582 21.3725C13.582 20.9163 13.7632 20.4789 14.0857 20.1564C14.4083 19.8339 14.8457 19.6527 15.3018 19.6527H20.0734C20.5295 19.6527 20.9669 19.8339 21.2894 20.1564C21.6119 20.4789 21.7931 20.9163 21.7931 21.3725C21.7931 21.8286 21.6119 22.266 21.2894 22.5885C20.9669 22.911 20.5295 23.0922 20.0734 23.0922Z" fill="white"/>
</svg>
