<svg width="692" height="808" viewBox="0 0 692 808" fill="none" xmlns="http://www.w3.org/2000/svg">
<path d="M673.104 370.294H433.967C429.878 370.294 425.955 368.669 423.064 365.777C420.172 362.885 418.547 358.963 418.547 354.873C418.547 350.784 420.172 346.862 423.064 343.97C425.955 341.078 429.878 339.453 433.967 339.453H565.532C623.41 339.453 678.917 316.462 719.842 275.536C760.767 234.611 783.759 179.104 783.759 121.227C783.759 63.3493 760.767 7.84255 719.842 -33.0829C678.917 -74.0083 623.41 -97 565.532 -97H319.92V108.767C273 130.539 233.279 165.265 205.435 208.856C177.591 252.447 162.783 303.087 162.757 354.812C162.691 378.92 165.886 402.925 172.256 426.177C104.778 468.307 52.8549 531.265 24.3381 605.527C-4.17867 679.79 -7.73776 761.32 14.1991 837.785C36.136 914.25 82.3756 981.493 145.925 1029.34C209.474 1077.19 286.877 1103.05 366.427 1103H673.104C770.275 1103 863.466 1064.4 932.176 995.689C1000.89 926.978 1039.49 833.787 1039.49 736.616C1039.49 639.445 1000.89 546.254 932.176 477.543C863.466 408.833 770.275 370.232 673.104 370.232V370.294ZM673.104 1017.94H366.427C298.896 1017.98 233.608 993.713 182.505 949.568C131.402 905.422 97.9 844.354 88.1286 777.534C78.3572 710.714 92.9692 642.61 129.292 585.68C165.614 528.749 221.219 486.799 285.933 467.503C264.987 439.939 252.157 407.073 248.887 372.609C245.618 338.145 252.04 303.453 267.43 272.443C282.819 241.432 306.565 215.337 335.989 197.098C365.414 178.859 399.348 169.202 433.967 169.214H565.532C578.178 169.214 590.305 164.191 599.247 155.249C608.188 146.308 613.212 134.18 613.212 121.535C613.212 108.89 608.188 96.7624 599.247 87.8208C590.305 78.8792 578.178 73.8558 565.532 73.8558H405.162V-11.6954H565.532C583.233 -12.0767 600.832 -8.91966 617.296 -2.40945C633.76 4.10076 648.759 13.8331 661.412 26.2166C674.065 38.6002 684.118 53.3857 690.982 69.706C697.845 86.0263 701.38 103.553 701.38 121.258C701.38 138.962 697.845 156.489 690.982 172.809C684.118 189.129 674.065 203.915 661.412 216.298C648.759 228.682 633.76 238.414 617.296 244.924C600.832 251.435 583.233 254.592 565.532 254.21H433.967C420.543 253.878 407.187 256.235 394.687 261.143C382.187 266.051 370.795 273.41 361.183 282.788C351.57 292.165 343.931 303.371 338.715 315.746C333.5 328.12 330.813 341.414 330.813 354.843C330.813 368.272 333.5 381.565 338.715 393.94C343.931 406.314 351.57 417.52 361.183 426.898C370.795 436.275 382.187 443.635 394.687 448.542C407.187 453.45 420.543 455.807 433.967 455.475H673.104C746.938 456.569 817.377 486.667 869.203 539.266C921.029 591.866 950.081 662.743 950.081 736.585C950.081 810.427 921.029 881.305 869.203 933.904C817.377 986.504 746.938 1016.6 673.104 1017.7V1017.94ZM673.104 541.026H366.427C340.421 540.565 314.583 545.288 290.423 554.921C266.262 564.554 244.263 578.903 225.708 597.131C207.154 615.359 192.416 637.101 182.356 661.086C172.296 685.072 167.115 710.822 167.115 736.832C167.115 762.842 172.296 788.592 182.356 812.577C192.416 836.563 207.154 858.305 225.708 876.532C244.263 894.76 266.262 909.11 290.423 918.743C314.583 928.376 340.421 933.099 366.427 932.638H673.104C699.11 933.099 724.947 928.376 749.108 918.743C773.268 909.11 795.268 894.76 813.822 876.532C832.377 858.305 847.114 836.563 857.174 812.577C867.234 788.592 872.416 762.842 872.416 736.832C872.416 710.822 867.234 685.072 857.174 661.086C847.114 637.101 832.377 615.359 813.822 597.131C795.268 578.903 773.268 564.554 749.108 554.921C724.947 545.288 699.11 540.565 673.104 541.026ZM673.104 847.395H366.427C337.112 847.395 308.998 835.749 288.269 815.021C267.54 794.292 255.895 766.178 255.895 736.863C255.895 707.548 267.54 679.434 288.269 658.705C308.998 637.976 337.112 626.331 366.427 626.331H673.104C702.419 626.331 730.533 637.976 751.262 658.705C771.991 679.434 783.636 707.548 783.636 736.863C783.636 766.178 771.991 794.292 751.262 815.021C730.533 835.749 702.419 847.395 673.104 847.395Z" fill="#2E5CB8" fill-opacity="0.25"/>
</svg>
