<svg width="339" height="462" viewBox="0 0 339 462" fill="none" xmlns="http://www.w3.org/2000/svg">
<path d="M365.221 229.647H235.467C233.248 229.647 231.12 228.835 229.551 227.389C227.982 225.943 227.101 223.982 227.101 221.937C227.101 219.892 227.982 217.931 229.551 216.485C231.12 215.039 233.248 214.227 235.467 214.227H306.854C338.258 214.227 368.375 202.731 390.581 182.268C412.787 161.805 425.262 134.052 425.262 105.113C425.262 76.1747 412.787 48.4213 390.581 27.9586C368.375 7.49584 338.258 -4 306.854 -4H173.586V98.8836C148.128 109.769 126.575 127.132 111.467 148.928C96.3593 170.723 88.325 196.044 88.3106 221.906C88.2748 233.96 90.0085 245.963 93.4646 257.588C56.8519 278.654 28.6786 310.132 13.2057 347.264C-2.26732 384.395 -4.19845 425.16 7.70433 463.393C19.6071 501.625 44.6964 535.246 79.1778 559.172C113.659 583.097 155.657 596.025 198.82 596H365.221C417.945 596 468.51 576.699 505.792 542.344C543.074 507.989 564.018 461.393 564.018 412.808C564.018 364.222 543.074 317.627 505.792 283.272C468.51 248.917 417.945 229.616 365.221 229.616V229.647ZM365.221 553.471H198.82C162.179 553.492 126.754 541.357 99.0257 519.284C71.2975 497.211 53.1198 466.677 47.8179 433.267C42.5161 399.857 50.4444 365.805 70.1527 337.34C89.8609 308.875 120.032 287.9 155.145 278.251C143.78 264.47 136.818 248.037 135.044 230.805C133.27 213.572 136.755 196.226 145.105 180.721C153.456 165.216 166.34 152.169 182.305 143.049C198.271 133.93 216.683 129.101 235.467 129.107H306.854C313.715 129.107 320.295 126.596 325.147 122.125C329.999 117.654 332.724 111.59 332.724 105.268C332.724 98.9449 329.999 92.8812 325.147 88.4104C320.295 83.9396 313.715 81.4279 306.854 81.4279H219.838V38.6523H306.854C316.458 38.4616 326.007 40.0402 334.94 43.2953C343.874 46.5504 352.012 51.4165 358.877 57.6083C365.743 63.8001 371.198 71.1929 374.921 79.353C378.645 87.5132 380.564 96.2764 380.564 105.129C380.564 113.981 378.645 122.744 374.921 130.904C371.198 139.065 365.743 146.457 358.877 152.649C352.012 158.841 343.874 163.707 334.94 166.962C326.007 170.217 316.458 171.796 306.854 171.605H235.467C228.183 171.439 220.937 172.618 214.154 175.072C207.372 177.525 201.191 181.205 195.975 185.894C190.759 190.583 186.614 196.186 183.784 202.373C180.954 208.56 179.496 215.207 179.496 221.921C179.496 228.636 180.954 235.282 183.784 241.47C186.614 247.657 190.759 253.26 195.975 257.949C201.191 262.638 207.372 266.317 214.154 268.771C220.937 271.225 228.183 272.404 235.467 272.237H365.221C405.283 272.784 443.503 287.833 471.623 314.133C499.744 340.433 515.507 375.871 515.507 412.792C515.507 449.714 499.744 485.152 471.623 511.452C443.503 537.752 405.283 552.801 365.221 553.348V553.471ZM365.221 315.013H198.82C184.71 314.782 170.691 317.144 157.581 321.961C144.472 326.777 132.535 333.952 122.468 343.066C112.4 352.18 104.404 363.05 98.9452 375.043C93.4866 387.036 90.6753 399.911 90.6753 412.916C90.6753 425.921 93.4866 438.796 98.9452 450.789C104.404 462.782 112.4 473.652 122.468 482.766C132.535 491.88 144.472 499.055 157.581 503.871C170.691 508.688 184.71 511.05 198.82 510.819H365.221C379.332 511.05 393.351 508.688 406.46 503.871C419.57 499.055 431.506 491.88 441.574 482.766C451.641 473.652 459.638 462.782 465.096 450.789C470.555 438.796 473.366 425.921 473.366 412.916C473.366 399.911 470.555 387.036 465.096 375.043C459.638 363.05 451.641 352.18 441.574 343.066C431.506 333.952 419.57 326.777 406.46 321.961C393.351 317.144 379.332 314.782 365.221 315.013ZM365.221 468.197H198.82C182.914 468.197 167.66 462.375 156.413 452.01C145.165 441.646 138.847 427.589 138.847 412.931C138.847 398.274 145.165 384.217 156.413 373.852C167.66 363.488 182.914 357.665 198.82 357.665H365.221C381.127 357.665 396.382 363.488 407.629 373.852C418.876 384.217 425.195 398.274 425.195 412.931C425.195 427.589 418.876 441.646 407.629 452.01C396.382 462.375 381.127 468.197 365.221 468.197Z" fill="#3060C0"/>
</svg>
