<svg width="693" height="540" viewBox="0 0 693 540" fill="none" xmlns="http://www.w3.org/2000/svg">
<path d="M673.104 341.227H433.967C429.878 341.227 425.955 339.73 423.064 337.065C420.172 334.4 418.547 330.786 418.547 327.017C418.547 323.249 420.172 319.634 423.064 316.97C425.955 314.305 429.878 312.808 433.967 312.808H565.532C623.41 312.808 678.917 291.621 719.842 253.908C760.767 216.195 783.759 165.045 783.759 111.711C783.759 58.3774 760.767 7.22782 719.842 -30.485C678.917 -68.1979 623.41 -89.3848 565.532 -89.3848H319.92V100.23C273 120.292 233.279 152.293 205.435 192.462C177.591 232.631 162.783 279.296 162.757 326.961C162.691 349.176 165.886 371.297 172.256 392.723C104.778 431.547 52.8549 489.562 24.3381 557.995C-4.17867 626.429 -7.73776 701.558 14.1991 772.021C36.136 842.484 82.3756 904.448 145.925 948.542C209.474 992.637 286.877 1016.46 366.427 1016.42H673.104C770.275 1016.42 863.466 980.846 932.176 917.53C1000.89 854.213 1039.49 768.337 1039.49 678.794C1039.49 589.25 1000.89 503.375 932.176 440.058C863.466 376.741 770.275 341.17 673.104 341.17V341.227ZM673.104 938.036H366.427C298.896 938.075 233.608 915.709 182.505 875.029C131.402 834.349 97.9 778.074 88.1286 716.5C78.3572 654.925 92.9692 592.167 129.292 539.706C165.614 487.244 221.219 448.587 285.933 430.805C264.987 405.406 252.157 375.12 248.887 343.361C245.618 311.602 252.04 279.633 267.43 251.057C282.819 222.481 306.565 198.435 335.989 181.627C365.414 164.82 399.348 155.921 433.967 155.932H565.532C578.178 155.932 590.305 151.303 599.247 143.063C608.188 134.824 613.212 123.648 613.212 111.996C613.212 100.343 608.188 89.1676 599.247 80.9279C590.305 72.6882 578.178 68.0592 565.532 68.0592H405.162V-10.7765H565.532C583.233 -11.1278 600.832 -8.21859 617.296 -2.21942C633.76 3.77975 648.759 12.7481 661.412 24.1596C674.065 35.5711 684.118 49.1959 690.982 64.2351C697.845 79.2743 701.38 95.425 701.38 111.74C701.38 128.055 697.845 144.205 690.982 159.245C684.118 174.284 674.065 187.909 661.412 199.32C648.759 210.732 633.76 219.7 617.296 225.699C600.832 231.698 583.233 234.608 565.532 234.256H433.967C420.543 233.95 407.187 236.122 394.687 240.645C382.187 245.167 370.795 251.949 361.183 260.59C351.57 269.232 343.931 279.558 338.715 290.961C333.5 302.364 330.813 314.614 330.813 326.989C330.813 339.364 333.5 351.614 338.715 363.017C343.931 374.42 351.57 384.746 361.183 393.388C370.795 402.029 382.187 408.811 394.687 413.333C407.187 417.856 420.543 420.028 433.967 419.722H673.104C746.938 420.73 817.377 448.465 869.203 496.935C921.029 545.406 950.081 610.72 950.081 678.765C950.081 746.811 921.029 812.125 869.203 860.595C817.377 909.066 746.938 936.801 673.104 937.809V938.036ZM673.104 498.557H366.427C340.421 498.132 314.583 502.485 290.423 511.362C266.262 520.238 244.263 533.461 225.708 550.258C207.154 567.055 192.416 587.09 182.356 609.193C172.296 631.296 167.115 655.024 167.115 678.993C167.115 702.961 172.296 726.689 182.356 748.792C192.416 770.895 207.154 790.93 225.708 807.727C244.263 824.524 266.262 837.747 290.423 846.624C314.583 855.501 340.421 859.853 366.427 859.428H673.104C699.11 859.853 724.947 855.501 749.108 846.624C773.268 837.747 795.268 824.524 813.822 807.727C832.377 790.93 847.114 770.895 857.174 748.792C867.234 726.689 872.416 702.961 872.416 678.993C872.416 655.024 867.234 631.296 857.174 609.193C847.114 587.09 832.377 567.055 813.822 550.258C795.268 533.461 773.268 520.238 749.108 511.362C724.947 502.485 699.11 498.132 673.104 498.557ZM673.104 780.877H366.427C337.112 780.877 308.998 770.145 288.269 751.044C267.54 731.942 255.895 706.035 255.895 679.021C255.895 652.007 267.54 626.1 288.269 606.998C308.998 587.897 337.112 577.166 366.427 577.166H673.104C702.419 577.166 730.533 587.897 751.262 606.998C771.991 626.1 783.636 652.007 783.636 679.021C783.636 706.035 771.991 731.942 751.262 751.044C730.533 770.145 702.419 780.877 673.104 780.877Z" fill="#2E5CB8" fill-opacity="0.25"/>
</svg>
