<svg width="196" height="40" viewBox="0 0 196 40" fill="none" xmlns="http://www.w3.org/2000/svg">
<path d="M45.5791 3.61719H49.1547V15.499C50.3128 14.1665 51.7721 13.1111 53.4192 12.4149C55.0274 11.7513 56.7585 11.4134 58.5061 11.4219C60.2096 11.4067 61.8976 11.7372 63.4616 12.3923C64.9627 13.0221 66.3227 13.93 67.4653 15.0651C69.2305 16.8637 70.4233 19.1181 70.9007 21.5578C71.3782 23.9975 71.12 26.519 70.1571 28.82C68.9105 31.7985 66.5052 34.1812 63.4616 35.4527C61.9291 36.1016 60.2736 36.4322 58.6015 36.4231C56.8219 36.43 55.0604 36.0763 53.4298 35.3848C51.7784 34.6787 50.3186 33.6103 49.1653 32.2638V35.9153H45.5791V3.61719ZM58.3514 14.7608C57.1216 14.7526 55.9038 14.9965 54.7779 15.4763C53.6856 15.9411 52.6976 16.6089 51.8699 17.4419C51.0342 18.288 50.3641 19.2745 49.8923 20.3532C49.3963 21.4783 49.1452 22.6907 49.1547 23.9143C49.1384 26.3314 50.1057 28.6572 51.8465 30.3866C52.6943 31.223 53.6966 31.8975 54.8012 32.3748C55.9306 32.8578 57.1507 33.1091 58.385 33.113C59.6192 33.1168 60.841 32.8732 61.9737 32.3974C63.0568 31.9396 64.0368 31.2802 64.8583 30.4566C65.6816 29.6181 66.3357 28.6377 66.7871 27.5658C67.2699 26.438 67.5149 25.2279 67.5077 24.0068C67.5167 21.581 66.56 19.2454 64.8371 17.4871C64.0068 16.6522 63.0207 15.9776 61.9313 15.499C60.8071 15.0045 59.5857 14.7526 58.3514 14.7608Z" fill="#3366CC"/>
<path d="M85.4707 15.2423C84.2748 15.2275 83.0892 15.4566 81.9904 15.9146C80.9645 16.346 80.04 16.9756 79.2732 17.765C78.4998 18.5699 77.8932 19.5115 77.4864 20.5386C77.0564 21.6227 76.8407 22.7757 76.8506 23.9372V36.002H73.2686V12.0061H76.8442V15.6596C79.0994 13.0403 81.7339 11.7285 85.4495 11.7285L85.4707 15.2423Z" fill="#3366CC"/>
<path d="M89.4273 3.43902C89.7151 3.43902 90.0001 3.49401 90.266 3.60085C90.5319 3.70769 90.7735 3.86428 90.977 4.06169C91.1805 4.25911 91.3419 4.49347 91.4521 4.7514C91.5622 5.00933 91.6189 5.28577 91.6189 5.56495C91.6189 5.84414 91.5622 6.12058 91.4521 6.37851C91.3419 6.63644 91.1805 6.87081 90.977 7.06822C90.7735 7.26563 90.5319 7.42222 90.266 7.52906C90.0001 7.6359 89.7151 7.69088 89.4273 7.69088C89.1401 7.7018 88.8537 7.65399 88.5868 7.55056C88.3199 7.44712 88.0783 7.29039 87.8779 7.09052C87.4941 6.66955 87.2822 6.12695 87.2822 5.56495C87.2822 5.00295 87.4941 4.46036 87.8779 4.03938C88.0783 3.83952 88.3199 3.68278 88.5868 3.57935C88.8537 3.47592 89.1401 3.42811 89.4273 3.43902ZM91.248 11.9448V35.9859H87.6638V11.9448H91.248Z" fill="#3366CC"/>
<path d="M132.176 21.1979V36.0012H128.649V21.6605C128.649 19.5345 128.141 17.8781 127.125 16.691C126.109 15.504 124.696 14.9105 122.886 14.9105C121.912 14.9083 120.947 15.0971 120.05 15.4657C118.27 16.1826 116.839 17.5301 116.046 19.2343C115.648 20.0831 115.445 21.0056 115.451 21.938V35.993H111.922V21.4754C111.934 20.5679 111.791 19.6647 111.498 18.8026C111.237 18.0458 110.823 17.347 110.281 16.7466C109.751 16.1731 109.101 15.7161 108.374 15.406C107.6 15.0778 106.764 14.9124 105.919 14.9208C104.957 14.9161 104.006 15.1132 103.13 15.4985C102.266 15.8777 101.489 16.4201 100.843 17.094C100.189 17.7809 99.6668 18.5762 99.3022 19.442C98.9175 20.3512 98.723 21.3254 98.7299 22.3081V35.993H95.1924V11.9519H98.7193V14.818C100.627 12.5989 103.122 11.4893 106.203 11.4893C108.013 11.4893 109.568 11.882 110.866 12.6674C112.165 13.4528 113.277 14.6782 114.202 16.3436C115.091 14.8673 116.344 13.6282 117.848 12.7373C119.328 11.8961 121.018 11.4644 122.734 11.4893C124.034 11.4764 125.323 11.7205 126.523 12.2069C127.648 12.6649 128.66 13.3504 129.491 14.2176C130.338 15.1157 131.002 16.1624 131.445 17.3017C131.937 18.5448 132.185 19.8662 132.176 21.1979Z" fill="#3366CC"/>
<path d="M135.56 3.61719H139.133V15.499C140.292 14.1664 141.752 13.111 143.4 12.4149C145.005 11.7563 146.731 11.4219 148.474 11.4321C150.178 11.4169 151.867 11.7474 153.431 12.4026C154.933 13.0324 156.293 13.9403 157.435 15.0754C159.2 16.874 160.393 19.1283 160.871 21.5681C161.348 24.0078 161.09 26.5293 160.127 28.8302C158.88 31.8088 156.475 34.1915 153.431 35.463C151.898 36.1119 150.242 36.4424 148.569 36.4334C146.79 36.44 145.03 36.0864 143.4 35.3951C141.748 34.6893 140.287 33.6209 139.133 32.2741V35.9256H135.56V3.61719ZM148.332 14.7609C147.101 14.7527 145.883 14.9965 144.756 15.4764C143.665 15.9417 142.678 16.6094 141.85 17.4419C141.015 18.288 140.345 19.2745 139.873 20.3532C139.376 21.4782 139.124 22.6905 139.133 23.9143C139.116 26.3319 140.084 28.6582 141.827 30.3867C142.675 31.2231 143.677 31.8975 144.782 32.3748C145.911 32.8578 147.131 33.1091 148.365 33.113C149.6 33.1169 150.821 32.8733 151.954 32.3975C153.037 31.9396 154.016 31.2802 154.837 30.4566C155.661 29.6183 156.315 28.6378 156.768 27.5658C157.248 26.4376 157.491 25.2275 157.482 24.0068C157.493 21.581 156.537 19.245 154.813 17.4871C153.983 16.6517 152.996 15.977 151.905 15.499C150.783 15.005 149.564 14.7532 148.332 14.7609Z" fill="#3366CC"/>
<path d="M167.443 3.54102V35.9481H163.867V3.54102H167.443Z" fill="#3366CC"/>
<path d="M190.227 29.4309L192.61 31.7419C191.522 33.2269 190.063 34.4197 188.37 35.2083C186.588 36.0486 184.629 36.4758 182.648 36.4564C180.944 36.4656 179.257 36.1353 177.69 35.4859C175.362 34.5287 173.377 32.9248 171.986 30.8761C170.595 28.8273 169.86 26.4253 169.873 23.9722C169.861 22.3022 170.211 20.6484 170.899 19.1179C171.554 17.6449 172.489 16.3044 173.655 15.1662C174.824 14.0376 176.204 13.136 177.722 12.5098C179.28 11.8591 180.96 11.5287 182.656 11.5394C184.448 11.5272 186.222 11.888 187.858 12.5974C189.493 13.3067 190.953 14.3482 192.139 15.6514C193.309 16.9604 194.193 18.4858 194.738 20.1356C195.328 21.9096 195.544 23.7808 195.373 25.6375H173.733C173.887 26.6761 174.233 27.6792 174.755 28.5982C175.263 29.5055 175.942 30.3129 176.755 30.9791C177.568 31.6419 178.485 32.1724 179.473 32.5499C180.485 32.9383 181.564 33.1345 182.652 33.1276C184.178 33.1402 185.685 32.7997 187.048 32.1346C188.339 31.5268 189.437 30.5928 190.227 29.4309ZM173.642 22.3109H191.711C191.532 21.2651 191.152 20.2614 190.59 19.3523C190.038 18.4645 189.343 17.6682 188.532 16.994C187.729 16.3194 186.81 15.787 185.816 15.4211C184.804 15.05 183.73 14.8625 182.648 14.8681C180.548 14.8666 178.517 15.5962 176.925 16.9241C175.256 18.3261 174.102 20.2168 173.638 22.3109H173.642Z" fill="#3366CC"/>
<path d="M23.1298 15.5765H14.9124C14.7718 15.5765 14.637 15.5223 14.5377 15.4259C14.4383 15.3295 14.3825 15.1988 14.3825 15.0625C14.3825 14.9261 14.4383 14.7954 14.5377 14.699C14.637 14.6026 14.7718 14.5484 14.9124 14.5484H19.4333C21.4221 14.5484 23.3295 13.7821 24.7358 12.4179C26.1421 11.0537 26.9322 9.20346 26.9322 7.27422C26.9322 5.34498 26.1421 3.49475 24.7358 2.13057C23.3295 0.766389 21.4221 0 19.4333 0H10.9933V6.85891C9.38105 7.58462 8.01612 8.74216 7.05932 10.1952C6.10252 11.6482 5.5937 13.3362 5.59279 15.0604C5.59051 15.864 5.70031 16.6642 5.91919 17.4392C3.60048 18.8436 1.81624 20.9422 0.836326 23.4176C-0.143591 25.893 -0.265891 28.6107 0.487921 31.1595C1.24173 33.7083 2.83066 35.9498 5.0144 37.5448C7.19813 39.1398 9.85791 40.0016 12.5915 40H23.1298C26.4688 40 29.6712 38.7133 32.0322 36.423C34.3933 34.1326 35.7198 31.0262 35.7198 27.7872C35.7198 24.5482 34.3933 21.4418 32.0322 19.1514C29.6712 16.8611 26.4688 15.5765 23.1298 15.5765ZM23.1298 37.1647H12.5915C10.2709 37.1662 8.02743 36.3571 6.27138 34.8856C4.51533 33.4141 3.36412 31.3785 3.02835 29.1511C2.69258 26.9238 3.19469 24.6537 4.44283 22.756C5.69097 20.8583 7.6017 19.46 9.82548 18.8168C9.10572 17.898 8.66482 16.8024 8.55247 15.6536C8.44013 14.5048 8.66081 13.3484 9.18964 12.3148C9.71848 11.2811 10.5344 10.4112 11.5456 9.80328C12.5567 9.19532 13.7227 8.8734 14.9124 8.87381H19.4333C19.8678 8.87381 20.2846 8.70637 20.5918 8.40831C20.8991 8.11026 21.0717 7.70601 21.0717 7.2845C21.0717 6.86299 20.8991 6.45875 20.5918 6.16069C20.2846 5.86264 19.8678 5.69519 19.4333 5.69519H13.9225V2.84348H19.4333C20.0415 2.83078 20.6463 2.93601 21.212 3.15302C21.7778 3.37003 22.2932 3.69444 22.728 4.10722C23.1628 4.52001 23.5083 5.01286 23.7441 5.55687C23.9799 6.10088 24.1014 6.68509 24.1014 7.27525C24.1014 7.86541 23.9799 8.44962 23.7441 8.99363C23.5083 9.53764 23.1628 10.0305 22.728 10.4433C22.2932 10.8561 21.7778 11.1805 21.212 11.3975C20.6463 11.6145 20.0415 11.7197 19.4333 11.707H14.9124C14.451 11.6959 13.9921 11.7745 13.5626 11.9381C13.133 12.1017 12.7416 12.347 12.4113 12.6596C12.0809 12.9722 11.8184 13.3457 11.6392 13.7582C11.46 14.1707 11.3677 14.6138 11.3677 15.0614C11.3677 15.5091 11.46 15.9522 11.6392 16.3647C11.8184 16.7771 12.0809 17.1507 12.4113 17.4633C12.7416 17.7758 13.133 18.0212 13.5626 18.1847C13.9921 18.3483 14.451 18.4269 14.9124 18.4158H23.1298C25.6669 18.4523 28.0874 19.4556 29.8683 21.2089C31.6492 22.9622 32.6475 25.3248 32.6475 27.7862C32.6475 30.2476 31.6492 32.6102 29.8683 34.3635C28.0874 36.1168 25.6669 37.1201 23.1298 37.1565V37.1647ZM23.1298 21.2675H12.5915C11.6978 21.2521 10.81 21.4096 9.97976 21.7307C9.14953 22.0518 8.39356 22.5301 7.75598 23.1377C7.1184 23.7453 6.61198 24.47 6.26628 25.2695C5.92059 26.0691 5.74254 26.9274 5.74254 27.7944C5.74254 28.6614 5.92059 29.5197 6.26628 30.3192C6.61198 31.1188 7.1184 31.8435 7.75598 32.4511C8.39356 33.0587 9.14953 33.537 9.97976 33.8581C10.81 34.1792 11.6978 34.3366 12.5915 34.3213H23.1298C24.0234 34.3366 24.9112 34.1792 25.7415 33.8581C26.5717 33.537 27.3277 33.0587 27.9652 32.4511C28.6028 31.8435 29.1093 31.1188 29.4549 30.3192C29.8006 29.5197 29.9787 28.6614 29.9787 27.7944C29.9787 26.9274 29.8006 26.0691 29.4549 25.2695C29.1093 24.47 28.6028 23.7453 27.9652 23.1377C27.3277 22.5301 26.5717 22.0518 25.7415 21.7307C24.9112 21.4096 24.0234 21.2521 23.1298 21.2675ZM23.1298 31.4798H12.5915C11.5841 31.4798 10.618 31.0916 9.90574 30.4007C9.19344 29.7097 8.79327 28.7726 8.79327 27.7954C8.79327 26.8183 9.19344 25.8811 9.90574 25.1902C10.618 24.4992 11.5841 24.111 12.5915 24.111H23.1298C24.1371 24.111 25.1032 24.4992 25.8155 25.1902C26.5278 25.8811 26.928 26.8183 26.928 27.7954C26.928 28.7726 26.5278 29.7097 25.8155 30.4007C25.1032 31.0916 24.1371 31.4798 23.1298 31.4798Z" fill="#3366CC"/>
</svg>
