<svg width="287" height="70" viewBox="0 0 287 70" fill="none" xmlns="http://www.w3.org/2000/svg">
<path d="M6.47819 5.73638C6.66909 5.62616 6.89596 5.59629 7.10888 5.65335C7.32181 5.7104 7.50335 5.8497 7.61356 6.0406L8.99882 8.43993C9.10903 8.63083 9.1389 8.8577 9.08185 9.07062C9.02479 9.28355 8.8855 9.46509 8.69459 9.5753C8.50369 9.68552 8.27682 9.71539 8.0639 9.65834C7.85098 9.60128 7.66944 9.46198 7.55922 9.27108L6.17397 6.87175C6.06375 6.68085 6.03388 6.45398 6.09093 6.24106C6.14799 6.02814 6.28729 5.8466 6.47819 5.73638ZM2.98225 10.2757C3.03939 10.0629 3.17862 9.8816 3.36937 9.77147C3.56012 9.66134 3.78678 9.63143 3.99957 9.68831L6.64877 10.3982C6.75754 10.4232 6.86014 10.4699 6.95046 10.5355C7.04078 10.6011 7.11696 10.6842 7.17447 10.7799C7.23197 10.8755 7.26962 10.9818 7.28516 11.0923C7.30071 11.2029 7.29383 11.3154 7.26494 11.4232C7.23605 11.531 7.18575 11.6319 7.11702 11.7198C7.04829 11.8078 6.96256 11.881 6.86492 11.9351C6.76729 11.9892 6.65976 12.0231 6.54876 12.0347C6.43775 12.0463 6.32553 12.0355 6.21881 12.0028L3.5696 11.293C3.35688 11.2358 3.17554 11.0966 3.06542 10.9058C2.95529 10.7151 2.92538 10.4884 2.98225 10.2757V10.2757ZM12.1573 4.97845C12.37 5.03558 12.5513 5.17482 12.6615 5.36557C12.7716 5.55631 12.8015 5.78297 12.7446 5.99576L12.0348 8.64497C12.0097 8.75373 11.963 8.85634 11.8974 8.94665C11.8318 9.03697 11.7487 9.11316 11.6531 9.17066C11.5574 9.22817 11.4511 9.26581 11.3406 9.28136C11.2301 9.2969 11.1176 9.29002 11.0097 9.26114C10.9019 9.23225 10.801 9.18194 10.7131 9.11321C10.6251 9.04449 10.5519 8.95875 10.4978 8.86112C10.4437 8.76349 10.4099 8.65596 10.3982 8.54495C10.3866 8.43394 10.3974 8.32173 10.4301 8.215L11.14 5.56579C11.1971 5.35308 11.3363 5.17174 11.5271 5.06161C11.7178 4.95148 11.9445 4.92157 12.1573 4.97845V4.97845ZM3.74018 15.9547C3.62997 15.7638 3.6001 15.537 3.65715 15.3241C3.7142 15.1111 3.8535 14.9296 4.04441 14.8194L6.44373 13.4341C6.63464 13.3239 6.86151 13.294 7.07443 13.3511C7.28735 13.4081 7.46889 13.5474 7.57911 13.7383C7.68933 13.9292 7.71919 14.1561 7.66214 14.369C7.60509 14.582 7.46579 14.7635 7.27489 14.8737L4.87556 16.259C4.68466 16.3692 4.45779 16.3991 4.24486 16.342C4.03194 16.285 3.8504 16.1457 3.74018 15.9547ZM9.90695 13.3375C9.28247 12.2558 10.2143 10.9398 11.4416 11.1705L23.5803 13.4422C24.8858 13.6866 25.2148 15.4046 24.0932 16.1148L20.4926 18.3894C20.1051 18.6336 19.8347 19.0252 19.7399 19.4728L18.8502 23.7255C18.5761 25.0393 16.8243 25.3188 16.1533 24.1565L9.9075 13.3384L9.90695 13.3375Z" fill="#41B883"/>
<rect x="28" y="29" width="259" height="41" rx="13" fill="#41B883"/>
<circle cx="49.5" cy="49.5" r="14.5" fill="#C4C4C4"/>
<path d="M55.0813 51.6715C54.386 50.9388 53.5422 50.354 52.6032 49.9541C51.6641 49.5541 50.6501 49.3477 49.625 49.3477C48.5999 49.3477 47.5859 49.5541 46.6468 49.9541C45.7078 50.354 44.864 50.9388 44.1687 51.6715C44.0614 51.787 44.0014 51.9367 44 52.0924V54.6176C44.0023 54.7836 44.0717 54.942 44.1931 55.0586C44.3146 55.1752 44.4784 55.2405 44.649 55.2405H54.601C54.7731 55.2405 54.9382 55.174 55.0599 55.0556C55.1816 54.9372 55.25 54.7766 55.25 54.6092V52.084C55.2465 51.9312 55.1866 51.7848 55.0813 51.6715V51.6715Z" fill="white"/>
<path d="M49.625 47.8929C51.2523 47.8929 52.5714 46.5737 52.5714 44.9464C52.5714 43.3192 51.2523 42 49.625 42C47.9977 42 46.6786 43.3192 46.6786 44.9464C46.6786 46.5737 47.9977 47.8929 49.625 47.8929Z" fill="white"/>
<path d="M72.834 53V44.15H74.118V53H72.834ZM81.0248 53.126C80.5448 53.126 80.1228 53.05 79.7588 52.898C79.3988 52.746 79.1188 52.528 78.9188 52.244C78.7188 51.96 78.6188 51.618 78.6188 51.218C78.6188 50.79 78.7308 50.436 78.9548 50.156C79.1828 49.876 79.4948 49.66 79.8908 49.508C80.2908 49.352 80.7448 49.25 81.2528 49.202C82.0088 49.126 82.5408 49.052 82.8488 48.98C83.1608 48.908 83.3168 48.79 83.3168 48.626C83.3168 48.622 83.3168 48.618 83.3168 48.614C83.3168 48.29 83.1788 48.044 82.9028 47.876C82.6268 47.708 82.2328 47.624 81.7208 47.624C81.1808 47.624 80.7628 47.72 80.4668 47.912C80.1748 48.1 80.0288 48.4 80.0288 48.812H78.7508C78.7508 48.324 78.8768 47.91 79.1288 47.57C79.3848 47.23 79.7368 46.972 80.1848 46.796C80.6328 46.616 81.1468 46.526 81.7268 46.526C82.2588 46.526 82.7428 46.608 83.1788 46.772C83.6188 46.932 83.9688 47.172 84.2288 47.492C84.4888 47.812 84.6188 48.21 84.6188 48.686C84.6188 48.77 84.6188 48.854 84.6188 48.938C84.6188 49.018 84.6188 49.1 84.6188 49.184V51.728C84.6188 51.876 84.6248 52.02 84.6368 52.16C84.6488 52.296 84.6708 52.418 84.7028 52.526C84.7388 52.65 84.7808 52.752 84.8288 52.832C84.8808 52.912 84.9228 52.968 84.9548 53H83.6588C83.6348 52.976 83.5988 52.926 83.5508 52.85C83.5068 52.77 83.4668 52.678 83.4308 52.574C83.3948 52.474 83.3668 52.36 83.3468 52.232C83.3308 52.1 83.3228 51.958 83.3228 51.806L83.5628 51.974C83.4428 52.206 83.2608 52.408 83.0168 52.58C82.7768 52.752 82.4868 52.886 82.1468 52.982C81.8108 53.078 81.4368 53.126 81.0248 53.126ZM81.2948 52.046C81.6668 52.046 82.0048 51.988 82.3088 51.872C82.6168 51.752 82.8628 51.572 83.0468 51.332C83.2308 51.088 83.3228 50.782 83.3228 50.414V49.358L83.6288 49.76C83.3728 49.86 83.0588 49.942 82.6868 50.006C82.3188 50.066 81.9388 50.116 81.5468 50.156C81.0068 50.204 80.6008 50.298 80.3288 50.438C80.0568 50.574 79.9208 50.802 79.9208 51.122C79.9208 51.43 80.0328 51.662 80.2568 51.818C80.4848 51.97 80.8308 52.046 81.2948 52.046ZM90.1417 53V50.3C90.1417 50.056 90.1417 49.846 90.1417 49.67C90.1417 49.49 90.1417 49.338 90.1417 49.214C90.1417 49.058 90.1297 48.892 90.1057 48.716C90.0857 48.54 90.0377 48.376 89.9617 48.224C89.8897 48.068 89.7757 47.942 89.6197 47.846C89.4637 47.75 89.2497 47.702 88.9777 47.702C88.7057 47.702 88.4757 47.756 88.2877 47.864C88.0997 47.972 87.9477 48.116 87.8317 48.296C87.7157 48.472 87.6317 48.67 87.5797 48.89C87.5277 49.106 87.5017 49.324 87.5017 49.544L86.9497 49.244C86.9497 48.744 87.0477 48.29 87.2437 47.882C87.4437 47.47 87.7237 47.142 88.0837 46.898C88.4477 46.65 88.8757 46.526 89.3677 46.526C89.8677 46.526 90.2677 46.63 90.5677 46.838C90.8717 47.042 91.0917 47.322 91.2277 47.678C91.3637 48.03 91.4317 48.43 91.4317 48.878C91.4317 49.042 91.4317 49.256 91.4317 49.52C91.4317 49.784 91.4317 50.09 91.4317 50.438V53H90.1417ZM86.1997 53V46.628H87.5017V53H86.1997ZM94.0657 53V50.306C94.0657 50.042 94.0657 49.822 94.0657 49.646C94.0657 49.466 94.0657 49.316 94.0657 49.196C94.0657 49.032 94.0557 48.864 94.0357 48.692C94.0157 48.516 93.9677 48.354 93.8917 48.206C93.8157 48.058 93.6977 47.938 93.5377 47.846C93.3817 47.75 93.1637 47.702 92.8837 47.702C92.6077 47.702 92.3757 47.756 92.1877 47.864C92.0037 47.968 91.8557 48.108 91.7437 48.284C91.6317 48.456 91.5517 48.646 91.5037 48.854C91.4557 49.062 91.4317 49.268 91.4317 49.472L90.8797 49.184C90.8797 48.704 90.9757 48.262 91.1677 47.858C91.3637 47.454 91.6397 47.132 91.9957 46.892C92.3557 46.648 92.7817 46.526 93.2737 46.526C93.7537 46.526 94.1477 46.622 94.4557 46.814C94.7637 47.006 94.9917 47.272 95.1397 47.612C95.2877 47.952 95.3617 48.346 95.3617 48.794C95.3617 48.966 95.3617 49.182 95.3617 49.442C95.3617 49.702 95.3617 50.004 95.3617 50.348V53H94.0657ZM104.558 53V50.666C104.558 50.562 104.558 50.436 104.558 50.288C104.558 50.14 104.558 49.99 104.558 49.838C104.558 49.682 104.558 49.552 104.558 49.448C104.558 48.876 104.44 48.442 104.204 48.146C103.972 47.85 103.59 47.702 103.058 47.702C102.702 47.702 102.394 47.772 102.134 47.912C101.874 48.052 101.672 48.244 101.528 48.488C101.388 48.732 101.318 49.01 101.318 49.322L100.706 49.07C100.706 48.586 100.822 48.154 101.054 47.774C101.29 47.39 101.612 47.086 102.02 46.862C102.432 46.638 102.902 46.526 103.43 46.526C104.198 46.526 104.794 46.756 105.218 47.216C105.646 47.672 105.86 48.308 105.86 49.124C105.86 49.332 105.86 49.578 105.86 49.862C105.86 50.142 105.86 50.448 105.86 50.78V53H104.558ZM100.016 53V43.622H101.318V53H100.016ZM109.712 53.126C109.232 53.126 108.81 53.05 108.446 52.898C108.086 52.746 107.806 52.528 107.606 52.244C107.406 51.96 107.306 51.618 107.306 51.218C107.306 50.79 107.418 50.436 107.642 50.156C107.87 49.876 108.182 49.66 108.578 49.508C108.978 49.352 109.432 49.25 109.94 49.202C110.696 49.126 111.228 49.052 111.536 48.98C111.848 48.908 112.004 48.79 112.004 48.626C112.004 48.622 112.004 48.618 112.004 48.614C112.004 48.29 111.866 48.044 111.59 47.876C111.314 47.708 110.92 47.624 110.408 47.624C109.868 47.624 109.45 47.72 109.154 47.912C108.862 48.1 108.716 48.4 108.716 48.812H107.438C107.438 48.324 107.564 47.91 107.816 47.57C108.072 47.23 108.424 46.972 108.872 46.796C109.32 46.616 109.834 46.526 110.414 46.526C110.946 46.526 111.43 46.608 111.866 46.772C112.306 46.932 112.656 47.172 112.916 47.492C113.176 47.812 113.306 48.21 113.306 48.686C113.306 48.77 113.306 48.854 113.306 48.938C113.306 49.018 113.306 49.1 113.306 49.184V51.728C113.306 51.876 113.312 52.02 113.324 52.16C113.336 52.296 113.358 52.418 113.39 52.526C113.426 52.65 113.468 52.752 113.516 52.832C113.568 52.912 113.61 52.968 113.642 53H112.346C112.322 52.976 112.286 52.926 112.238 52.85C112.194 52.77 112.154 52.678 112.118 52.574C112.082 52.474 112.054 52.36 112.034 52.232C112.018 52.1 112.01 51.958 112.01 51.806L112.25 51.974C112.13 52.206 111.948 52.408 111.704 52.58C111.464 52.752 111.174 52.886 110.834 52.982C110.498 53.078 110.124 53.126 109.712 53.126ZM109.982 52.046C110.354 52.046 110.692 51.988 110.996 51.872C111.304 51.752 111.55 51.572 111.734 51.332C111.918 51.088 112.01 50.782 112.01 50.414V49.358L112.316 49.76C112.06 49.86 111.746 49.942 111.374 50.006C111.006 50.066 110.626 50.116 110.234 50.156C109.694 50.204 109.288 50.298 109.016 50.438C108.744 50.574 108.608 50.802 108.608 51.122C108.608 51.43 108.72 51.662 108.944 51.818C109.172 51.97 109.518 52.046 109.982 52.046ZM119.846 46.628L117.782 53H116.054L113.936 46.628H115.28L117.02 52.454H116.816L118.502 46.628H119.846ZM121.011 53V46.628H122.295V53H121.011ZM121.659 45.308C121.435 45.308 121.241 45.248 121.077 45.128C120.917 45.004 120.837 44.834 120.837 44.618C120.837 44.406 120.917 44.24 121.077 44.12C121.241 43.996 121.435 43.934 121.659 43.934C121.879 43.934 122.069 43.996 122.229 44.12C122.393 44.24 122.475 44.406 122.475 44.618C122.475 44.834 122.393 45.004 122.229 45.128C122.069 45.248 121.879 45.308 121.659 45.308ZM128.564 53V50.06C128.564 49.888 128.564 49.742 128.564 49.622C128.564 49.502 128.564 49.39 128.564 49.286C128.564 48.974 128.516 48.7 128.42 48.464C128.324 48.224 128.166 48.038 127.946 47.906C127.726 47.77 127.432 47.702 127.064 47.702C126.74 47.702 126.446 47.782 126.182 47.942C125.922 48.102 125.714 48.32 125.558 48.596C125.406 48.868 125.33 49.178 125.33 49.526L124.772 49.25C124.772 48.734 124.894 48.272 125.138 47.864C125.382 47.452 125.708 47.126 126.116 46.886C126.528 46.646 126.978 46.526 127.466 46.526C127.97 46.526 128.4 46.624 128.756 46.82C129.116 47.012 129.39 47.288 129.578 47.648C129.77 48.004 129.866 48.43 129.866 48.926C129.866 49.11 129.866 49.314 129.866 49.538C129.866 49.762 129.866 49.978 129.866 50.186V53H128.564ZM124.028 53V46.628H125.33V53H124.028ZM135.686 52.49C136.046 52.522 136.362 52.59 136.634 52.694C136.906 52.794 137.118 52.942 137.27 53.138C137.426 53.338 137.504 53.6 137.504 53.924C137.504 54.288 137.38 54.604 137.132 54.872C136.888 55.144 136.522 55.354 136.034 55.502C135.546 55.654 134.94 55.73 134.216 55.73C133.18 55.73 132.39 55.58 131.846 55.28C131.302 54.98 131.03 54.572 131.03 54.056C131.03 53.9 131.048 53.762 131.084 53.642C131.12 53.522 131.164 53.422 131.216 53.342L132.428 53.522C132.4 53.562 132.372 53.62 132.344 53.696C132.316 53.776 132.302 53.872 132.302 53.984C132.302 54.268 132.476 54.47 132.824 54.59C133.172 54.71 133.654 54.77 134.27 54.77C134.722 54.77 135.096 54.738 135.392 54.674C135.692 54.614 135.916 54.526 136.064 54.41C136.212 54.294 136.286 54.158 136.286 54.002C136.286 53.766 136.184 53.618 135.98 53.558C135.776 53.498 135.53 53.456 135.242 53.432L132.824 53.234C132.404 53.198 132.06 53.072 131.792 52.856C131.528 52.64 131.396 52.368 131.396 52.04C131.396 51.836 131.448 51.646 131.552 51.47C131.656 51.294 131.776 51.146 131.912 51.026C132.052 50.906 132.172 50.832 132.272 50.804L133.124 51.212C133.032 51.224 132.92 51.286 132.788 51.398C132.66 51.506 132.596 51.634 132.596 51.782C132.596 51.918 132.652 52.03 132.764 52.118C132.88 52.206 133.104 52.264 133.436 52.292L135.686 52.49ZM136.484 46.628H137.666L137.18 49.118C137.092 49.582 136.93 50.002 136.694 50.378C136.462 50.75 136.146 51.044 135.746 51.26C135.35 51.476 134.856 51.584 134.264 51.584C133.648 51.584 133.118 51.478 132.674 51.266C132.23 51.054 131.888 50.76 131.648 50.384C131.412 50.004 131.294 49.572 131.294 49.088C131.294 48.596 131.416 48.156 131.66 47.768C131.908 47.38 132.248 47.076 132.68 46.856C133.116 46.636 133.614 46.526 134.174 46.526C134.646 46.526 135.064 46.606 135.428 46.766C135.796 46.926 136.088 47.13 136.304 47.378C136.52 47.626 136.638 47.884 136.658 48.152L136.286 48.194L136.484 46.628ZM134.258 50.522C134.606 50.522 134.906 50.466 135.158 50.354C135.41 50.238 135.604 50.072 135.74 49.856C135.876 49.636 135.944 49.372 135.944 49.064C135.944 48.76 135.876 48.5 135.74 48.284C135.604 48.064 135.41 47.896 135.158 47.78C134.906 47.66 134.608 47.6 134.264 47.6C133.932 47.6 133.638 47.662 133.382 47.786C133.13 47.906 132.932 48.076 132.788 48.296C132.644 48.516 132.572 48.778 132.572 49.082C132.572 49.386 132.64 49.646 132.776 49.862C132.912 50.074 133.106 50.238 133.358 50.354C133.61 50.466 133.91 50.522 134.258 50.522ZM141.917 53V46.628H143.201V53H141.917ZM142.565 45.308C142.341 45.308 142.147 45.248 141.983 45.128C141.823 45.004 141.743 44.834 141.743 44.618C141.743 44.406 141.823 44.24 141.983 44.12C142.147 43.996 142.341 43.934 142.565 43.934C142.785 43.934 142.975 43.996 143.135 44.12C143.299 44.24 143.381 44.406 143.381 44.618C143.381 44.834 143.299 45.004 143.135 45.128C142.975 45.248 142.785 45.308 142.565 45.308ZM147.442 53.126C147.062 53.126 146.704 53.084 146.368 53C146.032 52.916 145.736 52.794 145.48 52.634C145.228 52.47 145.03 52.268 144.886 52.028C144.746 51.788 144.676 51.51 144.676 51.194C144.676 51.166 144.676 51.138 144.676 51.11C144.676 51.078 144.676 51.052 144.676 51.032H145.972C145.972 51.052 145.972 51.07 145.972 51.086C145.972 51.102 145.972 51.124 145.972 51.152C145.972 51.444 146.106 51.666 146.374 51.818C146.646 51.966 147.014 52.04 147.478 52.04C147.75 52.04 147.998 52.012 148.222 51.956C148.45 51.9 148.63 51.814 148.762 51.698C148.898 51.582 148.966 51.434 148.966 51.254C148.966 50.962 148.822 50.754 148.534 50.63C148.25 50.506 147.818 50.396 147.238 50.3C146.922 50.244 146.616 50.172 146.32 50.084C146.028 49.996 145.764 49.88 145.528 49.736C145.296 49.588 145.11 49.406 144.97 49.19C144.834 48.97 144.766 48.706 144.766 48.398C144.766 47.998 144.886 47.658 145.126 47.378C145.366 47.098 145.69 46.886 146.098 46.742C146.506 46.598 146.956 46.526 147.448 46.526C147.924 46.526 148.364 46.604 148.768 46.76C149.176 46.912 149.504 47.134 149.752 47.426C150 47.714 150.124 48.068 150.124 48.488C150.124 48.504 150.124 48.522 150.124 48.542C150.124 48.562 150.124 48.58 150.124 48.596H148.834C148.834 48.58 148.834 48.566 148.834 48.554C148.834 48.542 148.834 48.528 148.834 48.512C148.834 48.304 148.768 48.134 148.636 48.002C148.504 47.87 148.332 47.772 148.12 47.708C147.912 47.64 147.69 47.606 147.454 47.606C147.238 47.606 147.02 47.63 146.8 47.678C146.584 47.722 146.404 47.8 146.26 47.912C146.116 48.02 146.044 48.168 146.044 48.356C146.044 48.548 146.114 48.702 146.254 48.818C146.394 48.93 146.592 49.024 146.848 49.1C147.104 49.172 147.402 49.238 147.742 49.298C148.054 49.354 148.358 49.426 148.654 49.514C148.95 49.598 149.216 49.71 149.452 49.85C149.692 49.99 149.882 50.17 150.022 50.39C150.166 50.61 150.238 50.88 150.238 51.2C150.238 51.532 150.162 51.818 150.01 52.058C149.858 52.298 149.65 52.498 149.386 52.658C149.126 52.814 148.828 52.93 148.492 53.006C148.16 53.086 147.81 53.126 147.442 53.126ZM154.18 53.126C153.8 53.126 153.442 53.084 153.106 53C152.77 52.916 152.474 52.794 152.218 52.634C151.966 52.47 151.768 52.268 151.624 52.028C151.484 51.788 151.414 51.51 151.414 51.194C151.414 51.166 151.414 51.138 151.414 51.11C151.414 51.078 151.414 51.052 151.414 51.032H152.71C152.71 51.052 152.71 51.07 152.71 51.086C152.71 51.102 152.71 51.124 152.71 51.152C152.71 51.444 152.844 51.666 153.112 51.818C153.384 51.966 153.752 52.04 154.216 52.04C154.488 52.04 154.736 52.012 154.96 51.956C155.188 51.9 155.368 51.814 155.5 51.698C155.636 51.582 155.704 51.434 155.704 51.254C155.704 50.962 155.56 50.754 155.272 50.63C154.988 50.506 154.556 50.396 153.976 50.3C153.66 50.244 153.354 50.172 153.058 50.084C152.766 49.996 152.502 49.88 152.266 49.736C152.034 49.588 151.848 49.406 151.708 49.19C151.572 48.97 151.504 48.706 151.504 48.398C151.504 47.998 151.624 47.658 151.864 47.378C152.104 47.098 152.428 46.886 152.836 46.742C153.244 46.598 153.694 46.526 154.186 46.526C154.662 46.526 155.102 46.604 155.506 46.76C155.914 46.912 156.242 47.134 156.49 47.426C156.738 47.714 156.862 48.068 156.862 48.488C156.862 48.504 156.862 48.522 156.862 48.542C156.862 48.562 156.862 48.58 156.862 48.596H155.572C155.572 48.58 155.572 48.566 155.572 48.554C155.572 48.542 155.572 48.528 155.572 48.512C155.572 48.304 155.506 48.134 155.374 48.002C155.242 47.87 155.07 47.772 154.858 47.708C154.65 47.64 154.428 47.606 154.192 47.606C153.976 47.606 153.758 47.63 153.538 47.678C153.322 47.722 153.142 47.8 152.998 47.912C152.854 48.02 152.782 48.168 152.782 48.356C152.782 48.548 152.852 48.702 152.992 48.818C153.132 48.93 153.33 49.024 153.586 49.1C153.842 49.172 154.14 49.238 154.48 49.298C154.792 49.354 155.096 49.426 155.392 49.514C155.688 49.598 155.954 49.71 156.19 49.85C156.43 49.99 156.62 50.17 156.76 50.39C156.904 50.61 156.976 50.88 156.976 51.2C156.976 51.532 156.9 51.818 156.748 52.058C156.596 52.298 156.388 52.498 156.124 52.658C155.864 52.814 155.566 52.93 155.23 53.006C154.898 53.086 154.548 53.126 154.18 53.126ZM160.733 53.114C160.281 53.114 159.905 53.038 159.605 52.886C159.305 52.73 159.067 52.528 158.891 52.28C158.715 52.028 158.591 51.754 158.519 51.458C158.447 51.158 158.411 50.866 158.411 50.582C158.411 50.434 158.411 50.28 158.411 50.12C158.411 49.956 158.411 49.792 158.411 49.628V46.628H159.719V49.442C159.719 49.586 159.719 49.728 159.719 49.868C159.719 50.004 159.719 50.132 159.719 50.252C159.719 50.56 159.759 50.844 159.839 51.104C159.919 51.36 160.059 51.568 160.259 51.728C160.463 51.884 160.747 51.962 161.111 51.962C161.451 51.962 161.747 51.862 161.999 51.662C162.251 51.458 162.447 51.202 162.587 50.894C162.727 50.582 162.797 50.27 162.797 49.958L163.367 50.264C163.367 50.632 163.305 50.986 163.181 51.326C163.061 51.666 162.887 51.972 162.659 52.244C162.431 52.512 162.153 52.724 161.825 52.88C161.501 53.036 161.137 53.114 160.733 53.114ZM162.797 53V46.628H164.099V53H162.797ZM166.209 50.27V49.256H170.901L170.721 49.556C170.721 49.532 170.721 49.508 170.721 49.484C170.721 49.456 170.721 49.432 170.721 49.412C170.721 49.088 170.651 48.79 170.511 48.518C170.371 48.242 170.161 48.022 169.881 47.858C169.605 47.69 169.259 47.606 168.843 47.606C168.427 47.606 168.061 47.696 167.745 47.876C167.433 48.052 167.189 48.304 167.013 48.632C166.841 48.956 166.755 49.346 166.755 49.802C166.755 50.266 166.839 50.666 167.007 51.002C167.175 51.334 167.417 51.59 167.733 51.77C168.049 51.95 168.427 52.04 168.867 52.04C169.175 52.04 169.441 52.01 169.665 51.95C169.893 51.886 170.079 51.802 170.223 51.698C170.371 51.594 170.483 51.482 170.559 51.362C170.635 51.238 170.679 51.116 170.691 50.996H171.987C171.963 51.256 171.877 51.514 171.729 51.77C171.585 52.022 171.379 52.252 171.111 52.46C170.847 52.664 170.523 52.828 170.139 52.952C169.759 53.072 169.321 53.132 168.825 53.132C168.161 53.132 167.579 52.992 167.079 52.712C166.579 52.432 166.189 52.044 165.909 51.548C165.629 51.048 165.489 50.476 165.489 49.832C165.489 49.176 165.631 48.6 165.915 48.104C166.199 47.608 166.593 47.222 167.097 46.946C167.601 46.666 168.179 46.526 168.831 46.526C169.495 46.526 170.069 46.666 170.553 46.946C171.041 47.226 171.417 47.612 171.681 48.104C171.945 48.596 172.077 49.162 172.077 49.802C172.077 49.878 172.075 49.966 172.071 50.066C172.067 50.166 172.061 50.234 172.053 50.27H166.209ZM176.036 53.126C175.656 53.126 175.298 53.084 174.962 53C174.626 52.916 174.33 52.794 174.074 52.634C173.822 52.47 173.624 52.268 173.48 52.028C173.34 51.788 173.27 51.51 173.27 51.194C173.27 51.166 173.27 51.138 173.27 51.11C173.27 51.078 173.27 51.052 173.27 51.032H174.566C174.566 51.052 174.566 51.07 174.566 51.086C174.566 51.102 174.566 51.124 174.566 51.152C174.566 51.444 174.7 51.666 174.968 51.818C175.24 51.966 175.608 52.04 176.072 52.04C176.344 52.04 176.592 52.012 176.816 51.956C177.044 51.9 177.224 51.814 177.356 51.698C177.492 51.582 177.56 51.434 177.56 51.254C177.56 50.962 177.416 50.754 177.128 50.63C176.844 50.506 176.412 50.396 175.832 50.3C175.516 50.244 175.21 50.172 174.914 50.084C174.622 49.996 174.358 49.88 174.122 49.736C173.89 49.588 173.704 49.406 173.564 49.19C173.428 48.97 173.36 48.706 173.36 48.398C173.36 47.998 173.48 47.658 173.72 47.378C173.96 47.098 174.284 46.886 174.692 46.742C175.1 46.598 175.55 46.526 176.042 46.526C176.518 46.526 176.958 46.604 177.362 46.76C177.77 46.912 178.098 47.134 178.346 47.426C178.594 47.714 178.718 48.068 178.718 48.488C178.718 48.504 178.718 48.522 178.718 48.542C178.718 48.562 178.718 48.58 178.718 48.596H177.428C177.428 48.58 177.428 48.566 177.428 48.554C177.428 48.542 177.428 48.528 177.428 48.512C177.428 48.304 177.362 48.134 177.23 48.002C177.098 47.87 176.926 47.772 176.714 47.708C176.506 47.64 176.284 47.606 176.048 47.606C175.832 47.606 175.614 47.63 175.394 47.678C175.178 47.722 174.998 47.8 174.854 47.912C174.71 48.02 174.638 48.168 174.638 48.356C174.638 48.548 174.708 48.702 174.848 48.818C174.988 48.93 175.186 49.024 175.442 49.1C175.698 49.172 175.996 49.238 176.336 49.298C176.648 49.354 176.952 49.426 177.248 49.514C177.544 49.598 177.81 49.71 178.046 49.85C178.286 49.99 178.476 50.17 178.616 50.39C178.76 50.61 178.832 50.88 178.832 51.2C178.832 51.532 178.756 51.818 178.604 52.058C178.452 52.298 178.244 52.498 177.98 52.658C177.72 52.814 177.422 52.93 177.086 53.006C176.754 53.086 176.404 53.126 176.036 53.126ZM183.266 53V46.628H184.568V48.662L184.22 48.506C184.248 48.246 184.314 47.998 184.418 47.762C184.522 47.526 184.66 47.316 184.832 47.132C185.008 46.944 185.224 46.796 185.48 46.688C185.736 46.58 186.032 46.526 186.368 46.526C186.624 46.526 186.83 46.546 186.986 46.586C187.146 46.626 187.244 46.658 187.28 46.682L187.004 47.906C186.964 47.878 186.882 47.842 186.758 47.798C186.638 47.754 186.47 47.732 186.254 47.732C185.926 47.732 185.654 47.79 185.438 47.906C185.222 48.022 185.05 48.176 184.922 48.368C184.794 48.56 184.702 48.77 184.646 48.998C184.594 49.222 184.568 49.448 184.568 49.676V53H183.266ZM188.673 50.27V49.256H193.365L193.185 49.556C193.185 49.532 193.185 49.508 193.185 49.484C193.185 49.456 193.185 49.432 193.185 49.412C193.185 49.088 193.115 48.79 192.975 48.518C192.835 48.242 192.625 48.022 192.345 47.858C192.069 47.69 191.723 47.606 191.307 47.606C190.891 47.606 190.525 47.696 190.209 47.876C189.897 48.052 189.653 48.304 189.477 48.632C189.305 48.956 189.219 49.346 189.219 49.802C189.219 50.266 189.303 50.666 189.471 51.002C189.639 51.334 189.881 51.59 190.197 51.77C190.513 51.95 190.891 52.04 191.331 52.04C191.639 52.04 191.905 52.01 192.129 51.95C192.357 51.886 192.543 51.802 192.687 51.698C192.835 51.594 192.947 51.482 193.023 51.362C193.099 51.238 193.143 51.116 193.155 50.996H194.451C194.427 51.256 194.341 51.514 194.193 51.77C194.049 52.022 193.843 52.252 193.575 52.46C193.311 52.664 192.987 52.828 192.603 52.952C192.223 53.072 191.785 53.132 191.289 53.132C190.625 53.132 190.043 52.992 189.543 52.712C189.043 52.432 188.653 52.044 188.373 51.548C188.093 51.048 187.953 50.476 187.953 49.832C187.953 49.176 188.095 48.6 188.379 48.104C188.663 47.608 189.057 47.222 189.561 46.946C190.065 46.666 190.643 46.526 191.295 46.526C191.959 46.526 192.533 46.666 193.017 46.946C193.505 47.226 193.881 47.612 194.145 48.104C194.409 48.596 194.541 49.162 194.541 49.802C194.541 49.878 194.539 49.966 194.535 50.066C194.531 50.166 194.525 50.234 194.517 50.27H188.673ZM200.529 53V50.06C200.529 49.888 200.529 49.742 200.529 49.622C200.529 49.502 200.529 49.39 200.529 49.286C200.529 48.974 200.481 48.7 200.385 48.464C200.289 48.224 200.131 48.038 199.911 47.906C199.691 47.77 199.397 47.702 199.029 47.702C198.705 47.702 198.411 47.782 198.147 47.942C197.887 48.102 197.679 48.32 197.523 48.596C197.371 48.868 197.295 49.178 197.295 49.526L196.737 49.25C196.737 48.734 196.859 48.272 197.103 47.864C197.347 47.452 197.673 47.126 198.081 46.886C198.493 46.646 198.943 46.526 199.431 46.526C199.935 46.526 200.365 46.624 200.721 46.82C201.081 47.012 201.355 47.288 201.543 47.648C201.735 48.004 201.831 48.43 201.831 48.926C201.831 49.11 201.831 49.314 201.831 49.538C201.831 49.762 201.831 49.978 201.831 50.186V53H200.529ZM195.993 53V46.628H197.295V53H195.993ZM206.109 53.126C205.585 53.126 205.103 53 204.663 52.748C204.223 52.492 203.871 52.116 203.607 51.62C203.343 51.124 203.211 50.518 203.211 49.802C203.211 49.102 203.345 48.508 203.613 48.02C203.881 47.532 204.235 47.162 204.675 46.91C205.115 46.654 205.593 46.526 206.109 46.526C206.605 46.526 207.065 46.646 207.489 46.886C207.917 47.126 208.261 47.46 208.521 47.888C208.781 48.312 208.911 48.802 208.911 49.358C208.911 49.374 208.911 49.39 208.911 49.406C208.911 49.418 208.911 49.43 208.911 49.442L208.155 49.466C208.155 49.454 208.155 49.442 208.155 49.43C208.155 49.414 208.155 49.4 208.155 49.388C208.155 49.056 208.071 48.762 207.903 48.506C207.735 48.246 207.513 48.042 207.237 47.894C206.965 47.742 206.675 47.666 206.367 47.666C205.851 47.666 205.419 47.84 205.071 48.188C204.723 48.532 204.549 49.07 204.549 49.802C204.549 50.53 204.723 51.07 205.071 51.422C205.423 51.77 205.855 51.944 206.367 51.944C206.687 51.944 206.983 51.868 207.255 51.716C207.527 51.56 207.745 51.348 207.909 51.08C208.073 50.812 208.155 50.506 208.155 50.162L208.911 50.192C208.911 50.744 208.785 51.242 208.533 51.686C208.285 52.13 207.949 52.482 207.525 52.742C207.105 52.998 206.633 53.126 206.109 53.126ZM208.155 53V43.622H209.463V53H208.155ZM211.595 50.27V49.256H216.287L216.107 49.556C216.107 49.532 216.107 49.508 216.107 49.484C216.107 49.456 216.107 49.432 216.107 49.412C216.107 49.088 216.037 48.79 215.897 48.518C215.757 48.242 215.547 48.022 215.267 47.858C214.991 47.69 214.645 47.606 214.229 47.606C213.813 47.606 213.447 47.696 213.131 47.876C212.819 48.052 212.575 48.304 212.399 48.632C212.227 48.956 212.141 49.346 212.141 49.802C212.141 50.266 212.225 50.666 212.393 51.002C212.561 51.334 212.803 51.59 213.119 51.77C213.435 51.95 213.813 52.04 214.253 52.04C214.561 52.04 214.827 52.01 215.051 51.95C215.279 51.886 215.465 51.802 215.609 51.698C215.757 51.594 215.869 51.482 215.945 51.362C216.021 51.238 216.065 51.116 216.077 50.996H217.373C217.349 51.256 217.263 51.514 217.115 51.77C216.971 52.022 216.765 52.252 216.497 52.46C216.233 52.664 215.909 52.828 215.525 52.952C215.145 53.072 214.707 53.132 214.211 53.132C213.547 53.132 212.965 52.992 212.465 52.712C211.965 52.432 211.575 52.044 211.295 51.548C211.015 51.048 210.875 50.476 210.875 49.832C210.875 49.176 211.017 48.6 211.301 48.104C211.585 47.608 211.979 47.222 212.483 46.946C212.987 46.666 213.565 46.526 214.217 46.526C214.881 46.526 215.455 46.666 215.939 46.946C216.427 47.226 216.803 47.612 217.067 48.104C217.331 48.596 217.463 49.162 217.463 49.802C217.463 49.878 217.461 49.966 217.457 50.066C217.453 50.166 217.447 50.234 217.439 50.27H211.595ZM218.915 53V46.628H220.217V48.662L219.869 48.506C219.897 48.246 219.963 47.998 220.067 47.762C220.171 47.526 220.309 47.316 220.481 47.132C220.657 46.944 220.873 46.796 221.129 46.688C221.385 46.58 221.681 46.526 222.017 46.526C222.273 46.526 222.479 46.546 222.635 46.586C222.795 46.626 222.893 46.658 222.929 46.682L222.653 47.906C222.613 47.878 222.531 47.842 222.407 47.798C222.287 47.754 222.119 47.732 221.903 47.732C221.575 47.732 221.303 47.79 221.087 47.906C220.871 48.022 220.699 48.176 220.571 48.368C220.443 48.56 220.351 48.77 220.295 48.998C220.243 49.222 220.217 49.448 220.217 49.676V53H218.915ZM223.995 53V46.628H225.279V53H223.995ZM224.643 45.308C224.419 45.308 224.225 45.248 224.061 45.128C223.901 45.004 223.821 44.834 223.821 44.618C223.821 44.406 223.901 44.24 224.061 44.12C224.225 43.996 224.419 43.934 224.643 43.934C224.863 43.934 225.053 43.996 225.213 44.12C225.377 44.24 225.459 44.406 225.459 44.618C225.459 44.834 225.377 45.004 225.213 45.128C225.053 45.248 224.863 45.308 224.643 45.308ZM231.548 53V50.06C231.548 49.888 231.548 49.742 231.548 49.622C231.548 49.502 231.548 49.39 231.548 49.286C231.548 48.974 231.5 48.7 231.404 48.464C231.308 48.224 231.15 48.038 230.93 47.906C230.71 47.77 230.416 47.702 230.048 47.702C229.724 47.702 229.43 47.782 229.166 47.942C228.906 48.102 228.698 48.32 228.542 48.596C228.39 48.868 228.314 49.178 228.314 49.526L227.756 49.25C227.756 48.734 227.878 48.272 228.122 47.864C228.366 47.452 228.692 47.126 229.1 46.886C229.512 46.646 229.962 46.526 230.45 46.526C230.954 46.526 231.384 46.624 231.74 46.82C232.1 47.012 232.374 47.288 232.562 47.648C232.754 48.004 232.85 48.43 232.85 48.926C232.85 49.11 232.85 49.314 232.85 49.538C232.85 49.762 232.85 49.978 232.85 50.186V53H231.548ZM227.012 53V46.628H228.314V53H227.012ZM238.671 52.49C239.031 52.522 239.347 52.59 239.619 52.694C239.891 52.794 240.103 52.942 240.255 53.138C240.411 53.338 240.489 53.6 240.489 53.924C240.489 54.288 240.365 54.604 240.117 54.872C239.873 55.144 239.507 55.354 239.019 55.502C238.531 55.654 237.925 55.73 237.201 55.73C236.165 55.73 235.375 55.58 234.831 55.28C234.287 54.98 234.015 54.572 234.015 54.056C234.015 53.9 234.033 53.762 234.069 53.642C234.105 53.522 234.149 53.422 234.201 53.342L235.413 53.522C235.385 53.562 235.357 53.62 235.329 53.696C235.301 53.776 235.287 53.872 235.287 53.984C235.287 54.268 235.461 54.47 235.809 54.59C236.157 54.71 236.639 54.77 237.255 54.77C237.707 54.77 238.081 54.738 238.377 54.674C238.677 54.614 238.901 54.526 239.049 54.41C239.197 54.294 239.271 54.158 239.271 54.002C239.271 53.766 239.169 53.618 238.965 53.558C238.761 53.498 238.515 53.456 238.227 53.432L235.809 53.234C235.389 53.198 235.045 53.072 234.777 52.856C234.513 52.64 234.381 52.368 234.381 52.04C234.381 51.836 234.433 51.646 234.537 51.47C234.641 51.294 234.761 51.146 234.897 51.026C235.037 50.906 235.157 50.832 235.257 50.804L236.109 51.212C236.017 51.224 235.905 51.286 235.773 51.398C235.645 51.506 235.581 51.634 235.581 51.782C235.581 51.918 235.637 52.03 235.749 52.118C235.865 52.206 236.089 52.264 236.421 52.292L238.671 52.49ZM239.469 46.628H240.651L240.165 49.118C240.077 49.582 239.915 50.002 239.679 50.378C239.447 50.75 239.131 51.044 238.731 51.26C238.335 51.476 237.841 51.584 237.249 51.584C236.633 51.584 236.103 51.478 235.659 51.266C235.215 51.054 234.873 50.76 234.633 50.384C234.397 50.004 234.279 49.572 234.279 49.088C234.279 48.596 234.401 48.156 234.645 47.768C234.893 47.38 235.233 47.076 235.665 46.856C236.101 46.636 236.599 46.526 237.159 46.526C237.631 46.526 238.049 46.606 238.413 46.766C238.781 46.926 239.073 47.13 239.289 47.378C239.505 47.626 239.623 47.884 239.643 48.152L239.271 48.194L239.469 46.628ZM237.243 50.522C237.591 50.522 237.891 50.466 238.143 50.354C238.395 50.238 238.589 50.072 238.725 49.856C238.861 49.636 238.929 49.372 238.929 49.064C238.929 48.76 238.861 48.5 238.725 48.284C238.589 48.064 238.395 47.896 238.143 47.78C237.891 47.66 237.593 47.6 237.249 47.6C236.917 47.6 236.623 47.662 236.367 47.786C236.115 47.906 235.917 48.076 235.773 48.296C235.629 48.516 235.557 48.778 235.557 49.082C235.557 49.386 235.625 49.646 235.761 49.862C235.897 50.074 236.091 50.238 236.343 50.354C236.595 50.466 236.895 50.522 237.243 50.522ZM247.607 53.108C247.395 53.108 247.183 53.086 246.971 53.042C246.763 52.998 246.571 52.918 246.395 52.802C246.223 52.682 246.085 52.512 245.981 52.292C245.877 52.072 245.825 51.784 245.825 51.428C245.825 51.344 245.825 51.256 245.825 51.164C245.825 51.072 245.825 50.978 245.825 50.882V47.708H244.295V46.628H245.099C245.271 46.628 245.405 46.622 245.501 46.61C245.601 46.594 245.673 46.56 245.717 46.508C245.765 46.452 245.795 46.364 245.807 46.244C245.819 46.124 245.825 45.96 245.825 45.752V44.522H247.127V46.628H249.077V47.708H247.127V50.534C247.127 50.614 247.127 50.694 247.127 50.774C247.127 50.854 247.127 50.928 247.127 50.996C247.127 51.316 247.165 51.568 247.241 51.752C247.321 51.936 247.501 52.028 247.781 52.028C247.901 52.028 248.015 52.018 248.123 51.998C248.231 51.978 248.313 51.956 248.369 51.932V52.994C248.297 53.022 248.195 53.048 248.063 53.072C247.931 53.096 247.779 53.108 247.607 53.108ZM254.863 53V50.666C254.863 50.562 254.863 50.436 254.863 50.288C254.863 50.14 254.863 49.99 254.863 49.838C254.863 49.682 254.863 49.552 254.863 49.448C254.863 48.876 254.745 48.442 254.509 48.146C254.277 47.85 253.895 47.702 253.363 47.702C253.007 47.702 252.699 47.772 252.439 47.912C252.179 48.052 251.977 48.244 251.833 48.488C251.693 48.732 251.623 49.01 251.623 49.322L251.011 49.07C251.011 48.586 251.127 48.154 251.359 47.774C251.595 47.39 251.917 47.086 252.325 46.862C252.737 46.638 253.207 46.526 253.735 46.526C254.503 46.526 255.099 46.756 255.523 47.216C255.951 47.672 256.165 48.308 256.165 49.124C256.165 49.332 256.165 49.578 256.165 49.862C256.165 50.142 256.165 50.448 256.165 50.78V53H254.863ZM250.321 53V43.622H251.623V53H250.321ZM257.827 53V46.628H259.111V53H257.827ZM258.475 45.308C258.251 45.308 258.057 45.248 257.893 45.128C257.733 45.004 257.653 44.834 257.653 44.618C257.653 44.406 257.733 44.24 257.893 44.12C258.057 43.996 258.251 43.934 258.475 43.934C258.695 43.934 258.885 43.996 259.045 44.12C259.209 44.24 259.291 44.406 259.291 44.618C259.291 44.834 259.209 45.004 259.045 45.128C258.885 45.248 258.695 45.308 258.475 45.308ZM263.352 53.126C262.972 53.126 262.614 53.084 262.278 53C261.942 52.916 261.646 52.794 261.39 52.634C261.138 52.47 260.94 52.268 260.796 52.028C260.656 51.788 260.586 51.51 260.586 51.194C260.586 51.166 260.586 51.138 260.586 51.11C260.586 51.078 260.586 51.052 260.586 51.032H261.882C261.882 51.052 261.882 51.07 261.882 51.086C261.882 51.102 261.882 51.124 261.882 51.152C261.882 51.444 262.016 51.666 262.284 51.818C262.556 51.966 262.924 52.04 263.388 52.04C263.66 52.04 263.908 52.012 264.132 51.956C264.36 51.9 264.54 51.814 264.672 51.698C264.808 51.582 264.876 51.434 264.876 51.254C264.876 50.962 264.732 50.754 264.444 50.63C264.16 50.506 263.728 50.396 263.148 50.3C262.832 50.244 262.526 50.172 262.23 50.084C261.938 49.996 261.674 49.88 261.438 49.736C261.206 49.588 261.02 49.406 260.88 49.19C260.744 48.97 260.676 48.706 260.676 48.398C260.676 47.998 260.796 47.658 261.036 47.378C261.276 47.098 261.6 46.886 262.008 46.742C262.416 46.598 262.866 46.526 263.358 46.526C263.834 46.526 264.274 46.604 264.678 46.76C265.086 46.912 265.414 47.134 265.662 47.426C265.91 47.714 266.034 48.068 266.034 48.488C266.034 48.504 266.034 48.522 266.034 48.542C266.034 48.562 266.034 48.58 266.034 48.596H264.744C264.744 48.58 264.744 48.566 264.744 48.554C264.744 48.542 264.744 48.528 264.744 48.512C264.744 48.304 264.678 48.134 264.546 48.002C264.414 47.87 264.242 47.772 264.03 47.708C263.822 47.64 263.6 47.606 263.364 47.606C263.148 47.606 262.93 47.63 262.71 47.678C262.494 47.722 262.314 47.8 262.17 47.912C262.026 48.02 261.954 48.168 261.954 48.356C261.954 48.548 262.024 48.702 262.164 48.818C262.304 48.93 262.502 49.024 262.758 49.1C263.014 49.172 263.312 49.238 263.652 49.298C263.964 49.354 264.268 49.426 264.564 49.514C264.86 49.598 265.126 49.71 265.362 49.85C265.602 49.99 265.792 50.17 265.932 50.39C266.076 50.61 266.148 50.88 266.148 51.2C266.148 51.532 266.072 51.818 265.92 52.058C265.768 52.298 265.56 52.498 265.296 52.658C265.036 52.814 264.738 52.93 264.402 53.006C264.07 53.086 263.72 53.126 263.352 53.126Z" fill="white"/>
</svg>
