<svg width="1440" height="406" viewBox="0 0 1440 406" fill="none" xmlns="http://www.w3.org/2000/svg">
<path d="M716 3689C1709.81 3689 2516 2885.88 2516 1894.5C2516 903.12 1709.81 100 716 100C-277.807 100 -1084 903.12 -1084 1894.5C-1084 2885.88 -277.807 3689 716 3689Z" stroke="url(#paint0_linear_203_523)" stroke-width="200"/>
<circle cx="486" cy="112" r="55" fill="white"/>
<path d="M527.722 103.521C527.721 103.514 527.72 103.504 527.719 103.497C527.656 102.982 527.187 102.616 526.672 102.679C526.521 102.698 526.384 102.752 526.264 102.832L526.27 102.828C525.355 103.75 524.137 104.405 522.749 104.627L522.739 104.628C520.989 104.676 521.055 100.734 521.055 100.734C521.055 100.734 521 97.1396 519.941 96.9757C518.882 96.8119 517.782 98.1771 517.782 98.1771C516.952 99.41 516.328 100.812 515.972 102.308L515.953 102.4L515.758 102.485C515.733 101.832 515.671 101.078 515.577 100.317C515.465 99.4047 515.311 98.5112 515.114 97.6332L515.138 97.7431C514.882 97.3269 513.018 97.5933 512.812 98.4149C512.301 100.935 511.993 103.884 511.965 106.884L511.968 107.13C510.603 108.62 508.894 109.838 506.953 110.643L506.854 110.679C504.352 111.396 503.551 109.878 503.551 109.878C503.551 109.878 510.232 107.097 509.314 101.599C508.396 96.1003 503.305 98.7997 502.748 99.3294C500.467 101.349 499.079 104.239 499.052 107.383L499.052 107.438C499.05 107.619 499.081 108.398 499.081 108.398C497.984 109.373 496.707 110.302 495.343 111.102L495.192 111.182C495.192 111.182 498.498 103.651 493.016 101.081C490.536 99.9746 489.063 103.118 489.063 103.118C489.063 103.118 495.003 94.6114 492.693 88.3205C491.581 85.3304 490 85.1793 488.648 85.8578C487.498 86.4262 486.585 87.2799 485.953 88.3142L485.945 88.3289C484.496 91.4182 483.696 94.9746 483.754 98.6784L483.757 98.784C483.85 104.858 483.793 112.246 483.793 112.246C483.195 112.996 482.385 113.581 481.44 113.895L481.407 113.906C480.189 114.117 480.282 110.367 480.282 110.367C480.282 110.367 480.54 104.619 480.357 103.681C480.173 102.744 480.035 102.234 478.887 102.04C477.739 101.846 476.683 103.404 476.683 103.404C476.683 103.404 474.051 108.686 473.874 109.466L473.746 109.789L473.556 109.608C473.556 109.608 475.012 102.677 472.828 102.842C470.645 103.008 469.521 105.658 469.521 105.658C469.521 105.658 467.555 110.102 467.512 110.582L467.322 110.401C467.532 108.577 467.568 106.482 467.396 104.357L467.392 104.292C467.27 103.747 466.76 103.376 466.198 103.445C466.107 103.456 466.024 103.476 465.942 103.507L465.949 103.506C465.949 103.506 464.501 103.516 464.247 104.474C463.806 107.036 463.52 110.133 463.455 113.274L463.457 113.629C461.947 115.076 460.065 116.223 457.955 116.905L457.865 116.93C455.519 117.242 455.575 115.701 455.575 115.701C455.575 115.701 463.798 111.705 460.737 106.2C459.818 105.113 458.407 104.504 456.909 104.688C456.764 104.705 456.62 104.73 456.481 104.761L456.497 104.759C454.065 105.293 452.258 107.217 451.807 109.558L451.799 109.604C451.434 110.831 451.249 112.22 451.298 113.649L451.301 113.7C451.098 113.773 450.859 113.826 450.609 113.857C449.993 113.933 449.398 113.842 448.865 113.617L448.883 113.625C447.991 113.044 447.62 113.78 447.62 113.78C447.62 113.78 446.422 115.711 447.902 116.076C448.973 116.306 450.208 116.428 451.467 116.414L451.545 116.411C452.096 117.919 453.141 119.109 454.461 119.846L454.48 119.857C457.269 121.476 461.882 118.781 461.882 118.781L463.752 117.424C463.752 117.424 464.039 119.258 465.539 119.343C467.04 119.429 467.625 119.217 469.405 112.731C470.506 109.391 470.632 109.557 470.632 109.557L470.792 109.499C470.585 111.565 470.606 113.91 470.897 116.28C470.934 116.579 470.974 116.875 471.02 117.17L471.015 117.126C471.654 118.688 473.568 118.299 473.568 118.299C473.568 118.299 474.652 118.474 475.124 115.392C475.588 112.823 476.17 110.633 476.911 108.512L476.825 108.789L477.007 108.767C476.981 109.696 477.03 110.76 477.161 111.834C477.38 113.611 477.81 115.308 478.423 116.907L478.375 116.766C479.694 118.603 482.355 116.954 482.355 116.954C483.191 116.414 483.883 115.895 484.538 115.333L484.473 115.385C485.929 116.252 487.699 116.667 489.537 116.441C489.809 116.408 490.074 116.362 490.336 116.302L490.303 116.31C493.969 115.33 497.197 113.765 500.028 111.719L499.886 111.815C501.098 113.641 503.204 114.732 505.474 114.549L505.488 114.548C505.764 114.544 506.079 114.523 506.399 114.484C508.729 114.198 510.737 113.025 512.12 111.345L512.117 111.349C512.248 112.388 512.977 113.208 513.916 113.506L513.934 113.511C515.578 113.961 516.193 110.312 516.193 110.312L517.918 102.77L518.157 102.741C518.157 102.741 518.877 107.429 521.54 107.861C521.765 107.854 522.026 107.836 522.285 107.804C524.244 107.563 525.967 106.678 527.271 105.387L527.253 105.403C527.646 105.017 527.859 104.468 527.787 103.885C527.77 103.747 527.737 103.618 527.695 103.493L527.7 103.506L527.722 103.521ZM454.858 113.144C454.463 109.092 456.901 107.012 457.913 107.773C458.926 108.534 458.836 110.479 457.249 111.88C455.661 113.281 454.856 113.151 454.856 113.151L454.858 113.144ZM487.372 93.2759C487.372 93.2759 489.026 86.7034 489.955 89.6784C490.884 92.6534 486.396 102.441 486.396 102.441C486.538 98.8969 486.89 95.8056 487.441 92.7754L487.369 93.2763L487.372 93.2759ZM492.382 110.396C492.07 112.112 490.7 113.476 488.909 113.696C488.313 113.769 487.732 113.707 487.194 113.534L487.219 113.541C487.134 113.179 487.058 112.758 487.006 112.33C486.809 110.731 486.942 109.167 487.35 107.706L487.329 107.787C488.065 103.456 491.221 104.719 491.221 104.719C491.221 104.719 493.457 106.037 492.379 110.393L492.382 110.396ZM502.836 107.253C502.798 107.083 502.76 106.887 502.735 106.688C502.584 105.452 502.837 104.263 503.393 103.248L503.385 103.266C504.462 100.544 505.718 101.811 505.718 101.811C506.085 102.19 506.342 102.695 506.413 103.267C506.494 103.93 506.312 104.564 505.95 105.066C505.356 106.24 504.224 107.096 502.841 107.27L502.836 107.253Z" fill="#10AB61"/>
<circle cx="276" cy="153" r="55" fill="white"/>
<g clip-path="url(#clip0_203_523)">
<path d="M295.822 169.834L295.882 169.713C295.94 169.619 295.987 169.518 296.023 169.413V169.403C296.213 168.903 296.254 168.371 296.163 167.838V167.857C296.064 167.293 295.86 166.752 295.561 166.263L295.58 166.283L281.924 142.27L279.839 138.63L264.139 166.283C263.867 166.764 263.698 167.286 263.608 167.827V167.857C263.498 168.479 263.567 169.111 263.817 169.692L263.808 169.673C263.839 169.763 263.889 169.844 263.939 169.933L263.929 169.923C264.341 170.626 265.213 171.467 267.138 171.467H292.544C292.944 171.467 294.92 171.386 295.832 169.832L295.822 169.834ZM279.841 145.922L292.313 167.859H267.379L279.841 145.922ZM306.148 166.287L288.142 134.565C287.951 134.224 286.919 132.539 285.104 132.539C284.292 132.539 283.129 132.89 282.176 134.555L279.851 138.636L281.916 142.286L285.125 136.601L302.941 167.873H296.163C296.254 168.394 296.204 168.926 296.023 169.426V169.407C295.982 169.517 295.942 169.628 295.882 169.728V169.719L295.822 169.84C294.91 171.394 292.944 171.474 292.563 171.474H303.16C303.551 171.474 305.507 171.394 306.419 169.84C306.831 169.128 307.111 167.946 306.148 166.29V166.287ZM263.95 169.925L263.829 169.684V169.675C263.577 169.098 263.5 168.46 263.608 167.84V167.859H249.049L270.686 129.791L277.783 142.272L279.849 138.632L273.652 127.723C273.481 127.413 272.439 125.729 270.634 125.729C269.821 125.729 268.649 126.079 267.706 127.754L245.79 166.285C245.599 166.616 244.696 168.36 245.599 169.913C246.011 170.626 246.883 171.457 248.808 171.457H267.155C265.25 171.457 264.358 170.635 263.946 169.913L263.95 169.925Z" fill="#41B883"/>
</g>
<circle cx="71" cy="223" r="50" fill="white"/>
<path d="M86.8398 215.651C86.3125 215.472 85.7852 215.303 85.2578 215.143C85.3457 214.775 85.4238 214.406 85.502 214.038C86.7031 208.101 85.9121 203.33 83.2461 201.756C80.6777 200.252 76.4883 201.816 72.25 205.581C71.8301 205.95 71.4199 206.338 71.0293 206.726C70.7656 206.468 70.4922 206.209 70.2188 205.959C65.7754 201.935 61.3223 200.242 58.6563 201.826C56.0977 203.34 55.3359 207.832 56.4102 213.45C56.5176 214.008 56.6348 214.556 56.7715 215.114C56.1465 215.293 55.5312 215.492 54.9551 215.701C49.7402 217.544 46 220.453 46 223.461C46 226.569 49.9844 229.686 55.4043 231.579C55.8438 231.728 56.2832 231.878 56.7324 232.007C56.5859 232.605 56.459 233.193 56.3418 233.8C55.3164 239.329 56.1172 243.711 58.6758 245.216C61.3125 246.769 65.7461 245.176 70.0625 241.321C70.4043 241.012 70.7461 240.693 71.0879 240.355C71.5176 240.783 71.9668 241.191 72.416 241.59C76.5957 245.255 80.7266 246.74 83.2754 245.235C85.9121 243.682 86.7715 238.97 85.6582 233.233C85.5703 232.794 85.4727 232.346 85.3652 231.888C85.6777 231.798 85.9805 231.699 86.2832 231.599C91.918 229.696 96 226.618 96 223.461C96 220.443 92.1523 217.514 86.8398 215.651ZM73.627 207.195C77.2598 203.967 80.6484 202.702 82.1914 203.609C83.8418 204.575 84.4766 208.48 83.4414 213.609C83.373 213.948 83.3047 214.277 83.2168 214.606C81.0488 214.108 78.8516 213.749 76.6445 213.55C75.375 211.697 73.9883 209.924 72.4844 208.26C72.8652 207.892 73.2363 207.543 73.627 207.195ZM62.3281 228.631C62.8262 229.497 63.334 230.364 63.8711 231.21C62.3477 231.041 60.834 230.792 59.3398 230.463C59.7695 229.029 60.3066 227.545 60.9316 226.031C61.3809 226.907 61.8398 227.774 62.3281 228.631ZM59.3691 216.648C60.7754 216.329 62.2695 216.07 63.8223 215.871C63.3047 216.697 62.7969 217.544 62.3184 218.401C61.8398 219.247 61.3711 220.114 60.9316 220.991C60.3164 219.506 59.7988 218.052 59.3691 216.648ZM62.0449 223.511C62.6895 222.136 63.3926 220.791 64.1348 219.467C64.877 218.142 65.6777 216.857 66.5176 215.592C67.9824 215.482 69.4766 215.422 71 215.422C72.5234 215.422 74.0273 215.482 75.4824 215.592C76.3125 216.847 77.1035 218.132 77.8555 219.447C78.6074 220.761 79.3105 222.106 79.9746 223.471C79.3203 224.845 78.6172 226.2 77.8652 227.535C77.123 228.86 76.332 230.145 75.502 231.42C74.0469 231.529 72.5332 231.579 71 231.579C69.4668 231.579 67.9824 231.529 66.5469 231.44C65.6973 230.175 64.8965 228.88 64.1445 227.555C63.3926 226.23 62.6992 224.885 62.0449 223.511ZM79.6816 228.611C80.1797 227.734 80.6484 226.848 81.1074 225.951C81.7324 227.395 82.2793 228.86 82.7578 230.364C81.2441 230.712 79.7109 230.981 78.168 231.161C78.6953 230.324 79.1934 229.467 79.6816 228.611ZM81.0879 220.991C80.6289 220.114 80.1602 219.237 79.6719 218.381C79.1934 217.534 78.6953 216.697 78.1777 215.871C79.75 216.07 81.2539 216.339 82.6602 216.668C82.2109 218.142 81.6836 219.576 81.0879 220.991ZM71.0195 209.784C72.0449 210.92 73.0117 212.115 73.9102 213.351C71.9766 213.261 70.0332 213.261 68.0996 213.351C69.0566 212.066 70.043 210.87 71.0195 209.784ZM59.6914 203.678C61.332 202.702 64.9746 204.097 68.8125 207.563C69.0566 207.782 69.3008 208.021 69.5547 208.26C68.041 209.924 66.6445 211.697 65.3652 213.55C63.1582 213.749 60.9707 214.098 58.8027 214.586C58.6758 214.078 58.5684 213.56 58.4609 213.042C57.543 208.221 58.1484 204.585 59.6914 203.678ZM57.2988 229.935C56.8887 229.816 56.4883 229.686 56.0879 229.547C54.0078 228.88 51.6445 227.824 49.9355 226.439C48.9492 225.742 48.2852 224.666 48.0996 223.461C48.0996 221.638 51.1855 219.307 55.6387 217.723C56.1953 217.524 56.7617 217.345 57.3281 217.176C57.9922 219.337 58.793 221.459 59.7207 223.511C58.7832 225.593 57.9727 227.744 57.2988 229.935ZM68.6855 239.697C67.0742 241.201 65.209 242.397 63.1777 243.213C62.0938 243.741 60.8438 243.791 59.7305 243.343C58.1777 242.426 57.5332 238.91 58.4121 234.179C58.5195 233.621 58.6367 233.063 58.7734 232.515C60.9609 232.993 63.168 233.322 65.4043 233.492C66.6934 235.354 68.1094 237.137 69.623 238.811C69.3105 239.119 68.998 239.418 68.6855 239.697ZM71.0781 237.277C70.082 236.181 69.0859 234.966 68.1191 233.661C69.0566 233.701 70.0234 233.721 71 233.721C72.0059 233.721 72.9922 233.701 73.9688 233.651C73.0703 234.916 72.1035 236.121 71.0781 237.277ZM83.8418 240.265C83.7539 241.48 83.168 242.616 82.2305 243.383C80.6777 244.299 77.3672 243.104 73.793 239.976C73.3828 239.618 72.9727 239.229 72.5527 238.831C74.0469 237.147 75.4238 235.364 76.6738 233.492C78.9102 233.302 81.1367 232.954 83.334 232.446C83.4316 232.854 83.5195 233.262 83.5977 233.661C84.0762 235.812 84.1543 238.054 83.8418 240.265ZM85.6191 229.557C85.3457 229.647 85.0723 229.736 84.7891 229.816C84.1055 227.644 83.2656 225.523 82.2988 223.461C83.2363 221.429 84.0273 219.337 84.6914 217.195C85.1992 217.345 85.6875 217.504 86.1562 217.664C90.707 219.257 93.9004 221.628 93.9004 223.441C93.9004 225.393 90.4922 227.913 85.6191 229.557ZM71 228.063C73.4707 228.063 75.4727 226.021 75.4727 223.501C75.4727 220.981 73.4707 218.939 71 218.939C68.5293 218.939 66.5273 220.981 66.5273 223.501C66.5273 226.021 68.5293 228.063 71 228.063Z" fill="#61DBFB"/>
<circle cx="1313" cy="203" r="50" fill="white"/>
<g clip-path="url(#clip1_203_523)">
<path d="M1295.53 193.429H1307.95V194.422H1296.67V201.9H1307.28V202.894H1296.67V211.104H1308.08V212.097H1295.53V193.429ZM1309.06 193.429H1310.38L1316.23 201.639L1322.2 193.429L1330.33 183L1316.98 202.502L1323.86 212.097H1322.49L1316.23 203.364L1309.94 212.097H1308.6L1315.53 202.502L1309.06 193.429H1309.06ZM1324.35 194.422V193.429H1338.5V194.422H1331.98V212.097H1330.84V194.422H1324.35ZM1280 193.429H1281.42L1301.04 222.985L1292.93 212.097L1281.19 194.841L1281.14 212.098H1280V193.429ZM1338.39 210.804C1338.15 210.804 1337.98 210.623 1337.98 210.388C1337.98 210.154 1338.15 209.972 1338.39 209.972C1338.62 209.972 1338.79 210.154 1338.79 210.388C1338.79 210.622 1338.62 210.804 1338.39 210.804ZM1339.5 209.71H1340.11C1340.12 210.042 1340.36 210.265 1340.72 210.265C1341.11 210.265 1341.34 210.025 1341.34 209.576V206.729H1341.96V209.579C1341.96 210.388 1341.49 210.854 1340.72 210.854C1340 210.854 1339.5 210.402 1339.5 209.71V209.71ZM1342.77 209.674H1343.38C1343.44 210.056 1343.81 210.299 1344.34 210.299C1344.84 210.299 1345.2 210.039 1345.2 209.682C1345.2 209.375 1344.97 209.191 1344.44 209.065L1343.93 208.94C1343.21 208.769 1342.88 208.418 1342.88 207.826C1342.88 207.109 1343.46 206.632 1344.33 206.632C1345.14 206.632 1345.73 207.109 1345.77 207.787H1345.17C1345.11 207.416 1344.79 207.184 1344.32 207.184C1343.83 207.184 1343.51 207.422 1343.51 207.784C1343.51 208.072 1343.72 208.236 1344.24 208.359L1344.68 208.468C1345.5 208.661 1345.83 208.996 1345.83 209.601C1345.83 210.371 1345.24 210.854 1344.29 210.854C1343.41 210.854 1342.81 210.394 1342.77 209.674V209.674Z" fill="black"/>
</g>
<circle cx="1108" cy="140" r="55" fill="white"/>
<g clip-path="url(#clip2_203_523)">
<path fill-rule="evenodd" clip-rule="evenodd" d="M1127.51 121.258C1128.99 123.631 1129.7 126.406 1129.54 129.199C1129.37 131.993 1128.35 134.666 1126.6 136.85C1128 139.837 1128.25 143.233 1127.32 146.397C1126.39 149.561 1124.33 152.273 1121.53 154.02L1107.22 162.96C1104.52 164.655 1101.31 165.338 1098.15 164.886C1094.99 164.435 1092.09 162.879 1089.97 160.494C1087.85 158.11 1086.64 155.051 1086.57 151.861C1086.49 148.671 1087.54 145.556 1089.54 143.07C1088.14 140.083 1087.88 136.687 1088.82 133.523C1089.75 130.36 1091.81 127.648 1094.61 125.9L1108.91 116.964C1110.41 116.025 1112.09 115.391 1113.84 115.099C1115.58 114.807 1117.37 114.861 1119.1 115.26C1120.82 115.659 1122.46 116.394 1123.9 117.423C1125.34 118.452 1126.57 119.755 1127.51 121.258H1127.51ZM1110.7 119.828C1112.64 118.611 1114.94 118.089 1117.22 118.349C1119.5 118.609 1121.62 119.635 1123.24 121.259C1124.86 122.883 1125.88 125.009 1126.13 127.288C1126.38 129.567 1125.85 131.864 1124.63 133.804C1122.57 131.39 1119.72 129.783 1116.58 129.267L1119.02 127.739L1117.24 124.878L1100.07 135.605L1101.86 138.462L1109.01 133.996C1111.29 132.574 1114.04 132.113 1116.65 132.717C1119.27 133.321 1121.54 134.938 1122.96 137.214C1124.38 139.49 1124.84 142.238 1124.24 144.853C1123.63 147.469 1122.02 149.737 1119.74 151.16L1105.44 160.099C1103.49 161.316 1101.19 161.838 1098.92 161.578C1096.64 161.318 1094.52 160.292 1092.9 158.668C1091.28 157.044 1090.26 154.918 1090.01 152.639C1089.75 150.36 1090.28 148.063 1091.51 146.123C1093.57 148.537 1096.42 150.144 1099.55 150.66L1097.11 152.185L1098.9 155.046L1116.06 144.319L1114.28 141.461L1107.12 145.931C1104.85 147.353 1102.1 147.813 1099.48 147.21C1096.87 146.606 1094.6 144.988 1093.18 142.711C1091.75 140.435 1091.29 137.686 1091.9 135.071C1092.5 132.455 1094.12 130.187 1096.4 128.764L1110.7 119.828Z" fill="#FF3D00"/>
</g>
<circle cx="898" cy="112" r="55" fill="white"/>
<g clip-path="url(#clip3_203_523)">
<path fill-rule="evenodd" clip-rule="evenodd" d="M917.509 93.2584C918.992 95.6311 919.701 98.406 919.538 101.199C919.374 103.993 918.347 106.666 916.598 108.85C917.998 111.837 918.255 115.233 917.321 118.397C916.386 121.561 914.326 124.273 911.528 126.02L897.225 134.96C894.522 136.655 891.305 137.338 888.146 136.886C884.988 136.435 882.091 134.879 879.971 132.494C877.851 130.11 876.644 127.051 876.566 123.861C876.487 120.671 877.542 117.556 879.542 115.07C878.142 112.083 877.885 108.687 878.819 105.523C879.753 102.36 881.814 99.6476 884.612 97.9001L898.911 88.9641C900.414 88.0251 902.087 87.3914 903.835 87.099C905.583 86.8066 907.371 86.8614 909.098 87.2601C910.824 87.6589 912.456 88.3939 913.898 89.423C915.341 90.4522 916.566 91.7555 917.505 93.2584H917.509ZM900.699 91.8281C902.642 90.6107 904.942 90.0893 907.22 90.3493C909.498 90.6094 911.62 91.6354 913.239 93.2594C914.858 94.8834 915.878 97.009 916.13 99.288C916.383 101.567 915.855 103.864 914.631 105.804C912.567 103.39 909.716 101.783 906.582 101.267L909.025 99.7386L907.237 96.878L890.073 107.605L891.861 110.462L899.013 105.996C901.289 104.574 904.037 104.113 906.652 104.717C909.267 105.321 911.535 106.938 912.958 109.214C914.381 111.49 914.841 114.238 914.237 116.853C913.634 119.469 912.016 121.737 909.74 123.16L895.437 132.099C893.494 133.316 891.195 133.838 888.916 133.578C886.638 133.318 884.516 132.292 882.897 130.668C881.278 129.044 880.259 126.918 880.006 124.639C879.753 122.36 880.282 120.063 881.505 118.123C883.569 120.537 886.42 122.144 889.554 122.66L887.108 124.185L888.896 127.046L906.063 116.319L904.275 113.461L897.124 117.931C894.847 119.353 892.099 119.813 889.483 119.21C886.868 118.606 884.599 116.988 883.177 114.711C881.754 112.435 881.294 109.686 881.898 107.071C882.502 104.455 884.12 102.187 886.396 100.764L900.699 91.8281Z" fill="#FF3D00"/>
</g>
<defs>
<linearGradient id="paint0_linear_203_523" x1="-647" y1="200" x2="1523" y2="269.5" gradientUnits="userSpaceOnUse">
<stop stop-color="#EBF0FA"/>
<stop offset="1" stop-color="#F3F6FC"/>
</linearGradient>
<clipPath id="clip0_203_523">
<rect width="61.6" height="61.6" fill="white" transform="translate(245.2 117.799)"/>
</clipPath>
<clipPath id="clip1_203_523">
<rect width="65.8333" height="40" fill="white" transform="translate(1280 183)"/>
</clipPath>
<clipPath id="clip2_203_523">
<rect width="50.6" height="50.6" fill="white" transform="translate(1082.7 114.699)"/>
</clipPath>
<clipPath id="clip3_203_523">
<rect width="50.6" height="50.6" fill="white" transform="translate(872.7 86.6992)"/>
</clipPath>
</defs>
</svg>
