<svg width="670" height="550" viewBox="0 0 670 550" fill="none" xmlns="http://www.w3.org/2000/svg">
<g clip-path="url(#clip0_176_883)">
<path d="M361.336 9.65161C353.625 3.2217 344.176 0 334.713 0C325.385 0 316.043 3.14082 308.387 9.40897L308.144 9.61117C289.812 24.6278 276.008 43.9984 267.731 65.6067L291.858 97.0014H386.289L401.102 65.6067C393 44.0793 379.412 24.7356 361.336 9.65161V9.65161Z" fill="#3366CC"/>
<path d="M325.555 82.1324C333.831 60.5242 347.635 41.1535 365.968 26.1369L366.21 25.9347C368.503 24.057 370.979 22.5 373.53 21.1831C369.734 17.1175 365.659 13.2569 361.336 9.64966C353.625 3.21974 344.176 -0.00195312 334.713 -0.00195312C325.385 -0.00195312 316.043 3.13886 308.387 9.40702L308.144 9.60922C289.812 24.6258 276.008 43.9964 267.731 65.6047L291.858 96.9994H320.857C322.15 91.9526 323.697 86.9825 325.555 82.1324V82.1324Z" fill="#5C85D6"/>
<path d="M409.77 113.151V353.686H258.795V113.879C258.795 97.1639 261.895 80.8397 267.732 65.6074H401.102C406.777 80.6375 409.77 96.719 409.77 113.151Z" fill="#C5D3DD"/>
<path d="M479.15 213.858L477.519 212.133C472.37 206.7 463.716 206.7 458.567 212.133L456.936 213.858C443.442 228.093 433.71 245.253 428.345 263.774L441.37 285.402H500.135L507.741 263.774C502.376 245.253 492.644 228.093 479.15 213.858V213.858Z" fill="#2E5CB8"/>
<path d="M477.529 263.774C480.895 252.155 485.981 241.072 492.636 230.909C488.684 224.873 484.18 219.163 479.152 213.858L477.521 212.133C472.372 206.7 463.718 206.7 458.569 212.133L456.938 213.858C443.444 228.093 433.712 245.253 428.347 263.774L441.372 285.402H473.359C474.1 278.051 475.497 270.811 477.529 263.774V263.774Z" fill="#3366CC"/>
<path d="M512.541 297.648V456.334H423.547V297.648C423.547 286.096 425.191 274.692 428.346 263.773H507.742C510.897 274.692 512.541 286.096 512.541 297.648V297.648Z" fill="#E8EDF2"/>
<path d="M212.977 213.858L211.346 212.133C206.196 206.7 197.542 206.7 192.393 212.133L190.762 213.858C177.268 228.093 167.536 245.253 162.171 263.774L174.722 285.596C174.722 285.596 233.636 287.122 233.636 285.596C233.636 284.07 241.568 263.774 241.568 263.774C236.203 245.253 226.47 228.093 212.977 213.858Z" fill="#507BD3"/>
<path d="M211.356 263.774C214.722 252.155 219.809 241.072 226.463 230.909C222.51 224.873 218.007 219.163 212.979 213.858L211.348 212.133C206.198 206.7 197.544 206.7 192.395 212.133L190.764 213.858C177.27 228.093 167.538 245.253 162.173 263.774L174.724 285.596C174.724 285.596 191.475 286.03 207.113 286.204C207.832 278.578 209.249 271.067 211.356 263.774V263.774Z" fill="#5C85D6"/>
<path d="M246.366 297.648V474.181H157.372V297.648C157.372 286.096 159.017 274.692 162.171 263.773H241.568C244.722 274.692 246.366 286.096 246.366 297.648V297.648Z" fill="#E8EDF2"/>
<path d="M471.662 573.826H538.819C543.213 573.826 546.776 570.263 546.776 565.869V517.404H463.703V565.869C463.703 570.263 467.266 573.826 471.662 573.826V573.826Z" fill="#F79595"/>
<path d="M198.252 573.811H131.095C126.7 573.811 123.138 570.248 123.138 565.854V513.346H206.21V565.854C206.21 570.248 202.646 573.811 198.252 573.811V573.811Z" fill="#F79595"/>
<path d="M392.457 565.299L405.998 594.063C406.602 595.347 406.916 596.749 406.916 598.167V616.6C406.916 621.791 402.707 626 397.516 626H272.396C267.205 626 262.996 621.791 262.996 616.6V598.167C262.996 596.747 263.309 595.347 263.914 594.063L277.455 565.299L290.509 536.766H378.055L392.457 565.299Z" fill="#F79595"/>
<path d="M246.217 291.962L219.07 320.725C214.57 325.493 206.555 322.309 206.555 315.753V297.65C206.555 286.098 208.199 274.694 211.354 263.775H162.171C159.017 274.694 157.372 286.098 157.372 297.65V474.183H206.555V404.422H246.366C246.366 404.422 246.306 293.854 246.217 291.962V291.962Z" fill="#D9E7EC"/>
<path d="M481.013 351.45C475.691 345.748 472.731 338.24 472.731 330.439V297.65C472.731 286.098 474.375 274.694 477.529 263.775H428.347C425.192 274.694 423.548 286.098 423.548 297.65V456.336H460.492H472.732H512.544V385.229L481.013 351.45Z" fill="#D9E7EC"/>
<path d="M371.514 263.775H300.623L98.4651 477.971L132.646 505.093H551.273L571.448 477.971L371.514 263.775Z" fill="#B6C4CF"/>
<path d="M123.138 513.346V565.854C123.138 570.248 126.7 573.811 131.095 573.811H169.757C165.362 573.811 161.799 570.248 161.799 565.854C161.799 558.441 167.809 552.432 175.221 552.432H206.21V513.346H161.799H123.138Z" fill="#F37C7C"/>
<path d="M546.775 552.433V517.405H502.364H463.702V565.869C463.702 570.263 467.265 573.826 471.66 573.826H510.321C505.927 573.826 502.364 570.263 502.364 565.869V565.855C502.364 558.443 508.373 552.433 515.786 552.433H546.775Z" fill="#F37C7C"/>
<path d="M573.645 483.551V524.032C573.645 528.547 569.978 532.214 565.463 532.214H104.45C99.9341 532.214 96.2676 528.547 96.2676 524.032V483.551C96.2676 481.475 97.0494 479.48 98.4648 477.971H571.448C572.863 479.48 573.645 481.475 573.645 483.551Z" fill="#D9E7EC"/>
<path d="M409.77 140.728C405.463 135.421 400.854 130.339 395.938 125.535L372.134 102.27C362.139 92.4985 348.935 87.1173 334.955 87.1173C333.134 87.1173 331.326 87.2117 329.539 87.3977C326.697 87.6915 324.509 84.8648 325.531 82.1958C325.539 82.1756 325.547 82.154 325.555 82.1338C327.73 76.4561 330.296 70.9374 333.217 65.6074H267.732C261.895 80.8397 258.795 97.1639 258.795 113.879V353.686H316.618V225.909H409.77V140.728Z" fill="#B6C4CF"/>
<path d="M405.146 592.255L392.457 565.301L378.055 536.768H330.512H313.087H290.509L277.455 565.301L263.914 594.065C263.31 595.349 262.996 596.75 262.996 598.169V616.602C262.996 621.793 267.205 626.002 272.396 626.002H312.399C307.207 626.002 302.999 621.793 302.999 616.602V609.399C302.999 605.605 306.852 602.907 310.347 604.381C313.094 605.541 316.112 606.182 319.276 606.182H350.636C359.082 606.182 366.476 601.611 370.488 594.816C371.438 593.207 373.2 592.255 375.068 592.255H405.146Z" fill="#F37C7C"/>
<path d="M300.623 263.775L219.406 349.828V505.093H450.507V348.402L371.513 263.775H300.623Z" fill="#9FACBA"/>
<path d="M219.406 477.971H450.506V532.214H219.406V477.971Z" fill="#C5D3DD"/>
<path d="M377.095 144.815L353.289 121.549C350.659 118.978 347.62 117.084 344.387 115.84L342.884 119.773H326.831L324.178 116.419C321.452 117.649 318.883 119.339 316.622 121.547L292.817 144.814C263.107 173.849 246.365 213.615 246.365 255.147V549.912C246.365 558.417 253.253 565.292 261.746 565.292H408.165C416.657 565.292 423.545 558.417 423.545 549.912V255.148C423.546 213.616 406.804 173.851 377.095 144.815V144.815Z" fill="#E8EDF2"/>
<path d="M334.282 328.461C369.95 328.461 398.967 299.444 398.967 263.776C398.967 236.702 382.244 213.469 358.585 203.846C347.975 199.53 343.588 186.74 349.4 176.87C356.256 165.226 364.672 154.433 374.511 144.816L375.802 143.553L353.289 121.549C350.659 118.978 347.62 117.084 344.387 115.84L342.884 119.773H326.831L324.178 116.419C321.452 117.649 318.883 119.339 316.622 121.547L292.817 144.814C263.107 173.849 246.365 213.615 246.365 255.147V549.912C246.365 558.417 253.253 565.292 261.746 565.292H343.438C334.946 565.292 328.057 558.417 328.057 549.912V334.681C328.06 331.243 330.846 328.458 334.282 328.461V328.461Z" fill="#D9E7EC"/>
<path d="M334.282 528.376C339.865 528.376 344.392 523.85 344.392 518.266V115.841C337.874 113.331 330.57 113.536 324.172 116.424V518.266C324.172 523.85 328.699 528.376 334.282 528.376V528.376Z" fill="#C5D3DD"/>
<path d="M324.155 116.39L324.173 283.14H344.393V115.826C337.875 113.316 330.554 113.502 324.155 116.39Z" fill="#C5D3DD"/>
<path d="M334.283 309.588C359.584 309.588 380.095 289.077 380.095 263.776C380.095 238.474 359.584 217.963 334.283 217.963C308.981 217.963 288.47 238.474 288.47 263.776C288.47 289.077 308.981 309.588 334.283 309.588Z" fill="#3366CC"/>
<path d="M324.173 263.776C324.173 244.807 335.702 228.531 352.134 221.571C346.648 219.248 340.615 217.963 334.283 217.963C308.981 217.963 288.47 238.474 288.47 263.776C288.47 289.077 308.981 309.588 334.283 309.588C340.615 309.588 346.648 308.303 352.134 305.98C335.702 299.02 324.173 282.745 324.173 263.776Z" fill="#2E5CB8"/>
<path d="M340.321 257.196H331.513C331.363 257.196 331.218 257.138 331.112 257.034C331.005 256.931 330.945 256.791 330.945 256.645C330.945 256.499 331.005 256.359 331.112 256.255C331.218 256.152 331.363 256.094 331.513 256.094H336.359C338.491 256.094 340.535 255.272 342.043 253.81C343.55 252.348 344.397 250.365 344.397 248.297C344.397 246.229 343.55 244.246 342.043 242.784C340.535 241.321 338.491 240.5 336.359 240.5H327.313V247.852C325.584 248.63 324.121 249.87 323.096 251.428C322.07 252.985 321.525 254.795 321.524 256.643C321.522 257.504 321.639 258.362 321.874 259.192C319.389 260.698 317.476 262.947 316.426 265.6C315.375 268.254 315.244 271.167 316.052 273.899C316.86 276.631 318.563 279.033 320.904 280.743C323.245 282.453 326.096 283.376 329.026 283.375H340.321C343.9 283.375 347.333 281.995 349.863 279.54C352.394 277.085 353.816 273.756 353.816 270.284C353.816 266.812 352.394 263.483 349.863 261.028C347.333 258.573 343.9 257.196 340.321 257.196ZM340.321 280.336H329.026C326.538 280.337 324.134 279.47 322.251 277.893C320.369 276.315 319.135 274.133 318.775 271.746C318.415 269.359 318.954 266.925 320.291 264.891C321.629 262.857 323.677 261.358 326.061 260.669C325.289 259.684 324.817 258.51 324.696 257.279C324.576 256.047 324.813 254.808 325.379 253.7C325.946 252.592 326.821 251.659 327.905 251.008C328.988 250.356 330.238 250.011 331.513 250.012H336.359C336.825 250.012 337.272 249.832 337.601 249.513C337.93 249.193 338.115 248.76 338.115 248.308C338.115 247.856 337.93 247.423 337.601 247.103C337.272 246.784 336.825 246.604 336.359 246.604H330.452V243.548H336.359C337.011 243.534 337.659 243.647 338.266 243.88C338.872 244.112 339.425 244.46 339.891 244.902C340.357 245.345 340.727 245.873 340.98 246.456C341.233 247.039 341.363 247.666 341.363 248.298C341.363 248.931 341.233 249.557 340.98 250.14C340.727 250.723 340.357 251.251 339.891 251.694C339.425 252.136 338.872 252.484 338.266 252.717C337.659 252.949 337.011 253.062 336.359 253.048H331.513C331.019 253.036 330.527 253.121 330.067 253.296C329.606 253.471 329.187 253.734 328.832 254.069C328.478 254.404 328.197 254.805 328.005 255.247C327.813 255.689 327.714 256.164 327.714 256.644C327.714 257.124 327.813 257.599 328.005 258.041C328.197 258.483 328.478 258.883 328.832 259.218C329.187 259.553 329.606 259.816 330.067 259.992C330.527 260.167 331.019 260.251 331.513 260.239H340.321C343.041 260.278 345.635 261.354 347.544 263.233C349.453 265.112 350.523 267.645 350.523 270.283C350.523 272.921 349.453 275.454 347.544 277.333C345.635 279.212 343.041 280.288 340.321 280.327V280.336ZM340.321 263.296H329.026C328.068 263.279 327.116 263.448 326.226 263.792C325.336 264.137 324.526 264.649 323.843 265.3C323.159 265.952 322.616 266.729 322.246 267.586C321.875 268.442 321.685 269.362 321.685 270.292C321.685 271.221 321.875 272.141 322.246 272.998C322.616 273.855 323.159 274.632 323.843 275.283C324.526 275.934 325.336 276.447 326.226 276.791C327.116 277.135 328.068 277.304 329.026 277.288H340.321C341.279 277.304 342.231 277.135 343.121 276.791C344.011 276.447 344.821 275.934 345.504 275.283C346.188 274.632 346.73 273.855 347.101 272.998C347.472 272.141 347.662 271.221 347.662 270.292C347.662 269.362 347.472 268.442 347.101 267.586C346.73 266.729 346.188 265.952 345.504 265.3C344.821 264.649 344.011 264.137 343.121 263.792C342.231 263.448 341.279 263.279 340.321 263.296ZM340.321 274.242H329.026C327.946 274.242 326.91 273.826 326.147 273.085C325.383 272.345 324.954 271.34 324.954 270.293C324.954 269.246 325.383 268.241 326.147 267.5C326.91 266.76 327.946 266.344 329.026 266.344H340.321C341.401 266.344 342.436 266.76 343.2 267.5C343.963 268.241 344.392 269.246 344.392 270.293C344.392 271.34 343.963 272.345 343.2 273.085C342.436 273.826 341.401 274.242 340.321 274.242Z" fill="white"/>
<path d="M346.455 444.382L338.248 441.246L328.06 456.335L322.668 578.597L329.661 582.936L334.521 579.352L338.586 586.911C338.586 586.911 341.332 588.48 341.439 588.48C341.452 588.48 341.458 588.545 341.458 588.657H350.637C353.687 588.657 356.159 586.185 356.159 583.136V473.322C356.157 462.876 352.751 452.716 346.455 444.382Z" fill="#B6C4CF"/>
<path d="M338.055 583.137V473.323C338.055 463.249 341.244 453.445 347.119 445.285C346.902 444.984 346.678 444.679 346.454 444.383L338.207 433.468C336.577 431.31 333.335 431.31 331.706 433.468L323.459 444.383C317.162 452.717 313.756 462.877 313.756 473.323V583.137C313.756 586.186 316.228 588.658 319.277 588.658H343.577C340.527 588.658 338.055 586.186 338.055 583.137Z" fill="#9FACBA"/>
<path d="M290.509 361.829C284.926 361.829 280.399 357.303 280.399 351.719V346.276C280.399 340.693 284.926 336.166 290.509 336.166C296.093 336.166 300.619 340.693 300.619 346.276V351.719C300.619 357.304 296.093 361.829 290.509 361.829Z" fill="#B6C4CF"/>
<path d="M290.509 417.253C284.926 417.253 280.399 412.726 280.399 407.143V401.7C280.399 396.116 284.926 391.59 290.509 391.59C296.093 391.59 300.619 396.116 300.619 401.7V407.143C300.619 412.726 296.093 417.253 290.509 417.253Z" fill="#B6C4CF"/>
<path d="M378.055 361.829C372.472 361.829 367.945 357.303 367.945 351.719V346.276C367.945 340.693 372.472 336.166 378.055 336.166C383.639 336.166 388.165 340.693 388.165 346.276V351.719C388.165 357.304 383.64 361.829 378.055 361.829Z" fill="#C5D3DD"/>
<path d="M378.055 417.253C372.472 417.253 367.945 412.726 367.945 407.143V401.7C367.945 396.116 372.472 391.59 378.055 391.59C383.639 391.59 388.165 396.116 388.165 401.7V407.143C388.165 412.726 383.64 417.253 378.055 417.253Z" fill="#C5D3DD"/>
<path d="M476.293 376.035L571.447 477.97H476.279V376.049L476.293 376.035Z" fill="#C5D3DD"/>
<path d="M193.633 377.141V477.971H98.4648L193.633 377.141Z" fill="#C5D3DD"/>
</g>
<defs>
<clipPath id="clip0_176_883">
<rect width="669.915" height="550" fill="white"/>
</clipPath>
</defs>
</svg>
