<svg width="1342" height="550" viewBox="0 0 1342 550" fill="none" xmlns="http://www.w3.org/2000/svg">
<circle cx="465" cy="222" r="55" fill="white" fill-opacity="0.05"/>
<path d="M506.722 213.521C506.721 213.514 506.72 213.504 506.719 213.497C506.656 212.982 506.187 212.616 505.672 212.679C505.521 212.698 505.384 212.752 505.264 212.832L505.27 212.828C504.355 213.75 503.137 214.405 501.749 214.627L501.739 214.628C499.989 214.676 500.055 210.734 500.055 210.734C500.055 210.734 500 207.14 498.941 206.976C497.882 206.812 496.782 208.177 496.782 208.177C495.952 209.41 495.328 210.812 494.972 212.308L494.953 212.4L494.758 212.485C494.733 211.832 494.671 211.078 494.577 210.317C494.465 209.405 494.311 208.511 494.114 207.633L494.138 207.743C493.882 207.327 492.018 207.593 491.812 208.415C491.301 210.935 490.993 213.884 490.965 216.884L490.968 217.13C489.603 218.62 487.894 219.838 485.953 220.643L485.854 220.679C483.352 221.396 482.551 219.878 482.551 219.878C482.551 219.878 489.232 217.097 488.314 211.599C487.396 206.1 482.305 208.8 481.748 209.329C479.467 211.349 478.079 214.239 478.052 217.383L478.052 217.438C478.05 217.619 478.081 218.398 478.081 218.398C476.984 219.373 475.707 220.302 474.343 221.102L474.192 221.182C474.192 221.182 477.498 213.651 472.016 211.081C469.536 209.975 468.063 213.118 468.063 213.118C468.063 213.118 474.003 204.611 471.693 198.32C470.581 195.33 469 195.179 467.648 195.858C466.498 196.426 465.585 197.28 464.953 198.314L464.945 198.329C463.496 201.418 462.696 204.975 462.754 208.678L462.757 208.784C462.85 214.858 462.793 222.246 462.793 222.246C462.195 222.996 461.385 223.581 460.44 223.895L460.407 223.906C459.189 224.117 459.282 220.367 459.282 220.367C459.282 220.367 459.54 214.619 459.357 213.681C459.173 212.744 459.035 212.234 457.887 212.04C456.739 211.846 455.683 213.404 455.683 213.404C455.683 213.404 453.051 218.686 452.874 219.466L452.746 219.789L452.556 219.608C452.556 219.608 454.012 212.677 451.828 212.842C449.645 213.008 448.521 215.658 448.521 215.658C448.521 215.658 446.555 220.102 446.512 220.582L446.322 220.401C446.532 218.577 446.568 216.482 446.396 214.357L446.392 214.292C446.27 213.747 445.76 213.376 445.198 213.445C445.107 213.456 445.024 213.476 444.942 213.507L444.949 213.506C444.949 213.506 443.501 213.516 443.247 214.474C442.806 217.036 442.52 220.133 442.455 223.274L442.457 223.629C440.947 225.076 439.065 226.223 436.955 226.905L436.865 226.93C434.519 227.242 434.575 225.701 434.575 225.701C434.575 225.701 442.798 221.705 439.737 216.2C438.818 215.113 437.407 214.504 435.909 214.688C435.764 214.705 435.62 214.73 435.481 214.761L435.497 214.759C433.065 215.293 431.258 217.217 430.807 219.558L430.799 219.604C430.434 220.831 430.249 222.22 430.298 223.649L430.301 223.7C430.098 223.773 429.859 223.826 429.609 223.857C428.993 223.933 428.398 223.842 427.865 223.617L427.883 223.625C426.991 223.044 426.62 223.78 426.62 223.78C426.62 223.78 425.422 225.711 426.902 226.076C427.973 226.306 429.208 226.428 430.467 226.414L430.545 226.411C431.096 227.919 432.141 229.109 433.461 229.846L433.48 229.857C436.269 231.476 440.882 228.781 440.882 228.781L442.752 227.424C442.752 227.424 443.039 229.258 444.539 229.343C446.04 229.429 446.625 229.217 448.405 222.731C449.506 219.391 449.632 219.557 449.632 219.557L449.792 219.499C449.585 221.565 449.606 223.91 449.897 226.28C449.934 226.579 449.974 226.875 450.02 227.17L450.015 227.126C450.654 228.688 452.568 228.299 452.568 228.299C452.568 228.299 453.652 228.474 454.124 225.392C454.588 222.823 455.17 220.633 455.911 218.512L455.825 218.789L456.007 218.767C455.981 219.696 456.03 220.76 456.161 221.834C456.38 223.611 456.81 225.308 457.423 226.907L457.375 226.766C458.694 228.603 461.355 226.954 461.355 226.954C462.191 226.414 462.883 225.895 463.538 225.333L463.473 225.385C464.929 226.252 466.699 226.667 468.537 226.441C468.809 226.408 469.074 226.362 469.336 226.302L469.303 226.31C472.969 225.33 476.197 223.765 479.028 221.719L478.886 221.815C480.098 223.641 482.204 224.732 484.474 224.549L484.488 224.548C484.764 224.544 485.079 224.523 485.399 224.484C487.729 224.198 489.737 223.025 491.12 221.345L491.117 221.349C491.248 222.388 491.977 223.208 492.916 223.506L492.934 223.511C494.578 223.961 495.193 220.312 495.193 220.312L496.918 212.77L497.157 212.741C497.157 212.741 497.877 217.429 500.54 217.861C500.765 217.854 501.026 217.836 501.285 217.804C503.244 217.563 504.967 216.678 506.271 215.387L506.253 215.403C506.646 215.017 506.859 214.468 506.787 213.885C506.77 213.747 506.737 213.618 506.695 213.493L506.7 213.506L506.722 213.521ZM433.858 223.144C433.463 219.092 435.901 217.012 436.913 217.773C437.926 218.534 437.836 220.479 436.249 221.88C434.661 223.281 433.856 223.151 433.856 223.151L433.858 223.144ZM466.372 203.276C466.372 203.276 468.026 196.703 468.955 199.678C469.884 202.653 465.396 212.441 465.396 212.441C465.538 208.897 465.89 205.806 466.441 202.775L466.369 203.276L466.372 203.276ZM471.382 220.396C471.07 222.112 469.7 223.476 467.909 223.696C467.313 223.769 466.732 223.707 466.194 223.534L466.219 223.541C466.134 223.179 466.058 222.758 466.006 222.33C465.809 220.731 465.942 219.167 466.35 217.706L466.329 217.787C467.065 213.456 470.221 214.719 470.221 214.719C470.221 214.719 472.457 216.037 471.379 220.393L471.382 220.396ZM481.836 217.253C481.798 217.083 481.76 216.887 481.735 216.688C481.584 215.452 481.837 214.263 482.393 213.248L482.385 213.266C483.462 210.544 484.718 211.811 484.718 211.811C485.085 212.19 485.342 212.695 485.413 213.267C485.494 213.93 485.312 214.564 484.95 215.066C484.356 216.24 483.224 217.096 481.841 217.27L481.836 217.253Z" fill="white"/>
<circle cx="255" cy="263" r="55" fill="white" fill-opacity="0.05"/>
<g clip-path="url(#clip0_1_1725)">
<path d="M274.822 279.834L274.882 279.713C274.94 279.619 274.987 279.518 275.022 279.413V279.403C275.213 278.902 275.253 278.371 275.163 277.838V277.857C275.064 277.293 274.859 276.752 274.56 276.263L274.579 276.282L260.923 252.27L258.839 248.63L243.138 276.282C242.867 276.764 242.697 277.285 242.607 277.826V277.857C242.497 278.479 242.567 279.11 242.817 279.692L242.807 279.672C242.838 279.763 242.888 279.844 242.938 279.932L242.928 279.923C243.34 280.625 244.212 281.467 246.137 281.467H271.544C271.944 281.467 273.919 281.386 274.832 279.832L274.822 279.834ZM258.841 255.922L271.313 277.859H246.378L258.841 255.922ZM285.148 276.286L267.141 244.564C266.951 244.224 265.919 242.539 264.103 242.539C263.291 242.539 262.128 242.89 261.176 244.555L258.85 248.636L260.916 252.285L264.125 246.601L281.941 277.873H275.163C275.253 278.394 275.203 278.926 275.022 279.426V279.407C274.982 279.516 274.941 279.628 274.882 279.728V279.719L274.822 279.84C273.909 281.393 271.944 281.474 271.563 281.474H282.16C282.551 281.474 284.507 281.393 285.419 279.84C285.831 279.128 286.11 277.946 285.148 276.29V276.286ZM242.95 279.925L242.828 279.684V279.674C242.576 279.098 242.499 278.46 242.607 277.84V277.859H228.048L249.685 239.79L256.783 252.272L258.848 248.632L252.652 237.723C252.48 237.413 251.439 235.729 249.633 235.729C248.821 235.729 247.649 236.079 246.705 237.754L224.789 276.284C224.599 276.616 223.696 278.36 224.599 279.913C225.011 280.625 225.883 281.457 227.808 281.457H246.155C244.249 281.457 243.358 280.635 242.946 279.913L242.95 279.925Z" fill="white"/>
</g>
<circle cx="50" cy="333" r="50" fill="white" fill-opacity="0.05"/>
<path d="M65.8398 325.651C65.3125 325.472 64.7852 325.303 64.2578 325.143C64.3457 324.775 64.4238 324.406 64.502 324.038C65.7031 318.101 64.9121 313.33 62.2461 311.756C59.6777 310.252 55.4883 311.816 51.25 315.581C50.8301 315.95 50.4199 316.338 50.0293 316.726C49.7656 316.468 49.4922 316.209 49.2188 315.959C44.7754 311.935 40.3223 310.242 37.6563 311.826C35.0977 313.34 34.3359 317.832 35.4102 323.45C35.5176 324.008 35.6348 324.556 35.7715 325.114C35.1465 325.293 34.5312 325.492 33.9551 325.701C28.7402 327.544 25 330.453 25 333.461C25 336.569 28.9844 339.686 34.4043 341.579C34.8438 341.728 35.2832 341.878 35.7324 342.007C35.5859 342.605 35.459 343.193 35.3418 343.8C34.3164 349.329 35.1172 353.711 37.6758 355.216C40.3125 356.769 44.7461 355.176 49.0625 351.321C49.4043 351.012 49.7461 350.693 50.0879 350.355C50.5176 350.783 50.9668 351.191 51.416 351.59C55.5957 355.255 59.7266 356.74 62.2754 355.235C64.9121 353.682 65.7715 348.97 64.6582 343.233C64.5703 342.794 64.4727 342.346 64.3652 341.888C64.6777 341.798 64.9805 341.699 65.2832 341.599C70.918 339.696 75 336.618 75 333.461C75 330.443 71.1523 327.514 65.8398 325.651V325.651ZM52.627 317.195C56.2598 313.967 59.6484 312.702 61.1914 313.609C62.8418 314.575 63.4766 318.48 62.4414 323.609C62.373 323.948 62.3047 324.277 62.2168 324.606C60.0488 324.108 57.8516 323.749 55.6445 323.55C54.375 321.697 52.9883 319.924 51.4844 318.26C51.8652 317.892 52.2363 317.543 52.627 317.195V317.195ZM41.3281 338.631C41.8262 339.497 42.334 340.364 42.8711 341.21C41.3477 341.041 39.834 340.792 38.3398 340.463C38.7695 339.029 39.3066 337.545 39.9316 336.031C40.3809 336.907 40.8398 337.774 41.3281 338.631V338.631ZM38.3691 326.648C39.7754 326.329 41.2695 326.07 42.8223 325.871C42.3047 326.697 41.7969 327.544 41.3184 328.401C40.8398 329.247 40.3711 330.114 39.9316 330.991C39.3164 329.506 38.7988 328.052 38.3691 326.648ZM41.0449 333.511C41.6895 332.136 42.3926 330.791 43.1348 329.467C43.877 328.142 44.6777 326.857 45.5176 325.592C46.9824 325.482 48.4766 325.422 50 325.422C51.5234 325.422 53.0273 325.482 54.4824 325.592C55.3125 326.847 56.1035 328.132 56.8555 329.447C57.6074 330.761 58.3105 332.106 58.9746 333.471C58.3203 334.845 57.6172 336.2 56.8652 337.535C56.123 338.86 55.332 340.145 54.502 341.42C53.0469 341.529 51.5332 341.579 50 341.579C48.4668 341.579 46.9824 341.529 45.5469 341.44C44.6973 340.175 43.8965 338.88 43.1445 337.555C42.3926 336.23 41.6992 334.885 41.0449 333.511ZM58.6816 338.611C59.1797 337.734 59.6484 336.848 60.1074 335.951C60.7324 337.395 61.2793 338.86 61.7578 340.364C60.2441 340.712 58.7109 340.981 57.168 341.161C57.6953 340.324 58.1934 339.467 58.6816 338.611ZM60.0879 330.991C59.6289 330.114 59.1602 329.237 58.6719 328.381C58.1934 327.534 57.6953 326.697 57.1777 325.871C58.75 326.07 60.2539 326.339 61.6602 326.668C61.2109 328.142 60.6836 329.576 60.0879 330.991V330.991ZM50.0195 319.784C51.0449 320.92 52.0117 322.115 52.9102 323.351C50.9766 323.261 49.0332 323.261 47.0996 323.351C48.0566 322.066 49.043 320.87 50.0195 319.784ZM38.6914 313.678C40.332 312.702 43.9746 314.097 47.8125 317.563C48.0566 317.782 48.3008 318.021 48.5547 318.26C47.041 319.924 45.6445 321.697 44.3652 323.55C42.1582 323.749 39.9707 324.098 37.8027 324.586C37.6758 324.078 37.5684 323.56 37.4609 323.042C36.543 318.221 37.1484 314.585 38.6914 313.678V313.678ZM36.2988 339.935C35.8887 339.816 35.4883 339.686 35.0879 339.547C33.0078 338.88 30.6445 337.824 28.9355 336.439C27.9492 335.742 27.2852 334.666 27.0996 333.461C27.0996 331.638 30.1855 329.307 34.6387 327.723C35.1953 327.524 35.7617 327.345 36.3281 327.176C36.9922 329.337 37.793 331.459 38.7207 333.511C37.7832 335.593 36.9727 337.744 36.2988 339.935V339.935ZM47.6855 349.697C46.0742 351.201 44.209 352.397 42.1777 353.213C41.0938 353.741 39.8438 353.791 38.7305 353.343C37.1777 352.426 36.5332 348.91 37.4121 344.179C37.5195 343.621 37.6367 343.063 37.7734 342.515C39.9609 342.993 42.168 343.322 44.4043 343.492C45.6934 345.354 47.1094 347.137 48.623 348.811C48.3105 349.119 47.998 349.418 47.6855 349.697ZM50.0781 347.277C49.082 346.181 48.0859 344.966 47.1191 343.661C48.0566 343.701 49.0234 343.721 50 343.721C51.0059 343.721 51.9922 343.701 52.9688 343.651C52.0703 344.916 51.1035 346.121 50.0781 347.277V347.277ZM62.8418 350.265C62.7539 351.48 62.168 352.616 61.2305 353.383C59.6777 354.299 56.3672 353.104 52.793 349.976C52.3828 349.618 51.9727 349.229 51.5527 348.831C53.0469 347.147 54.4238 345.364 55.6738 343.492C57.9102 343.302 60.1367 342.954 62.334 342.446C62.4316 342.854 62.5195 343.262 62.5977 343.661C63.0762 345.812 63.1543 348.054 62.8418 350.265V350.265ZM64.6191 339.557C64.3457 339.647 64.0723 339.736 63.7891 339.816C63.1055 337.644 62.2656 335.523 61.2988 333.461C62.2363 331.429 63.0273 329.337 63.6914 327.195C64.1992 327.345 64.6875 327.504 65.1562 327.664C69.707 329.257 72.9004 331.628 72.9004 333.441C72.9004 335.393 69.4922 337.913 64.6191 339.557ZM50 338.063C52.4707 338.063 54.4727 336.021 54.4727 333.501C54.4727 330.981 52.4707 328.939 50 328.939C47.5293 328.939 45.5273 330.981 45.5273 333.501C45.5273 336.021 47.5293 338.063 50 338.063Z" fill="white"/>
<circle cx="1292" cy="313" r="50" fill="white" fill-opacity="0.05"/>
<g clip-path="url(#clip1_1_1725)">
<path d="M1274.53 303.429H1286.95V304.422H1275.67V311.9H1286.28V312.894H1275.67V321.104H1287.08V322.097H1274.53V303.429ZM1288.06 303.429H1289.38L1295.23 311.639L1301.2 303.429L1309.33 293L1295.98 312.502L1302.86 322.097H1301.49L1295.23 313.364L1288.94 322.097H1287.6L1294.53 312.502L1288.06 303.429H1288.06ZM1303.35 304.422V303.429H1317.5V304.422H1310.98V322.097H1309.84V304.422H1303.35V304.422ZM1259 303.429H1260.42L1280.04 332.985L1271.93 322.097L1260.19 304.841L1260.14 322.098H1259V303.429ZM1317.39 320.804C1317.15 320.804 1316.98 320.623 1316.98 320.388C1316.98 320.154 1317.15 319.972 1317.39 319.972C1317.62 319.972 1317.79 320.154 1317.79 320.388C1317.79 320.622 1317.62 320.804 1317.39 320.804ZM1318.5 319.71H1319.11C1319.12 320.042 1319.36 320.265 1319.72 320.265C1320.11 320.265 1320.34 320.025 1320.34 319.576V316.729H1320.96V319.579C1320.96 320.388 1320.49 320.854 1319.72 320.854C1319 320.854 1318.5 320.402 1318.5 319.71V319.71ZM1321.77 319.674H1322.38C1322.44 320.056 1322.81 320.299 1323.34 320.299C1323.84 320.299 1324.2 320.039 1324.2 319.682C1324.2 319.375 1323.97 319.191 1323.44 319.065L1322.93 318.94C1322.21 318.769 1321.88 318.418 1321.88 317.826C1321.88 317.109 1322.46 316.632 1323.33 316.632C1324.14 316.632 1324.73 317.109 1324.77 317.787H1324.17C1324.11 317.416 1323.79 317.184 1323.32 317.184C1322.83 317.184 1322.51 317.422 1322.51 317.784C1322.51 318.072 1322.72 318.236 1323.24 318.359L1323.68 318.468C1324.5 318.661 1324.83 318.996 1324.83 319.601C1324.83 320.371 1324.24 320.854 1323.29 320.854C1322.41 320.854 1321.81 320.394 1321.77 319.674V319.674Z" fill="white"/>
</g>
<circle cx="1087" cy="250" r="55" fill="white" fill-opacity="0.05"/>
<g clip-path="url(#clip2_1_1725)">
<path fill-rule="evenodd" clip-rule="evenodd" d="M1106.51 231.258C1107.99 233.631 1108.7 236.406 1108.54 239.199C1108.37 241.993 1107.35 244.666 1105.6 246.85C1107 249.837 1107.25 253.233 1106.32 256.397C1105.39 259.561 1103.33 262.273 1100.53 264.02L1086.22 272.96C1083.52 274.655 1080.31 275.338 1077.15 274.886C1073.99 274.435 1071.09 272.879 1068.97 270.494C1066.85 268.11 1065.64 265.051 1065.57 261.861C1065.49 258.671 1066.54 255.556 1068.54 253.07C1067.14 250.083 1066.88 246.687 1067.82 243.523C1068.75 240.36 1070.81 237.648 1073.61 235.9L1087.91 226.964C1089.41 226.025 1091.09 225.391 1092.84 225.099C1094.58 224.807 1096.37 224.861 1098.1 225.26C1099.82 225.659 1101.46 226.394 1102.9 227.423C1104.34 228.452 1105.57 229.755 1106.51 231.258H1106.51ZM1089.7 229.828C1091.64 228.611 1093.94 228.089 1096.22 228.349C1098.5 228.609 1100.62 229.635 1102.24 231.259C1103.86 232.883 1104.88 235.009 1105.13 237.288C1105.38 239.567 1104.85 241.864 1103.63 243.804C1101.57 241.39 1098.72 239.783 1095.58 239.267L1098.02 237.739L1096.24 234.878L1079.07 245.605L1080.86 248.462L1088.01 243.996C1090.29 242.574 1093.04 242.113 1095.65 242.717C1098.27 243.321 1100.54 244.938 1101.96 247.214C1103.38 249.49 1103.84 252.238 1103.24 254.853C1102.63 257.469 1101.02 259.737 1098.74 261.16L1084.44 270.099C1082.49 271.316 1080.19 271.838 1077.92 271.578C1075.64 271.318 1073.52 270.292 1071.9 268.668C1070.28 267.044 1069.26 264.918 1069.01 262.639C1068.75 260.36 1069.28 258.063 1070.51 256.123C1072.57 258.537 1075.42 260.144 1078.55 260.66L1076.11 262.185L1077.9 265.046L1095.06 254.319L1093.28 251.461L1086.12 255.931C1083.85 257.353 1081.1 257.813 1078.48 257.21C1075.87 256.606 1073.6 254.988 1072.18 252.711C1070.75 250.435 1070.29 247.686 1070.9 245.071C1071.5 242.455 1073.12 240.187 1075.4 238.764L1089.7 229.828Z" fill="white"/>
</g>
<circle cx="877" cy="222" r="55" fill="white" fill-opacity="0.05"/>
<g clip-path="url(#clip3_1_1725)">
<path fill-rule="evenodd" clip-rule="evenodd" d="M896.509 203.258C897.992 205.631 898.701 208.406 898.538 211.199C898.374 213.993 897.347 216.666 895.598 218.85C896.998 221.837 897.255 225.233 896.321 228.397C895.386 231.561 893.326 234.273 890.528 236.02L876.225 244.96C873.522 246.655 870.305 247.338 867.146 246.886C863.988 246.435 861.091 244.879 858.971 242.494C856.851 240.11 855.644 237.051 855.566 233.861C855.487 230.671 856.542 227.556 858.542 225.07C857.142 222.083 856.885 218.687 857.819 215.523C858.753 212.36 860.814 209.648 863.612 207.9L877.911 198.964C879.414 198.025 881.087 197.391 882.835 197.099C884.583 196.807 886.371 196.861 888.098 197.26C889.824 197.659 891.456 198.394 892.898 199.423C894.341 200.452 895.566 201.755 896.505 203.258H896.509ZM879.699 201.828C881.642 200.611 883.942 200.089 886.22 200.349C888.498 200.609 890.62 201.635 892.239 203.259C893.858 204.883 894.878 207.009 895.13 209.288C895.383 211.567 894.855 213.864 893.631 215.804C891.567 213.39 888.716 211.783 885.582 211.267L888.025 209.739L886.237 206.878L869.073 217.605L870.861 220.462L878.013 215.996C880.289 214.574 883.037 214.113 885.652 214.717C888.267 215.321 890.535 216.938 891.958 219.214C893.381 221.49 893.841 224.238 893.237 226.853C892.634 229.469 891.016 231.737 888.74 233.16L874.437 242.099C872.494 243.316 870.195 243.838 867.916 243.578C865.638 243.318 863.516 242.292 861.897 240.668C860.278 239.044 859.259 236.918 859.006 234.639C858.753 232.36 859.282 230.063 860.505 228.123C862.569 230.537 865.42 232.144 868.554 232.66L866.108 234.185L867.896 237.046L885.063 226.319L883.275 223.461L876.124 227.931C873.847 229.353 871.099 229.813 868.483 229.21C865.868 228.606 863.599 226.988 862.177 224.711C860.754 222.435 860.294 219.686 860.898 217.071C861.502 214.455 863.12 212.187 865.396 210.764L879.699 201.828Z" fill="white"/>
</g>
<g clip-path="url(#clip4_1_1725)">
<path d="M725.336 9.65161C717.625 3.2217 708.176 0 698.713 0C689.385 0 680.043 3.14082 672.387 9.40897L672.144 9.61117C653.812 24.6278 640.008 43.9984 631.731 65.6067L655.858 97.0014H750.289L765.102 65.6067C757 44.0793 743.412 24.7356 725.336 9.65161V9.65161Z" fill="#3366CC"/>
<path d="M689.555 82.1324C697.831 60.5242 711.635 41.1535 729.968 26.1369L730.21 25.9347C732.503 24.057 734.979 22.5 737.53 21.1831C733.734 17.1175 729.659 13.2569 725.336 9.64966C717.625 3.21974 708.176 -0.00195312 698.713 -0.00195312C689.385 -0.00195312 680.043 3.13886 672.387 9.40702L672.144 9.60922C653.812 24.6258 640.008 43.9964 631.731 65.6047L655.858 96.9994H684.857C686.15 91.9526 687.697 86.9825 689.555 82.1324V82.1324Z" fill="#5C85D6"/>
<path d="M773.77 113.151V353.686H622.795V113.879C622.795 97.1639 625.895 80.8397 631.732 65.6074H765.102C770.777 80.6375 773.77 96.719 773.77 113.151Z" fill="#C5D3DD"/>
<path d="M843.15 213.858L841.519 212.133C836.37 206.7 827.716 206.7 822.567 212.133L820.936 213.858C807.442 228.093 797.71 245.253 792.345 263.774L805.37 285.402H864.135L871.741 263.774C866.376 245.253 856.644 228.093 843.15 213.858V213.858Z" fill="#2E5CB8"/>
<path d="M841.529 263.774C844.895 252.155 849.981 241.072 856.636 230.909C852.684 224.873 848.18 219.163 843.152 213.858L841.521 212.133C836.372 206.7 827.718 206.7 822.569 212.133L820.938 213.858C807.444 228.093 797.712 245.253 792.347 263.774L805.372 285.402H837.359C838.1 278.051 839.497 270.811 841.529 263.774V263.774Z" fill="#3366CC"/>
<path d="M876.541 297.648V456.334H787.547V297.648C787.547 286.096 789.191 274.692 792.346 263.773H871.742C874.897 274.692 876.541 286.096 876.541 297.648V297.648Z" fill="#E8EDF2"/>
<path d="M576.977 213.858L575.346 212.133C570.196 206.7 561.542 206.7 556.393 212.133L554.762 213.858C541.268 228.093 531.536 245.253 526.171 263.774L538.722 285.596C538.722 285.596 597.636 287.122 597.636 285.596C597.636 284.07 605.568 263.774 605.568 263.774C600.203 245.253 590.47 228.093 576.977 213.858Z" fill="#507BD3"/>
<path d="M575.356 263.774C578.722 252.155 583.809 241.072 590.463 230.909C586.51 224.873 582.007 219.163 576.979 213.858L575.348 212.133C570.198 206.7 561.544 206.7 556.395 212.133L554.764 213.858C541.27 228.093 531.538 245.253 526.173 263.774L538.724 285.596C538.724 285.596 555.475 286.03 571.113 286.204C571.832 278.578 573.249 271.067 575.356 263.774V263.774Z" fill="#5C85D6"/>
<path d="M610.366 297.648V474.181H521.372V297.648C521.372 286.096 523.017 274.692 526.171 263.773H605.568C608.722 274.692 610.366 286.096 610.366 297.648V297.648Z" fill="#E8EDF2"/>
<path d="M835.662 573.826H902.819C907.213 573.826 910.776 570.263 910.776 565.869V517.404H827.703V565.869C827.703 570.263 831.266 573.826 835.662 573.826V573.826Z" fill="#F79595"/>
<path d="M562.252 573.811H495.095C490.7 573.811 487.138 570.248 487.138 565.854V513.346H570.21V565.854C570.21 570.248 566.646 573.811 562.252 573.811V573.811Z" fill="#F79595"/>
<path d="M756.457 565.299L769.998 594.063C770.602 595.347 770.916 596.749 770.916 598.167V616.6C770.916 621.791 766.707 626 761.516 626H636.396C631.205 626 626.996 621.791 626.996 616.6V598.167C626.996 596.747 627.309 595.347 627.914 594.063L641.455 565.299L654.509 536.766H742.055L756.457 565.299Z" fill="#F79595"/>
<path d="M610.217 291.962L583.07 320.725C578.57 325.493 570.555 322.309 570.555 315.753V297.65C570.555 286.098 572.199 274.694 575.354 263.775H526.171C523.017 274.694 521.372 286.098 521.372 297.65V474.183H570.555V404.422H610.366C610.366 404.422 610.306 293.854 610.217 291.962V291.962Z" fill="#D9E7EC"/>
<path d="M845.013 351.45C839.691 345.748 836.731 338.24 836.731 330.439V297.65C836.731 286.098 838.375 274.694 841.529 263.775H792.347C789.192 274.694 787.548 286.098 787.548 297.65V456.336H824.492H836.732H876.543V385.229L845.013 351.45Z" fill="#D9E7EC"/>
<path d="M735.514 263.775H664.623L462.465 477.971L496.646 505.093H915.273L935.448 477.971L735.514 263.775Z" fill="#B6C4CF"/>
<path d="M487.138 513.346V565.854C487.138 570.248 490.7 573.811 495.095 573.811H533.757C529.362 573.811 525.799 570.248 525.799 565.854C525.799 558.441 531.809 552.432 539.221 552.432H570.21V513.346H525.799H487.138Z" fill="#F37C7C"/>
<path d="M910.775 552.433V517.405H866.364H827.702V565.869C827.702 570.263 831.265 573.826 835.659 573.826H874.321C869.927 573.826 866.364 570.263 866.364 565.869V565.855C866.364 558.443 872.373 552.433 879.786 552.433H910.775Z" fill="#F37C7C"/>
<path d="M937.645 483.551V524.032C937.645 528.547 933.978 532.214 929.463 532.214H468.45C463.934 532.214 460.268 528.547 460.268 524.032V483.551C460.268 481.475 461.049 479.48 462.465 477.971H935.448C936.863 479.48 937.645 481.475 937.645 483.551Z" fill="#D9E7EC"/>
<path d="M773.77 140.728C769.463 135.421 764.854 130.339 759.938 125.535L736.134 102.27C726.139 92.4985 712.935 87.1173 698.955 87.1173C697.134 87.1173 695.326 87.2117 693.539 87.3977C690.697 87.6915 688.509 84.8648 689.531 82.1958C689.539 82.1756 689.547 82.154 689.555 82.1338C691.73 76.4561 694.296 70.9374 697.217 65.6074H631.732C625.895 80.8397 622.795 97.1639 622.795 113.879V353.686H680.618V225.909H773.77V140.728Z" fill="#B6C4CF"/>
<path d="M769.146 592.255L756.457 565.301L742.055 536.768H694.512H677.087H654.509L641.455 565.301L627.914 594.065C627.31 595.349 626.996 596.75 626.996 598.169V616.602C626.996 621.793 631.205 626.002 636.396 626.002H676.399C671.208 626.002 666.999 621.793 666.999 616.602V609.399C666.999 605.605 670.852 602.907 674.347 604.381C677.094 605.541 680.112 606.182 683.276 606.182H714.636C723.082 606.182 730.476 601.611 734.488 594.816C735.438 593.207 737.2 592.255 739.068 592.255H769.146Z" fill="#F37C7C"/>
<path d="M664.623 263.775L583.406 349.828V505.093H814.507V348.402L735.513 263.775H664.623Z" fill="#9FACBA"/>
<path d="M583.406 477.971H814.506V532.214H583.406V477.971Z" fill="#C5D3DD"/>
<path d="M741.095 144.815L717.289 121.549C714.659 118.978 711.62 117.084 708.387 115.84L706.884 119.773H690.831L688.178 116.419C685.452 117.649 682.883 119.339 680.622 121.547L656.817 144.814C627.107 173.849 610.365 213.615 610.365 255.147V549.912C610.365 558.417 617.253 565.292 625.746 565.292H772.165C780.657 565.292 787.545 558.417 787.545 549.912V255.148C787.546 213.616 770.804 173.851 741.095 144.815V144.815Z" fill="#E8EDF2"/>
<path d="M698.282 328.461C733.95 328.461 762.967 299.444 762.967 263.776C762.967 236.702 746.244 213.469 722.585 203.846C711.975 199.53 707.588 186.74 713.4 176.87C720.256 165.226 728.672 154.433 738.511 144.816L739.802 143.553L717.289 121.549C714.659 118.978 711.62 117.084 708.387 115.84L706.884 119.773H690.831L688.178 116.419C685.452 117.649 682.883 119.339 680.622 121.547L656.817 144.814C627.107 173.849 610.365 213.615 610.365 255.147V549.912C610.365 558.417 617.253 565.292 625.746 565.292H707.438C698.946 565.292 692.057 558.417 692.057 549.912V334.681C692.06 331.243 694.846 328.458 698.282 328.461V328.461Z" fill="#D9E7EC"/>
<path d="M698.282 528.376C703.865 528.376 708.392 523.85 708.392 518.266V115.841C701.874 113.331 694.57 113.536 688.172 116.424V518.266C688.172 523.85 692.699 528.376 698.282 528.376V528.376Z" fill="#C5D3DD"/>
<path d="M688.155 116.39L688.173 283.14H708.393V115.826C701.875 113.316 694.554 113.502 688.155 116.39Z" fill="#C5D3DD"/>
<path d="M698.283 309.588C723.584 309.588 744.095 289.077 744.095 263.776C744.095 238.474 723.584 217.963 698.283 217.963C672.981 217.963 652.47 238.474 652.47 263.776C652.47 289.077 672.981 309.588 698.283 309.588Z" fill="#3366CC"/>
<path d="M688.173 263.776C688.173 244.807 699.702 228.531 716.134 221.571C710.648 219.248 704.615 217.963 698.283 217.963C672.981 217.963 652.47 238.474 652.47 263.776C652.47 289.077 672.981 309.588 698.283 309.588C704.615 309.588 710.648 308.303 716.134 305.98C699.702 299.02 688.173 282.745 688.173 263.776Z" fill="#2E5CB8"/>
<path d="M704.321 257.196H695.513C695.363 257.196 695.218 257.138 695.112 257.034C695.005 256.931 694.945 256.791 694.945 256.645C694.945 256.499 695.005 256.359 695.112 256.255C695.218 256.152 695.363 256.094 695.513 256.094H700.359C702.491 256.094 704.535 255.272 706.043 253.81C707.55 252.348 708.397 250.365 708.397 248.297C708.397 246.229 707.55 244.246 706.043 242.784C704.535 241.321 702.491 240.5 700.359 240.5H691.313V247.852C689.584 248.63 688.121 249.87 687.096 251.428C686.07 252.985 685.525 254.795 685.524 256.643C685.522 257.504 685.639 258.362 685.874 259.192C683.389 260.698 681.476 262.947 680.426 265.6C679.375 268.254 679.244 271.167 680.052 273.899C680.86 276.631 682.563 279.033 684.904 280.743C687.245 282.453 690.096 283.376 693.026 283.375H704.321C707.9 283.375 711.333 281.995 713.863 279.54C716.394 277.085 717.816 273.756 717.816 270.284C717.816 266.812 716.394 263.483 713.863 261.028C711.333 258.573 707.9 257.196 704.321 257.196ZM704.321 280.336H693.026C690.538 280.337 688.134 279.47 686.251 277.893C684.369 276.315 683.135 274.133 682.775 271.746C682.415 269.359 682.954 266.925 684.291 264.891C685.629 262.857 687.677 261.358 690.061 260.669C689.289 259.684 688.817 258.51 688.696 257.279C688.576 256.047 688.813 254.808 689.379 253.7C689.946 252.592 690.821 251.659 691.905 251.008C692.988 250.356 694.238 250.011 695.513 250.012H700.359C700.825 250.012 701.272 249.832 701.601 249.513C701.93 249.193 702.115 248.76 702.115 248.308C702.115 247.856 701.93 247.423 701.601 247.103C701.272 246.784 700.825 246.604 700.359 246.604H694.452V243.548H700.359C701.011 243.534 701.659 243.647 702.266 243.88C702.872 244.112 703.425 244.46 703.891 244.902C704.357 245.345 704.727 245.873 704.98 246.456C705.233 247.039 705.363 247.666 705.363 248.298C705.363 248.931 705.233 249.557 704.98 250.14C704.727 250.723 704.357 251.251 703.891 251.694C703.425 252.136 702.872 252.484 702.266 252.717C701.659 252.949 701.011 253.062 700.359 253.048H695.513C695.019 253.036 694.527 253.121 694.067 253.296C693.606 253.471 693.187 253.734 692.832 254.069C692.478 254.404 692.197 254.805 692.005 255.247C691.813 255.689 691.714 256.164 691.714 256.644C691.714 257.124 691.813 257.599 692.005 258.041C692.197 258.483 692.478 258.883 692.832 259.218C693.187 259.553 693.606 259.816 694.067 259.992C694.527 260.167 695.019 260.251 695.513 260.239H704.321C707.041 260.278 709.635 261.354 711.544 263.233C713.453 265.112 714.523 267.645 714.523 270.283C714.523 272.921 713.453 275.454 711.544 277.333C709.635 279.212 707.041 280.288 704.321 280.327V280.336ZM704.321 263.296H693.026C692.068 263.279 691.116 263.448 690.226 263.792C689.336 264.137 688.526 264.649 687.843 265.3C687.159 265.952 686.616 266.729 686.246 267.586C685.875 268.442 685.685 269.362 685.685 270.292C685.685 271.221 685.875 272.141 686.246 272.998C686.616 273.855 687.159 274.632 687.843 275.283C688.526 275.934 689.336 276.447 690.226 276.791C691.116 277.135 692.068 277.304 693.026 277.288H704.321C705.279 277.304 706.231 277.135 707.121 276.791C708.011 276.447 708.821 275.934 709.504 275.283C710.188 274.632 710.73 273.855 711.101 272.998C711.472 272.141 711.662 271.221 711.662 270.292C711.662 269.362 711.472 268.442 711.101 267.586C710.73 266.729 710.188 265.952 709.504 265.3C708.821 264.649 708.011 264.137 707.121 263.792C706.231 263.448 705.279 263.279 704.321 263.296ZM704.321 274.242H693.026C691.946 274.242 690.91 273.826 690.147 273.085C689.383 272.345 688.954 271.34 688.954 270.293C688.954 269.246 689.383 268.241 690.147 267.5C690.91 266.76 691.946 266.344 693.026 266.344H704.321C705.401 266.344 706.436 266.76 707.2 267.5C707.963 268.241 708.392 269.246 708.392 270.293C708.392 271.34 707.963 272.345 707.2 273.085C706.436 273.826 705.401 274.242 704.321 274.242Z" fill="white"/>
<path d="M710.455 444.382L702.248 441.246L692.06 456.335L686.668 578.597L693.661 582.936L698.521 579.352L702.586 586.911C702.586 586.911 705.332 588.48 705.439 588.48C705.452 588.48 705.458 588.545 705.458 588.657H714.637C717.687 588.657 720.159 586.185 720.159 583.136V473.322C720.157 462.876 716.751 452.716 710.455 444.382Z" fill="#B6C4CF"/>
<path d="M702.055 583.137V473.323C702.055 463.249 705.244 453.445 711.119 445.285C710.902 444.984 710.678 444.679 710.454 444.383L702.207 433.468C700.577 431.31 697.335 431.31 695.706 433.468L687.459 444.383C681.162 452.717 677.756 462.877 677.756 473.323V583.137C677.756 586.186 680.228 588.658 683.277 588.658H707.577C704.527 588.658 702.055 586.186 702.055 583.137Z" fill="#9FACBA"/>
<path d="M654.509 361.829C648.926 361.829 644.399 357.303 644.399 351.719V346.276C644.399 340.693 648.926 336.166 654.509 336.166C660.093 336.166 664.619 340.693 664.619 346.276V351.719C664.619 357.304 660.093 361.829 654.509 361.829Z" fill="#B6C4CF"/>
<path d="M654.509 417.253C648.926 417.253 644.399 412.726 644.399 407.143V401.7C644.399 396.116 648.926 391.59 654.509 391.59C660.093 391.59 664.619 396.116 664.619 401.7V407.143C664.619 412.726 660.093 417.253 654.509 417.253Z" fill="#B6C4CF"/>
<path d="M742.055 361.829C736.472 361.829 731.945 357.303 731.945 351.719V346.276C731.945 340.693 736.472 336.166 742.055 336.166C747.639 336.166 752.165 340.693 752.165 346.276V351.719C752.165 357.304 747.64 361.829 742.055 361.829Z" fill="#C5D3DD"/>
<path d="M742.055 417.253C736.472 417.253 731.945 412.726 731.945 407.143V401.7C731.945 396.116 736.472 391.59 742.055 391.59C747.639 391.59 752.165 396.116 752.165 401.7V407.143C752.165 412.726 747.64 417.253 742.055 417.253Z" fill="#C5D3DD"/>
<path d="M840.293 376.035L935.447 477.97H840.279V376.049L840.293 376.035Z" fill="#C5D3DD"/>
<path d="M557.633 377.141V477.971H462.465L557.633 377.141Z" fill="#C5D3DD"/>
</g>
<defs>
<clipPath id="clip0_1_1725">
<rect width="61.6" height="61.6" fill="white" transform="translate(224.2 227.799)"/>
</clipPath>
<clipPath id="clip1_1_1725">
<rect width="65.8333" height="40" fill="white" transform="translate(1259 293)"/>
</clipPath>
<clipPath id="clip2_1_1725">
<rect width="50.6" height="50.6" fill="white" transform="translate(1061.7 224.699)"/>
</clipPath>
<clipPath id="clip3_1_1725">
<rect width="50.6" height="50.6" fill="white" transform="translate(851.7 196.699)"/>
</clipPath>
<clipPath id="clip4_1_1725">
<rect width="669.915" height="550" fill="white" transform="translate(364)"/>
</clipPath>
</defs>
</svg>
