<svg width="1440" height="516" viewBox="0 0 1440 516" fill="none" xmlns="http://www.w3.org/2000/svg">
<path d="M716 3799C1709.81 3799 2516 2995.88 2516 2004.5C2516 1013.12 1709.81 210 716 210C-277.807 210 -1084 1013.12 -1084 2004.5C-1084 2995.88 -277.807 3799 716 3799Z" stroke="url(#paint0_linear_107_126)" stroke-width="200"/>
<circle cx="486" cy="222" r="55" fill="white"/>
<path d="M527.722 213.521C527.721 213.514 527.72 213.504 527.719 213.497C527.656 212.982 527.187 212.616 526.672 212.679C526.521 212.698 526.384 212.752 526.264 212.832L526.27 212.828C525.355 213.75 524.137 214.405 522.749 214.627L522.739 214.628C520.989 214.676 521.055 210.734 521.055 210.734C521.055 210.734 521 207.14 519.941 206.976C518.882 206.812 517.782 208.177 517.782 208.177C516.952 209.41 516.328 210.812 515.972 212.308L515.953 212.4L515.758 212.485C515.733 211.832 515.671 211.078 515.577 210.317C515.465 209.405 515.311 208.511 515.114 207.633L515.138 207.743C514.882 207.327 513.018 207.593 512.812 208.415C512.301 210.935 511.993 213.884 511.965 216.884L511.968 217.13C510.603 218.62 508.894 219.838 506.953 220.643L506.854 220.679C504.352 221.396 503.551 219.878 503.551 219.878C503.551 219.878 510.232 217.097 509.314 211.599C508.396 206.1 503.305 208.8 502.748 209.329C500.467 211.349 499.079 214.239 499.052 217.383L499.052 217.438C499.05 217.619 499.081 218.398 499.081 218.398C497.984 219.373 496.707 220.302 495.343 221.102L495.192 221.182C495.192 221.182 498.498 213.651 493.016 211.081C490.536 209.975 489.063 213.118 489.063 213.118C489.063 213.118 495.003 204.611 492.693 198.32C491.581 195.33 490 195.179 488.648 195.858C487.498 196.426 486.585 197.28 485.953 198.314L485.945 198.329C484.496 201.418 483.696 204.975 483.754 208.678L483.757 208.784C483.85 214.858 483.793 222.246 483.793 222.246C483.195 222.996 482.385 223.581 481.44 223.895L481.407 223.906C480.189 224.117 480.282 220.367 480.282 220.367C480.282 220.367 480.54 214.619 480.357 213.681C480.173 212.744 480.035 212.234 478.887 212.04C477.739 211.846 476.683 213.404 476.683 213.404C476.683 213.404 474.051 218.686 473.874 219.466L473.746 219.789L473.556 219.608C473.556 219.608 475.012 212.677 472.828 212.842C470.645 213.008 469.521 215.658 469.521 215.658C469.521 215.658 467.555 220.102 467.512 220.582L467.322 220.401C467.532 218.577 467.568 216.482 467.396 214.357L467.392 214.292C467.27 213.747 466.76 213.376 466.198 213.445C466.107 213.456 466.024 213.476 465.942 213.507L465.949 213.506C465.949 213.506 464.501 213.516 464.247 214.474C463.806 217.036 463.52 220.133 463.455 223.274L463.457 223.629C461.947 225.076 460.065 226.223 457.955 226.905L457.865 226.93C455.519 227.242 455.575 225.701 455.575 225.701C455.575 225.701 463.798 221.705 460.737 216.2C459.818 215.113 458.407 214.504 456.909 214.688C456.764 214.705 456.62 214.73 456.481 214.761L456.497 214.759C454.065 215.293 452.258 217.217 451.807 219.558L451.799 219.604C451.434 220.831 451.249 222.22 451.298 223.649L451.301 223.7C451.098 223.773 450.859 223.826 450.609 223.857C449.993 223.933 449.398 223.842 448.865 223.617L448.883 223.625C447.991 223.044 447.62 223.78 447.62 223.78C447.62 223.78 446.422 225.711 447.902 226.076C448.973 226.306 450.208 226.428 451.467 226.414L451.545 226.411C452.096 227.919 453.141 229.109 454.461 229.846L454.48 229.857C457.269 231.476 461.882 228.781 461.882 228.781L463.752 227.424C463.752 227.424 464.039 229.258 465.539 229.343C467.04 229.429 467.625 229.217 469.405 222.731C470.506 219.391 470.632 219.557 470.632 219.557L470.792 219.499C470.585 221.565 470.606 223.91 470.897 226.28C470.934 226.579 470.974 226.875 471.02 227.17L471.015 227.126C471.654 228.688 473.568 228.299 473.568 228.299C473.568 228.299 474.652 228.474 475.124 225.392C475.588 222.823 476.17 220.633 476.911 218.512L476.825 218.789L477.007 218.767C476.981 219.696 477.03 220.76 477.161 221.834C477.38 223.611 477.81 225.308 478.423 226.907L478.375 226.766C479.694 228.603 482.355 226.954 482.355 226.954C483.191 226.414 483.883 225.895 484.538 225.333L484.473 225.385C485.929 226.252 487.699 226.667 489.537 226.441C489.809 226.408 490.074 226.362 490.336 226.302L490.303 226.31C493.969 225.33 497.197 223.765 500.028 221.719L499.886 221.815C501.098 223.641 503.204 224.732 505.474 224.549L505.488 224.548C505.764 224.544 506.079 224.523 506.399 224.484C508.729 224.198 510.737 223.025 512.12 221.345L512.117 221.349C512.248 222.388 512.977 223.208 513.916 223.506L513.934 223.511C515.578 223.961 516.193 220.312 516.193 220.312L517.918 212.77L518.157 212.741C518.157 212.741 518.877 217.429 521.54 217.861C521.765 217.854 522.026 217.836 522.285 217.804C524.244 217.563 525.967 216.678 527.271 215.387L527.253 215.403C527.646 215.017 527.859 214.468 527.787 213.885C527.77 213.747 527.737 213.618 527.695 213.493L527.7 213.506L527.722 213.521ZM454.858 223.144C454.463 219.092 456.901 217.012 457.913 217.773C458.926 218.534 458.836 220.479 457.249 221.88C455.661 223.281 454.856 223.151 454.856 223.151L454.858 223.144ZM487.372 203.276C487.372 203.276 489.026 196.703 489.955 199.678C490.884 202.653 486.396 212.441 486.396 212.441C486.538 208.897 486.89 205.806 487.441 202.775L487.369 203.276L487.372 203.276ZM492.382 220.396C492.07 222.112 490.7 223.476 488.909 223.696C488.313 223.769 487.732 223.707 487.194 223.534L487.219 223.541C487.134 223.179 487.058 222.758 487.006 222.33C486.809 220.731 486.942 219.167 487.35 217.706L487.329 217.787C488.065 213.456 491.221 214.719 491.221 214.719C491.221 214.719 493.457 216.037 492.379 220.393L492.382 220.396ZM502.836 217.253C502.798 217.083 502.76 216.887 502.735 216.688C502.584 215.452 502.837 214.263 503.393 213.248L503.385 213.266C504.462 210.544 505.718 211.811 505.718 211.811C506.085 212.19 506.342 212.695 506.413 213.267C506.494 213.93 506.312 214.564 505.95 215.066C505.356 216.24 504.224 217.096 502.841 217.27L502.836 217.253Z" fill="#10AB61"/>
<circle cx="276" cy="263" r="55" fill="white"/>
<g clip-path="url(#clip0_107_126)">
<path d="M295.822 279.834L295.882 279.713C295.94 279.619 295.987 279.518 296.023 279.413V279.403C296.213 278.903 296.254 278.371 296.163 277.838V277.857C296.064 277.293 295.86 276.752 295.561 276.263L295.58 276.283L281.924 252.27L279.839 248.63L264.139 276.283C263.867 276.764 263.698 277.286 263.608 277.827V277.857C263.498 278.479 263.567 279.111 263.817 279.692L263.808 279.673C263.839 279.763 263.889 279.844 263.939 279.933L263.929 279.923C264.341 280.626 265.213 281.467 267.138 281.467H292.544C292.944 281.467 294.92 281.386 295.832 279.832L295.822 279.834ZM279.841 255.922L292.313 277.859H267.379L279.841 255.922ZM306.148 276.287L288.142 244.565C287.951 244.224 286.919 242.539 285.104 242.539C284.292 242.539 283.129 242.89 282.176 244.555L279.851 248.636L281.916 252.286L285.125 246.601L302.941 277.873H296.163C296.254 278.394 296.204 278.926 296.023 279.426V279.407C295.982 279.517 295.942 279.628 295.882 279.728V279.719L295.822 279.84C294.91 281.394 292.944 281.474 292.563 281.474H303.16C303.551 281.474 305.507 281.394 306.419 279.84C306.831 279.128 307.111 277.946 306.148 276.29V276.287ZM263.95 279.925L263.829 279.684V279.675C263.577 279.098 263.5 278.46 263.608 277.84V277.859H249.049L270.686 239.791L277.783 252.272L279.849 248.632L273.652 237.723C273.481 237.413 272.439 235.729 270.634 235.729C269.821 235.729 268.649 236.079 267.706 237.754L245.79 276.285C245.599 276.616 244.696 278.36 245.599 279.913C246.011 280.626 246.883 281.457 248.808 281.457H267.155C265.25 281.457 264.358 280.635 263.946 279.913L263.95 279.925Z" fill="#41B883"/>
</g>
<circle cx="71" cy="333" r="50" fill="white"/>
<path d="M86.8398 325.651C86.3125 325.472 85.7852 325.303 85.2578 325.143C85.3457 324.775 85.4238 324.406 85.502 324.038C86.7031 318.101 85.9121 313.33 83.2461 311.756C80.6777 310.252 76.4883 311.816 72.25 315.581C71.8301 315.95 71.4199 316.338 71.0293 316.726C70.7656 316.468 70.4922 316.209 70.2188 315.959C65.7754 311.935 61.3223 310.242 58.6563 311.826C56.0977 313.34 55.3359 317.832 56.4102 323.45C56.5176 324.008 56.6348 324.556 56.7715 325.114C56.1465 325.293 55.5312 325.492 54.9551 325.701C49.7402 327.544 46 330.453 46 333.461C46 336.569 49.9844 339.686 55.4043 341.579C55.8438 341.728 56.2832 341.878 56.7324 342.007C56.5859 342.605 56.459 343.193 56.3418 343.8C55.3164 349.329 56.1172 353.711 58.6758 355.216C61.3125 356.769 65.7461 355.176 70.0625 351.321C70.4043 351.012 70.7461 350.693 71.0879 350.355C71.5176 350.783 71.9668 351.191 72.416 351.59C76.5957 355.255 80.7266 356.74 83.2754 355.235C85.9121 353.682 86.7715 348.97 85.6582 343.233C85.5703 342.794 85.4727 342.346 85.3652 341.888C85.6777 341.798 85.9805 341.699 86.2832 341.599C91.918 339.696 96 336.618 96 333.461C96 330.443 92.1523 327.514 86.8398 325.651ZM73.627 317.195C77.2598 313.967 80.6484 312.702 82.1914 313.609C83.8418 314.575 84.4766 318.48 83.4414 323.609C83.373 323.948 83.3047 324.277 83.2168 324.606C81.0488 324.108 78.8516 323.749 76.6445 323.55C75.375 321.697 73.9883 319.924 72.4844 318.26C72.8652 317.892 73.2363 317.543 73.627 317.195ZM62.3281 338.631C62.8262 339.497 63.334 340.364 63.8711 341.21C62.3477 341.041 60.834 340.792 59.3398 340.463C59.7695 339.029 60.3066 337.545 60.9316 336.031C61.3809 336.907 61.8398 337.774 62.3281 338.631ZM59.3691 326.648C60.7754 326.329 62.2695 326.07 63.8223 325.871C63.3047 326.697 62.7969 327.544 62.3184 328.401C61.8398 329.247 61.3711 330.114 60.9316 330.991C60.3164 329.506 59.7988 328.052 59.3691 326.648ZM62.0449 333.511C62.6895 332.136 63.3926 330.791 64.1348 329.467C64.877 328.142 65.6777 326.857 66.5176 325.592C67.9824 325.482 69.4766 325.422 71 325.422C72.5234 325.422 74.0273 325.482 75.4824 325.592C76.3125 326.847 77.1035 328.132 77.8555 329.447C78.6074 330.761 79.3105 332.106 79.9746 333.471C79.3203 334.845 78.6172 336.2 77.8652 337.535C77.123 338.86 76.332 340.145 75.502 341.42C74.0469 341.529 72.5332 341.579 71 341.579C69.4668 341.579 67.9824 341.529 66.5469 341.44C65.6973 340.175 64.8965 338.88 64.1445 337.555C63.3926 336.23 62.6992 334.885 62.0449 333.511ZM79.6816 338.611C80.1797 337.734 80.6484 336.848 81.1074 335.951C81.7324 337.395 82.2793 338.86 82.7578 340.364C81.2441 340.712 79.7109 340.981 78.168 341.161C78.6953 340.324 79.1934 339.467 79.6816 338.611ZM81.0879 330.991C80.6289 330.114 80.1602 329.237 79.6719 328.381C79.1934 327.534 78.6953 326.697 78.1777 325.871C79.75 326.07 81.2539 326.339 82.6602 326.668C82.2109 328.142 81.6836 329.576 81.0879 330.991ZM71.0195 319.784C72.0449 320.92 73.0117 322.115 73.9102 323.351C71.9766 323.261 70.0332 323.261 68.0996 323.351C69.0566 322.066 70.043 320.87 71.0195 319.784ZM59.6914 313.678C61.332 312.702 64.9746 314.097 68.8125 317.563C69.0566 317.782 69.3008 318.021 69.5547 318.26C68.041 319.924 66.6445 321.697 65.3652 323.55C63.1582 323.749 60.9707 324.098 58.8027 324.586C58.6758 324.078 58.5684 323.56 58.4609 323.042C57.543 318.221 58.1484 314.585 59.6914 313.678ZM57.2988 339.935C56.8887 339.816 56.4883 339.686 56.0879 339.547C54.0078 338.88 51.6445 337.824 49.9355 336.439C48.9492 335.742 48.2852 334.666 48.0996 333.461C48.0996 331.638 51.1855 329.307 55.6387 327.723C56.1953 327.524 56.7617 327.345 57.3281 327.176C57.9922 329.337 58.793 331.459 59.7207 333.511C58.7832 335.593 57.9727 337.744 57.2988 339.935ZM68.6855 349.697C67.0742 351.201 65.209 352.397 63.1777 353.213C62.0938 353.741 60.8438 353.791 59.7305 353.343C58.1777 352.426 57.5332 348.91 58.4121 344.179C58.5195 343.621 58.6367 343.063 58.7734 342.515C60.9609 342.993 63.168 343.322 65.4043 343.492C66.6934 345.354 68.1094 347.137 69.623 348.811C69.3105 349.119 68.998 349.418 68.6855 349.697ZM71.0781 347.277C70.082 346.181 69.0859 344.966 68.1191 343.661C69.0566 343.701 70.0234 343.721 71 343.721C72.0059 343.721 72.9922 343.701 73.9688 343.651C73.0703 344.916 72.1035 346.121 71.0781 347.277ZM83.8418 350.265C83.7539 351.48 83.168 352.616 82.2305 353.383C80.6777 354.299 77.3672 353.104 73.793 349.976C73.3828 349.618 72.9727 349.229 72.5527 348.831C74.0469 347.147 75.4238 345.364 76.6738 343.492C78.9102 343.302 81.1367 342.954 83.334 342.446C83.4316 342.854 83.5195 343.262 83.5977 343.661C84.0762 345.812 84.1543 348.054 83.8418 350.265ZM85.6191 339.557C85.3457 339.647 85.0723 339.736 84.7891 339.816C84.1055 337.644 83.2656 335.523 82.2988 333.461C83.2363 331.429 84.0273 329.337 84.6914 327.195C85.1992 327.345 85.6875 327.504 86.1562 327.664C90.707 329.257 93.9004 331.628 93.9004 333.441C93.9004 335.393 90.4922 337.913 85.6191 339.557ZM71 338.063C73.4707 338.063 75.4727 336.021 75.4727 333.501C75.4727 330.981 73.4707 328.939 71 328.939C68.5293 328.939 66.5273 330.981 66.5273 333.501C66.5273 336.021 68.5293 338.063 71 338.063Z" fill="#61DBFB"/>
<circle cx="1313" cy="313" r="50" fill="white"/>
<g clip-path="url(#clip1_107_126)">
<path d="M1295.53 303.429H1307.95V304.422H1296.67V311.9H1307.28V312.894H1296.67V321.104H1308.08V322.097H1295.53V303.429ZM1309.06 303.429H1310.38L1316.23 311.639L1322.2 303.429L1330.33 293L1316.98 312.502L1323.86 322.097H1322.49L1316.23 313.364L1309.94 322.097H1308.6L1315.53 312.502L1309.06 303.429H1309.06ZM1324.35 304.422V303.429H1338.5V304.422H1331.98V322.097H1330.84V304.422H1324.35ZM1280 303.429H1281.42L1301.04 332.985L1292.93 322.097L1281.19 304.841L1281.14 322.098H1280V303.429ZM1338.39 320.804C1338.15 320.804 1337.98 320.623 1337.98 320.388C1337.98 320.154 1338.15 319.972 1338.39 319.972C1338.62 319.972 1338.79 320.154 1338.79 320.388C1338.79 320.622 1338.62 320.804 1338.39 320.804ZM1339.5 319.71H1340.11C1340.12 320.042 1340.36 320.265 1340.72 320.265C1341.11 320.265 1341.34 320.025 1341.34 319.576V316.729H1341.96V319.579C1341.96 320.388 1341.49 320.854 1340.72 320.854C1340 320.854 1339.5 320.402 1339.5 319.71V319.71ZM1342.77 319.674H1343.38C1343.44 320.056 1343.81 320.299 1344.34 320.299C1344.84 320.299 1345.2 320.039 1345.2 319.682C1345.2 319.375 1344.97 319.191 1344.44 319.065L1343.93 318.94C1343.21 318.769 1342.88 318.418 1342.88 317.826C1342.88 317.109 1343.46 316.632 1344.33 316.632C1345.14 316.632 1345.73 317.109 1345.77 317.787H1345.17C1345.11 317.416 1344.79 317.184 1344.32 317.184C1343.83 317.184 1343.51 317.422 1343.51 317.784C1343.51 318.072 1343.72 318.236 1344.24 318.359L1344.68 318.468C1345.5 318.661 1345.83 318.996 1345.83 319.601C1345.83 320.371 1345.24 320.854 1344.29 320.854C1343.41 320.854 1342.81 320.394 1342.77 319.674V319.674Z" fill="black"/>
</g>
<circle cx="1108" cy="250" r="55" fill="white"/>
<g clip-path="url(#clip2_107_126)">
<path fill-rule="evenodd" clip-rule="evenodd" d="M1127.51 231.258C1128.99 233.631 1129.7 236.406 1129.54 239.199C1129.37 241.993 1128.35 244.666 1126.6 246.85C1128 249.837 1128.25 253.233 1127.32 256.397C1126.39 259.561 1124.33 262.273 1121.53 264.02L1107.22 272.96C1104.52 274.655 1101.31 275.338 1098.15 274.886C1094.99 274.435 1092.09 272.879 1089.97 270.494C1087.85 268.11 1086.64 265.051 1086.57 261.861C1086.49 258.671 1087.54 255.556 1089.54 253.07C1088.14 250.083 1087.88 246.687 1088.82 243.523C1089.75 240.36 1091.81 237.648 1094.61 235.9L1108.91 226.964C1110.41 226.025 1112.09 225.391 1113.84 225.099C1115.58 224.807 1117.37 224.861 1119.1 225.26C1120.82 225.659 1122.46 226.394 1123.9 227.423C1125.34 228.452 1126.57 229.755 1127.51 231.258H1127.51ZM1110.7 229.828C1112.64 228.611 1114.94 228.089 1117.22 228.349C1119.5 228.609 1121.62 229.635 1123.24 231.259C1124.86 232.883 1125.88 235.009 1126.13 237.288C1126.38 239.567 1125.85 241.864 1124.63 243.804C1122.57 241.39 1119.72 239.783 1116.58 239.267L1119.02 237.739L1117.24 234.878L1100.07 245.605L1101.86 248.462L1109.01 243.996C1111.29 242.574 1114.04 242.113 1116.65 242.717C1119.27 243.321 1121.54 244.938 1122.96 247.214C1124.38 249.49 1124.84 252.238 1124.24 254.853C1123.63 257.469 1122.02 259.737 1119.74 261.16L1105.44 270.099C1103.49 271.316 1101.19 271.838 1098.92 271.578C1096.64 271.318 1094.52 270.292 1092.9 268.668C1091.28 267.044 1090.26 264.918 1090.01 262.639C1089.75 260.36 1090.28 258.063 1091.51 256.123C1093.57 258.537 1096.42 260.144 1099.55 260.66L1097.11 262.185L1098.9 265.046L1116.06 254.319L1114.28 251.461L1107.12 255.931C1104.85 257.353 1102.1 257.813 1099.48 257.21C1096.87 256.606 1094.6 254.988 1093.18 252.711C1091.75 250.435 1091.29 247.686 1091.9 245.071C1092.5 242.455 1094.12 240.187 1096.4 238.764L1110.7 229.828Z" fill="#FF3D00"/>
</g>
<circle cx="898" cy="222" r="55" fill="white"/>
<g clip-path="url(#clip3_107_126)">
<path fill-rule="evenodd" clip-rule="evenodd" d="M917.509 203.258C918.992 205.631 919.701 208.406 919.538 211.199C919.374 213.993 918.347 216.666 916.598 218.85C917.998 221.837 918.255 225.233 917.321 228.397C916.386 231.561 914.326 234.273 911.528 236.02L897.225 244.96C894.522 246.655 891.305 247.338 888.146 246.886C884.988 246.435 882.091 244.879 879.971 242.494C877.851 240.11 876.644 237.051 876.566 233.861C876.487 230.671 877.542 227.556 879.542 225.07C878.142 222.083 877.885 218.687 878.819 215.523C879.753 212.36 881.814 209.648 884.612 207.9L898.911 198.964C900.414 198.025 902.087 197.391 903.835 197.099C905.583 196.807 907.371 196.861 909.098 197.26C910.824 197.659 912.456 198.394 913.898 199.423C915.341 200.452 916.566 201.755 917.505 203.258H917.509ZM900.699 201.828C902.642 200.611 904.942 200.089 907.22 200.349C909.498 200.609 911.62 201.635 913.239 203.259C914.858 204.883 915.878 207.009 916.13 209.288C916.383 211.567 915.855 213.864 914.631 215.804C912.567 213.39 909.716 211.783 906.582 211.267L909.025 209.739L907.237 206.878L890.073 217.605L891.861 220.462L899.013 215.996C901.289 214.574 904.037 214.113 906.652 214.717C909.267 215.321 911.535 216.938 912.958 219.214C914.381 221.49 914.841 224.238 914.237 226.853C913.634 229.469 912.016 231.737 909.74 233.16L895.437 242.099C893.494 243.316 891.195 243.838 888.916 243.578C886.638 243.318 884.516 242.292 882.897 240.668C881.278 239.044 880.259 236.918 880.006 234.639C879.753 232.36 880.282 230.063 881.505 228.123C883.569 230.537 886.42 232.144 889.554 232.66L887.108 234.185L888.896 237.046L906.063 226.319L904.275 223.461L897.124 227.931C894.847 229.353 892.099 229.813 889.483 229.21C886.868 228.606 884.599 226.988 883.177 224.711C881.754 222.435 881.294 219.686 881.898 217.071C882.502 214.455 884.12 212.187 886.396 210.764L900.699 201.828Z" fill="#FF3D00"/>
</g>
<g clip-path="url(#clip4_107_126)">
<path d="M746.336 9.65161C738.625 3.2217 729.176 0 719.713 0C710.385 0 701.043 3.14082 693.387 9.40897L693.144 9.61117C674.812 24.6278 661.008 43.9984 652.731 65.6067L676.858 97.0014H771.289L786.102 65.6067C778 44.0793 764.412 24.7356 746.336 9.65161Z" fill="#3366CC"/>
<path d="M710.555 82.1324C718.831 60.5242 732.635 41.1535 750.968 26.1369L751.21 25.9347C753.503 24.057 755.979 22.5 758.53 21.1831C754.734 17.1175 750.659 13.2569 746.336 9.64966C738.625 3.21974 729.176 -0.00195312 719.713 -0.00195312C710.385 -0.00195312 701.043 3.13886 693.387 9.40702L693.144 9.60922C674.812 24.6258 661.008 43.9964 652.731 65.6047L676.858 96.9994H705.857C707.15 91.9526 708.697 86.9825 710.555 82.1324Z" fill="#5C85D6"/>
<path d="M794.77 113.151V353.686H643.795V113.879C643.795 97.1639 646.895 80.8397 652.732 65.6074H786.102C791.777 80.6375 794.77 96.719 794.77 113.151Z" fill="#C5D3DD"/>
<path d="M864.15 213.858L862.519 212.133C857.37 206.7 848.716 206.7 843.567 212.133L841.936 213.858C828.442 228.093 818.71 245.253 813.345 263.774L826.37 285.402H885.135L892.741 263.774C887.376 245.253 877.644 228.093 864.15 213.858Z" fill="#2E5CB8"/>
<path d="M862.529 263.774C865.895 252.155 870.981 241.072 877.636 230.909C873.684 224.873 869.18 219.163 864.152 213.858L862.521 212.133C857.372 206.7 848.718 206.7 843.569 212.133L841.938 213.858C828.444 228.093 818.712 245.253 813.347 263.774L826.372 285.402H858.359C859.1 278.051 860.497 270.811 862.529 263.774Z" fill="#3366CC"/>
<path d="M897.541 297.648V456.334H808.547V297.648C808.547 286.096 810.191 274.692 813.346 263.773H892.742C895.897 274.692 897.541 286.096 897.541 297.648Z" fill="#E8EDF2"/>
<path d="M597.977 213.858L596.346 212.133C591.196 206.7 582.542 206.7 577.393 212.133L575.762 213.858C562.268 228.093 552.536 245.253 547.171 263.774L559.722 285.596C559.722 285.596 618.636 287.122 618.636 285.596C618.636 284.07 626.568 263.774 626.568 263.774C621.203 245.253 611.47 228.093 597.977 213.858Z" fill="#507BD3"/>
<path d="M596.356 263.774C599.722 252.155 604.809 241.072 611.463 230.909C607.51 224.873 603.007 219.163 597.979 213.858L596.348 212.133C591.198 206.7 582.544 206.7 577.395 212.133L575.764 213.858C562.27 228.093 552.538 245.253 547.173 263.774L559.724 285.596C559.724 285.596 576.475 286.03 592.113 286.204C592.832 278.578 594.249 271.067 596.356 263.774Z" fill="#5C85D6"/>
<path d="M631.366 297.648V474.181H542.372V297.648C542.372 286.096 544.017 274.692 547.171 263.773H626.568C629.722 274.692 631.366 286.096 631.366 297.648Z" fill="#E8EDF2"/>
<path d="M583.252 573.811H516.095C511.7 573.811 508.138 570.248 508.138 565.854V513.346H591.21V565.854C591.21 570.248 587.646 573.811 583.252 573.811Z" fill="#F79595"/>
<path d="M631.217 291.962L604.07 320.725C599.57 325.493 591.555 322.309 591.555 315.753V297.65C591.555 286.098 593.199 274.694 596.354 263.775H547.171C544.017 274.694 542.372 286.098 542.372 297.65V474.183H591.555V404.422H631.366C631.366 404.422 631.306 293.854 631.217 291.962Z" fill="#D9E7EC"/>
<path d="M866.013 351.45C860.691 345.748 857.73 338.24 857.73 330.439V297.65C857.73 286.098 859.375 274.694 862.529 263.775H813.347C810.192 274.694 808.548 286.098 808.548 297.65V456.336H845.492H857.732H897.543V385.229L866.013 351.45Z" fill="#D9E7EC"/>
<path d="M756.514 263.775H685.623L483.465 477.971L517.646 505.093H936.273L956.448 477.971L756.514 263.775Z" fill="#B6C4CF"/>
<path d="M508.138 513.346V565.854C508.138 570.248 511.7 573.811 516.095 573.811H554.757C550.362 573.811 546.799 570.248 546.799 565.854C546.799 558.441 552.809 552.432 560.221 552.432H591.21V513.346H546.799H508.138Z" fill="#F37C7C"/>
<path d="M958.645 483.551V524.032C958.645 528.547 954.978 532.214 950.463 532.214H489.45C484.934 532.214 481.268 528.547 481.268 524.032V483.551C481.268 481.475 482.049 479.48 483.465 477.971H956.448C957.863 479.48 958.645 481.475 958.645 483.551Z" fill="#D9E7EC"/>
<path d="M794.77 140.728C790.463 135.421 785.854 130.339 780.938 125.535L757.134 102.27C747.139 92.4985 733.935 87.1173 719.955 87.1173C718.134 87.1173 716.326 87.2117 714.539 87.3977C711.697 87.6915 709.509 84.8648 710.531 82.1958C710.539 82.1756 710.547 82.154 710.555 82.1338C712.73 76.4561 715.296 70.9374 718.217 65.6074H652.732C646.895 80.8397 643.795 97.1639 643.795 113.879V353.686H701.618V225.909H794.77V140.728Z" fill="#B6C4CF"/>
<path d="M685.623 263.775L604.406 349.828V505.093H835.507V348.402L756.513 263.775H685.623Z" fill="#9FACBA"/>
<path d="M604.406 477.971H835.506V532.214H604.406V477.971Z" fill="#C5D3DD"/>
<path d="M762.095 144.815L738.289 121.549C735.659 118.978 732.62 117.084 729.387 115.84L727.884 119.773H711.831L709.178 116.419C706.452 117.649 703.883 119.339 701.622 121.547L677.817 144.814C648.107 173.849 631.365 213.615 631.365 255.147V549.912C631.365 558.417 638.253 565.292 646.746 565.292H793.165C801.657 565.292 808.545 558.417 808.545 549.912V255.148C808.546 213.616 791.804 173.851 762.095 144.815Z" fill="#E8EDF2"/>
<path d="M719.283 328.461C754.95 328.461 783.967 299.444 783.967 263.776C783.967 236.702 767.244 213.469 743.585 203.846C732.975 199.53 728.588 186.74 734.4 176.87C741.256 165.226 749.672 154.433 759.511 144.816L760.802 143.553L738.289 121.549C735.659 118.978 732.62 117.084 729.387 115.84L727.884 119.773H711.831L709.178 116.419C706.452 117.649 703.883 119.339 701.622 121.547L677.817 144.814C648.107 173.849 631.365 213.615 631.365 255.147V549.912C631.365 558.417 638.253 565.292 646.746 565.292H728.438C719.946 565.292 713.057 558.417 713.057 549.912V334.681C713.06 331.243 715.846 328.458 719.283 328.461Z" fill="#D9E7EC"/>
<path d="M719.282 528.376C724.865 528.376 729.392 523.85 729.392 518.266V115.841C722.874 113.331 715.57 113.536 709.172 116.424V518.266C709.172 523.85 713.699 528.376 719.282 528.376Z" fill="#C5D3DD"/>
<path d="M709.155 116.39L709.173 283.14H729.393V115.826C722.875 113.316 715.554 113.502 709.155 116.39Z" fill="#C5D3DD"/>
<path d="M719.283 309.588C744.584 309.588 765.095 289.077 765.095 263.776C765.095 238.474 744.584 217.963 719.283 217.963C693.981 217.963 673.47 238.474 673.47 263.776C673.47 289.077 693.981 309.588 719.283 309.588Z" fill="#A7EEDC"/>
<path d="M709.173 263.776C709.173 244.807 720.702 228.531 737.134 221.571C731.648 219.248 725.615 217.963 719.283 217.963C693.981 217.963 673.47 238.474 673.47 263.776C673.47 289.077 693.981 309.588 719.283 309.588C725.615 309.588 731.648 308.303 737.134 305.98C720.702 299.02 709.173 282.745 709.173 263.776Z" fill="#86E8D0"/>
<path d="M725.321 257.196H716.513C716.363 257.196 716.218 257.138 716.112 257.034C716.005 256.931 715.945 256.791 715.945 256.645C715.945 256.499 716.005 256.359 716.112 256.255C716.218 256.152 716.363 256.094 716.513 256.094H721.359C723.491 256.094 725.535 255.272 727.043 253.81C728.55 252.348 729.397 250.365 729.397 248.297C729.397 246.229 728.55 244.246 727.043 242.784C725.535 241.321 723.491 240.5 721.359 240.5H712.313V247.852C710.584 248.63 709.121 249.87 708.096 251.428C707.07 252.985 706.525 254.795 706.524 256.643C706.522 257.504 706.639 258.362 706.874 259.192C704.389 260.698 702.476 262.947 701.426 265.6C700.375 268.254 700.244 271.167 701.052 273.899C701.86 276.631 703.563 279.033 705.904 280.743C708.245 282.453 711.096 283.376 714.026 283.375H725.321C728.9 283.375 732.333 281.995 734.863 279.54C737.394 277.085 738.816 273.756 738.816 270.284C738.816 266.812 737.394 263.483 734.863 261.028C732.333 258.573 728.9 257.196 725.321 257.196ZM725.321 280.336H714.026C711.538 280.337 709.134 279.47 707.251 277.893C705.369 276.315 704.135 274.133 703.775 271.746C703.415 269.359 703.954 266.925 705.291 264.891C706.629 262.857 708.677 261.358 711.061 260.669C710.289 259.684 709.817 258.51 709.696 257.279C709.576 256.047 709.813 254.808 710.379 253.7C710.946 252.592 711.821 251.659 712.905 251.008C713.988 250.356 715.238 250.011 716.513 250.012H721.359C721.825 250.012 722.272 249.832 722.601 249.513C722.93 249.193 723.115 248.76 723.115 248.308C723.115 247.856 722.93 247.423 722.601 247.103C722.272 246.784 721.825 246.604 721.359 246.604H715.452V243.548H721.359C722.011 243.534 722.659 243.647 723.266 243.88C723.872 244.112 724.425 244.46 724.891 244.902C725.357 245.345 725.727 245.873 725.98 246.456C726.233 247.039 726.363 247.666 726.363 248.298C726.363 248.931 726.233 249.557 725.98 250.14C725.727 250.723 725.357 251.251 724.891 251.694C724.425 252.136 723.872 252.484 723.266 252.717C722.659 252.949 722.011 253.062 721.359 253.048H716.513C716.019 253.036 715.527 253.121 715.067 253.296C714.606 253.471 714.187 253.734 713.832 254.069C713.478 254.404 713.197 254.805 713.005 255.247C712.813 255.689 712.714 256.164 712.714 256.644C712.714 257.124 712.813 257.599 713.005 258.041C713.197 258.483 713.478 258.883 713.832 259.218C714.187 259.553 714.606 259.816 715.067 259.992C715.527 260.167 716.019 260.251 716.513 260.239H725.321C728.041 260.278 730.635 261.354 732.544 263.233C734.453 265.112 735.523 267.645 735.523 270.283C735.523 272.921 734.453 275.454 732.544 277.333C730.635 279.212 728.041 280.288 725.321 280.327V280.336ZM725.321 263.296H714.026C713.068 263.279 712.116 263.448 711.226 263.792C710.336 264.137 709.526 264.649 708.843 265.3C708.159 265.952 707.616 266.729 707.246 267.586C706.875 268.442 706.685 269.362 706.685 270.292C706.685 271.221 706.875 272.141 707.246 272.998C707.616 273.855 708.159 274.632 708.843 275.283C709.526 275.934 710.336 276.447 711.226 276.791C712.116 277.135 713.068 277.304 714.026 277.288H725.321C726.279 277.304 727.231 277.135 728.121 276.791C729.011 276.447 729.821 275.934 730.504 275.283C731.188 274.632 731.73 273.855 732.101 272.998C732.472 272.141 732.662 271.221 732.662 270.292C732.662 269.362 732.472 268.442 732.101 267.586C731.73 266.729 731.188 265.952 730.504 265.3C729.821 264.649 729.011 264.137 728.121 263.792C727.231 263.448 726.279 263.279 725.321 263.296ZM725.321 274.242H714.026C712.946 274.242 711.91 273.826 711.147 273.085C710.383 272.345 709.954 271.34 709.954 270.293C709.954 269.246 710.383 268.241 711.147 267.5C711.91 266.76 712.946 266.344 714.026 266.344H725.321C726.401 266.344 727.436 266.76 728.2 267.5C728.963 268.241 729.392 269.246 729.392 270.293C729.392 271.34 728.963 272.345 728.2 273.085C727.436 273.826 726.401 274.242 725.321 274.242Z" fill="black"/>
<path d="M731.455 444.382L723.248 441.246L713.06 456.335L707.668 578.597L714.661 582.936L719.521 579.352L723.586 586.911C723.586 586.911 726.332 588.48 726.439 588.48C726.452 588.48 726.458 588.545 726.458 588.657H735.637C738.687 588.657 741.159 586.185 741.159 583.136V473.322C741.157 462.876 737.751 452.716 731.455 444.382Z" fill="#B6C4CF"/>
<path d="M723.055 583.137V473.323C723.055 463.249 726.244 453.445 732.119 445.285C731.902 444.984 731.678 444.679 731.454 444.383L723.207 433.468C721.577 431.31 718.335 431.31 716.706 433.468L708.459 444.383C702.162 452.717 698.756 462.877 698.756 473.323V583.137C698.756 586.186 701.228 588.658 704.277 588.658H728.577C725.527 588.658 723.055 586.186 723.055 583.137Z" fill="#9FACBA"/>
<path d="M675.509 361.829C669.926 361.829 665.399 357.303 665.399 351.719V346.276C665.399 340.693 669.926 336.166 675.509 336.166C681.093 336.166 685.619 340.693 685.619 346.276V351.719C685.619 357.304 681.093 361.829 675.509 361.829Z" fill="#B6C4CF"/>
<path d="M675.509 417.253C669.926 417.253 665.399 412.726 665.399 407.143V401.7C665.399 396.116 669.926 391.59 675.509 391.59C681.093 391.59 685.619 396.116 685.619 401.7V407.143C685.619 412.726 681.093 417.253 675.509 417.253Z" fill="#B6C4CF"/>
<path d="M763.055 361.829C757.472 361.829 752.945 357.303 752.945 351.719V346.276C752.945 340.693 757.472 336.166 763.055 336.166C768.639 336.166 773.165 340.693 773.165 346.276V351.719C773.165 357.304 768.64 361.829 763.055 361.829Z" fill="#C5D3DD"/>
<path d="M763.055 417.253C757.472 417.253 752.945 412.726 752.945 407.143V401.7C752.945 396.116 757.472 391.59 763.055 391.59C768.639 391.59 773.165 396.116 773.165 401.7V407.143C773.165 412.726 768.64 417.253 763.055 417.253Z" fill="#C5D3DD"/>
<path d="M861.293 376.035L956.447 477.97H861.279V376.049L861.293 376.035Z" fill="#C5D3DD"/>
<path d="M578.633 377.141V477.971H483.465L578.633 377.141Z" fill="#C5D3DD"/>
</g>
<defs>
<linearGradient id="paint0_linear_107_126" x1="-647" y1="310" x2="1523" y2="379.5" gradientUnits="userSpaceOnUse">
<stop stop-color="#EBF0FA"/>
<stop offset="1" stop-color="#F3F6FC"/>
</linearGradient>
<clipPath id="clip0_107_126">
<rect width="61.6" height="61.6" fill="white" transform="translate(245.2 227.799)"/>
</clipPath>
<clipPath id="clip1_107_126">
<rect width="65.8333" height="40" fill="white" transform="translate(1280 293)"/>
</clipPath>
<clipPath id="clip2_107_126">
<rect width="50.6" height="50.6" fill="white" transform="translate(1082.7 224.699)"/>
</clipPath>
<clipPath id="clip3_107_126">
<rect width="50.6" height="50.6" fill="white" transform="translate(872.7 196.699)"/>
</clipPath>
<clipPath id="clip4_107_126">
<rect width="669.915" height="550" fill="white" transform="translate(385)"/>
</clipPath>
</defs>
</svg>
