<svg width="723" height="709" viewBox="0 0 723 709" fill="none" xmlns="http://www.w3.org/2000/svg">
<circle cx="434" cy="505" r="45" fill="#F7F9FD"/>
<path d="M434.003 481C420.741 480.994 410 492.022 410 505.633C410 516.397 416.719 525.546 426.077 528.906C427.337 529.231 427.144 528.311 427.144 527.683V523.415C419.867 524.29 419.572 519.344 419.084 518.518C418.097 516.788 415.765 516.347 416.462 515.521C418.119 514.645 419.808 515.741 421.765 518.71C423.181 520.864 425.943 520.501 427.342 520.143C427.648 518.848 428.302 517.691 429.203 516.793C421.664 515.405 418.521 510.679 418.521 505.061C418.521 502.334 419.395 499.828 421.111 497.806C420.017 494.473 421.213 491.62 421.374 491.196C424.49 490.91 427.729 493.487 427.981 493.691C429.75 493.201 431.772 492.942 434.035 492.942C436.309 492.942 438.336 493.212 440.121 493.708C440.727 493.234 443.73 491.02 446.626 491.29C446.782 491.714 447.951 494.501 446.921 497.79C448.658 499.817 449.543 502.345 449.543 505.077C449.543 510.707 446.379 515.438 438.818 516.804C439.466 517.459 439.98 518.239 440.331 519.1C440.682 519.96 440.862 520.884 440.861 521.817V528.014C440.904 528.51 440.861 529 441.666 529C451.163 525.711 458 516.496 458 505.639C458 492.022 447.253 481 434.003 481Z" fill="#3366CC"/>
<circle cx="544" cy="316" r="45" fill="#F7F9FD"/>
<g clip-path="url(#clip0_208_497)">
<path d="M557.777 317.779C556.435 317.779 555.105 318.043 553.865 318.557C552.625 319.071 551.498 319.824 550.549 320.773C549.599 321.722 548.846 322.849 548.333 324.089C547.819 325.33 547.555 326.659 547.555 328.001C547.555 329.344 547.819 330.673 548.333 331.913C548.846 333.154 549.599 334.281 550.549 335.23C551.498 336.179 552.625 336.932 553.865 337.446C555.105 337.96 556.435 338.224 557.777 338.224C560.488 338.224 563.088 337.147 565.005 335.23C566.923 333.313 568 330.713 568 328.001C568 325.29 566.923 322.69 565.005 320.773C563.088 318.856 560.488 317.779 557.777 317.779V317.779ZM531.222 317.779C529.868 317.76 528.523 318.011 527.267 318.516C526.01 319.022 524.867 319.772 523.903 320.723C522.938 321.674 522.173 322.807 521.65 324.057C521.128 325.306 520.859 326.647 520.859 328.001C520.859 329.356 521.128 330.697 521.651 331.946C522.174 333.195 522.94 334.329 523.904 335.279C524.868 336.23 526.012 336.98 527.269 337.485C528.525 337.99 529.87 338.241 531.224 338.222C533.91 338.185 536.474 337.091 538.36 335.178C540.247 333.265 541.304 330.686 541.304 328C541.304 325.313 540.246 322.734 538.359 320.822C536.472 318.909 533.908 317.816 531.222 317.779V317.779ZM554.722 305.001C554.722 307.712 553.645 310.312 551.728 312.229C549.811 314.146 547.211 315.223 544.5 315.223C541.788 315.223 539.188 314.146 537.271 312.229C535.354 310.312 534.277 307.712 534.277 305.001C534.277 302.29 535.354 299.69 537.271 297.772C539.188 295.855 541.788 294.778 544.5 294.778C547.211 294.778 549.811 295.855 551.728 297.772C553.645 299.69 554.722 302.29 554.722 305.001V305.001Z" fill="#3366CC"/>
<path d="M557.779 317.806C552.133 317.806 547.557 322.383 547.557 328.028C547.557 333.673 552.133 338.25 557.779 338.25C563.424 338.25 568 333.673 568 328.028C568 322.383 563.424 317.806 557.779 317.806V317.806ZM531.222 317.807C525.577 317.807 521 322.383 521 328.028C521 333.673 525.577 338.25 531.222 338.25C536.867 338.25 541.444 333.673 541.444 328.028C541.444 322.383 536.867 317.807 531.221 317.807H531.222ZM554.722 305.029C554.722 310.674 550.146 315.252 544.5 315.252C538.854 315.252 534.278 310.674 534.278 305.029C534.278 299.384 538.854 294.808 544.5 294.808C550.146 294.808 554.721 299.384 554.721 305.029H554.722Z" fill="url(#paint0_radial_208_497)"/>
</g>
<circle cx="362" cy="339" r="325.3" stroke="#FF9900" stroke-width="0.6" stroke-dasharray="12 12"/>
<circle cx="362" cy="339" r="200.3" stroke="#3366CC" stroke-width="0.6" stroke-dasharray="12 12"/>
<circle cx="499" cy="45" r="45" fill="#F7F9FD"/>
<g clip-path="url(#clip1_208_497)">
<path d="M489.471 54.7363C486.759 52.2439 485.164 48.8171 485.164 44.9228C485.164 41.0285 486.759 37.6017 489.311 35.1093C491.544 32.9287 491.544 29.5017 489.311 27.3209C487.078 25.1401 483.569 25.1401 481.337 27.3209C476.871 31.8382 474 38.069 474 44.9228C474 51.7766 476.871 58.0074 481.496 62.5247C483.729 64.7055 487.238 64.7055 489.471 62.5247C491.544 60.3439 491.544 56.9169 489.471 54.7363V54.7363Z" fill="#FAE501"/>
<path d="M489.471 35.1095C492.023 32.4614 495.531 30.9038 499.519 30.9038C503.506 30.9038 507.015 32.4614 509.567 34.9538C511.799 37.1346 515.308 37.1346 517.541 34.9538C519.774 32.773 519.774 29.3462 517.541 27.1654C512.916 22.8038 506.536 20 499.519 20C492.501 20 486.121 22.8038 481.496 27.3211C479.263 29.5019 479.263 32.9289 481.496 35.1095C483.729 37.1346 487.238 37.1346 489.471 35.1095Z" fill="#4FB5E1"/>
<path d="M509.567 54.7366C507.015 57.3845 503.506 58.9423 499.519 58.9423C495.531 58.9423 492.023 57.3845 489.471 54.8921C487.238 52.7115 483.729 52.7115 481.496 54.8921C479.263 57.0731 479.263 60.4999 481.496 62.6807C486.121 67.0423 492.501 69.8461 499.519 69.8461C506.536 69.8461 512.916 67.0423 517.541 62.525C519.774 60.3442 519.774 56.9172 517.541 54.7366C515.308 52.7115 511.799 52.7115 509.567 54.7366V54.7366Z" fill="#F05751"/>
<path d="M485.484 36.6672C488.566 36.6672 491.066 34.2263 491.066 31.2153C491.066 28.2043 488.566 25.7634 485.484 25.7634C482.401 25.7634 479.901 28.2043 479.901 31.2153C479.901 34.2263 482.401 36.6672 485.484 36.6672Z" fill="#0681B6"/>
<path d="M485.484 64.0825C488.566 64.0825 491.066 61.6416 491.066 58.6306C491.066 55.6196 488.566 53.1787 485.484 53.1787C482.401 53.1787 479.901 55.6196 479.901 58.6306C479.901 61.6416 482.401 64.0825 485.484 64.0825Z" fill="#CD4739"/>
</g>
<circle cx="678" cy="346" r="45" fill="#F7F9FD"/>
<path d="M706.021 348.896L698.357 322.824C697.879 321.389 696.732 320.426 695.2 320.426C693.667 320.426 692.422 321.291 691.944 322.725L686.868 337.871H669.156L664.079 322.732C663.601 321.298 662.357 320.433 660.824 320.433C659.291 320.433 658.047 321.389 657.667 322.831L650.01 348.896C649.722 349.852 650.108 350.907 650.875 351.483L677.973 371.803L705.163 351.483C705.922 350.914 706.309 349.859 706.021 348.896Z" fill="black"/>
<circle cx="362" cy="664" r="45" fill="#F7F9FD"/>
<path d="M339.554 642.422C339.147 642.418 338.756 642.576 338.464 642.859C338.173 643.143 338.006 643.531 338 643.937C338 644.032 338.008 644.117 338.024 644.203L344.547 683.828C344.629 684.314 344.878 684.754 345.253 685.073C345.628 685.392 346.103 685.568 346.595 685.57H377.9C378.665 685.577 379.314 685.031 379.439 684.281L385.978 644.219C386.011 644.021 386.004 643.818 385.958 643.621C385.913 643.425 385.828 643.24 385.711 643.077C385.593 642.913 385.444 642.775 385.273 642.669C385.101 642.564 384.91 642.493 384.712 642.461C384.624 642.446 384.535 642.438 384.446 642.437L339.554 642.422ZM367.038 671.054H357.047L354.344 656.929H369.461L367.038 671.054Z" fill="#3366CC"/>
<circle cx="45" cy="346" r="45" fill="#F7F9FD"/>
<g clip-path="url(#clip2_208_497)">
<path d="M58.777 347.779C57.4346 347.779 56.1053 348.043 54.865 348.557C53.6248 349.071 52.4979 349.824 51.5486 350.773C50.5994 351.722 49.8464 352.849 49.3327 354.089C48.8189 355.33 48.5545 356.659 48.5545 358.001C48.5545 359.344 48.8189 360.673 49.3327 361.913C49.8464 363.154 50.5994 364.281 51.5486 365.23C52.4979 366.179 53.6248 366.932 54.865 367.446C56.1053 367.96 57.4346 368.224 58.777 368.224C61.4882 368.224 64.0883 367.147 66.0054 365.23C67.9225 363.313 68.9995 360.713 68.9995 358.001C68.9995 355.29 67.9225 352.69 66.0054 350.773C64.0883 348.856 61.4882 347.779 58.777 347.779V347.779ZM32.222 347.779C30.8678 347.76 29.5234 348.011 28.2669 348.516C27.0104 349.022 25.8668 349.772 24.9026 350.723C23.9384 351.674 23.1729 352.807 22.6504 354.057C22.1279 355.306 21.8589 356.647 21.859 358.001C21.8591 359.356 22.1284 360.697 22.6511 361.946C23.1739 363.195 23.9396 364.329 24.904 365.279C25.8684 366.23 27.0121 366.98 28.2687 367.485C29.5253 367.99 30.8698 368.241 32.224 368.222C34.9104 368.185 37.4741 367.091 39.3604 365.178C41.2468 363.265 42.3043 360.686 42.304 358C42.3037 355.313 41.2458 352.734 39.3591 350.822C37.4723 348.909 34.9084 347.816 32.222 347.779V347.779ZM55.722 335.001C55.722 337.712 54.645 340.312 52.7279 342.229C50.8108 344.146 48.2107 345.223 45.4995 345.223C42.7883 345.223 40.1882 344.146 38.2711 342.229C36.354 340.312 35.277 337.712 35.277 335.001C35.277 332.29 36.354 329.69 38.2711 327.772C40.1882 325.855 42.7883 324.778 45.4995 324.778C48.2107 324.778 50.8108 325.855 52.7279 327.772C54.645 329.69 55.722 332.29 55.722 335.001V335.001Z" fill="#3366CC"/>
<path d="M58.7788 347.806C53.1328 347.806 48.5566 352.383 48.5566 358.028C48.5566 363.673 53.1328 368.25 58.7788 368.25C64.4238 368.25 69 363.673 69 358.028C69 352.383 64.4238 347.806 58.7788 347.806V347.806ZM32.2217 347.807C26.5766 347.807 22 352.383 22 358.028C22 363.673 26.5766 368.25 32.2217 368.25C37.8672 368.25 42.4439 363.673 42.4439 358.028C42.4439 352.383 37.8672 347.807 32.2212 347.807H32.2217ZM55.7217 335.029C55.7217 340.674 51.1455 345.252 45.5005 345.252C39.8545 345.252 35.2783 340.674 35.2783 335.029C35.2783 329.384 39.8545 324.808 45.5005 324.808C51.1455 324.808 55.7212 329.384 55.7212 335.029H55.7217Z" fill="url(#paint1_radial_208_497)"/>
</g>
<circle cx="207" cy="45" r="45" fill="#F7F9FD"/>
<g clip-path="url(#clip3_208_497)">
<path d="M220.777 46.7789C219.435 46.7789 218.105 47.0434 216.865 47.5571C215.625 48.0708 214.498 48.8238 213.549 49.7731C212.599 50.7223 211.846 51.8492 211.333 53.0895C210.819 54.3297 210.555 55.659 210.555 57.0015C210.555 58.3439 210.819 59.6732 211.333 60.9134C211.846 62.1537 212.599 63.2806 213.549 64.2299C214.498 65.1791 215.625 65.9321 216.865 66.4458C218.105 66.9595 219.435 67.224 220.777 67.224C223.488 67.224 226.088 66.1469 228.005 64.2299C229.923 62.3128 231 59.7126 231 57.0015C231 54.2903 229.923 51.6901 228.005 49.7731C226.088 47.856 223.488 46.7789 220.777 46.7789V46.7789ZM194.222 46.7789C192.868 46.7603 191.523 47.011 190.267 47.5164C189.01 48.0218 187.867 48.7718 186.903 49.7229C185.938 50.674 185.173 51.8073 184.65 53.0568C184.128 54.3063 183.859 55.6471 183.859 57.0015C183.859 58.3558 184.128 59.6966 184.651 60.946C185.174 62.1954 185.94 63.3285 186.904 64.2794C187.868 65.2303 189.012 65.9802 190.269 66.4853C191.525 66.9905 192.87 67.2409 194.224 67.222C196.91 67.1845 199.474 66.091 201.36 64.178C203.247 62.2649 204.304 59.6862 204.304 56.9995C204.304 54.3128 203.246 51.7343 201.359 49.8216C199.472 47.9089 196.908 46.8159 194.222 46.7789V46.7789ZM217.722 34.0008C217.722 36.712 216.645 39.3121 214.728 41.2292C212.811 43.1463 210.211 44.2233 207.5 44.2233C204.788 44.2233 202.188 43.1463 200.271 41.2292C198.354 39.3121 197.277 36.712 197.277 34.0008C197.277 31.2896 198.354 28.6895 200.271 26.7724C202.188 24.8553 204.788 23.7783 207.5 23.7783C210.211 23.7783 212.811 24.8553 214.728 26.7724C216.645 28.6895 217.722 31.2896 217.722 34.0008V34.0008Z" fill="#3366CC"/>
<path d="M220.779 46.8064C215.133 46.8064 210.557 51.3826 210.557 57.0276C210.557 62.6732 215.133 67.2503 220.779 67.2503C226.424 67.2503 231 62.6732 231 57.0276C231 51.3826 226.424 46.8064 220.779 46.8064V46.8064ZM194.222 46.8069C188.577 46.8074 184 51.3826 184 57.0281C184 62.6732 188.577 67.2498 194.222 67.2498C199.867 67.2498 204.444 62.6732 204.444 57.0281C204.444 51.3826 199.867 46.8069 194.221 46.8069H194.222ZM217.722 34.0293C217.722 39.6744 213.146 44.252 207.5 44.252C201.854 44.252 197.278 39.6744 197.278 34.0293C197.278 28.3843 201.854 23.8076 207.5 23.8076C213.146 23.8076 217.721 28.3843 217.721 34.0293H217.722Z" fill="url(#paint2_radial_208_497)"/>
</g>
<circle cx="401" cy="158" r="45" fill="#F7F9FD"/>
<g clip-path="url(#clip4_208_497)">
<path fill-rule="evenodd" clip-rule="evenodd" d="M387.964 163.857C387.965 164.477 387.843 165.09 387.607 165.662C387.37 166.234 387.022 166.754 386.584 167.192C386.146 167.63 385.626 167.977 385.054 168.214C384.482 168.45 383.868 168.572 383.249 168.571C382.63 168.571 382.017 168.45 381.445 168.213C380.873 167.976 380.353 167.629 379.916 167.191C379.478 166.753 379.131 166.233 378.895 165.661C378.658 165.089 378.536 164.476 378.537 163.857C378.536 163.238 378.658 162.625 378.895 162.053C379.132 161.481 379.479 160.961 379.917 160.523C380.354 160.085 380.874 159.738 381.446 159.501C382.018 159.265 382.632 159.143 383.251 159.144H387.966V163.857H387.964ZM390.321 163.857C390.321 163.238 390.442 162.625 390.679 162.053C390.916 161.481 391.263 160.961 391.701 160.523C392.139 160.085 392.659 159.738 393.231 159.501C393.803 159.265 394.416 159.143 395.035 159.144C395.654 159.143 396.267 159.265 396.84 159.501C397.412 159.738 397.932 160.085 398.369 160.523C398.807 160.961 399.154 161.481 399.391 162.053C399.628 162.625 399.749 163.238 399.749 163.857V175.644C399.749 176.263 399.628 176.876 399.391 177.448C399.154 178.02 398.807 178.54 398.369 178.978C397.932 179.416 397.412 179.763 396.84 179.999C396.267 180.236 395.654 180.358 395.035 180.357C394.416 180.358 393.803 180.236 393.231 179.999C392.659 179.763 392.139 179.416 391.701 178.978C391.263 178.54 390.916 178.02 390.679 177.448C390.442 176.876 390.321 176.263 390.321 175.644V163.857Z" fill="#E01E5A"/>
<path fill-rule="evenodd" clip-rule="evenodd" d="M395.036 144.929C394.416 144.93 393.803 144.808 393.231 144.571C392.658 144.335 392.139 143.987 391.701 143.549C391.263 143.111 390.916 142.591 390.679 142.019C390.443 141.446 390.321 140.833 390.322 140.214C390.321 139.595 390.443 138.981 390.68 138.409C390.916 137.837 391.264 137.317 391.701 136.88C392.139 136.442 392.659 136.095 393.231 135.858C393.803 135.621 394.416 135.5 395.036 135.5C395.655 135.5 396.268 135.621 396.84 135.858C397.412 136.095 397.932 136.442 398.37 136.88C398.808 137.317 399.155 137.837 399.392 138.409C399.628 138.981 399.75 139.595 399.749 140.214V144.931H395.038L395.036 144.929ZM395.036 147.322C395.655 147.321 396.268 147.443 396.84 147.68C397.412 147.916 397.932 148.264 398.37 148.701C398.808 149.139 399.155 149.659 399.392 150.231C399.628 150.803 399.75 151.416 399.749 152.036C399.75 152.655 399.628 153.268 399.392 153.84C399.155 154.412 398.808 154.932 398.37 155.37C397.932 155.808 397.412 156.155 396.84 156.392C396.268 156.628 395.655 156.75 395.036 156.749H383.214C382.595 156.75 381.982 156.628 381.41 156.392C380.838 156.155 380.318 155.808 379.88 155.371C379.442 154.933 379.095 154.413 378.858 153.841C378.622 153.269 378.5 152.657 378.5 152.038C378.5 151.418 378.621 150.805 378.858 150.233C379.095 149.661 379.442 149.141 379.88 148.703C380.317 148.265 380.837 147.918 381.409 147.682C381.981 147.445 382.595 147.323 383.214 147.324H395.038L395.036 147.322Z" fill="#36C5F0"/>
<path fill-rule="evenodd" clip-rule="evenodd" d="M413.928 152.036C413.928 151.416 414.05 150.803 414.286 150.231C414.523 149.658 414.871 149.139 415.309 148.701C415.747 148.263 416.267 147.916 416.839 147.679C417.411 147.443 418.025 147.321 418.644 147.322C419.263 147.321 419.876 147.443 420.449 147.68C421.021 147.916 421.541 148.264 421.978 148.701C422.416 149.139 422.763 149.659 423 150.231C423.237 150.803 423.358 151.416 423.358 152.036C423.358 152.655 423.237 153.268 423 153.84C422.763 154.412 422.416 154.932 421.978 155.37C421.541 155.808 421.021 156.155 420.449 156.392C419.876 156.628 419.263 156.75 418.644 156.749H413.928V152.038V152.036ZM411.572 152.036C411.572 152.655 411.45 153.268 411.214 153.84C410.977 154.412 410.63 154.932 410.192 155.37C409.754 155.808 409.234 156.155 408.662 156.392C408.09 156.628 407.477 156.75 406.858 156.749C406.239 156.75 405.625 156.629 405.053 156.392C404.48 156.156 403.96 155.808 403.522 155.371C403.084 154.933 402.737 154.413 402.5 153.841C402.263 153.268 402.142 152.655 402.142 152.036V140.214C402.142 139.594 402.263 138.981 402.5 138.409C402.737 137.837 403.084 137.317 403.522 136.879C403.96 136.441 404.48 136.094 405.053 135.857C405.625 135.621 406.239 135.499 406.858 135.5C407.477 135.5 408.09 135.621 408.662 135.858C409.234 136.095 409.754 136.442 410.192 136.88C410.63 137.317 410.977 137.837 411.214 138.409C411.45 138.981 411.572 139.595 411.572 140.214V152.038V152.036Z" fill="#2EB67D"/>
<path fill-rule="evenodd" clip-rule="evenodd" d="M406.857 170.928C407.476 170.927 408.089 171.049 408.661 171.286C409.234 171.522 409.753 171.87 410.191 172.307C410.629 172.745 410.976 173.265 411.213 173.837C411.45 174.409 411.571 175.023 411.571 175.642C411.571 176.261 411.45 176.874 411.213 177.447C410.977 178.019 410.63 178.539 410.192 178.977C409.754 179.415 409.234 179.762 408.662 179.999C408.09 180.236 407.476 180.358 406.857 180.357C406.238 180.358 405.624 180.236 405.052 179.999C404.48 179.762 403.96 179.415 403.522 178.977C403.084 178.539 402.737 178.019 402.5 177.447C402.264 176.874 402.142 176.261 402.143 175.642V170.928H406.857V170.928ZM406.857 168.571C406.238 168.572 405.625 168.45 405.052 168.213C404.48 167.977 403.961 167.629 403.523 167.192C403.085 166.754 402.738 166.234 402.501 165.662C402.264 165.09 402.143 164.476 402.143 163.857C402.143 163.238 402.264 162.625 402.501 162.053C402.738 161.481 403.085 160.961 403.523 160.523C403.961 160.085 404.48 159.738 405.052 159.501C405.625 159.265 406.238 159.143 406.857 159.144H418.679C419.298 159.143 419.911 159.265 420.483 159.501C421.055 159.738 421.575 160.085 422.013 160.523C422.451 160.961 422.798 161.481 423.035 162.053C423.271 162.625 423.393 163.238 423.393 163.857C423.393 164.476 423.271 165.09 423.035 165.662C422.798 166.234 422.451 166.754 422.013 167.192C421.575 167.629 421.055 167.977 420.483 168.213C419.911 168.45 419.298 168.572 418.679 168.571H406.857V168.571Z" fill="#ECB22E"/>
</g>
<circle cx="191" cy="237" r="45" fill="#F7F9FD"/>
<g clip-path="url(#clip5_208_497)">
<path d="M175.922 221.414C177.407 222.624 177.97 222.539 180.773 222.351L207.203 220.766C207.766 220.766 207.298 220.203 207.109 220.109L202.718 216.936C201.883 216.279 200.758 215.538 198.608 215.717L173.023 217.592C172.085 217.677 171.898 218.147 172.273 218.522L175.922 221.414ZM177.508 227.579V255.383C177.508 256.875 178.25 257.438 179.93 257.343L208.978 255.663C210.658 255.569 210.853 254.546 210.853 253.328V225.711C210.853 224.492 210.383 223.844 209.353 223.938L179.002 225.711C177.877 225.806 177.509 226.359 177.509 227.571L177.508 227.579ZM206.18 229.062C206.368 229.907 206.18 230.742 205.336 230.844L203.938 231.126V251.649C202.718 252.306 201.602 252.681 200.672 252.681C199.172 252.681 198.797 252.212 197.68 250.814L188.524 236.439V250.346L191.422 251.003C191.422 251.003 191.422 252.683 189.086 252.683L182.641 253.058C182.453 252.683 182.641 251.745 183.298 251.565L184.978 251.096V232.713L182.642 232.526C182.455 231.681 182.924 230.471 184.228 230.378L191.141 229.908L200.672 244.47V231.587L198.242 231.305C198.055 230.282 198.797 229.532 199.735 229.445L206.18 229.062ZM170.875 215.07L197.492 213.11C200.758 212.828 201.602 213.015 203.656 214.508L212.156 220.484C213.554 221.507 214.024 221.789 214.024 222.906V255.665C214.024 257.72 213.274 258.93 210.664 259.118L179.741 260.985C177.788 261.08 176.851 260.798 175.819 259.493L169.561 251.367C168.443 249.875 167.975 248.757 167.975 247.454V218.337C167.975 216.657 168.725 215.259 170.873 215.072L170.875 215.07Z" fill="black"/>
</g>
<circle cx="192" cy="448" r="45" fill="#F7F9FD"/>
<path d="M195.289 427.38C194.989 426.843 194.578 426.37 194.079 425.989C193.58 425.608 193.005 425.328 192.389 425.165C191.772 425.001 191.127 424.959 190.493 425.04C189.859 425.121 189.248 425.323 188.699 425.635C187.96 426.06 187.352 426.661 186.935 427.38L180.058 439.161L181.812 440.157C186.694 443.008 190.773 446.942 193.697 451.621C196.62 456.3 198.301 461.583 198.595 467.015H193.767C193.471 462.407 192.008 457.934 189.504 453.976C187 450.018 183.527 446.69 179.381 444.274L177.626 443.282L171.219 454.298L172.973 455.293C175.125 456.565 176.949 458.279 178.312 460.307C179.675 462.335 180.543 464.627 180.852 467.015H169.826C169.61 467.014 169.404 466.932 169.252 466.787C169.101 466.642 169.016 466.446 169.016 466.242C169.014 466.099 169.052 465.958 169.124 465.833L172.198 460.567C171.168 459.707 169.978 459.035 168.69 458.587L165.648 463.841C165.007 464.936 164.833 466.223 165.164 467.436C165.495 468.649 166.305 469.695 167.426 470.358C168.15 470.771 168.98 470.991 169.826 470.993H185.001V469.008C185.021 465.895 184.278 462.821 182.833 460.027C181.387 457.232 179.278 454.795 176.671 452.906L179.095 448.769C182.435 451.099 185.146 454.146 187.007 457.66C188.868 461.174 189.826 465.057 189.803 468.99V470.982H202.67V468.993C202.705 462.855 201.163 456.802 198.176 451.357C195.19 445.912 190.85 441.24 185.533 437.745L190.415 429.37C190.464 429.282 190.532 429.204 190.615 429.141C190.697 429.079 190.792 429.033 190.893 429.006C190.995 428.979 191.101 428.972 191.206 428.986C191.311 428.999 191.411 429.032 191.502 429.084C191.624 429.153 191.724 429.252 191.793 429.37L213.075 465.833C213.181 466.014 213.211 466.226 213.157 466.426C213.103 466.626 212.97 466.799 212.786 466.909C212.663 466.982 212.52 467.019 212.374 467.015H207.395C207.457 468.346 207.464 469.669 207.395 471H212.391C213.697 470.974 214.939 470.456 215.844 469.561C216.748 468.666 217.242 467.467 217.215 466.228C217.216 465.394 216.994 464.574 216.57 463.844L195.289 427.38Z" fill="#FB4226"/>
<defs>
<radialGradient id="paint0_radial_208_497" cx="0" cy="0" r="1" gradientUnits="userSpaceOnUse" gradientTransform="translate(544.5 318.55) scale(31.1436 28.7864)">
<stop stop-color="#FFB900"/>
<stop offset="0.6" stop-color="#F95D8F"/>
<stop offset="0.9991" stop-color="#F95353"/>
</radialGradient>
<radialGradient id="paint1_radial_208_497" cx="0" cy="0" r="1" gradientUnits="userSpaceOnUse" gradientTransform="translate(45.5 348.55) scale(31.1436 28.7864)">
<stop stop-color="#FFB900"/>
<stop offset="0.6" stop-color="#F95D8F"/>
<stop offset="0.9991" stop-color="#F95353"/>
</radialGradient>
<radialGradient id="paint2_radial_208_497" cx="0" cy="0" r="1" gradientUnits="userSpaceOnUse" gradientTransform="translate(207.5 47.5499) scale(31.1436 28.7864)">
<stop stop-color="#FFB900"/>
<stop offset="0.6" stop-color="#F95D8F"/>
<stop offset="0.9991" stop-color="#F95353"/>
</radialGradient>
<clipPath id="clip0_208_497">
<rect width="47" height="47" fill="white" transform="translate(521 293)"/>
</clipPath>
<clipPath id="clip1_208_497">
<rect width="45.3488" height="50" fill="white" transform="translate(474 20)"/>
</clipPath>
<clipPath id="clip2_208_497">
<rect width="47" height="47" fill="white" transform="translate(22 323)"/>
</clipPath>
<clipPath id="clip3_208_497">
<rect width="47" height="47" fill="white" transform="translate(184 22)"/>
</clipPath>
<clipPath id="clip4_208_497">
<rect width="45" height="45" fill="white" transform="translate(378.5 135.5)"/>
</clipPath>
<clipPath id="clip5_208_497">
<rect width="48" height="48" fill="white" transform="translate(167 213)"/>
</clipPath>
</defs>
</svg>
