<svg width="688" height="692" viewBox="0 0 688 692" fill="none" xmlns="http://www.w3.org/2000/svg">
<circle cx="362" cy="344" r="325.3" stroke="#FF9900" stroke-width="0.6" stroke-dasharray="12 12"/>
<circle cx="362" cy="344" r="200.3" stroke="#3366CC" stroke-width="0.6" stroke-dasharray="12 12"/>
<circle cx="544" cy="321" r="45" fill="#F7F9FD"/>
<g clip-path="url(#clip0_106_126)">
<path d="M557.777 322.779C556.435 322.779 555.105 323.043 553.865 323.557C552.625 324.071 551.498 324.824 550.549 325.773C549.599 326.722 548.846 327.849 548.333 329.089C547.819 330.33 547.554 331.659 547.554 333.001C547.554 334.344 547.819 335.673 548.333 336.913C548.846 338.154 549.599 339.281 550.549 340.23C551.498 341.179 552.625 341.932 553.865 342.446C555.105 342.96 556.435 343.224 557.777 343.224C560.488 343.224 563.088 342.147 565.005 340.23C566.922 338.313 567.999 335.713 567.999 333.001C567.999 330.29 566.922 327.69 565.005 325.773C563.088 323.856 560.488 322.779 557.777 322.779V322.779ZM531.222 322.779C529.868 322.76 528.523 323.011 527.267 323.516C526.01 324.022 524.867 324.772 523.903 325.723C522.938 326.674 522.173 327.807 521.65 329.057C521.128 330.306 520.859 331.647 520.859 333.001C520.859 334.356 521.128 335.697 521.651 336.946C522.174 338.195 522.94 339.329 523.904 340.279C524.868 341.23 526.012 341.98 527.269 342.485C528.525 342.99 529.87 343.241 531.224 343.222C533.91 343.185 536.474 342.091 538.36 340.178C540.247 338.265 541.304 335.686 541.304 333C541.304 330.313 540.246 327.734 538.359 325.822C536.472 323.909 533.908 322.816 531.222 322.779V322.779ZM554.722 310.001C554.722 312.712 553.645 315.312 551.728 317.229C549.811 319.146 547.211 320.223 544.499 320.223C541.788 320.223 539.188 319.146 537.271 317.229C535.354 315.312 534.277 312.712 534.277 310.001C534.277 307.29 535.354 304.69 537.271 302.772C539.188 300.855 541.788 299.778 544.499 299.778C547.211 299.778 549.811 300.855 551.728 302.772C553.645 304.69 554.722 307.29 554.722 310.001V310.001Z" fill="#3366CC"/>
<path d="M557.779 322.806C552.133 322.806 547.557 327.383 547.557 333.028C547.557 338.673 552.133 343.25 557.779 343.25C563.424 343.25 568 338.673 568 333.028C568 327.383 563.424 322.806 557.779 322.806V322.806ZM531.222 322.807C525.577 322.807 521 327.383 521 333.028C521 338.673 525.577 343.25 531.222 343.25C536.867 343.25 541.444 338.673 541.444 333.028C541.444 327.383 536.867 322.807 531.221 322.807H531.222ZM554.722 310.029C554.722 315.674 550.146 320.252 544.5 320.252C538.854 320.252 534.278 315.674 534.278 310.029C534.278 304.384 538.854 299.808 544.5 299.808C550.146 299.808 554.721 304.384 554.721 310.029H554.722Z" fill="url(#paint0_radial_106_126)"/>
</g>
<circle cx="613" cy="140" r="45" fill="#F7F9FD"/>
<g clip-path="url(#clip1_106_126)">
<path d="M603.471 149.736C600.759 147.244 599.164 143.817 599.164 139.923C599.164 136.029 600.759 132.602 603.311 130.109C605.544 127.929 605.544 124.502 603.311 122.321C601.078 120.14 597.569 120.14 595.337 122.321C590.871 126.838 588 133.069 588 139.923C588 146.777 590.871 153.008 595.496 157.525C597.729 159.706 601.238 159.706 603.471 157.525C605.544 155.344 605.544 151.917 603.471 149.736V149.736Z" fill="#FAE501"/>
<path d="M603.471 130.11C606.023 127.461 609.531 125.904 613.519 125.904C617.506 125.904 621.015 127.461 623.567 129.954C625.799 132.135 629.308 132.135 631.541 129.954C633.774 127.773 633.774 124.346 631.541 122.165C626.916 117.804 620.536 115 613.519 115C606.501 115 600.121 117.804 595.496 122.321C593.263 124.502 593.263 127.929 595.496 130.11C597.729 132.135 601.238 132.135 603.471 130.11Z" fill="#4FB5E1"/>
<path d="M623.567 149.737C621.015 152.385 617.506 153.942 613.519 153.942C609.531 153.942 606.023 152.385 603.471 149.892C601.238 147.712 597.729 147.712 595.496 149.892C593.263 152.073 593.263 155.5 595.496 157.681C600.121 162.042 606.501 164.846 613.519 164.846C620.536 164.846 626.916 162.042 631.541 157.525C633.774 155.344 633.774 151.917 631.541 149.737C629.308 147.712 625.799 147.712 623.567 149.737V149.737Z" fill="#F05751"/>
<path d="M599.483 131.667C602.566 131.667 605.066 129.226 605.066 126.215C605.066 123.204 602.566 120.763 599.483 120.763C596.401 120.763 593.901 123.204 593.901 126.215C593.901 129.226 596.401 131.667 599.483 131.667Z" fill="#0681B6"/>
<path d="M599.483 159.083C602.566 159.083 605.066 156.642 605.066 153.631C605.066 150.62 602.566 148.179 599.483 148.179C596.401 148.179 593.901 150.62 593.901 153.631C593.901 156.642 596.401 159.083 599.483 159.083Z" fill="#CD4739"/>
</g>
<circle cx="642" cy="486" r="45" fill="#F7F9FD"/>
<path d="M670.021 488.896L662.357 462.824C661.879 461.389 660.732 460.426 659.2 460.426C657.667 460.426 656.422 461.291 655.944 462.725L650.868 477.871H633.156L628.079 462.732C627.601 461.298 626.357 460.433 624.824 460.433C623.291 460.433 622.047 461.389 621.667 462.831L614.01 488.896C613.722 489.852 614.108 490.907 614.875 491.483L641.973 511.803L669.163 491.483C669.922 490.914 670.309 489.859 670.021 488.896Z" fill="black"/>
<circle cx="262" cy="647" r="45" fill="#F7F9FD"/>
<path d="M239.554 625.422C239.147 625.418 238.756 625.576 238.464 625.859C238.173 626.143 238.006 626.531 238 626.937C238 627.032 238.008 627.117 238.024 627.203L244.547 666.828C244.629 667.314 244.878 667.754 245.253 668.073C245.628 668.392 246.103 668.568 246.595 668.57H277.9C278.665 668.577 279.314 668.031 279.439 667.281L285.978 627.219C286.011 627.021 286.004 626.818 285.958 626.621C285.913 626.425 285.828 626.24 285.711 626.077C285.593 625.913 285.444 625.775 285.273 625.669C285.101 625.564 284.91 625.493 284.712 625.461C284.624 625.446 284.535 625.438 284.446 625.437L239.554 625.422ZM267.038 654.054H257.047L254.344 639.929H269.461L267.038 654.054Z" fill="#3366CC"/>
<circle cx="45" cy="351" r="45" fill="#F7F9FD"/>
<g clip-path="url(#clip2_106_126)">
<path d="M58.777 352.779C57.4345 352.779 56.1052 353.043 54.865 353.557C53.6247 354.071 52.4978 354.824 51.5486 355.773C50.5993 356.722 49.8463 357.849 49.3326 359.089C48.8189 360.33 48.5545 361.659 48.5545 363.001C48.5545 364.344 48.8189 365.673 49.3326 366.913C49.8463 368.154 50.5993 369.281 51.5486 370.23C52.4978 371.179 53.6247 371.932 54.865 372.446C56.1052 372.96 57.4345 373.224 58.777 373.224C61.4881 373.224 64.0883 372.147 66.0054 370.23C67.9225 368.313 68.9995 365.713 68.9995 363.001C68.9995 360.29 67.9225 357.69 66.0054 355.773C64.0883 353.856 61.4881 352.779 58.777 352.779V352.779ZM32.222 352.779C30.8677 352.76 29.5233 353.011 28.2668 353.516C27.0103 354.022 25.8667 354.772 24.9026 355.723C23.9384 356.674 23.1728 357.807 22.6503 359.057C22.1278 360.306 21.8588 361.647 21.859 363.001C21.8591 364.356 22.1283 365.697 22.6511 366.946C23.1738 368.195 23.9396 369.329 24.904 370.279C25.8683 371.23 27.012 371.98 28.2686 372.485C29.5252 372.99 30.8697 373.241 32.2239 373.222C34.9103 373.185 37.474 372.091 39.3604 370.178C41.2468 368.265 42.3042 365.686 42.304 363C42.3037 360.313 41.2458 357.734 39.359 355.822C37.4723 353.909 34.9084 352.816 32.222 352.779V352.779ZM55.722 340.001C55.722 342.712 54.645 345.312 52.7279 347.229C50.8108 349.146 48.2106 350.223 45.4995 350.223C42.7883 350.223 40.1882 349.146 38.2711 347.229C36.354 345.312 35.277 342.712 35.277 340.001C35.277 337.29 36.354 334.69 38.2711 332.772C40.1882 330.855 42.7883 329.778 45.4995 329.778C48.2106 329.778 50.8108 330.855 52.7279 332.772C54.645 334.69 55.722 337.29 55.722 340.001V340.001Z" fill="#3366CC"/>
<path d="M58.7788 352.806C53.1328 352.806 48.5566 357.383 48.5566 363.028C48.5566 368.673 53.1328 373.25 58.7788 373.25C64.4238 373.25 69 368.673 69 363.028C69 357.383 64.4238 352.806 58.7788 352.806V352.806ZM32.2217 352.807C26.5766 352.807 22 357.383 22 363.028C22 368.673 26.5766 373.25 32.2217 373.25C37.8672 373.25 42.4439 368.673 42.4439 363.028C42.4439 357.383 37.8672 352.807 32.2212 352.807H32.2217ZM55.7217 340.029C55.7217 345.674 51.1455 350.252 45.5005 350.252C39.8545 350.252 35.2783 345.674 35.2783 340.029C35.2783 334.384 39.8545 329.808 45.5005 329.808C51.1455 329.808 55.7212 334.384 55.7212 340.029H55.7217Z" fill="url(#paint1_radial_106_126)"/>
</g>
<circle cx="249" cy="45" r="45" fill="#F7F9FD"/>
<g clip-path="url(#clip3_106_126)">
<path d="M262.777 46.7789C261.435 46.7789 260.105 47.0434 258.865 47.5571C257.625 48.0708 256.498 48.8238 255.549 49.7731C254.599 50.7223 253.846 51.8492 253.333 53.0895C252.819 54.3297 252.554 55.659 252.554 57.0015C252.554 58.3439 252.819 59.6732 253.333 60.9134C253.846 62.1537 254.599 63.2806 255.549 64.2299C256.498 65.1791 257.625 65.9321 258.865 66.4458C260.105 66.9595 261.435 67.224 262.777 67.224C265.488 67.224 268.088 66.1469 270.005 64.2299C271.922 62.3128 272.999 59.7126 272.999 57.0015C272.999 54.2903 271.922 51.6901 270.005 49.7731C268.088 47.856 265.488 46.7789 262.777 46.7789V46.7789ZM236.222 46.7789C234.868 46.7603 233.523 47.011 232.267 47.5164C231.01 48.0218 229.867 48.7718 228.903 49.7229C227.938 50.674 227.173 51.8073 226.65 53.0568C226.128 54.3063 225.859 55.6471 225.859 57.0015C225.859 58.3558 226.128 59.6966 226.651 60.946C227.174 62.1954 227.94 63.3285 228.904 64.2794C229.868 65.2303 231.012 65.9802 232.269 66.4853C233.525 66.9905 234.87 67.2409 236.224 67.222C238.91 67.1845 241.474 66.091 243.36 64.178C245.247 62.2649 246.304 59.6862 246.304 56.9995C246.304 54.3128 245.246 51.7343 243.359 49.8216C241.472 47.9089 238.908 46.8159 236.222 46.7789V46.7789ZM259.722 34.0008C259.722 36.712 258.645 39.3121 256.728 41.2292C254.811 43.1463 252.211 44.2233 249.499 44.2233C246.788 44.2233 244.188 43.1463 242.271 41.2292C240.354 39.3121 239.277 36.712 239.277 34.0008C239.277 31.2896 240.354 28.6895 242.271 26.7724C244.188 24.8553 246.788 23.7783 249.499 23.7783C252.211 23.7783 254.811 24.8553 256.728 26.7724C258.645 28.6895 259.722 31.2896 259.722 34.0008V34.0008Z" fill="#3366CC"/>
<path d="M262.779 46.8066C257.133 46.8066 252.557 51.3827 252.557 57.0278C252.557 62.6733 257.133 67.2504 262.779 67.2504C268.424 67.2504 273 62.6733 273 57.0278C273 51.3827 268.424 46.8066 262.779 46.8066V46.8066ZM236.222 46.807C230.577 46.8075 226 51.3827 226 57.0283C226 62.6733 230.577 67.25 236.222 67.25C241.867 67.25 246.444 62.6733 246.444 57.0283C246.444 51.3827 241.867 46.807 236.221 46.807H236.222ZM259.722 34.0294C259.722 39.6745 255.146 44.2521 249.5 44.2521C243.854 44.2521 239.278 39.6745 239.278 34.0294C239.278 28.3844 243.854 23.8077 249.5 23.8077C255.146 23.8077 259.721 28.3844 259.721 34.0294H259.722Z" fill="url(#paint2_radial_106_126)"/>
</g>
<circle cx="434" cy="510" r="45" fill="#F7F9FD"/>
<path d="M434.003 486C420.741 485.994 410 497.022 410 510.633C410 521.397 416.719 530.546 426.077 533.906C427.337 534.231 427.144 533.311 427.144 532.683V528.415C419.867 529.29 419.572 524.344 419.084 523.518C418.097 521.788 415.765 521.347 416.462 520.521C418.119 519.645 419.808 520.741 421.765 523.71C423.181 525.864 425.943 525.501 427.342 525.143C427.648 523.848 428.302 522.691 429.203 521.793C421.664 520.405 418.521 515.679 418.521 510.061C418.521 507.334 419.395 504.828 421.111 502.806C420.017 499.473 421.213 496.62 421.374 496.196C424.49 495.91 427.729 498.487 427.981 498.691C429.75 498.201 431.772 497.942 434.035 497.942C436.309 497.942 438.336 498.212 440.121 498.708C440.727 498.234 443.73 496.02 446.626 496.29C446.782 496.714 447.951 499.501 446.921 502.79C448.658 504.817 449.543 507.345 449.543 510.077C449.543 515.707 446.379 520.438 438.818 521.804C439.466 522.459 439.98 523.239 440.331 524.1C440.682 524.96 440.862 525.884 440.861 526.817V533.014C440.904 533.51 440.861 534 441.666 534C451.163 530.711 458 521.496 458 510.639C458 497.022 447.253 486 434.003 486Z" fill="#3366CC"/>
<circle cx="401" cy="163" r="45" fill="#F7F9FD"/>
<g clip-path="url(#clip4_106_126)">
<path fill-rule="evenodd" clip-rule="evenodd" d="M387.964 168.857C387.965 169.477 387.843 170.09 387.607 170.662C387.37 171.234 387.022 171.754 386.584 172.192C386.146 172.63 385.626 172.977 385.054 173.214C384.482 173.45 383.868 173.572 383.249 173.571C382.63 173.571 382.017 173.45 381.445 173.213C380.873 172.976 380.353 172.629 379.916 172.191C379.478 171.753 379.131 171.233 378.895 170.661C378.658 170.089 378.536 169.476 378.537 168.857C378.536 168.238 378.658 167.625 378.895 167.053C379.132 166.481 379.479 165.961 379.917 165.523C380.354 165.085 380.874 164.738 381.446 164.501C382.018 164.265 382.632 164.143 383.251 164.144H387.966V168.857H387.964ZM390.321 168.857C390.321 168.238 390.442 167.625 390.679 167.053C390.916 166.481 391.263 165.961 391.701 165.523C392.139 165.085 392.659 164.738 393.231 164.501C393.803 164.265 394.416 164.143 395.035 164.144C395.654 164.143 396.267 164.265 396.84 164.501C397.412 164.738 397.932 165.085 398.369 165.523C398.807 165.961 399.154 166.481 399.391 167.053C399.628 167.625 399.749 168.238 399.749 168.857V180.644C399.749 181.263 399.628 181.876 399.391 182.448C399.154 183.02 398.807 183.54 398.369 183.978C397.932 184.416 397.412 184.763 396.84 184.999C396.267 185.236 395.654 185.358 395.035 185.357C394.416 185.358 393.803 185.236 393.231 184.999C392.659 184.763 392.139 184.416 391.701 183.978C391.263 183.54 390.916 183.02 390.679 182.448C390.442 181.876 390.321 181.263 390.321 180.644V168.857Z" fill="#E01E5A"/>
<path fill-rule="evenodd" clip-rule="evenodd" d="M395.036 149.929C394.416 149.93 393.803 149.808 393.231 149.571C392.658 149.335 392.139 148.987 391.701 148.549C391.263 148.111 390.916 147.591 390.679 147.019C390.443 146.446 390.321 145.833 390.322 145.214C390.321 144.595 390.443 143.981 390.68 143.409C390.916 142.837 391.264 142.317 391.701 141.88C392.139 141.442 392.659 141.095 393.231 140.858C393.803 140.621 394.416 140.5 395.036 140.5C395.655 140.5 396.268 140.621 396.84 140.858C397.412 141.095 397.932 141.442 398.37 141.88C398.808 142.317 399.155 142.837 399.392 143.409C399.628 143.981 399.75 144.595 399.749 145.214V149.931H395.038L395.036 149.929ZM395.036 152.322C395.655 152.321 396.268 152.443 396.84 152.68C397.412 152.916 397.932 153.264 398.37 153.701C398.808 154.139 399.155 154.659 399.392 155.231C399.628 155.803 399.75 156.416 399.749 157.036C399.75 157.655 399.628 158.268 399.392 158.84C399.155 159.412 398.808 159.932 398.37 160.37C397.932 160.808 397.412 161.155 396.84 161.392C396.268 161.628 395.655 161.75 395.036 161.749H383.214C382.595 161.75 381.982 161.628 381.41 161.392C380.838 161.155 380.318 160.808 379.88 160.371C379.442 159.933 379.095 159.413 378.858 158.841C378.622 158.269 378.5 157.657 378.5 157.038C378.5 156.418 378.621 155.805 378.858 155.233C379.095 154.661 379.442 154.141 379.88 153.703C380.317 153.265 380.837 152.918 381.409 152.682C381.981 152.445 382.595 152.323 383.214 152.324H395.038L395.036 152.322Z" fill="#36C5F0"/>
<path fill-rule="evenodd" clip-rule="evenodd" d="M413.928 157.036C413.928 156.416 414.05 155.803 414.286 155.231C414.523 154.658 414.871 154.139 415.309 153.701C415.747 153.263 416.267 152.916 416.839 152.679C417.411 152.443 418.025 152.321 418.644 152.322C419.263 152.321 419.876 152.443 420.449 152.68C421.021 152.916 421.54 153.264 421.978 153.701C422.416 154.139 422.763 154.659 423 155.231C423.237 155.803 423.358 156.416 423.358 157.036C423.358 157.655 423.237 158.268 423 158.84C422.763 159.412 422.416 159.932 421.978 160.37C421.54 160.808 421.021 161.155 420.449 161.392C419.876 161.628 419.263 161.75 418.644 161.749H413.928V157.038V157.036ZM411.572 157.036C411.572 157.655 411.45 158.268 411.214 158.84C410.977 159.412 410.63 159.932 410.192 160.37C409.754 160.808 409.234 161.155 408.662 161.392C408.09 161.628 407.477 161.75 406.858 161.749C406.238 161.75 405.625 161.629 405.053 161.392C404.48 161.156 403.96 160.808 403.522 160.371C403.084 159.933 402.737 159.413 402.5 158.841C402.263 158.268 402.142 157.655 402.142 157.036V145.214C402.142 144.594 402.263 143.981 402.5 143.409C402.737 142.837 403.084 142.317 403.522 141.879C403.96 141.441 404.48 141.094 405.053 140.857C405.625 140.621 406.238 140.499 406.858 140.5C407.477 140.5 408.09 140.621 408.662 140.858C409.234 141.095 409.754 141.442 410.192 141.88C410.63 142.317 410.977 142.837 411.214 143.409C411.45 143.981 411.572 144.595 411.572 145.214V157.038V157.036Z" fill="#2EB67D"/>
<path fill-rule="evenodd" clip-rule="evenodd" d="M406.857 175.928C407.476 175.927 408.089 176.049 408.661 176.286C409.234 176.522 409.753 176.87 410.191 177.307C410.629 177.745 410.976 178.265 411.213 178.837C411.45 179.409 411.571 180.023 411.571 180.642C411.571 181.261 411.45 181.874 411.213 182.447C410.977 183.019 410.63 183.539 410.192 183.977C409.754 184.415 409.234 184.762 408.662 184.999C408.09 185.236 407.476 185.358 406.857 185.357C406.238 185.358 405.624 185.236 405.052 184.999C404.48 184.762 403.96 184.415 403.522 183.977C403.084 183.539 402.737 183.019 402.501 182.447C402.264 181.874 402.143 181.261 402.143 180.642V175.928H406.857V175.928ZM406.857 173.571C406.238 173.572 405.625 173.45 405.053 173.213C404.48 172.977 403.961 172.629 403.523 172.192C403.085 171.754 402.738 171.234 402.501 170.662C402.264 170.09 402.143 169.476 402.143 168.857C402.143 168.238 402.264 167.625 402.501 167.053C402.738 166.481 403.085 165.961 403.523 165.523C403.961 165.085 404.48 164.738 405.053 164.501C405.625 164.265 406.238 164.143 406.857 164.144H418.679C419.298 164.143 419.911 164.265 420.483 164.501C421.055 164.738 421.575 165.085 422.013 165.523C422.451 165.961 422.798 166.481 423.035 167.053C423.272 167.625 423.393 168.238 423.393 168.857C423.393 169.476 423.272 170.09 423.035 170.662C422.798 171.234 422.451 171.754 422.013 172.192C421.575 172.629 421.055 172.977 420.483 173.213C419.911 173.45 419.298 173.572 418.679 173.571H406.857V173.571Z" fill="#ECB22E"/>
</g>
<circle cx="362" cy="344" r="70" fill="#3366CC"/>
<path d="M371.634 336.038H356.842C356.589 336.038 356.347 335.94 356.168 335.767C355.989 335.593 355.888 335.358 355.888 335.112C355.888 334.867 355.989 334.632 356.168 334.458C356.347 334.285 356.589 334.187 356.842 334.187H364.98C368.56 334.187 371.993 332.808 374.524 330.352C377.056 327.897 378.478 324.566 378.478 321.094C378.478 317.621 377.056 314.291 374.524 311.835C371.993 309.38 368.56 308 364.98 308H349.788V320.346C346.886 321.652 344.429 323.736 342.707 326.351C340.985 328.967 340.069 332.005 340.067 335.109C340.063 336.555 340.261 337.996 340.655 339.391C336.481 341.918 333.269 345.696 331.505 350.152C329.742 354.607 329.521 359.499 330.878 364.087C332.235 368.675 335.095 372.71 339.026 375.581C342.957 378.452 347.744 380.003 352.665 380H371.634C377.644 380 383.408 377.684 387.658 373.561C391.908 369.439 394.296 363.847 394.296 358.017C394.296 352.187 391.908 346.595 387.658 342.473C383.408 338.35 377.644 336.038 371.634 336.038ZM371.634 374.897H352.665C348.488 374.899 344.449 373.443 341.288 370.794C338.128 368.145 336.055 364.481 335.451 360.472C334.847 356.463 335.75 352.377 337.997 348.961C340.244 345.545 343.683 343.028 347.686 341.87C346.39 340.216 345.597 338.244 345.394 336.177C345.192 334.109 345.589 332.027 346.541 330.167C347.493 328.306 348.962 326.74 350.782 325.646C352.602 324.552 354.701 323.972 356.842 323.973H364.98C365.762 323.973 366.512 323.671 367.065 323.135C367.618 322.598 367.929 321.871 367.929 321.112C367.929 320.353 367.618 319.626 367.065 319.089C366.512 318.553 365.762 318.251 364.98 318.251H355.061V313.118H364.98C366.075 313.095 367.163 313.285 368.182 313.675C369.2 314.066 370.128 314.65 370.91 315.393C371.693 316.136 372.315 317.023 372.739 318.002C373.164 318.982 373.383 320.033 373.383 321.095C373.383 322.158 373.164 323.209 372.739 324.189C372.315 325.168 371.693 326.055 370.91 326.798C370.128 327.541 369.2 328.125 368.182 328.515C367.163 328.906 366.075 329.095 364.98 329.073H356.842C356.012 329.053 355.186 329.194 354.413 329.489C353.639 329.783 352.935 330.225 352.34 330.787C351.746 331.35 351.273 332.022 350.951 332.765C350.628 333.507 350.462 334.305 350.462 335.111C350.462 335.916 350.628 336.714 350.951 337.456C351.273 338.199 351.746 338.871 352.34 339.434C352.935 339.997 353.639 340.438 354.413 340.733C355.186 341.027 356.012 341.168 356.842 341.148H371.634C376.2 341.214 380.557 343.02 383.763 346.176C386.969 349.332 388.765 353.585 388.765 358.015C388.765 362.446 386.969 366.698 383.763 369.854C380.557 373.01 376.2 374.816 371.634 374.882V374.897ZM371.634 346.282H352.665C351.056 346.254 349.458 346.537 347.964 347.115C346.469 347.693 345.108 348.554 343.961 349.648C342.813 350.742 341.902 352.046 341.279 353.485C340.657 354.924 340.337 356.469 340.337 358.03C340.337 359.591 340.657 361.135 341.279 362.575C341.902 364.014 342.813 365.318 343.961 366.412C345.108 367.506 346.469 368.367 347.964 368.945C349.458 369.523 351.056 369.806 352.665 369.778H371.634C373.242 369.806 374.84 369.523 376.335 368.945C377.829 368.367 379.19 367.506 380.337 366.412C381.485 365.318 382.397 364.014 383.019 362.575C383.641 361.135 383.962 359.591 383.962 358.03C383.962 356.469 383.641 354.924 383.019 353.485C382.397 352.046 381.485 350.742 380.337 349.648C379.19 348.554 377.829 347.693 376.335 347.115C374.84 346.537 373.242 346.254 371.634 346.282ZM371.634 364.664H352.665C350.851 364.664 349.112 363.965 347.83 362.721C346.548 361.478 345.828 359.791 345.828 358.032C345.828 356.273 346.548 354.586 347.83 353.342C349.112 352.099 350.851 351.4 352.665 351.4H371.634C373.447 351.4 375.186 352.099 376.468 353.342C377.75 354.586 378.47 356.273 378.47 358.032C378.47 359.791 377.75 361.478 376.468 362.721C375.186 363.965 373.447 364.664 371.634 364.664Z" fill="white"/>
<circle cx="191" cy="242" r="45" fill="#F7F9FD"/>
<g clip-path="url(#clip5_106_126)">
<path d="M175.922 226.414C177.407 227.624 177.97 227.539 180.773 227.351L207.203 225.766C207.766 225.766 207.298 225.203 207.109 225.109L202.718 221.936C201.883 221.279 200.758 220.538 198.608 220.717L173.023 222.592C172.085 222.677 171.898 223.147 172.273 223.522L175.922 226.414ZM177.508 232.579V260.383C177.508 261.875 178.25 262.438 179.93 262.343L208.978 260.663C210.658 260.569 210.853 259.546 210.853 258.328V230.711C210.853 229.492 210.383 228.844 209.353 228.938L179.002 230.711C177.877 230.806 177.509 231.359 177.509 232.571L177.508 232.579ZM206.18 234.062C206.368 234.907 206.18 235.742 205.336 235.844L203.938 236.126V256.649C202.718 257.306 201.602 257.681 200.672 257.681C199.172 257.681 198.797 257.212 197.68 255.814L188.524 241.439V255.346L191.422 256.003C191.422 256.003 191.422 257.683 189.086 257.683L182.641 258.058C182.453 257.683 182.641 256.745 183.298 256.565L184.978 256.096V237.713L182.642 237.526C182.455 236.681 182.924 235.471 184.228 235.378L191.141 234.908L200.672 249.47V236.587L198.242 236.305C198.055 235.282 198.797 234.532 199.735 234.445L206.18 234.062ZM170.875 220.07L197.492 218.11C200.758 217.828 201.602 218.015 203.656 219.508L212.156 225.484C213.554 226.507 214.024 226.789 214.024 227.906V260.665C214.024 262.72 213.274 263.93 210.664 264.118L179.741 265.985C177.788 266.08 176.851 265.798 175.819 264.493L169.561 256.367C168.443 254.875 167.975 253.757 167.975 252.454V223.337C167.975 221.657 168.725 220.259 170.873 220.072L170.875 220.07Z" fill="black"/>
</g>
<circle cx="192" cy="453" r="45" fill="#F7F9FD"/>
<path d="M195.289 432.38C194.989 431.843 194.578 431.37 194.079 430.989C193.58 430.608 193.005 430.328 192.389 430.165C191.772 430.001 191.127 429.959 190.493 430.04C189.859 430.121 189.248 430.323 188.699 430.635C187.96 431.06 187.352 431.661 186.935 432.38L180.058 444.161L181.812 445.157C186.694 448.008 190.773 451.942 193.697 456.621C196.62 461.3 198.301 466.583 198.595 472.015H193.767C193.471 467.407 192.008 462.934 189.504 458.976C187 455.018 183.527 451.69 179.381 449.274L177.626 448.282L171.219 459.298L172.973 460.293C175.125 461.565 176.949 463.279 178.312 465.307C179.675 467.335 180.543 469.627 180.852 472.015H169.826C169.61 472.014 169.404 471.932 169.252 471.787C169.101 471.642 169.016 471.446 169.016 471.242C169.014 471.099 169.052 470.958 169.124 470.833L172.198 465.567C171.168 464.707 169.978 464.035 168.69 463.587L165.648 468.841C165.007 469.936 164.833 471.223 165.164 472.436C165.495 473.649 166.305 474.695 167.426 475.358C168.15 475.771 168.98 475.991 169.826 475.993H185.001V474.008C185.021 470.895 184.278 467.821 182.833 465.027C181.387 462.232 179.278 459.795 176.671 457.906L179.095 453.769C182.435 456.099 185.146 459.146 187.007 462.66C188.868 466.174 189.826 470.057 189.803 473.99V475.982H202.67V473.993C202.705 467.855 201.163 461.802 198.176 456.357C195.19 450.912 190.85 446.24 185.533 442.745L190.415 434.37C190.464 434.282 190.532 434.204 190.615 434.141C190.697 434.079 190.792 434.033 190.893 434.006C190.995 433.979 191.101 433.972 191.206 433.986C191.311 433.999 191.411 434.032 191.502 434.084C191.624 434.153 191.724 434.252 191.793 434.37L213.075 470.833C213.181 471.014 213.211 471.226 213.157 471.426C213.103 471.626 212.97 471.799 212.786 471.909C212.663 471.982 212.52 472.019 212.374 472.015H207.395C207.457 473.346 207.464 474.669 207.395 476H212.391C213.697 475.974 214.939 475.456 215.844 474.561C216.748 473.666 217.242 472.467 217.215 471.228C217.216 470.394 216.994 469.574 216.57 468.844L195.289 432.38Z" fill="#FB4226"/>
<defs>
<radialGradient id="paint0_radial_106_126" cx="0" cy="0" r="1" gradientUnits="userSpaceOnUse" gradientTransform="translate(544.5 323.55) scale(31.1436 28.7864)">
<stop stop-color="#FFB900"/>
<stop offset="0.6" stop-color="#F95D8F"/>
<stop offset="0.9991" stop-color="#F95353"/>
</radialGradient>
<radialGradient id="paint1_radial_106_126" cx="0" cy="0" r="1" gradientUnits="userSpaceOnUse" gradientTransform="translate(45.5 353.55) scale(31.1436 28.7864)">
<stop stop-color="#FFB900"/>
<stop offset="0.6" stop-color="#F95D8F"/>
<stop offset="0.9991" stop-color="#F95353"/>
</radialGradient>
<radialGradient id="paint2_radial_106_126" cx="0" cy="0" r="1" gradientUnits="userSpaceOnUse" gradientTransform="translate(249.5 47.55) scale(31.1436 28.7864)">
<stop stop-color="#FFB900"/>
<stop offset="0.6" stop-color="#F95D8F"/>
<stop offset="0.9991" stop-color="#F95353"/>
</radialGradient>
<clipPath id="clip0_106_126">
<rect width="47" height="47" fill="white" transform="translate(521 298)"/>
</clipPath>
<clipPath id="clip1_106_126">
<rect width="45.3488" height="50" fill="white" transform="translate(588 115)"/>
</clipPath>
<clipPath id="clip2_106_126">
<rect width="47" height="47" fill="white" transform="translate(22 328)"/>
</clipPath>
<clipPath id="clip3_106_126">
<rect width="47" height="47" fill="white" transform="translate(226 22)"/>
</clipPath>
<clipPath id="clip4_106_126">
<rect width="45" height="45" fill="white" transform="translate(378.5 140.5)"/>
</clipPath>
<clipPath id="clip5_106_126">
<rect width="48" height="48" fill="white" transform="translate(167 218)"/>
</clipPath>
</defs>
</svg>
