<svg width="395" height="130" viewBox="0 0 395 130" fill="none" xmlns="http://www.w3.org/2000/svg">
<rect width="394" height="100" rx="16" fill="#F3F6FC"/>
<g clip-path="url(#clip0_183_1850)">
<path d="M51.7257 73.7078L35.65 77.1248C35.3751 77.1832 35.0889 77.1333 34.8544 76.986C34.6199 76.8388 34.4564 76.6062 34.3997 76.3395C34.343 76.0729 34.3978 75.7939 34.5522 75.564C34.7065 75.3341 34.9476 75.1721 35.2225 75.1137L44.0669 73.2337C47.9576 72.4067 51.3703 70.1143 53.5542 66.8608C55.7381 63.6073 56.5143 59.6592 55.7121 55.885C54.9099 52.1108 52.5949 48.8198 49.2765 46.7358C45.9581 44.6518 41.908 43.9457 38.0173 44.7727L21.5062 48.2822L24.3583 61.7003C21.506 63.7904 19.3171 66.6225 18.0495 69.8629C16.7819 73.1033 16.4884 76.6171 17.2036 79.9905C17.5333 81.5635 18.0809 83.0832 18.8313 84.5084C14.8792 88.2199 12.2613 93.0673 11.3737 98.3175C10.486 103.568 11.3768 108.935 13.9114 113.608C16.4459 118.281 20.4864 122.005 25.4216 124.217C30.3569 126.429 35.9186 127.009 41.2656 125.869L61.8816 121.487C68.4138 120.099 74.1434 116.25 77.81 110.788C81.4766 105.325 82.7798 98.6969 81.433 92.3604C80.0861 86.0239 76.1995 80.4984 70.6281 76.9996C65.0568 73.5009 58.2579 72.3193 51.7257 73.7078ZM60.7026 115.941L40.0866 120.323C35.5475 121.291 30.8222 120.641 26.7749 118.492C22.7277 116.344 19.6291 112.84 18.0461 108.622C16.463 104.405 16.5013 99.7549 18.154 95.5235C19.8066 91.2921 22.9631 87.762 27.046 85.579C25.2559 84.0809 23.9378 82.121 23.2403 79.9203C22.5428 77.7196 22.4937 75.3656 23.0984 73.1235C23.7031 70.8815 24.9377 68.8405 26.6629 67.2307C28.3882 65.6209 30.5355 64.5063 32.8629 64.0124L41.7072 62.1325C42.5573 61.9518 43.3029 61.4509 43.7801 60.7401C44.2572 60.0293 44.4268 59.1666 44.2515 58.342C44.0763 57.5174 43.5705 56.7984 42.8455 56.3431C42.1204 55.8878 41.2355 55.7335 40.3855 55.9142L29.6048 58.2057L28.419 52.6269L39.1997 50.3354C40.3843 50.0576 41.6111 50.012 42.8081 50.2013C44.0052 50.3906 45.1483 50.8109 46.1706 51.4376C47.1928 52.0644 48.0735 52.8849 48.7611 53.851C49.4487 54.8172 49.9293 55.9096 50.1747 57.0641C50.4201 58.2186 50.4254 59.4121 50.1902 60.5744C49.9551 61.7367 49.4842 62.8445 48.8052 63.8328C48.1263 64.8212 47.2529 65.6701 46.2364 66.3299C45.2198 66.9897 44.0805 67.447 42.8853 67.6751L34.041 69.555C33.1339 69.7251 32.2688 70.0697 31.4965 70.5683C30.7242 71.067 30.0605 71.7097 29.5442 72.4585C29.028 73.2074 28.6698 74.0473 28.4907 74.9287C28.3116 75.8102 28.3153 76.7155 28.5014 77.5912C28.6875 78.4669 29.0524 79.2953 29.5746 80.0277C30.0967 80.7602 30.7656 81.3818 31.5417 81.8559C32.3179 82.3301 33.1857 82.6472 34.094 82.7886C35.0023 82.93 35.9328 82.8929 36.8307 82.6794L52.9064 79.2624C57.8849 78.2787 63.0373 79.2349 67.2504 81.9244C71.4634 84.6139 74.3987 88.8207 75.4222 93.6359C76.4457 98.4511 75.4752 103.488 72.7203 107.659C69.9655 111.829 65.6474 114.798 60.6992 115.925L60.7026 115.941ZM54.0922 84.8412L33.4762 89.2233C31.7215 89.5648 30.0501 90.242 28.5595 91.2154C27.0688 92.1888 25.7888 93.4388 24.7942 94.8926C23.7995 96.3463 23.1102 97.9747 22.7664 99.6825C22.4225 101.39 22.4311 103.144 22.7917 104.84C23.1522 106.536 23.8574 108.141 24.8661 109.561C25.8749 110.982 27.167 112.189 28.6669 113.112C30.1669 114.036 31.8446 114.657 33.6023 114.94C35.36 115.223 37.1624 115.162 38.9042 114.76L59.5202 110.378C61.2748 110.037 62.9463 109.359 64.4369 108.386C65.9276 107.413 67.2076 106.163 68.2022 104.709C69.1969 103.255 69.8862 101.627 70.23 99.9188C70.5738 98.211 70.5652 96.4578 70.2047 94.7617C69.8442 93.0656 69.139 91.4605 68.1302 90.0402C67.1215 88.6198 65.8294 87.4126 64.3295 86.4891C62.8295 85.5656 61.1517 84.9442 59.3941 84.6613C57.6364 84.3783 55.834 84.4395 54.0922 84.8412ZM58.3387 104.819L37.7227 109.202C35.752 109.62 33.7007 109.263 32.0199 108.207C30.3391 107.152 29.1666 105.485 28.7602 103.573C28.3539 101.662 28.7471 99.6618 29.8532 98.0139C30.9594 96.366 32.6879 95.2048 34.6586 94.786L55.2746 90.4039C57.2452 89.985 59.2966 90.3427 60.9774 91.3982C62.6582 92.4537 63.8307 94.1207 64.237 96.0323C64.6433 97.9439 64.2502 99.9436 63.144 101.592C62.0379 103.239 60.3093 104.401 58.3387 104.819Z" fill="#E2EAF8"/>
</g>
<g clip-path="url(#clip1_183_1850)">
<path d="M152.726 7.70777L136.65 11.1248C136.375 11.1832 136.089 11.1333 135.854 10.986C135.62 10.8388 135.456 10.6062 135.4 10.3395C135.343 10.0729 135.398 9.79388 135.552 9.56398C135.706 9.33409 135.948 9.1721 136.223 9.11366L145.067 7.23375C148.958 6.40674 152.37 4.11433 154.554 0.86081C156.738 -2.39271 157.514 -6.34083 156.712 -10.115C155.91 -13.8892 153.595 -17.1802 150.277 -19.2642C146.958 -21.3482 142.908 -22.0543 139.017 -21.2273L122.506 -17.7178L125.358 -4.29973C122.506 -2.20958 120.317 0.62248 119.05 3.8629C117.782 7.10332 117.488 10.6171 118.204 13.9905C118.533 15.5635 119.081 17.0832 119.831 18.5084C115.879 22.2199 113.261 27.0673 112.374 32.3175C111.486 37.5676 112.377 42.935 114.911 47.6078C117.446 52.2807 121.486 56.0048 126.422 58.2171C131.357 60.4293 136.919 61.0094 142.266 59.8695L162.882 55.4874C169.414 54.099 175.143 50.2502 178.81 44.7878C182.477 39.3254 183.78 32.6969 182.433 26.3604C181.086 20.0239 177.199 14.4984 171.628 10.9996C166.057 7.50085 159.258 6.3193 152.726 7.70777ZM161.703 49.9408L141.087 54.3229C136.548 55.2906 131.822 54.6407 127.775 52.4922C123.728 50.3437 120.629 46.8402 119.046 42.6225C117.463 38.4048 117.501 33.7549 119.154 29.5235C120.807 25.2921 123.963 21.762 128.046 19.579C126.256 18.0809 124.938 16.121 124.24 13.9203C123.543 11.7196 123.494 9.3656 124.098 7.12354C124.703 4.88147 125.938 2.84051 127.663 1.23071C129.388 -0.379089 131.536 -1.49374 133.863 -1.9876L142.707 -3.86751C143.557 -4.0482 144.303 -4.54906 144.78 -5.2599C145.257 -5.97075 145.427 -6.83335 145.252 -7.65795C145.076 -8.48255 144.57 -9.2016 143.845 -9.65691C143.12 -10.1122 142.236 -10.2665 141.385 -10.0858L130.605 -7.79432L129.419 -13.3731L140.2 -15.6646C141.384 -15.9424 142.611 -15.988 143.808 -15.7987C145.005 -15.6094 146.148 -15.1891 147.171 -14.5624C148.193 -13.9356 149.074 -13.1151 149.761 -12.149C150.449 -11.1828 150.929 -10.0904 151.175 -8.93588C151.42 -7.78136 151.425 -6.58794 151.19 -5.42563C150.955 -4.26332 150.484 -3.15551 149.805 -2.16718C149.126 -1.17885 148.253 -0.329892 147.236 0.329893C146.22 0.989681 145.081 1.44701 143.885 1.67507L135.041 3.55498C134.134 3.72514 133.269 4.06969 132.497 4.56834C131.724 5.06699 131.06 5.70966 130.544 6.45852C130.028 7.20737 129.67 8.04726 129.491 8.92874C129.312 9.81022 129.315 10.7155 129.501 11.5912C129.688 12.4669 130.052 13.2953 130.575 14.0277C131.097 14.7602 131.766 15.3818 132.542 15.8559C133.318 16.3301 134.186 16.6472 135.094 16.7886C136.002 16.93 136.933 16.8929 137.831 16.6794L153.906 13.2624C158.885 12.2787 164.037 13.2349 168.25 15.9244C172.463 18.6139 175.399 22.8207 176.422 27.6359C177.446 32.4511 176.475 37.4881 173.72 41.6587C170.965 45.8292 166.647 48.7984 161.699 49.9247L161.703 49.9408ZM155.092 18.8412L134.476 23.2233C132.722 23.5648 131.05 24.242 129.559 25.2154C128.069 26.1888 126.789 27.4388 125.794 28.8926C124.8 30.3463 124.11 31.9747 123.766 33.6825C123.423 35.3904 123.431 37.1436 123.792 38.8397C124.152 40.5358 124.857 42.1409 125.866 43.5612C126.875 44.9816 128.167 46.1888 129.667 47.1123C131.167 48.0358 132.845 48.6572 134.602 48.9401C136.36 49.2231 138.162 49.1619 139.904 48.7602L160.52 44.3781C162.275 44.0366 163.946 43.3594 165.437 42.386C166.928 41.4126 168.208 40.1626 169.202 38.7088C170.197 37.255 170.886 35.6267 171.23 33.9188C171.574 32.211 171.565 30.4578 171.205 28.7617C170.844 27.0656 170.139 25.4605 169.13 24.0402C168.121 22.6198 166.829 21.4126 165.329 20.4891C163.83 19.5656 162.152 18.9442 160.394 18.6613C158.636 18.3783 156.834 18.4395 155.092 18.8412ZM159.339 38.8195L138.723 43.2015C136.752 43.6204 134.701 43.2627 133.02 42.2072C131.339 41.1517 130.167 39.4847 129.76 37.5731C129.354 35.6615 129.747 33.6618 130.853 32.0139C131.959 30.366 133.688 29.2048 135.659 28.786L156.275 24.4039C158.245 23.985 160.297 24.3427 161.977 25.3982C163.658 26.4537 164.831 28.1207 165.237 30.0323C165.643 31.9439 165.25 33.9436 164.144 35.5916C163.038 37.2395 161.309 38.4006 159.339 38.8195Z" fill="#E2EAF8"/>
</g>
<g clip-path="url(#clip2_183_1850)">
<path d="M355.726 9.70777L339.65 13.1248C339.375 13.1832 339.089 13.1333 338.854 12.986C338.62 12.8388 338.456 12.6062 338.4 12.3395C338.343 12.0729 338.398 11.7939 338.552 11.564C338.706 11.3341 338.948 11.1721 339.223 11.1137L348.067 9.23375C351.958 8.40674 355.37 6.11433 357.554 2.86081C359.738 -0.39271 360.514 -4.34083 359.712 -8.115C358.91 -11.8892 356.595 -15.1802 353.277 -17.2642C349.958 -19.3482 345.908 -20.0543 342.017 -19.2273L325.506 -15.7178L328.358 -2.29973C325.506 -0.209584 323.317 2.62248 322.05 5.8629C320.782 9.10332 320.488 12.6171 321.204 15.9905C321.533 17.5635 322.081 19.0832 322.831 20.5084C318.879 24.2199 316.261 29.0673 315.374 34.3175C314.486 39.5676 315.377 44.935 317.911 49.6078C320.446 54.2807 324.486 58.0048 329.422 60.2171C334.357 62.4293 339.919 63.0094 345.266 61.8695L365.882 57.4874C372.414 56.099 378.143 52.2502 381.81 46.7878C385.477 41.3254 386.78 34.6969 385.433 28.3604C384.086 22.0239 380.199 16.4984 374.628 12.9996C369.057 9.50085 362.258 8.3193 355.726 9.70777ZM364.703 51.9408L344.087 56.3229C339.548 57.2906 334.822 56.6407 330.775 54.4922C326.728 52.3437 323.629 48.8402 322.046 44.6225C320.463 40.4048 320.501 35.7549 322.154 31.5235C323.807 27.2921 326.963 23.762 331.046 21.579C329.256 20.0809 327.938 18.121 327.24 15.9203C326.543 13.7196 326.494 11.3656 327.098 9.12354C327.703 6.88147 328.938 4.84051 330.663 3.23071C332.388 1.62091 334.536 0.506262 336.863 0.0124025L345.707 -1.86751C346.557 -2.0482 347.303 -2.54906 347.78 -3.2599C348.257 -3.97075 348.427 -4.83335 348.252 -5.65795C348.076 -6.48255 347.57 -7.2016 346.845 -7.65691C346.12 -8.11223 345.236 -8.26651 344.385 -8.08582L333.605 -5.79432L332.419 -11.3731L343.2 -13.6646C344.384 -13.9424 345.611 -13.988 346.808 -13.7987C348.005 -13.6094 349.148 -13.1891 350.171 -12.5624C351.193 -11.9356 352.074 -11.1151 352.761 -10.149C353.449 -9.18279 353.929 -8.0904 354.175 -6.93588C354.42 -5.78136 354.425 -4.58794 354.19 -3.42563C353.955 -2.26332 353.484 -1.15551 352.805 -0.167179C352.126 0.821153 351.253 1.67011 350.236 2.32989C349.22 2.98968 348.081 3.44701 346.885 3.67507L338.041 5.55498C337.134 5.72514 336.269 6.06969 335.497 6.56834C334.724 7.06699 334.06 7.70966 333.544 8.45852C333.028 9.20737 332.67 10.0473 332.491 10.9287C332.312 11.8102 332.315 12.7155 332.501 13.5912C332.688 14.4669 333.052 15.2953 333.575 16.0277C334.097 16.7602 334.766 17.3818 335.542 17.8559C336.318 18.3301 337.186 18.6472 338.094 18.7886C339.002 18.93 339.933 18.8929 340.831 18.6794L356.906 15.2624C361.885 14.2787 367.037 15.2349 371.25 17.9244C375.463 20.6139 378.399 24.8207 379.422 29.6359C380.446 34.4511 379.475 39.4881 376.72 43.6587C373.965 47.8292 369.647 50.7984 364.699 51.9247L364.703 51.9408ZM358.092 20.8412L337.476 25.2233C335.722 25.5648 334.05 26.242 332.559 27.2154C331.069 28.1888 329.789 29.4388 328.794 30.8926C327.8 32.3463 327.11 33.9747 326.766 35.6825C326.423 37.3904 326.431 39.1436 326.792 40.8397C327.152 42.5358 327.857 44.1409 328.866 45.5612C329.875 46.9816 331.167 48.1888 332.667 49.1123C334.167 50.0358 335.845 50.6572 337.602 50.9401C339.36 51.2231 341.162 51.1619 342.904 50.7602L363.52 46.3781C365.275 46.0366 366.946 45.3594 368.437 44.386C369.928 43.4126 371.208 42.1626 372.202 40.7088C373.197 39.255 373.886 37.6267 374.23 35.9188C374.574 34.211 374.565 32.4578 374.205 30.7617C373.844 29.0656 373.139 27.4605 372.13 26.0402C371.121 24.6198 369.829 23.4126 368.329 22.4891C366.83 21.5656 365.152 20.9442 363.394 20.6613C361.636 20.3783 359.834 20.4395 358.092 20.8412ZM362.339 40.8195L341.723 45.2015C339.752 45.6204 337.701 45.2627 336.02 44.2072C334.339 43.1517 333.167 41.4847 332.76 39.5731C332.354 37.6615 332.747 35.6618 333.853 34.0139C334.959 32.366 336.688 31.2048 338.659 30.786L359.275 26.4039C361.245 25.985 363.297 26.3427 364.977 27.3982C366.658 28.4537 367.831 30.1207 368.237 32.0323C368.643 33.9439 368.25 35.9436 367.144 37.5916C366.038 39.2395 364.309 40.4006 362.339 40.8195Z" fill="#E2EAF8"/>
</g>
<g clip-path="url(#clip3_183_1850)">
<path d="M262.726 70.7078L246.65 74.1248C246.375 74.1832 246.089 74.1333 245.854 73.986C245.62 73.8388 245.456 73.6062 245.4 73.3395C245.343 73.0729 245.398 72.7939 245.552 72.564C245.706 72.3341 245.948 72.1721 246.223 72.1137L255.067 70.2337C258.958 69.4067 262.37 67.1143 264.554 63.8608C266.738 60.6073 267.514 56.6592 266.712 52.885C265.91 49.1108 263.595 45.8198 260.277 43.7358C256.958 41.6518 252.908 40.9457 249.017 41.7727L232.506 45.2822L235.358 58.7003C232.506 60.7904 230.317 63.6225 229.05 66.8629C227.782 70.1033 227.488 73.6171 228.204 76.9905C228.533 78.5635 229.081 80.0832 229.831 81.5084C225.879 85.2199 223.261 90.0673 222.374 95.3175C221.486 100.568 222.377 105.935 224.911 110.608C227.446 115.281 231.486 119.005 236.422 121.217C241.357 123.429 246.919 124.009 252.266 122.869L272.882 118.487C279.414 117.099 285.143 113.25 288.81 107.788C292.477 102.325 293.78 95.6969 292.433 89.3604C291.086 83.0239 287.199 77.4984 281.628 73.9996C276.057 70.5009 269.258 69.3193 262.726 70.7078ZM271.703 112.941L251.087 117.323C246.548 118.291 241.822 117.641 237.775 115.492C233.728 113.344 230.629 109.84 229.046 105.622C227.463 101.405 227.501 96.7549 229.154 92.5235C230.807 88.2921 233.963 84.762 238.046 82.579C236.256 81.0809 234.938 79.121 234.24 76.9203C233.543 74.7196 233.494 72.3656 234.098 70.1235C234.703 67.8815 235.938 65.8405 237.663 64.2307C239.388 62.6209 241.536 61.5063 243.863 61.0124L252.707 59.1325C253.557 58.9518 254.303 58.4509 254.78 57.7401C255.257 57.0293 255.427 56.1666 255.252 55.342C255.076 54.5174 254.57 53.7984 253.845 53.3431C253.12 52.8878 252.236 52.7335 251.385 52.9142L240.605 55.2057L239.419 49.6269L250.2 47.3354C251.384 47.0576 252.611 47.012 253.808 47.2013C255.005 47.3906 256.148 47.8109 257.171 48.4376C258.193 49.0644 259.074 49.8849 259.761 50.851C260.449 51.8172 260.929 52.9096 261.175 54.0641C261.42 55.2186 261.425 56.4121 261.19 57.5744C260.955 58.7367 260.484 59.8445 259.805 60.8328C259.126 61.8212 258.253 62.6701 257.236 63.3299C256.22 63.9897 255.081 64.447 253.885 64.6751L245.041 66.555C244.134 66.7251 243.269 67.0697 242.497 67.5683C241.724 68.067 241.06 68.7097 240.544 69.4585C240.028 70.2074 239.67 71.0473 239.491 71.9287C239.312 72.8102 239.315 73.7155 239.501 74.5912C239.688 75.4669 240.052 76.2953 240.575 77.0277C241.097 77.7602 241.766 78.3818 242.542 78.8559C243.318 79.3301 244.186 79.6472 245.094 79.7886C246.002 79.93 246.933 79.8929 247.831 79.6794L263.906 76.2624C268.885 75.2787 274.037 76.2349 278.25 78.9244C282.463 81.6139 285.399 85.8207 286.422 90.6359C287.446 95.4511 286.475 100.488 283.72 104.659C280.965 108.829 276.647 111.798 271.699 112.925L271.703 112.941ZM265.092 81.8412L244.476 86.2233C242.722 86.5648 241.05 87.242 239.559 88.2154C238.069 89.1888 236.789 90.4388 235.794 91.8926C234.8 93.3463 234.11 94.9747 233.766 96.6825C233.423 98.3904 233.431 100.144 233.792 101.84C234.152 103.536 234.857 105.141 235.866 106.561C236.875 107.982 238.167 109.189 239.667 110.112C241.167 111.036 242.845 111.657 244.602 111.94C246.36 112.223 248.162 112.162 249.904 111.76L270.52 107.378C272.275 107.037 273.946 106.359 275.437 105.386C276.928 104.413 278.208 103.163 279.202 101.709C280.197 100.255 280.886 98.6267 281.23 96.9188C281.574 95.211 281.565 93.4578 281.205 91.7617C280.844 90.0656 280.139 88.4605 279.13 87.0402C278.121 85.6198 276.829 84.4126 275.329 83.4891C273.83 82.5656 272.152 81.9442 270.394 81.6613C268.636 81.3783 266.834 81.4395 265.092 81.8412ZM269.339 101.819L248.723 106.202C246.752 106.62 244.701 106.263 243.02 105.207C241.339 104.152 240.167 102.485 239.76 100.573C239.354 98.6615 239.747 96.6618 240.853 95.0139C241.959 93.366 243.688 92.2048 245.659 91.786L266.275 87.4039C268.245 86.985 270.297 87.3427 271.977 88.3982C273.658 89.4537 274.831 91.1207 275.237 93.0323C275.643 94.9439 275.25 96.9436 274.144 98.5916C273.038 100.239 271.309 101.401 269.339 101.819Z" fill="#E2EAF8"/>
</g>
<g clip-path="url(#clip4_183_1850)">
<path d="M350.006 51.4039C348.895 50.4686 347.535 50 346.172 50C344.829 50 343.484 50.4568 342.381 51.3686L342.346 51.398C339.707 53.5822 337.719 56.3998 336.527 59.5428L340.001 64.1093H353.599L355.732 59.5428C354.565 56.4115 352.609 53.5979 350.006 51.4039Z" fill="#E2EAF8"/>
<path d="M344.853 61.9468C346.045 58.8038 348.032 55.9863 350.672 53.802L350.707 53.7726C351.037 53.4995 351.394 53.273 351.761 53.0815C351.214 52.4901 350.628 51.9286 350.005 51.4039C348.895 50.4686 347.534 50 346.172 50C344.829 50 343.483 50.4568 342.381 51.3686L342.346 51.398C339.706 53.5822 337.719 56.3998 336.527 59.5428L340.001 64.1093H344.177C344.363 63.3752 344.586 62.6523 344.853 61.9468Z" fill="#5C85D6"/>
<path d="M356.98 66.4584V101.445H335.24V66.5643C335.24 64.133 335.687 61.7586 336.527 59.543H355.731C356.549 61.7292 356.98 64.0683 356.98 66.4584Z" fill="#C5D3DD"/>
<path d="M366.969 81.1073L366.735 80.8563C365.993 80.0661 364.747 80.0661 364.006 80.8563L363.771 81.1073C361.828 83.1778 360.426 85.6738 359.654 88.3678L361.529 91.5136H369.991L371.086 88.3678C370.314 85.6738 368.912 83.1778 366.969 81.1073Z" fill="#2E5CB8"/>
<path d="M366.737 88.3678C367.221 86.6777 367.954 85.0656 368.912 83.5874C368.343 82.7094 367.694 81.8788 366.97 81.1073L366.736 80.8563C365.994 80.0661 364.748 80.0661 364.007 80.8563L363.772 81.1073C361.829 83.1778 360.427 85.6738 359.655 88.3678L361.53 91.5136H366.136C366.243 90.4444 366.444 89.3913 366.737 88.3678Z" fill="#E2EAF8"/>
<path d="M371.778 93.2945V116.376H358.963V93.2945C358.963 91.6141 359.2 89.9554 359.654 88.3672H371.087C371.541 89.9554 371.778 91.6141 371.778 93.2945Z" fill="#E8EDF2"/>
<path d="M328.643 81.1073L328.408 80.8563C327.666 80.0661 326.42 80.0661 325.679 80.8563L325.444 81.1073C323.501 83.1778 322.1 85.6738 321.327 88.3678L323.134 91.5418C323.134 91.5418 331.618 91.7637 331.618 91.5418C331.618 91.3198 332.76 88.3678 332.76 88.3678C331.987 85.6738 330.586 83.1778 328.643 81.1073Z" fill="#507BD3"/>
<path d="M328.409 88.3678C328.894 86.6777 329.626 85.0656 330.584 83.5874C330.015 82.7094 329.367 81.8788 328.643 81.1073L328.408 80.8563C327.666 80.0661 326.42 80.0661 325.679 80.8563L325.444 81.1073C323.501 83.1778 322.1 85.6738 321.327 88.3678L323.134 91.5418C323.134 91.5418 325.547 91.6049 327.798 91.6302C327.902 90.521 328.106 89.4285 328.409 88.3678Z" fill="#5C85D6"/>
<path d="M333.451 93.2945V118.972H320.636V93.2945C320.636 91.6141 320.873 89.9554 321.327 88.3672H332.76C333.214 89.9554 333.451 91.6141 333.451 93.2945Z" fill="#E8EDF2"/>
<path d="M365.892 133.467H375.562C376.194 133.467 376.707 132.948 376.707 132.309V125.26H364.746V132.309C364.746 132.948 365.259 133.467 365.892 133.467Z" fill="#F79595"/>
<path d="M326.522 133.463H316.852C316.22 133.463 315.707 132.945 315.707 132.306V124.668H327.668V132.306C327.668 132.945 327.155 133.463 326.522 133.463Z" fill="#F79595"/>
<path d="M354.486 132.226L356.436 136.41C356.523 136.597 356.568 136.801 356.568 137.007V139.688C356.568 140.444 355.962 141.056 355.215 141.056H337.198C336.451 141.056 335.845 140.444 335.845 139.688V137.007C335.845 136.801 335.89 136.597 335.977 136.41L337.927 132.226L339.806 128.076H352.412L354.486 132.226Z" fill="#F79595"/>
<path d="M333.429 92.467L329.52 96.6508C328.872 97.3443 327.718 96.8812 327.718 95.9275V93.2945C327.718 91.6141 327.955 89.9554 328.409 88.3672H321.327C320.873 89.9554 320.636 91.6141 320.636 93.2945V118.972H327.718V108.825H333.45C333.45 108.825 333.442 92.7423 333.429 92.467Z" fill="#D9E7EC"/>
<path d="M367.238 101.12C366.472 100.29 366.045 99.1984 366.045 98.0637V93.2945C366.045 91.6141 366.282 89.9554 366.736 88.3672H359.654C359.2 89.9554 358.963 91.6141 358.963 93.2945V116.376H364.283H366.046H371.778V106.033L367.238 101.12Z" fill="#D9E7EC"/>
<path d="M351.47 88.3672H341.263L312.153 119.523L317.075 123.468H377.354L380.259 119.523L351.47 88.3672Z" fill="#B6C4CF"/>
<path d="M315.707 124.668V132.306C315.707 132.945 316.22 133.463 316.852 133.463H322.419C321.787 133.463 321.274 132.945 321.274 132.306C321.274 131.227 322.139 130.353 323.206 130.353H327.668V124.668H321.274H315.707Z" fill="#F37C7C"/>
<path d="M376.706 130.353V125.258H370.312H364.745V132.307C364.745 132.946 365.258 133.465 365.89 133.465H371.457C370.825 133.465 370.312 132.946 370.312 132.307V132.305C370.312 131.227 371.177 130.353 372.244 130.353H376.706Z" fill="#F37C7C"/>
<path d="M380.576 120.335V126.223C380.576 126.88 380.048 127.413 379.398 127.413H313.016C312.365 127.413 311.837 126.88 311.837 126.223V120.335C311.837 120.033 311.95 119.743 312.154 119.523H380.26C380.464 119.743 380.576 120.033 380.576 120.335Z" fill="#D9E7EC"/>
<path d="M356.98 70.4696C356.359 69.6977 355.696 68.9585 354.988 68.2597L351.56 64.8757C350.121 63.4544 348.22 62.6717 346.207 62.6717C345.945 62.6717 345.684 62.6854 345.427 62.7125C345.018 62.7552 344.703 62.344 344.85 61.9558C344.851 61.9529 344.852 61.9497 344.853 61.9468C345.166 61.121 345.536 60.3182 345.957 59.543H336.527C335.687 61.7586 335.24 64.133 335.24 66.5643V101.445H343.566V82.8596H356.98V70.4696Z" fill="#B6C4CF"/>
<path d="M356.314 136.145L354.487 132.224L352.413 128.074H345.567H343.058H339.807L337.927 132.224L335.977 136.408C335.89 136.595 335.845 136.799 335.845 137.005V139.687C335.845 140.442 336.451 141.054 337.199 141.054H342.959C342.211 141.054 341.605 140.442 341.605 139.687V138.639C341.605 138.087 342.16 137.694 342.663 137.909C343.059 138.078 343.494 138.171 343.949 138.171H348.465C349.681 138.171 350.746 137.506 351.323 136.518C351.46 136.284 351.714 136.145 351.983 136.145H356.314Z" fill="#F37C7C"/>
<path d="M341.263 88.3672L329.568 100.884V123.468H362.845V100.677L351.471 88.3672H341.263Z" fill="#9FACBA"/>
<path d="M329.568 119.523H362.845V127.413H329.568V119.523Z" fill="#C5D3DD"/>
<path d="M352.275 71.0642L348.847 67.68C348.469 67.3061 348.031 67.0306 347.566 66.8496L347.349 67.4217H345.038L344.656 66.9339C344.263 67.1127 343.893 67.3586 343.568 67.6798L340.14 71.064C335.862 75.2873 333.451 81.0714 333.451 87.1124V129.987C333.451 131.225 334.443 132.224 335.666 132.224H356.749C357.972 132.224 358.964 131.225 358.964 129.987V87.1126C358.964 81.0716 356.553 75.2875 352.275 71.0642Z" fill="#E8EDF2"/>
<path d="M346.111 97.7763C351.247 97.7763 355.425 93.5557 355.425 88.3677C355.425 84.4296 353.017 81.0503 349.61 79.6505C348.082 79.0227 347.45 77.1624 348.287 75.7267C349.275 74.0331 350.486 72.4631 351.903 71.0644L352.089 70.8806L348.847 67.68C348.469 67.3061 348.031 67.0306 347.566 66.8496L347.349 67.4217H345.038L344.656 66.9339C344.263 67.1127 343.893 67.3586 343.568 67.6798L340.14 71.064C335.862 75.2873 333.451 81.0714 333.451 87.1124V129.987C333.451 131.225 334.443 132.224 335.666 132.224H347.429C346.206 132.224 345.214 131.225 345.214 129.987V98.681C345.215 98.181 345.616 97.7759 346.111 97.7763Z" fill="#D9E7EC"/>
<path d="M346.11 126.854C346.914 126.854 347.565 126.196 347.565 125.384V66.8493C346.627 66.4842 345.575 66.514 344.654 66.934V125.384C344.654 126.196 345.306 126.854 346.11 126.854Z" fill="#C5D3DD"/>
<path d="M344.652 66.9286L344.654 91.1832H347.566V66.8466C346.627 66.4816 345.573 66.5086 344.652 66.9286Z" fill="#C5D3DD"/>
<path d="M346.109 95.0305C349.753 95.0305 352.706 92.0471 352.706 88.3668C352.706 84.6866 349.753 81.7031 346.109 81.7031C342.466 81.7031 339.513 84.6866 339.513 88.3668C339.513 92.0471 342.466 95.0305 346.109 95.0305Z" fill="#E2EAF8"/>
<path d="M344.655 88.3668C344.655 85.6077 346.315 83.2403 348.681 82.228C347.891 81.89 347.022 81.7031 346.11 81.7031C342.467 81.7031 339.514 84.6865 339.514 88.3668C339.514 92.0471 342.467 95.0305 346.11 95.0305C347.022 95.0305 347.891 94.8434 348.681 94.5056C346.315 93.4933 344.655 91.1259 344.655 88.3668Z" fill="#2E5CB8"/>
<path d="M346.98 87.409H345.711C345.69 87.409 345.669 87.4005 345.653 87.3855C345.638 87.3705 345.629 87.3501 345.629 87.3288C345.629 87.3076 345.638 87.2872 345.653 87.2722C345.669 87.2571 345.69 87.2487 345.711 87.2487H346.409C346.716 87.2487 347.01 87.1292 347.227 86.9165C347.444 86.7038 347.566 86.4154 347.566 86.1146C347.566 85.8138 347.444 85.5253 347.227 85.3126C347.01 85.1 346.716 84.9805 346.409 84.9805H345.106V86.0498C344.858 86.163 344.647 86.3434 344.499 86.57C344.352 86.7965 344.273 87.0597 344.273 87.3285C344.273 87.4538 344.289 87.5785 344.323 87.6994C343.965 87.9183 343.69 88.2455 343.539 88.6314C343.388 89.0174 343.369 89.4411 343.485 89.8385C343.601 90.2359 343.847 90.5853 344.184 90.834C344.521 91.0827 344.931 91.217 345.353 91.2168H346.98C347.495 91.2168 347.989 91.0162 348.354 90.6591C348.718 90.302 348.923 89.8177 348.923 89.3127C348.923 88.8077 348.718 88.3234 348.354 87.9663C347.989 87.6092 347.495 87.409 346.98 87.409ZM346.98 90.7747H345.353C344.995 90.7749 344.649 90.6488 344.378 90.4194C344.107 90.19 343.929 89.8726 343.877 89.5253C343.825 89.1781 343.903 88.8242 344.095 88.5283C344.288 88.2324 344.583 88.0144 344.926 87.9141C344.815 87.7709 344.747 87.6001 344.73 87.421C344.712 87.2419 344.746 87.0616 344.828 86.9004C344.91 86.7393 345.036 86.6037 345.192 86.5089C345.348 86.4141 345.528 86.3639 345.711 86.364H346.409C346.476 86.364 346.54 86.3379 346.588 86.2914C346.635 86.2449 346.662 86.1819 346.662 86.1162C346.662 86.0505 346.635 85.9874 346.588 85.941C346.54 85.8945 346.476 85.8684 346.409 85.8684H345.558V85.4238H346.409C346.503 85.4218 346.596 85.4382 346.684 85.472C346.771 85.5059 346.85 85.5565 346.918 85.6208C346.985 85.6852 347.038 85.762 347.074 85.8468C347.111 85.9316 347.129 86.0227 347.129 86.1147C347.129 86.2067 347.111 86.2978 347.074 86.3826C347.038 86.4675 346.985 86.5443 346.918 86.6087C346.85 86.673 346.771 86.7236 346.684 86.7574C346.596 86.7913 346.503 86.8077 346.409 86.8057H345.711C345.64 86.804 345.569 86.8162 345.503 86.8417C345.437 86.8672 345.376 86.9055 345.325 86.9542C345.274 87.0029 345.234 87.0612 345.206 87.1255C345.178 87.1898 345.164 87.2589 345.164 87.3287C345.164 87.3984 345.178 87.4675 345.206 87.5318C345.234 87.5961 345.274 87.6544 345.325 87.7031C345.376 87.7519 345.437 87.7901 345.503 87.8156C345.569 87.8411 345.64 87.8534 345.711 87.8516H346.98C347.371 87.8573 347.745 88.0137 348.02 88.2871C348.294 88.5604 348.448 88.9288 348.448 89.3125C348.448 89.6963 348.294 90.0646 348.02 90.338C347.745 90.6113 347.371 90.7678 346.98 90.7734V90.7747ZM346.98 88.2962H345.353C345.215 88.2938 345.078 88.3184 344.95 88.3684C344.822 88.4185 344.705 88.4931 344.607 88.5878C344.508 88.6825 344.43 88.7955 344.377 88.9202C344.323 89.0448 344.296 89.1786 344.296 89.3138C344.296 89.449 344.323 89.5828 344.377 89.7075C344.43 89.8321 344.508 89.9451 344.607 90.0398C344.705 90.1346 344.822 90.2091 344.95 90.2592C345.078 90.3093 345.215 90.3338 345.353 90.3314H346.98C347.117 90.3338 347.254 90.3093 347.383 90.2592C347.511 90.2091 347.627 90.1346 347.726 90.0398C347.824 89.9451 347.902 89.8321 347.956 89.7075C348.009 89.5828 348.037 89.449 348.037 89.3138C348.037 89.1786 348.009 89.0448 347.956 88.9202C347.902 88.7955 347.824 88.6825 347.726 88.5878C347.627 88.4931 347.511 88.4185 347.383 88.3684C347.254 88.3184 347.117 88.2938 346.98 88.2962ZM346.98 89.8884H345.353C345.198 89.8884 345.048 89.8279 344.939 89.7202C344.829 89.6124 344.767 89.4663 344.767 89.314C344.767 89.1616 344.829 89.0155 344.939 88.9078C345.048 88.8001 345.198 88.7396 345.353 88.7396H346.98C347.135 88.7396 347.284 88.8001 347.394 88.9078C347.504 89.0155 347.566 89.1616 347.566 89.314C347.566 89.4663 347.504 89.6124 347.394 89.7202C347.284 89.8279 347.135 89.8884 346.98 89.8884Z" fill="white"/>
<path d="M347.862 114.638L346.68 114.182L345.213 116.376L344.437 134.16L345.444 134.791L346.144 134.27L346.729 135.369C346.729 135.369 347.125 135.598 347.14 135.598C347.142 135.598 347.143 135.607 347.143 135.623H348.464C348.903 135.623 349.259 135.264 349.259 134.82V118.847C349.259 117.328 348.769 115.85 347.862 114.638Z" fill="#B6C4CF"/>
<path d="M346.653 134.82V118.847C346.653 117.382 347.112 115.956 347.958 114.769C347.927 114.725 347.895 114.681 347.863 114.637L346.675 113.05C346.44 112.736 345.974 112.736 345.739 113.05L344.551 114.637C343.645 115.85 343.154 117.328 343.154 118.847V134.82C343.154 135.263 343.51 135.623 343.949 135.623H347.448C347.009 135.623 346.653 135.263 346.653 134.82Z" fill="#9FACBA"/>
<path d="M339.806 102.629C339.002 102.629 338.351 101.971 338.351 101.159V100.367C338.351 99.5549 339.002 98.8965 339.806 98.8965C340.61 98.8965 341.262 99.5549 341.262 100.367V101.159C341.262 101.971 340.61 102.629 339.806 102.629Z" fill="#B6C4CF"/>
<path d="M339.806 110.692C339.002 110.692 338.351 110.033 338.351 109.221V108.43C338.351 107.617 339.002 106.959 339.806 106.959C340.61 106.959 341.262 107.617 341.262 108.43V109.221C341.262 110.033 340.61 110.692 339.806 110.692Z" fill="#B6C4CF"/>
<path d="M352.413 102.629C351.609 102.629 350.957 101.971 350.957 101.159V100.367C350.957 99.5549 351.609 98.8965 352.413 98.8965C353.217 98.8965 353.869 99.5549 353.869 100.367V101.159C353.869 101.971 353.217 102.629 352.413 102.629Z" fill="#C5D3DD"/>
<path d="M352.413 110.692C351.609 110.692 350.957 110.033 350.957 109.221V108.43C350.957 107.617 351.609 106.959 352.413 106.959C353.217 106.959 353.869 107.617 353.869 108.43V109.221C353.869 110.033 353.217 110.692 352.413 110.692Z" fill="#C5D3DD"/>
<path d="M366.558 104.695L380.26 119.522H366.556V104.697L366.558 104.695Z" fill="#C5D3DD"/>
<path d="M325.857 104.855V119.522H312.153L325.857 104.855Z" fill="#C5D3DD"/>
</g>
<defs>
<clipPath id="clip0_183_1850">
<rect width="87" height="62" fill="white" transform="translate(0 38)"/>
</clipPath>
<clipPath id="clip1_183_1850">
<rect width="87" height="65" fill="white" transform="translate(101)"/>
</clipPath>
<clipPath id="clip2_183_1850">
<rect width="87" height="65" fill="white" transform="translate(304 2)"/>
</clipPath>
<clipPath id="clip3_183_1850">
<rect width="87" height="65" fill="white" transform="translate(211 35)"/>
</clipPath>
<clipPath id="clip4_183_1850">
<rect width="96.4628" height="80" fill="white" transform="translate(297.975 50)"/>
</clipPath>
</defs>
</svg>
