<svg width="1440" height="122" viewBox="0 0 1440 122" fill="none" xmlns="http://www.w3.org/2000/svg">
<path d="M3716 3000C3716 4656.88 2372.88 6000 716 6000C-940.876 6000 -2284 4656.88 -2284 3000C-2284 1343.12 -940.876 0 716 0C2372.88 0 3716 1343.12 3716 3000Z" fill="#E7EDF9"/>
<path d="M-1917.79 3000C-1917.79 1404.65 -672.443 100.388 899.105 5.72204C838.498 2.05993 777.478 0 716 0C-940.876 0 -2284 1343.12 -2284 3000C-2284 4656.88 -940.876 6000 716 6000C777.478 6000 838.498 5997.94 899.105 5994.28C-672.443 5899.61 -1917.79 4595.35 -1917.79 3000Z" fill="#ADC2EB"/>
</svg>
