<svg width="1028" height="674" viewBox="0 0 1028 674" fill="none" xmlns="http://www.w3.org/2000/svg">
<rect x="132" y="514" width="548" height="160" rx="16" fill="white"/>
<path d="M291.54 574.308C290.075 574.308 288.796 574.075 287.704 573.608C286.612 573.141 285.763 572.441 285.156 571.508C284.549 570.565 284.246 569.399 284.246 568.008C284.246 567.849 284.246 567.709 284.246 567.588C284.246 567.457 284.246 567.313 284.246 567.154H287.928C287.928 567.294 287.928 567.425 287.928 567.546C287.928 567.658 287.928 567.789 287.928 567.938C287.928 569.058 288.231 569.898 288.838 570.458C289.454 571.009 290.359 571.284 291.554 571.284C292.758 571.284 293.677 571.083 294.312 570.682C294.956 570.281 295.278 569.637 295.278 568.75C295.278 568.106 295.059 567.56 294.62 567.112C294.191 566.655 293.598 566.253 292.842 565.908C292.086 565.563 291.227 565.241 290.266 564.942C289.183 564.606 288.199 564.172 287.312 563.64C286.425 563.108 285.716 562.436 285.184 561.624C284.652 560.812 284.386 559.813 284.386 558.628C284.386 557.443 284.689 556.435 285.296 555.604C285.912 554.773 286.752 554.143 287.816 553.714C288.889 553.275 290.107 553.056 291.47 553.056C292.898 553.056 294.153 553.28 295.236 553.728C296.328 554.176 297.182 554.843 297.798 555.73C298.414 556.617 298.722 557.723 298.722 559.048C298.722 559.225 298.722 559.379 298.722 559.51C298.722 559.641 298.722 559.79 298.722 559.958H295.026C295.026 559.837 295.026 559.715 295.026 559.594C295.026 559.463 295.026 559.337 295.026 559.216C295.026 558.152 294.737 557.368 294.158 556.864C293.579 556.351 292.702 556.094 291.526 556.094C290.378 556.094 289.496 556.295 288.88 556.696C288.264 557.097 287.956 557.737 287.956 558.614C287.956 559.267 288.166 559.813 288.586 560.252C289.006 560.691 289.58 561.073 290.308 561.4C291.045 561.717 291.881 562.039 292.814 562.366C294.055 562.777 295.129 563.243 296.034 563.766C296.939 564.279 297.639 564.923 298.134 565.698C298.629 566.463 298.876 567.439 298.876 568.624C298.876 569.837 298.568 570.869 297.952 571.718C297.345 572.558 296.491 573.202 295.39 573.65C294.298 574.089 293.015 574.308 291.54 574.308ZM301.335 574V559.132H304.975V574H301.335ZM303.169 556.388C302.572 556.388 302.049 556.229 301.601 555.912C301.163 555.585 300.943 555.133 300.943 554.554C300.943 553.985 301.163 553.541 301.601 553.224C302.049 552.907 302.572 552.748 303.169 552.748C303.757 552.748 304.271 552.907 304.709 553.224C305.148 553.541 305.367 553.985 305.367 554.554C305.367 555.133 305.148 555.585 304.709 555.912C304.271 556.229 303.757 556.388 303.169 556.388ZM314.896 574.28C314.364 574.28 313.823 574.229 313.272 574.126C312.721 574.023 312.217 573.832 311.76 573.552C311.303 573.272 310.934 572.861 310.654 572.32C310.374 571.779 310.234 571.065 310.234 570.178C310.234 569.973 310.234 569.767 310.234 569.562C310.234 569.347 310.234 569.128 310.234 568.904V562.072H306.72V559.132H308.148C308.633 559.132 309.016 559.113 309.296 559.076C309.576 559.029 309.781 558.927 309.912 558.768C310.043 558.609 310.127 558.362 310.164 558.026C310.211 557.681 310.234 557.205 310.234 556.598V554.232H313.93V559.132H318.354V562.072H313.93V568.036C313.93 568.213 313.93 568.391 313.93 568.568C313.93 568.736 313.93 568.899 313.93 569.058C313.93 569.749 314.014 570.304 314.182 570.724C314.35 571.144 314.747 571.354 315.372 571.354C315.671 571.354 315.951 571.326 316.212 571.27C316.483 571.214 316.683 571.158 316.814 571.102V573.986C316.637 574.051 316.38 574.117 316.044 574.182C315.708 574.247 315.325 574.28 314.896 574.28ZM321.536 567.756V565.138H331.938L331.518 565.838C331.518 565.782 331.518 565.721 331.518 565.656C331.518 565.581 331.518 565.521 331.518 565.474C331.518 564.83 331.373 564.228 331.084 563.668C330.795 563.099 330.356 562.641 329.768 562.296C329.18 561.941 328.433 561.764 327.528 561.764C326.632 561.764 325.853 561.955 325.19 562.338C324.537 562.711 324.028 563.253 323.664 563.962C323.309 564.671 323.132 565.521 323.132 566.51C323.132 567.527 323.305 568.405 323.65 569.142C323.995 569.87 324.499 570.43 325.162 570.822C325.834 571.205 326.651 571.396 327.612 571.396C328.265 571.396 328.83 571.335 329.306 571.214C329.782 571.093 330.169 570.929 330.468 570.724C330.776 570.509 331.005 570.281 331.154 570.038C331.313 569.795 331.406 569.553 331.434 569.31H335.102C335.046 569.935 334.836 570.547 334.472 571.144C334.117 571.732 333.618 572.269 332.974 572.754C332.33 573.23 331.546 573.613 330.622 573.902C329.707 574.182 328.662 574.322 327.486 574.322C325.89 574.322 324.495 573.995 323.3 573.342C322.105 572.689 321.172 571.779 320.5 570.612C319.837 569.445 319.506 568.111 319.506 566.608C319.506 565.068 319.842 563.719 320.514 562.562C321.195 561.405 322.138 560.504 323.342 559.86C324.546 559.207 325.927 558.88 327.486 558.88C329.091 558.88 330.477 559.207 331.644 559.86C332.82 560.513 333.725 561.423 334.36 562.59C334.995 563.747 335.312 565.096 335.312 566.636C335.312 566.832 335.307 567.042 335.298 567.266C335.289 567.49 335.275 567.653 335.256 567.756H321.536ZM344.228 580.118V559.132H347.91V580.118H344.228ZM352.6 574.308C351.442 574.308 350.369 574.009 349.38 573.412C348.4 572.805 347.606 571.979 347 570.934C346.402 569.889 346.104 568.713 346.104 567.406C346.104 567.369 346.104 567.336 346.104 567.308C346.104 567.271 346.104 567.238 346.104 567.21L347.924 567.168C347.924 567.187 347.924 567.21 347.924 567.238C347.924 567.266 347.924 567.289 347.924 567.308C347.924 568.036 348.106 568.685 348.47 569.254C348.834 569.814 349.305 570.257 349.884 570.584C350.472 570.901 351.097 571.06 351.76 571.06C352.833 571.06 353.748 570.691 354.504 569.954C355.26 569.217 355.638 568.073 355.638 566.524C355.638 564.965 355.26 563.827 354.504 563.108C353.757 562.38 352.842 562.016 351.76 562.016C351.106 562.016 350.486 562.175 349.898 562.492C349.319 562.8 348.843 563.229 348.47 563.78C348.106 564.331 347.924 564.975 347.924 565.712L346.104 565.628C346.104 564.312 346.402 563.145 347 562.128C347.606 561.111 348.4 560.317 349.38 559.748C350.369 559.169 351.442 558.88 352.6 558.88C353.804 558.88 354.924 559.174 355.96 559.762C357.005 560.35 357.845 561.213 358.48 562.352C359.124 563.491 359.446 564.881 359.446 566.524C359.446 568.213 359.133 569.637 358.508 570.794C357.882 571.951 357.052 572.829 356.016 573.426C354.98 574.014 353.841 574.308 352.6 574.308ZM363.305 567.756V565.138H373.707L373.287 565.838C373.287 565.782 373.287 565.721 373.287 565.656C373.287 565.581 373.287 565.521 373.287 565.474C373.287 564.83 373.143 564.228 372.853 563.668C372.564 563.099 372.125 562.641 371.537 562.296C370.949 561.941 370.203 561.764 369.297 561.764C368.401 561.764 367.622 561.955 366.959 562.338C366.306 562.711 365.797 563.253 365.433 563.962C365.079 564.671 364.901 565.521 364.901 566.51C364.901 567.527 365.074 568.405 365.419 569.142C365.765 569.87 366.269 570.43 366.931 570.822C367.603 571.205 368.42 571.396 369.381 571.396C370.035 571.396 370.599 571.335 371.075 571.214C371.551 571.093 371.939 570.929 372.237 570.724C372.545 570.509 372.774 570.281 372.923 570.038C373.082 569.795 373.175 569.553 373.203 569.31H376.871C376.815 569.935 376.605 570.547 376.241 571.144C375.887 571.732 375.387 572.269 374.743 572.754C374.099 573.23 373.315 573.613 372.391 573.902C371.477 574.182 370.431 574.322 369.255 574.322C367.659 574.322 366.264 573.995 365.069 573.342C363.875 572.689 362.941 571.779 362.269 570.612C361.607 569.445 361.275 568.111 361.275 566.608C361.275 565.068 361.611 563.719 362.283 562.562C362.965 561.405 363.907 560.504 365.111 559.86C366.315 559.207 367.697 558.88 369.255 558.88C370.861 558.88 372.247 559.207 373.413 559.86C374.589 560.513 375.495 561.423 376.129 562.59C376.764 563.747 377.081 565.096 377.081 566.636C377.081 566.832 377.077 567.042 377.067 567.266C377.058 567.49 377.044 567.653 377.025 567.756H363.305ZM379.557 574V559.132H383.239V564.074L382.385 563.598C382.478 562.954 382.651 562.347 382.903 561.778C383.155 561.199 383.491 560.695 383.911 560.266C384.331 559.827 384.84 559.487 385.437 559.244C386.034 559.001 386.716 558.88 387.481 558.88C388.088 558.88 388.564 558.927 388.909 559.02C389.264 559.104 389.483 559.174 389.567 559.23L388.895 562.604C388.802 562.539 388.61 562.459 388.321 562.366C388.041 562.263 387.663 562.212 387.187 562.212C386.431 562.212 385.796 562.343 385.283 562.604C384.779 562.856 384.378 563.201 384.079 563.64C383.78 564.069 383.566 564.545 383.435 565.068C383.304 565.581 383.239 566.095 383.239 566.608V574H379.557ZM393.135 574V562.072H389.985V559.132H393.135V557.802C393.135 556.934 393.252 556.173 393.485 555.52C393.718 554.857 394.036 554.297 394.437 553.84C394.838 553.383 395.296 553.014 395.809 552.734C396.332 552.445 396.887 552.235 397.475 552.104C398.072 551.973 398.665 551.908 399.253 551.908C399.813 551.908 400.238 551.941 400.527 552.006C400.826 552.071 401.026 552.127 401.129 552.174V555.142C401.017 555.105 400.821 555.063 400.541 555.016C400.27 554.96 399.976 554.932 399.659 554.932C399.09 554.932 398.618 555.016 398.245 555.184C397.872 555.343 397.582 555.567 397.377 555.856C397.172 556.145 397.027 556.481 396.943 556.864C396.859 557.237 396.817 557.648 396.817 558.096V559.132H400.933V562.072H396.817V574H393.135ZM409.452 574.294C407.884 574.294 406.503 573.967 405.308 573.314C404.113 572.651 403.175 571.737 402.494 570.57C401.822 569.403 401.486 568.069 401.486 566.566C401.486 565.054 401.822 563.724 402.494 562.576C403.175 561.419 404.113 560.513 405.308 559.86C406.503 559.207 407.884 558.88 409.452 558.88C411.02 558.88 412.401 559.207 413.596 559.86C414.791 560.513 415.724 561.419 416.396 562.576C417.077 563.724 417.418 565.054 417.418 566.566C417.418 568.069 417.077 569.403 416.396 570.57C415.724 571.737 414.791 572.651 413.596 573.314C412.401 573.967 411.02 574.294 409.452 574.294ZM409.452 571.284C410.301 571.284 411.043 571.088 411.678 570.696C412.313 570.304 412.807 569.758 413.162 569.058C413.517 568.349 413.694 567.518 413.694 566.566C413.694 565.614 413.517 564.793 413.162 564.102C412.807 563.402 412.313 562.861 411.678 562.478C411.043 562.095 410.301 561.904 409.452 561.904C408.612 561.904 407.87 562.095 407.226 562.478C406.591 562.861 406.097 563.402 405.742 564.102C405.387 564.793 405.21 565.614 405.21 566.566C405.21 567.518 405.387 568.349 405.742 569.058C406.097 569.758 406.591 570.304 407.226 570.696C407.87 571.088 408.612 571.284 409.452 571.284ZM419.904 574V559.132H423.586V564.074L422.732 563.598C422.826 562.954 422.998 562.347 423.25 561.778C423.502 561.199 423.838 560.695 424.258 560.266C424.678 559.827 425.187 559.487 425.784 559.244C426.382 559.001 427.063 558.88 427.828 558.88C428.435 558.88 428.911 558.927 429.256 559.02C429.611 559.104 429.83 559.174 429.914 559.23L429.242 562.604C429.149 562.539 428.958 562.459 428.668 562.366C428.388 562.263 428.01 562.212 427.534 562.212C426.778 562.212 426.144 562.343 425.63 562.604C425.126 562.856 424.725 563.201 424.426 563.64C424.128 564.069 423.913 564.545 423.782 565.068C423.652 565.581 423.586 566.095 423.586 566.608V574H419.904ZM440.916 574V567.966C440.916 567.415 440.916 566.935 440.916 566.524C440.916 566.104 440.916 565.754 440.916 565.474C440.916 565.11 440.893 564.732 440.846 564.34C440.8 563.939 440.697 563.57 440.538 563.234C440.38 562.898 440.132 562.627 439.796 562.422C439.47 562.207 439.017 562.1 438.438 562.1C437.878 562.1 437.402 562.217 437.01 562.45C436.628 562.674 436.31 562.977 436.058 563.36C435.816 563.733 435.638 564.163 435.526 564.648C435.414 565.124 435.358 565.614 435.358 566.118L434.126 565.292C434.126 564.069 434.355 562.977 434.812 562.016C435.27 561.055 435.918 560.294 436.758 559.734C437.608 559.165 438.611 558.88 439.768 558.88C440.963 558.88 441.91 559.132 442.61 559.636C443.31 560.131 443.81 560.803 444.108 561.652C444.416 562.501 444.57 563.453 444.57 564.508C444.57 564.9 444.57 565.423 444.57 566.076C444.57 566.72 444.57 567.481 444.57 568.358V574H440.916ZM431.676 574V559.132H435.358V574H431.676ZM450.1 574V567.98C450.1 567.392 450.1 566.893 450.1 566.482C450.1 566.071 450.1 565.726 450.1 565.446C450.1 565.054 450.077 564.662 450.03 564.27C449.984 563.869 449.881 563.509 449.722 563.192C449.564 562.865 449.316 562.604 448.98 562.408C448.644 562.203 448.187 562.1 447.608 562.1C447.039 562.1 446.558 562.212 446.166 562.436C445.784 562.66 445.476 562.959 445.242 563.332C445.009 563.705 444.836 564.125 444.724 564.592C444.622 565.059 444.57 565.525 444.57 565.992L443.338 565.18C443.338 563.995 443.562 562.926 444.01 561.974C444.458 561.022 445.102 560.271 445.942 559.72C446.782 559.16 447.781 558.88 448.938 558.88C450.105 558.88 451.043 559.118 451.752 559.594C452.462 560.07 452.975 560.723 453.292 561.554C453.619 562.375 453.782 563.313 453.782 564.368C453.782 564.779 453.782 565.301 453.782 565.936C453.782 566.571 453.782 567.322 453.782 568.19V574H450.1ZM461.861 574.308C460.75 574.308 459.775 574.135 458.935 573.79C458.095 573.435 457.437 572.927 456.961 572.264C456.485 571.601 456.247 570.803 456.247 569.87C456.247 568.853 456.522 568.017 457.073 567.364C457.633 566.701 458.384 566.193 459.327 565.838C460.269 565.474 461.315 565.241 462.463 565.138C464.161 564.97 465.347 564.811 466.019 564.662C466.7 564.503 467.041 564.251 467.041 563.906C467.041 563.897 467.041 563.892 467.041 563.892C467.041 563.883 467.041 563.878 467.041 563.878C467.041 563.225 466.747 562.721 466.159 562.366C465.571 562.011 464.74 561.834 463.667 561.834C462.537 561.834 461.669 562.035 461.063 562.436C460.465 562.828 460.167 563.453 460.167 564.312H456.527C456.527 563.145 456.835 562.161 457.451 561.358C458.076 560.546 458.93 559.93 460.013 559.51C461.095 559.09 462.323 558.88 463.695 558.88C464.973 558.88 466.145 559.071 467.209 559.454C468.273 559.837 469.127 560.415 469.771 561.19C470.415 561.965 470.737 562.931 470.737 564.088C470.737 564.284 470.737 564.48 470.737 564.676C470.737 564.872 470.737 565.068 470.737 565.264V570.864C470.737 571.219 470.746 571.569 470.765 571.914C470.793 572.25 470.844 572.553 470.919 572.824C471.012 573.123 471.124 573.375 471.255 573.58C471.385 573.785 471.488 573.925 471.563 574H467.923C467.857 573.935 467.764 573.809 467.643 573.622C467.531 573.426 467.428 573.202 467.335 572.95C467.241 572.67 467.171 572.371 467.125 572.054C467.078 571.727 467.055 571.368 467.055 570.976L467.783 571.48C467.503 572.049 467.073 572.549 466.495 572.978C465.925 573.398 465.244 573.725 464.451 573.958C463.657 574.191 462.794 574.308 461.861 574.308ZM462.757 571.41C463.522 571.41 464.231 571.279 464.885 571.018C465.538 570.757 466.065 570.355 466.467 569.814C466.868 569.263 467.069 568.559 467.069 567.7V565.712L467.965 566.72C467.367 566.944 466.649 567.131 465.809 567.28C464.969 567.42 464.119 567.532 463.261 567.616C462.159 567.719 461.329 567.91 460.769 568.19C460.218 568.47 459.943 568.927 459.943 569.562C459.943 570.178 460.176 570.64 460.643 570.948C461.109 571.256 461.814 571.41 462.757 571.41ZM484.109 574V567.406C484.109 567.033 484.109 566.706 484.109 566.426C484.109 566.137 484.109 565.875 484.109 565.642C484.109 564.97 484.011 564.368 483.815 563.836C483.629 563.295 483.302 562.87 482.835 562.562C482.378 562.254 481.743 562.1 480.931 562.1C480.222 562.1 479.592 562.273 479.041 562.618C478.491 562.954 478.057 563.421 477.739 564.018C477.431 564.606 477.277 565.287 477.277 566.062L476.031 565.292C476.031 564.051 476.311 562.949 476.871 561.988C477.441 561.017 478.201 560.257 479.153 559.706C480.105 559.155 481.16 558.88 482.317 558.88C483.512 558.88 484.515 559.113 485.327 559.58C486.149 560.047 486.765 560.709 487.175 561.568C487.595 562.427 487.805 563.435 487.805 564.592C487.805 565.04 487.805 565.544 487.805 566.104C487.805 566.664 487.805 567.215 487.805 567.756V574H484.109ZM473.595 574V559.132H477.277V574H473.595ZM498.131 574.308C496.563 574.308 495.177 573.986 493.973 573.342C492.769 572.698 491.827 571.793 491.145 570.626C490.464 569.459 490.123 568.092 490.123 566.524C490.123 564.965 490.464 563.612 491.145 562.464C491.827 561.316 492.769 560.434 493.973 559.818C495.177 559.193 496.563 558.88 498.131 558.88C499.307 558.88 500.348 559.053 501.253 559.398C502.159 559.743 502.919 560.205 503.535 560.784C504.161 561.353 504.637 561.983 504.963 562.674C505.29 563.355 505.453 564.037 505.453 564.718C505.453 564.737 505.453 564.755 505.453 564.774C505.453 564.793 505.453 564.811 505.453 564.83H501.799C501.799 564.783 501.795 564.732 501.785 564.676C501.776 564.62 501.767 564.564 501.757 564.508C501.683 564.032 501.491 563.603 501.183 563.22C500.875 562.828 500.465 562.515 499.951 562.282C499.438 562.049 498.817 561.932 498.089 561.932C497.315 561.932 496.605 562.105 495.961 562.45C495.327 562.786 494.818 563.295 494.435 563.976C494.062 564.657 493.875 565.507 493.875 566.524C493.875 567.532 494.062 568.391 494.435 569.1C494.809 569.8 495.313 570.337 495.947 570.71C496.591 571.074 497.305 571.256 498.089 571.256C498.92 571.256 499.597 571.13 500.119 570.878C500.651 570.617 501.053 570.271 501.323 569.842C501.594 569.403 501.748 568.927 501.785 568.414H505.453C505.453 569.105 505.295 569.8 504.977 570.5C504.66 571.191 504.193 571.825 503.577 572.404C502.961 572.983 502.196 573.445 501.281 573.79C500.376 574.135 499.326 574.308 498.131 574.308ZM509.312 567.756V565.138H519.714L519.294 565.838C519.294 565.782 519.294 565.721 519.294 565.656C519.294 565.581 519.294 565.521 519.294 565.474C519.294 564.83 519.15 564.228 518.86 563.668C518.571 563.099 518.132 562.641 517.544 562.296C516.956 561.941 516.21 561.764 515.304 561.764C514.408 561.764 513.629 561.955 512.966 562.338C512.313 562.711 511.804 563.253 511.44 563.962C511.086 564.671 510.908 565.521 510.908 566.51C510.908 567.527 511.081 568.405 511.426 569.142C511.772 569.87 512.276 570.43 512.938 570.822C513.61 571.205 514.427 571.396 515.388 571.396C516.042 571.396 516.606 571.335 517.082 571.214C517.558 571.093 517.946 570.929 518.244 570.724C518.552 570.509 518.781 570.281 518.93 570.038C519.089 569.795 519.182 569.553 519.21 569.31H522.878C522.822 569.935 522.612 570.547 522.248 571.144C521.894 571.732 521.394 572.269 520.75 572.754C520.106 573.23 519.322 573.613 518.398 573.902C517.484 574.182 516.438 574.322 515.262 574.322C513.666 574.322 512.271 573.995 511.076 573.342C509.882 572.689 508.948 571.779 508.276 570.612C507.614 569.445 507.282 568.111 507.282 566.608C507.282 565.068 507.618 563.719 508.29 562.562C508.972 561.405 509.914 560.504 511.118 559.86C512.322 559.207 513.704 558.88 515.262 558.88C516.868 558.88 518.254 559.207 519.42 559.86C520.596 560.513 521.502 561.423 522.136 562.59C522.771 563.747 523.088 565.096 523.088 566.636C523.088 566.832 523.084 567.042 523.074 567.266C523.065 567.49 523.051 567.653 523.032 567.756H509.312Z" fill="#3366CC"/>
<path d="M294.9 632.48C293.113 632.48 291.64 632.18 290.48 631.58C289.32 630.967 288.42 630.207 287.78 629.3C287.14 628.38 286.687 627.453 286.42 626.52C286.167 625.573 286.04 624.773 286.04 624.12C286.04 624.08 286.04 624.053 286.04 624.04C286.04 624.027 286.04 624.007 286.04 623.98H291.8C291.8 624.007 291.8 624.027 291.8 624.04C291.8 624.053 291.8 624.08 291.8 624.12C291.8 624.453 291.84 624.827 291.92 625.24C292.013 625.64 292.173 626.027 292.4 626.4C292.627 626.773 292.94 627.08 293.34 627.32C293.753 627.56 294.28 627.68 294.92 627.68C295.88 627.68 296.68 627.267 297.32 626.44C297.96 625.6 298.433 624.327 298.74 622.62C299.06 620.913 299.22 618.747 299.22 616.12L300.38 616.1C300.327 616.94 300.027 617.753 299.48 618.54C298.947 619.327 298.167 619.973 297.14 620.48C296.113 620.973 294.853 621.22 293.36 621.22C291.52 621.22 289.987 620.813 288.76 620C287.533 619.173 286.607 618.08 285.98 616.72C285.367 615.36 285.06 613.86 285.06 612.22C285.06 610.273 285.44 608.533 286.2 607C286.96 605.467 288.087 604.26 289.58 603.38C291.087 602.5 292.96 602.06 295.2 602.06C297.573 602.06 299.5 602.633 300.98 603.78C302.473 604.913 303.573 606.533 304.28 608.64C304.987 610.733 305.34 613.227 305.34 616.12C305.34 618.747 305.113 621.08 304.66 623.12C304.207 625.147 303.533 626.853 302.64 628.24C301.76 629.627 300.667 630.68 299.36 631.4C298.067 632.12 296.58 632.48 294.9 632.48ZM294.92 616.78C295.707 616.78 296.393 616.593 296.98 616.22C297.58 615.847 298.047 615.313 298.38 614.62C298.727 613.913 298.9 613.053 298.9 612.04C298.9 611.013 298.747 610.12 298.44 609.36C298.133 608.587 297.693 607.98 297.12 607.54C296.56 607.1 295.9 606.88 295.14 606.88C294.287 606.88 293.573 607.067 293 607.44C292.44 607.813 292.013 608.367 291.72 609.1C291.44 609.82 291.3 610.72 291.3 611.8C291.3 612.827 291.44 613.713 291.72 614.46C292.013 615.207 292.427 615.78 292.96 616.18C293.507 616.58 294.16 616.78 294.92 616.78ZM319.653 632.48C317.346 632.48 315.406 632.087 313.833 631.3C312.26 630.5 311.073 629.427 310.273 628.08C309.473 626.733 309.073 625.233 309.073 623.58C309.073 622.073 309.366 620.82 309.953 619.82C310.553 618.82 311.28 618.047 312.133 617.5C313 616.94 313.813 616.587 314.573 616.44C313.933 616.293 313.233 615.967 312.473 615.46C311.726 614.953 311.093 614.233 310.573 613.3C310.053 612.353 309.793 611.153 309.793 609.7C309.793 608.18 310.213 606.847 311.053 605.7C311.906 604.553 313.073 603.66 314.553 603.02C316.046 602.38 317.746 602.06 319.653 602.06C321.56 602.06 323.253 602.38 324.733 603.02C326.213 603.66 327.38 604.553 328.233 605.7C329.086 606.847 329.513 608.18 329.513 609.7C329.513 611.14 329.246 612.333 328.713 613.28C328.193 614.227 327.56 614.953 326.813 615.46C326.066 615.967 325.366 616.293 324.713 616.44C325.486 616.587 326.3 616.94 327.153 617.5C328.006 618.047 328.733 618.82 329.333 619.82C329.933 620.82 330.233 622.073 330.233 623.58C330.233 625.233 329.826 626.733 329.013 628.08C328.213 629.427 327.026 630.5 325.453 631.3C323.893 632.087 321.96 632.48 319.653 632.48ZM319.653 627.66C320.453 627.66 321.166 627.487 321.793 627.14C322.433 626.793 322.94 626.293 323.313 625.64C323.686 624.987 323.873 624.193 323.873 623.26C323.873 622.367 323.693 621.587 323.333 620.92C322.986 620.24 322.493 619.713 321.853 619.34C321.226 618.967 320.493 618.78 319.653 618.78C318.813 618.78 318.073 618.967 317.433 619.34C316.793 619.713 316.293 620.24 315.933 620.92C315.586 621.6 315.413 622.38 315.413 623.26C315.413 624.193 315.6 624.987 315.973 625.64C316.346 626.293 316.853 626.793 317.493 627.14C318.133 627.487 318.853 627.66 319.653 627.66ZM319.653 614.12C320.826 614.12 321.76 613.787 322.453 613.12C323.16 612.44 323.513 611.547 323.513 610.44C323.513 609.64 323.34 608.98 322.993 608.46C322.66 607.927 322.2 607.533 321.613 607.28C321.026 607.027 320.373 606.9 319.653 606.9C318.933 606.9 318.28 607.027 317.693 607.28C317.106 607.533 316.64 607.927 316.293 608.46C315.96 608.98 315.793 609.64 315.793 610.44C315.793 611.547 316.14 612.44 316.833 613.12C317.54 613.787 318.48 614.12 319.653 614.12ZM337.787 632.6C336.867 632.6 336.087 632.28 335.447 631.64C334.807 631 334.487 630.22 334.487 629.3C334.487 628.393 334.807 627.62 335.447 626.98C336.087 626.34 336.867 626.02 337.787 626.02C338.694 626.02 339.467 626.34 340.107 626.98C340.747 627.62 341.067 628.393 341.067 629.3C341.067 630.22 340.747 631 340.107 631.64C339.467 632.28 338.694 632.6 337.787 632.6ZM354.687 632.48C352.901 632.48 351.427 632.18 350.267 631.58C349.107 630.967 348.207 630.207 347.567 629.3C346.927 628.38 346.474 627.453 346.207 626.52C345.954 625.573 345.827 624.773 345.827 624.12C345.827 624.08 345.827 624.053 345.827 624.04C345.827 624.027 345.827 624.007 345.827 623.98H351.587C351.587 624.007 351.587 624.027 351.587 624.04C351.587 624.053 351.587 624.08 351.587 624.12C351.587 624.453 351.627 624.827 351.707 625.24C351.801 625.64 351.961 626.027 352.187 626.4C352.414 626.773 352.727 627.08 353.127 627.32C353.541 627.56 354.067 627.68 354.707 627.68C355.667 627.68 356.467 627.267 357.107 626.44C357.747 625.6 358.221 624.327 358.527 622.62C358.847 620.913 359.007 618.747 359.007 616.12L360.167 616.1C360.114 616.94 359.814 617.753 359.267 618.54C358.734 619.327 357.954 619.973 356.927 620.48C355.901 620.973 354.641 621.22 353.147 621.22C351.307 621.22 349.774 620.813 348.547 620C347.321 619.173 346.394 618.08 345.767 616.72C345.154 615.36 344.847 613.86 344.847 612.22C344.847 610.273 345.227 608.533 345.987 607C346.747 605.467 347.874 604.26 349.367 603.38C350.874 602.5 352.747 602.06 354.987 602.06C357.361 602.06 359.287 602.633 360.767 603.78C362.261 604.913 363.361 606.533 364.067 608.64C364.774 610.733 365.128 613.227 365.128 616.12C365.128 618.747 364.901 621.08 364.447 623.12C363.994 625.147 363.321 626.853 362.427 628.24C361.547 629.627 360.454 630.68 359.147 631.4C357.854 632.12 356.367 632.48 354.687 632.48ZM354.707 616.78C355.494 616.78 356.181 616.593 356.767 616.22C357.367 615.847 357.834 615.313 358.167 614.62C358.514 613.913 358.687 613.053 358.687 612.04C358.687 611.013 358.534 610.12 358.227 609.36C357.921 608.587 357.481 607.98 356.907 607.54C356.347 607.1 355.687 606.88 354.927 606.88C354.074 606.88 353.361 607.067 352.787 607.44C352.227 607.813 351.801 608.367 351.507 609.1C351.227 609.82 351.087 610.72 351.087 611.8C351.087 612.827 351.227 613.713 351.507 614.46C351.801 615.207 352.214 615.78 352.747 616.18C353.294 616.58 353.947 616.78 354.707 616.78ZM391.561 604.68L369.441 631.26L367.261 629.42L389.401 602.84L391.561 604.68ZM373.121 612.78C372.134 612.78 371.207 612.58 370.341 612.18C369.487 611.767 368.794 611.173 368.261 610.4C367.741 609.627 367.481 608.713 367.481 607.66C367.481 606.58 367.741 605.66 368.261 604.9C368.794 604.127 369.487 603.533 370.341 603.12C371.207 602.693 372.134 602.48 373.121 602.48C374.121 602.48 375.054 602.693 375.921 603.12C376.801 603.533 377.507 604.127 378.041 604.9C378.587 605.66 378.861 606.58 378.861 607.66C378.861 608.713 378.587 609.627 378.041 610.4C377.507 611.173 376.801 611.767 375.921 612.18C375.054 612.58 374.121 612.78 373.121 612.78ZM373.121 610.26C373.587 610.26 374.041 610.173 374.481 610C374.934 609.813 375.301 609.527 375.581 609.14C375.874 608.753 376.021 608.26 376.021 607.66C376.021 607.033 375.874 606.527 375.581 606.14C375.301 605.753 374.934 605.473 374.481 605.3C374.041 605.113 373.587 605.02 373.121 605.02C372.654 605.02 372.201 605.113 371.761 605.3C371.334 605.473 370.981 605.753 370.701 606.14C370.434 606.527 370.301 607.033 370.301 607.66C370.301 608.26 370.434 608.753 370.701 609.14C370.981 609.527 371.334 609.813 371.761 610C372.201 610.173 372.654 610.26 373.121 610.26ZM385.321 631.82C384.334 631.82 383.407 631.62 382.541 631.22C381.687 630.807 380.994 630.213 380.461 629.44C379.941 628.667 379.681 627.753 379.681 626.7C379.681 625.62 379.941 624.7 380.461 623.94C380.994 623.167 381.687 622.573 382.541 622.16C383.407 621.747 384.334 621.54 385.321 621.54C386.321 621.54 387.261 621.747 388.141 622.16C389.021 622.573 389.727 623.167 390.261 623.94C390.807 624.7 391.081 625.62 391.081 626.7C391.081 627.753 390.807 628.667 390.261 629.44C389.727 630.213 389.021 630.807 388.141 631.22C387.261 631.62 386.321 631.82 385.321 631.82ZM385.321 629.3C385.801 629.3 386.261 629.213 386.701 629.04C387.141 628.853 387.501 628.567 387.781 628.18C388.074 627.793 388.221 627.3 388.221 626.7C388.221 626.087 388.074 625.587 387.781 625.2C387.501 624.813 387.141 624.527 386.701 624.34C386.261 624.153 385.801 624.06 385.321 624.06C384.854 624.06 384.407 624.153 383.981 624.34C383.554 624.527 383.201 624.813 382.921 625.2C382.654 625.587 382.521 626.087 382.521 626.7C382.521 627.3 382.654 627.793 382.921 628.18C383.201 628.567 383.554 628.853 383.981 629.04C384.407 629.213 384.854 629.3 385.321 629.3Z" fill="#10AB61"/>
<circle cx="202" cy="594" r="45" fill="#F9FAFB"/>
<path d="M224 582L205 601L195 591L180 606" stroke="#3366CC" stroke-width="2.4" stroke-linecap="round" stroke-linejoin="round"/>
<path d="M212 582H224V594" stroke="#3366CC" stroke-width="2.4" stroke-linecap="round" stroke-linejoin="round"/>
<rect x="637" width="470" height="160" rx="16" fill="white"/>
<path d="M789.806 60V39.35H797.758C799.839 39.35 801.403 39.826 802.448 40.778C803.493 41.73 804.016 43.13 804.016 44.978C804.016 46.0607 803.811 46.98 803.4 47.736C802.989 48.492 802.49 49.0753 801.902 49.486C801.314 49.8967 800.754 50.13 800.222 50.186C800.763 50.2233 801.286 50.3633 801.79 50.606C802.294 50.8487 802.705 51.2313 803.022 51.754C803.349 52.2673 803.512 52.9627 803.512 53.84C803.512 54.54 803.512 55.24 803.512 55.94C803.512 56.6307 803.512 57.326 803.512 58.026C803.512 58.4647 803.549 58.8707 803.624 59.244C803.699 59.608 803.792 59.86 803.904 60H800.194C800.101 59.832 800.017 59.5753 799.942 59.23C799.877 58.8753 799.844 58.474 799.844 58.026C799.844 57.3913 799.844 56.7707 799.844 56.164C799.844 55.548 799.844 54.918 799.844 54.274C799.844 53.4247 799.606 52.7807 799.13 52.342C798.654 51.9033 797.935 51.684 796.974 51.684H792.424L793.404 50.438V60H789.806ZM793.404 50.13L792.424 48.744H797.002C797.609 48.744 798.155 48.604 798.64 48.324C799.125 48.0347 799.508 47.6333 799.788 47.12C800.077 46.6067 800.222 46.0047 800.222 45.314C800.222 44.306 799.933 43.55 799.354 43.046C798.775 42.542 797.954 42.29 796.89 42.29H792.326L793.404 40.988V50.13ZM807.941 53.756V51.138H818.343L817.923 51.838C817.923 51.782 817.923 51.7213 817.923 51.656C817.923 51.5813 817.923 51.5207 817.923 51.474C817.923 50.83 817.779 50.228 817.489 49.668C817.2 49.0987 816.761 48.6413 816.173 48.296C815.585 47.9413 814.839 47.764 813.933 47.764C813.037 47.764 812.258 47.9553 811.595 48.338C810.942 48.7113 810.433 49.2527 810.069 49.962C809.715 50.6713 809.537 51.5207 809.537 52.51C809.537 53.5273 809.71 54.4047 810.055 55.142C810.401 55.87 810.905 56.43 811.567 56.822C812.239 57.2047 813.056 57.396 814.017 57.396C814.671 57.396 815.235 57.3353 815.711 57.214C816.187 57.0927 816.575 56.9293 816.873 56.724C817.181 56.5093 817.41 56.2807 817.559 56.038C817.718 55.7953 817.811 55.5527 817.839 55.31H821.507C821.451 55.9353 821.241 56.5467 820.877 57.144C820.523 57.732 820.023 58.2687 819.379 58.754C818.735 59.23 817.951 59.6127 817.027 59.902C816.113 60.182 815.067 60.322 813.891 60.322C812.295 60.322 810.9 59.9953 809.705 59.342C808.511 58.6887 807.577 57.7787 806.905 56.612C806.243 55.4453 805.911 54.1107 805.911 52.608C805.911 51.068 806.247 49.7193 806.919 48.562C807.601 47.4047 808.543 46.504 809.747 45.86C810.951 45.2067 812.333 44.88 813.891 44.88C815.497 44.88 816.883 45.2067 818.049 45.86C819.225 46.5133 820.131 47.4233 820.765 48.59C821.4 49.7473 821.717 51.096 821.717 52.636C821.717 52.832 821.713 53.042 821.703 53.266C821.694 53.49 821.68 53.6533 821.661 53.756H807.941ZM825.889 60V48.072H822.739V45.132H825.889V43.802C825.889 42.934 826.006 42.1733 826.239 41.52C826.473 40.8573 826.79 40.2973 827.191 39.84C827.593 39.3827 828.05 39.014 828.563 38.734C829.086 38.4447 829.641 38.2347 830.229 38.104C830.827 37.9733 831.419 37.908 832.007 37.908C832.567 37.908 832.992 37.9407 833.281 38.006C833.58 38.0713 833.781 38.1273 833.883 38.174V41.142C833.771 41.1047 833.575 41.0627 833.295 41.016C833.025 40.96 832.731 40.932 832.413 40.932C831.844 40.932 831.373 41.016 830.999 41.184C830.626 41.3427 830.337 41.5667 830.131 41.856C829.926 42.1453 829.781 42.4813 829.697 42.864C829.613 43.2373 829.571 43.648 829.571 44.096V45.132H833.687V48.072H829.571V60H825.889ZM836.27 53.756V51.138H846.672L846.252 51.838C846.252 51.782 846.252 51.7213 846.252 51.656C846.252 51.5813 846.252 51.5207 846.252 51.474C846.252 50.83 846.108 50.228 845.818 49.668C845.529 49.0987 845.09 48.6413 844.502 48.296C843.914 47.9413 843.168 47.764 842.262 47.764C841.366 47.764 840.587 47.9553 839.924 48.338C839.271 48.7113 838.762 49.2527 838.398 49.962C838.044 50.6713 837.866 51.5207 837.866 52.51C837.866 53.5273 838.039 54.4047 838.384 55.142C838.73 55.87 839.234 56.43 839.896 56.822C840.568 57.2047 841.385 57.396 842.346 57.396C843 57.396 843.564 57.3353 844.04 57.214C844.516 57.0927 844.904 56.9293 845.202 56.724C845.51 56.5093 845.739 56.2807 845.888 56.038C846.047 55.7953 846.14 55.5527 846.168 55.31H849.836C849.78 55.9353 849.57 56.5467 849.206 57.144C848.852 57.732 848.352 58.2687 847.708 58.754C847.064 59.23 846.28 59.6127 845.356 59.902C844.442 60.182 843.396 60.322 842.22 60.322C840.624 60.322 839.229 59.9953 838.034 59.342C836.84 58.6887 835.906 57.7787 835.234 56.612C834.572 55.4453 834.24 54.1107 834.24 52.608C834.24 51.068 834.576 49.7193 835.248 48.562C835.93 47.4047 836.872 46.504 838.076 45.86C839.28 45.2067 840.662 44.88 842.22 44.88C843.826 44.88 845.212 45.2067 846.378 45.86C847.554 46.5133 848.46 47.4233 849.094 48.59C849.729 49.7473 850.046 51.096 850.046 52.636C850.046 52.832 850.042 53.042 850.032 53.266C850.023 53.49 850.009 53.6533 849.99 53.756H836.27ZM852.522 60V45.132H856.204V50.074L855.35 49.598C855.443 48.954 855.616 48.3473 855.868 47.778C856.12 47.1993 856.456 46.6953 856.876 46.266C857.296 45.8273 857.805 45.4867 858.402 45.244C858.999 45.0013 859.681 44.88 860.446 44.88C861.053 44.88 861.529 44.9267 861.874 45.02C862.229 45.104 862.448 45.174 862.532 45.23L861.86 48.604C861.767 48.5387 861.575 48.4593 861.286 48.366C861.006 48.2633 860.628 48.212 860.152 48.212C859.396 48.212 858.761 48.3427 858.248 48.604C857.744 48.856 857.343 49.2013 857.044 49.64C856.745 50.0693 856.531 50.5453 856.4 51.068C856.269 51.5813 856.204 52.0947 856.204 52.608V60H852.522ZM864.294 60V45.132H867.976V50.074L867.122 49.598C867.215 48.954 867.388 48.3473 867.64 47.778C867.892 47.1993 868.228 46.6953 868.648 46.266C869.068 45.8273 869.577 45.4867 870.174 45.244C870.771 45.0013 871.453 44.88 872.218 44.88C872.825 44.88 873.301 44.9267 873.646 45.02C874.001 45.104 874.22 45.174 874.304 45.23L873.632 48.604C873.539 48.5387 873.347 48.4593 873.058 48.366C872.778 48.2633 872.4 48.212 871.924 48.212C871.168 48.212 870.533 48.3427 870.02 48.604C869.516 48.856 869.115 49.2013 868.816 49.64C868.517 50.0693 868.303 50.5453 868.172 51.068C868.041 51.5813 867.976 52.0947 867.976 52.608V60H864.294ZM880.889 60.308C879.778 60.308 878.803 60.1353 877.963 59.79C877.123 59.4353 876.465 58.9267 875.989 58.264C875.513 57.6013 875.275 56.8033 875.275 55.87C875.275 54.8527 875.55 54.0173 876.101 53.364C876.661 52.7013 877.412 52.1927 878.355 51.838C879.297 51.474 880.343 51.2407 881.491 51.138C883.189 50.97 884.375 50.8113 885.047 50.662C885.728 50.5033 886.069 50.2513 886.069 49.906C886.069 49.8967 886.069 49.892 886.069 49.892C886.069 49.8827 886.069 49.878 886.069 49.878C886.069 49.2247 885.775 48.7207 885.187 48.366C884.599 48.0113 883.768 47.834 882.695 47.834C881.565 47.834 880.697 48.0347 880.091 48.436C879.493 48.828 879.195 49.4533 879.195 50.312H875.555C875.555 49.1453 875.863 48.1607 876.479 47.358C877.104 46.546 877.958 45.93 879.041 45.51C880.123 45.09 881.351 44.88 882.723 44.88C884.001 44.88 885.173 45.0713 886.237 45.454C887.301 45.8367 888.155 46.4153 888.799 47.19C889.443 47.9647 889.765 48.9307 889.765 50.088C889.765 50.284 889.765 50.48 889.765 50.676C889.765 50.872 889.765 51.068 889.765 51.264V56.864C889.765 57.2187 889.774 57.5687 889.793 57.914C889.821 58.25 889.872 58.5533 889.947 58.824C890.04 59.1227 890.152 59.3747 890.283 59.58C890.413 59.7853 890.516 59.9253 890.591 60H886.951C886.885 59.9347 886.792 59.8087 886.671 59.622C886.559 59.426 886.456 59.202 886.363 58.95C886.269 58.67 886.199 58.3713 886.153 58.054C886.106 57.7273 886.083 57.368 886.083 56.976L886.811 57.48C886.531 58.0493 886.101 58.5487 885.523 58.978C884.953 59.398 884.272 59.7247 883.479 59.958C882.685 60.1913 881.822 60.308 880.889 60.308ZM881.785 57.41C882.55 57.41 883.259 57.2793 883.913 57.018C884.566 56.7567 885.093 56.3553 885.495 55.814C885.896 55.2633 886.097 54.5587 886.097 53.7V51.712L886.993 52.72C886.395 52.944 885.677 53.1307 884.837 53.28C883.997 53.42 883.147 53.532 882.289 53.616C881.187 53.7187 880.357 53.91 879.797 54.19C879.246 54.47 878.971 54.9273 878.971 55.562C878.971 56.178 879.204 56.64 879.671 56.948C880.137 57.256 880.842 57.41 881.785 57.41ZM896.459 38.118V60H892.833V38.118H896.459ZM905.671 60.308C904.784 60.308 903.94 60.21 903.137 60.014C902.344 59.818 901.634 59.524 901.009 59.132C900.393 58.74 899.903 58.2547 899.539 57.676C899.184 57.088 899.007 56.4113 899.007 55.646C899.007 55.59 899.007 55.534 899.007 55.478C899.007 55.422 899.007 55.3707 899.007 55.324H902.675C902.675 55.3707 902.675 55.4127 902.675 55.45C902.675 55.478 902.675 55.52 902.675 55.576C902.675 56.1827 902.95 56.64 903.501 56.948C904.061 57.2467 904.822 57.396 905.783 57.396C906.306 57.396 906.796 57.34 907.253 57.228C907.72 57.116 908.093 56.9433 908.373 56.71C908.662 56.4767 908.807 56.178 908.807 55.814C908.807 55.226 908.504 54.806 907.897 54.554C907.3 54.302 906.357 54.0733 905.069 53.868C904.36 53.7467 903.66 53.5833 902.969 53.378C902.278 53.1727 901.648 52.8973 901.079 52.552C900.519 52.2067 900.066 51.7773 899.721 51.264C899.385 50.7507 899.217 50.1253 899.217 49.388C899.217 48.408 899.506 47.5867 900.085 46.924C900.673 46.252 901.457 45.7433 902.437 45.398C903.426 45.0527 904.514 44.88 905.699 44.88C906.838 44.88 907.897 45.0667 908.877 45.44C909.857 45.8133 910.646 46.35 911.243 47.05C911.85 47.75 912.153 48.5947 912.153 49.584C912.153 49.6213 912.153 49.6633 912.153 49.71C912.153 49.7473 912.153 49.78 912.153 49.808H908.513C908.513 49.78 908.513 49.752 908.513 49.724C908.513 49.696 908.513 49.6633 908.513 49.626C908.513 49.1967 908.378 48.8467 908.107 48.576C907.836 48.3053 907.486 48.1047 907.057 47.974C906.628 47.8433 906.175 47.778 905.699 47.778C905.279 47.778 904.845 47.8247 904.397 47.918C903.949 48.002 903.576 48.156 903.277 48.38C902.978 48.5947 902.829 48.898 902.829 49.29C902.829 49.6633 902.983 49.9667 903.291 50.2C903.599 50.4333 904.028 50.6293 904.579 50.788C905.13 50.9373 905.764 51.0727 906.483 51.194C907.164 51.306 907.85 51.46 908.541 51.656C909.241 51.852 909.88 52.1133 910.459 52.44C911.038 52.7667 911.504 53.196 911.859 53.728C912.223 54.2507 912.405 54.8993 912.405 55.674C912.405 56.4953 912.218 57.1953 911.845 57.774C911.472 58.3527 910.963 58.8333 910.319 59.216C909.684 59.5893 908.966 59.8647 908.163 60.042C907.36 60.2193 906.53 60.308 905.671 60.308Z" fill="#3366CC"/>
<path d="M802.02 88.46V118H795.86V94.26C795.687 94.3933 795.313 94.5667 794.74 94.78C794.18 94.98 793.507 95.1733 792.72 95.36C791.933 95.5467 791.12 95.6733 790.28 95.74V90.86C791.12 90.7533 791.94 90.5733 792.74 90.32C793.54 90.0533 794.227 89.7533 794.8 89.42C795.387 89.0867 795.773 88.7667 795.96 88.46H802.02ZM818.545 118V112.34H806.065V108.04L816.585 88.46H824.605V107.66H828.125V112.34H824.605V118H818.545ZM810.725 110.32L809.065 107.66H818.545V92.42L819.805 92.76L810.725 110.32ZM845.544 102.44C846.69 102.48 847.684 102.807 848.524 103.42C849.377 104.033 850.024 104.847 850.464 105.86C850.917 106.873 851.144 108.02 851.144 109.3C851.144 110.94 850.79 112.46 850.084 113.86C849.377 115.247 848.277 116.367 846.784 117.22C845.304 118.06 843.39 118.48 841.044 118.48C839.044 118.48 837.377 118.22 836.044 117.7C834.71 117.167 833.65 116.44 832.864 115.52C832.09 114.6 831.537 113.547 831.204 112.36C830.884 111.16 830.724 109.88 830.724 108.52C830.724 108.507 830.724 108.493 830.724 108.48C830.724 108.467 830.724 108.453 830.724 108.44H836.924C836.924 108.453 836.924 108.467 836.924 108.48C836.924 108.493 836.924 108.507 836.924 108.52C836.924 109.867 837.09 110.913 837.424 111.66C837.77 112.407 838.257 112.927 838.884 113.22C839.51 113.513 840.257 113.66 841.124 113.66C842.257 113.66 843.17 113.307 843.864 112.6C844.57 111.893 844.924 110.74 844.924 109.14C844.924 108.46 844.844 107.853 844.684 107.32C844.537 106.787 844.297 106.333 843.964 105.96C843.63 105.587 843.177 105.307 842.604 105.12C842.03 104.92 841.324 104.82 840.484 104.82H839.444V100.48H840.484C841.31 100.48 842.004 100.373 842.564 100.16C843.137 99.9333 843.597 99.6333 843.944 99.26C844.29 98.8733 844.537 98.44 844.684 97.96C844.844 97.4667 844.924 96.96 844.924 96.44C844.924 95.2 844.577 94.3 843.884 93.74C843.19 93.18 842.304 92.9 841.224 92.9C839.984 92.9 838.957 93.24 838.144 93.92C837.33 94.6 836.924 95.8333 836.924 97.62H830.724C830.724 96.34 830.917 95.1267 831.304 93.98C831.69 92.82 832.297 91.8 833.124 90.92C833.95 90.0267 835.024 89.3267 836.344 88.82C837.664 88.3133 839.25 88.06 841.104 88.06C843.45 88.06 845.364 88.4467 846.844 89.22C848.324 89.9933 849.41 90.9933 850.104 92.22C850.797 93.4467 851.144 94.7467 851.144 96.12C851.144 97.24 850.917 98.2733 850.464 99.22C850.024 100.167 849.377 100.927 848.524 101.5C847.684 102.073 846.69 102.387 845.544 102.44ZM866.365 103.68L866.545 98.94L878.345 118H871.545L863.085 103.7L865.865 104.06L861.025 110.56L861.565 106.66V118H855.345V88.5H861.565V103.82L860.405 103.18L871.185 88.5H877.745L866.365 103.68Z" fill="#10AB61"/>
<circle cx="707" cy="80" r="45" fill="#F9FAFB"/>
<g clip-path="url(#clip0_1_1965)">
<path d="M718.495 71.7693C718.019 71.8706 717.583 72.057 717.197 72.3079C716.401 70.8487 714.714 70.0164 713.007 70.3792C712.516 70.4835 712.068 70.6785 711.673 70.9413C710.854 69.5527 709.21 68.7724 707.548 69.1257C707.131 69.2144 706.744 69.3689 706.395 69.5745L705.546 65.5795C705.104 63.4988 703.051 62.1657 700.97 62.6079C698.889 63.0502 697.556 65.1029 697.999 67.1837L701.468 83.5062L699.529 81.6318L699.486 81.5965C697.66 80.1081 695.034 80.2492 693.378 81.9248C692.512 82.801 692.046 83.9619 692.066 85.1935C692.085 86.4164 692.581 87.5544 693.463 88.4007L702.232 97.3585L702.266 97.3923C704.484 99.4985 707.595 100.376 710.587 99.7403L717.959 98.1734C723.284 97.0416 726.695 91.7887 725.563 86.464L723.071 74.741C722.629 72.6601 720.576 71.3271 718.495 71.7693ZM722.984 87.0122C723.813 90.9149 721.313 94.7647 717.411 95.5943L710.039 97.1612C707.904 97.615 705.685 96.9926 704.099 95.4961L695.331 86.5406L695.297 86.5068C694.922 86.1504 694.711 85.6691 694.702 85.1516C694.694 84.6342 694.89 84.1463 695.254 83.7782C695.938 83.0857 697.017 83.0171 697.782 83.6099L705.842 91.4028L700.578 66.6355C700.438 65.9769 700.86 65.3271 701.519 65.1871C702.177 65.0471 702.827 65.469 702.967 66.1277L705.706 79.0142L708.285 78.466L707.156 73.1532C707.016 72.4946 707.438 71.8448 708.097 71.7048C708.755 71.5647 709.405 71.9867 709.545 72.6454L710.674 77.9582L713.253 77.41L712.615 74.4066C712.475 73.748 712.897 73.0982 713.556 72.9581C714.214 72.8181 714.864 73.2401 715.004 73.8988L715.643 76.9021L718.222 76.3539L718.125 75.8986L718.103 75.7969C717.963 75.1382 718.385 74.4883 719.044 74.3483C719.703 74.2083 720.352 74.6302 720.492 75.289L722.984 87.0122L722.984 87.0122Z" fill="url(#paint0_linear_1_1965)"/>
<path d="M700.798 55.8156L698.219 56.3638L698.978 59.9315L701.557 59.3833L700.798 55.8156Z" fill="url(#paint1_linear_1_1965)"/>
<path d="M705.18 56.476L703.337 59.6238L705.613 60.9559L707.456 57.8081L705.18 56.476Z" fill="url(#paint2_linear_1_1965)"/>
<path d="M710.248 61.2441L706.766 62.3296L707.55 64.8468L711.033 63.7614L710.248 61.2441Z" fill="url(#paint3_linear_1_1965)"/>
<path d="M694.407 58.7653L692.87 60.9077L695.834 63.0338L697.371 60.8914L694.407 58.7653Z" fill="url(#paint4_linear_1_1965)"/>
<path d="M691.718 65.1852L692.025 67.804L695.648 67.3792L695.341 64.7605L691.718 65.1852Z" fill="url(#paint5_linear_1_1965)"/>
</g>
<rect y="266" width="534" height="160" rx="16" fill="white"/>
<path d="M156.502 325H152.806V304.35H159.442C161.029 304.35 162.368 304.653 163.46 305.26C164.561 305.857 165.397 306.674 165.966 307.71C166.545 308.737 166.834 309.885 166.834 311.154C166.834 312.433 166.545 313.604 165.966 314.668C165.387 315.732 164.543 316.586 163.432 317.23C162.331 317.865 161.001 318.182 159.442 318.182H156.502V325ZM156.502 317.006L154.836 315.256H159.036C159.895 315.256 160.627 315.093 161.234 314.766C161.841 314.43 162.303 313.959 162.62 313.352C162.947 312.736 163.11 312.003 163.11 311.154C163.11 310.305 162.951 309.595 162.634 309.026C162.326 308.447 161.869 308.013 161.262 307.724C160.655 307.435 159.913 307.29 159.036 307.29H154.836L156.502 305.456V317.006ZM173.571 325.308C172.461 325.308 171.485 325.135 170.645 324.79C169.805 324.435 169.147 323.927 168.671 323.264C168.195 322.601 167.957 321.803 167.957 320.87C167.957 319.853 168.233 319.017 168.783 318.364C169.343 317.701 170.095 317.193 171.037 316.838C171.98 316.474 173.025 316.241 174.174 316.138C175.872 315.97 177.057 315.811 177.73 315.662C178.411 315.503 178.752 315.251 178.752 314.906C178.752 314.897 178.752 314.892 178.752 314.892C178.752 314.883 178.752 314.878 178.752 314.878C178.752 314.225 178.458 313.721 177.87 313.366C177.281 313.011 176.451 312.834 175.377 312.834C174.248 312.834 173.38 313.035 172.773 313.436C172.176 313.828 171.877 314.453 171.877 315.312H168.237C168.237 314.145 168.545 313.161 169.161 312.358C169.787 311.546 170.641 310.93 171.723 310.51C172.806 310.09 174.033 309.88 175.406 309.88C176.684 309.88 177.856 310.071 178.919 310.454C179.984 310.837 180.838 311.415 181.482 312.19C182.126 312.965 182.447 313.931 182.447 315.088C182.447 315.284 182.447 315.48 182.447 315.676C182.447 315.872 182.447 316.068 182.447 316.264V321.864C182.447 322.219 182.457 322.569 182.476 322.914C182.504 323.25 182.555 323.553 182.629 323.824C182.723 324.123 182.835 324.375 182.966 324.58C183.096 324.785 183.199 324.925 183.273 325H179.633C179.568 324.935 179.475 324.809 179.354 324.622C179.241 324.426 179.139 324.202 179.045 323.95C178.952 323.67 178.882 323.371 178.836 323.054C178.789 322.727 178.766 322.368 178.766 321.976L179.493 322.48C179.214 323.049 178.784 323.549 178.205 323.978C177.636 324.398 176.955 324.725 176.162 324.958C175.368 325.191 174.505 325.308 173.571 325.308ZM174.467 322.41C175.233 322.41 175.942 322.279 176.595 322.018C177.249 321.757 177.776 321.355 178.178 320.814C178.579 320.263 178.78 319.559 178.78 318.7V316.712L179.676 317.72C179.078 317.944 178.36 318.131 177.52 318.28C176.68 318.42 175.83 318.532 174.971 318.616C173.87 318.719 173.039 318.91 172.479 319.19C171.929 319.47 171.653 319.927 171.653 320.562C171.653 321.178 171.887 321.64 172.353 321.948C172.82 322.256 173.525 322.41 174.467 322.41ZM195.302 323.53C196.179 323.614 196.949 323.777 197.612 324.02C198.275 324.263 198.793 324.622 199.166 325.098C199.539 325.583 199.726 326.227 199.726 327.03C199.726 327.926 199.423 328.701 198.816 329.354C198.209 330.007 197.318 330.511 196.142 330.866C194.975 331.221 193.538 331.398 191.83 331.398C189.347 331.398 187.439 331.039 186.104 330.32C184.769 329.611 184.102 328.645 184.102 327.422C184.102 327.077 184.144 326.764 184.228 326.484C184.312 326.204 184.415 325.971 184.536 325.784L187.91 326.274C187.854 326.349 187.798 326.465 187.742 326.624C187.686 326.792 187.658 326.993 187.658 327.226C187.658 327.805 188.045 328.22 188.82 328.472C189.604 328.733 190.645 328.864 191.942 328.864C192.894 328.864 193.687 328.799 194.322 328.668C194.966 328.537 195.451 328.351 195.778 328.108C196.114 327.865 196.282 327.581 196.282 327.254C196.282 326.769 196.063 326.456 195.624 326.316C195.185 326.176 194.663 326.083 194.056 326.036L188.414 325.518C187.406 325.415 186.575 325.117 185.922 324.622C185.278 324.127 184.956 323.474 184.956 322.662C184.956 322.167 185.087 321.71 185.348 321.29C185.619 320.87 185.927 320.52 186.272 320.24C186.617 319.951 186.911 319.773 187.154 319.708L189.254 320.744C189.058 320.772 188.825 320.898 188.554 321.122C188.293 321.346 188.162 321.612 188.162 321.92C188.162 322.209 188.293 322.452 188.554 322.648C188.815 322.835 189.319 322.965 190.066 323.04L195.302 323.53ZM196.968 310.132H200.272L198.928 315.9C198.676 316.983 198.27 317.953 197.71 318.812C197.15 319.671 196.403 320.347 195.47 320.842C194.537 321.337 193.361 321.584 191.942 321.584C190.467 321.584 189.193 321.346 188.12 320.87C187.056 320.385 186.235 319.708 185.656 318.84C185.077 317.963 184.788 316.955 184.788 315.816C184.788 314.649 185.082 313.623 185.67 312.736C186.267 311.84 187.084 311.14 188.12 310.636C189.165 310.132 190.346 309.88 191.662 309.88C192.726 309.88 193.683 310.057 194.532 310.412C195.381 310.757 196.058 311.21 196.562 311.77C197.075 312.33 197.351 312.927 197.388 313.562L196.562 313.716L196.968 310.132ZM191.928 318.742C192.647 318.742 193.267 318.625 193.79 318.392C194.313 318.159 194.719 317.823 195.008 317.384C195.297 316.936 195.442 316.395 195.442 315.76C195.442 315.135 195.297 314.598 195.008 314.15C194.719 313.702 194.313 313.361 193.79 313.128C193.267 312.885 192.651 312.764 191.942 312.764C191.251 312.764 190.64 312.885 190.108 313.128C189.576 313.371 189.156 313.721 188.848 314.178C188.549 314.626 188.4 315.163 188.4 315.788C188.4 316.413 188.545 316.95 188.834 317.398C189.133 317.837 189.543 318.173 190.066 318.406C190.598 318.63 191.219 318.742 191.928 318.742ZM202.962 318.756V316.138H213.364L212.944 316.838C212.944 316.782 212.944 316.721 212.944 316.656C212.944 316.581 212.944 316.521 212.944 316.474C212.944 315.83 212.799 315.228 212.51 314.668C212.221 314.099 211.782 313.641 211.194 313.296C210.606 312.941 209.859 312.764 208.954 312.764C208.058 312.764 207.279 312.955 206.616 313.338C205.963 313.711 205.454 314.253 205.09 314.962C204.735 315.671 204.558 316.521 204.558 317.51C204.558 318.527 204.731 319.405 205.076 320.142C205.421 320.87 205.925 321.43 206.588 321.822C207.26 322.205 208.077 322.396 209.038 322.396C209.691 322.396 210.256 322.335 210.732 322.214C211.208 322.093 211.595 321.929 211.894 321.724C212.202 321.509 212.431 321.281 212.58 321.038C212.739 320.795 212.832 320.553 212.86 320.31H216.528C216.472 320.935 216.262 321.547 215.898 322.144C215.543 322.732 215.044 323.269 214.4 323.754C213.756 324.23 212.972 324.613 212.048 324.902C211.133 325.182 210.088 325.322 208.912 325.322C207.316 325.322 205.921 324.995 204.726 324.342C203.531 323.689 202.598 322.779 201.926 321.612C201.263 320.445 200.932 319.111 200.932 317.608C200.932 316.068 201.268 314.719 201.94 313.562C202.621 312.405 203.564 311.504 204.768 310.86C205.972 310.207 207.353 309.88 208.912 309.88C210.517 309.88 211.903 310.207 213.07 310.86C214.246 311.513 215.151 312.423 215.786 313.59C216.421 314.747 216.738 316.096 216.738 317.636C216.738 317.832 216.733 318.042 216.724 318.266C216.715 318.49 216.701 318.653 216.682 318.756H202.962ZM225.219 325.308C224.333 325.308 223.488 325.21 222.685 325.014C221.892 324.818 221.183 324.524 220.557 324.132C219.941 323.74 219.451 323.255 219.087 322.676C218.733 322.088 218.555 321.411 218.555 320.646C218.555 320.59 218.555 320.534 218.555 320.478C218.555 320.422 218.555 320.371 218.555 320.324H222.223C222.223 320.371 222.223 320.413 222.223 320.45C222.223 320.478 222.223 320.52 222.223 320.576C222.223 321.183 222.499 321.64 223.049 321.948C223.609 322.247 224.37 322.396 225.331 322.396C225.854 322.396 226.344 322.34 226.801 322.228C227.268 322.116 227.641 321.943 227.921 321.71C228.211 321.477 228.355 321.178 228.355 320.814C228.355 320.226 228.052 319.806 227.445 319.554C226.848 319.302 225.905 319.073 224.617 318.868C223.908 318.747 223.208 318.583 222.517 318.378C221.827 318.173 221.197 317.897 220.627 317.552C220.067 317.207 219.615 316.777 219.269 316.264C218.933 315.751 218.765 315.125 218.765 314.388C218.765 313.408 219.055 312.587 219.633 311.924C220.221 311.252 221.005 310.743 221.985 310.398C222.975 310.053 224.062 309.88 225.247 309.88C226.386 309.88 227.445 310.067 228.425 310.44C229.405 310.813 230.194 311.35 230.791 312.05C231.398 312.75 231.701 313.595 231.701 314.584C231.701 314.621 231.701 314.663 231.701 314.71C231.701 314.747 231.701 314.78 231.701 314.808H228.061C228.061 314.78 228.061 314.752 228.061 314.724C228.061 314.696 228.061 314.663 228.061 314.626C228.061 314.197 227.926 313.847 227.655 313.576C227.385 313.305 227.035 313.105 226.605 312.974C226.176 312.843 225.723 312.778 225.247 312.778C224.827 312.778 224.393 312.825 223.945 312.918C223.497 313.002 223.124 313.156 222.825 313.38C222.527 313.595 222.377 313.898 222.377 314.29C222.377 314.663 222.531 314.967 222.839 315.2C223.147 315.433 223.577 315.629 224.127 315.788C224.678 315.937 225.313 316.073 226.031 316.194C226.713 316.306 227.399 316.46 228.089 316.656C228.789 316.852 229.429 317.113 230.007 317.44C230.586 317.767 231.053 318.196 231.407 318.728C231.771 319.251 231.953 319.899 231.953 320.674C231.953 321.495 231.767 322.195 231.393 322.774C231.02 323.353 230.511 323.833 229.867 324.216C229.233 324.589 228.514 324.865 227.711 325.042C226.909 325.219 226.078 325.308 225.219 325.308ZM245.169 325.07L239.905 304.35H243.979L248.011 322.648H247.829L251.819 304.35H255.893L250.671 325.07H245.169ZM257.987 325V310.132H261.627V325H257.987ZM259.821 307.388C259.224 307.388 258.701 307.229 258.253 306.912C257.814 306.585 257.595 306.133 257.595 305.554C257.595 304.985 257.814 304.541 258.253 304.224C258.701 303.907 259.224 303.748 259.821 303.748C260.409 303.748 260.922 303.907 261.361 304.224C261.8 304.541 262.019 304.985 262.019 305.554C262.019 306.133 261.8 306.585 261.361 306.912C260.922 307.229 260.409 307.388 259.821 307.388ZM266.088 318.756V316.138H276.49L276.07 316.838C276.07 316.782 276.07 316.721 276.07 316.656C276.07 316.581 276.07 316.521 276.07 316.474C276.07 315.83 275.925 315.228 275.636 314.668C275.346 314.099 274.908 313.641 274.32 313.296C273.732 312.941 272.985 312.764 272.08 312.764C271.184 312.764 270.404 312.955 269.742 313.338C269.088 313.711 268.58 314.253 268.216 314.962C267.861 315.671 267.684 316.521 267.684 317.51C267.684 318.527 267.856 319.405 268.202 320.142C268.547 320.87 269.051 321.43 269.714 321.822C270.386 322.205 271.202 322.396 272.164 322.396C272.817 322.396 273.382 322.335 273.858 322.214C274.334 322.093 274.721 321.929 275.02 321.724C275.328 321.509 275.556 321.281 275.706 321.038C275.864 320.795 275.958 320.553 275.986 320.31H279.654C279.598 320.935 279.388 321.547 279.024 322.144C278.669 322.732 278.17 323.269 277.526 323.754C276.882 324.23 276.098 324.613 275.174 324.902C274.259 325.182 273.214 325.322 272.038 325.322C270.442 325.322 269.046 324.995 267.852 324.342C266.657 323.689 265.724 322.779 265.052 321.612C264.389 320.445 264.058 319.111 264.058 317.608C264.058 316.068 264.394 314.719 265.066 313.562C265.747 312.405 266.69 311.504 267.894 310.86C269.098 310.207 270.479 309.88 272.038 309.88C273.643 309.88 275.029 310.207 276.196 310.86C277.372 311.513 278.277 312.423 278.912 313.59C279.546 314.747 279.864 316.096 279.864 317.636C279.864 317.832 279.859 318.042 279.85 318.266C279.84 318.49 279.826 318.653 279.808 318.756H266.088ZM293.995 325L290.537 310.132H293.351L296.725 323.838H296.123L298.279 310.132H302.101L299.049 325H293.995ZM283.747 325L280.681 310.132H284.503L286.673 323.838H286.071L289.417 310.132H292.231L288.829 325H283.747ZM305.136 318.756V316.138H315.538L315.118 316.838C315.118 316.782 315.118 316.721 315.118 316.656C315.118 316.581 315.118 316.521 315.118 316.474C315.118 315.83 314.973 315.228 314.684 314.668C314.394 314.099 313.956 313.641 313.368 313.296C312.78 312.941 312.033 312.764 311.128 312.764C310.232 312.764 309.452 312.955 308.79 313.338C308.136 313.711 307.628 314.253 307.264 314.962C306.909 315.671 306.732 316.521 306.732 317.51C306.732 318.527 306.904 319.405 307.25 320.142C307.595 320.87 308.099 321.43 308.762 321.822C309.434 322.205 310.25 322.396 311.212 322.396C311.865 322.396 312.43 322.335 312.906 322.214C313.382 322.093 313.769 321.929 314.068 321.724C314.376 321.509 314.604 321.281 314.754 321.038C314.912 320.795 315.006 320.553 315.034 320.31H318.702C318.646 320.935 318.436 321.547 318.072 322.144C317.717 322.732 317.218 323.269 316.574 323.754C315.93 324.23 315.146 324.613 314.222 324.902C313.307 325.182 312.262 325.322 311.086 325.322C309.49 325.322 308.094 324.995 306.9 324.342C305.705 323.689 304.772 322.779 304.1 321.612C303.437 320.445 303.106 319.111 303.106 317.608C303.106 316.068 303.442 314.719 304.114 313.562C304.795 312.405 305.738 311.504 306.942 310.86C308.146 310.207 309.527 309.88 311.086 309.88C312.691 309.88 314.077 310.207 315.244 310.86C316.42 311.513 317.325 312.423 317.96 313.59C318.594 314.747 318.912 316.096 318.912 317.636C318.912 317.832 318.907 318.042 318.898 318.266C318.888 318.49 318.874 318.653 318.856 318.756H305.136ZM327.561 325.308C326.339 325.308 325.205 325.014 324.159 324.426C323.123 323.829 322.293 322.951 321.667 321.794C321.042 320.637 320.729 319.213 320.729 317.524C320.729 315.881 321.047 314.491 321.681 313.352C322.325 312.213 323.165 311.35 324.201 310.762C325.247 310.174 326.367 309.88 327.561 309.88C328.728 309.88 329.806 310.169 330.795 310.748C331.785 311.317 332.578 312.111 333.175 313.128C333.773 314.145 334.071 315.312 334.071 316.628C334.071 316.665 334.071 316.703 334.071 316.74C334.071 316.777 334.071 316.815 334.071 316.852L332.251 316.894C332.251 316.866 332.251 316.838 332.251 316.81C332.251 316.773 332.251 316.74 332.251 316.712C332.251 315.975 332.065 315.331 331.691 314.78C331.327 314.229 330.851 313.8 330.263 313.492C329.685 313.175 329.069 313.016 328.415 313.016C327.342 313.016 326.427 313.38 325.671 314.108C324.915 314.827 324.537 315.965 324.537 317.524C324.537 319.073 324.915 320.217 325.671 320.954C326.427 321.691 327.342 322.06 328.415 322.06C329.097 322.06 329.727 321.897 330.305 321.57C330.884 321.243 331.351 320.795 331.705 320.226C332.069 319.647 332.251 318.985 332.251 318.238L334.071 318.322C334.071 319.629 333.777 320.814 333.189 321.878C332.611 322.933 331.831 323.768 330.851 324.384C329.871 325 328.775 325.308 327.561 325.308ZM332.251 325V303.118H335.947V325H332.251Z" fill="#3366CC"/>
<path d="M172.28 358.18H160.6L159.54 365.88C159.58 365.747 159.72 365.567 159.96 365.34C160.2 365.113 160.533 364.887 160.96 364.66C161.4 364.42 161.94 364.227 162.58 364.08C163.233 363.92 163.987 363.84 164.84 363.84C167.507 363.84 169.533 364.707 170.92 366.44C172.32 368.16 173.02 370.413 173.02 373.2C173.02 375.427 172.633 377.307 171.86 378.84C171.1 380.373 169.973 381.533 168.48 382.32C166.987 383.093 165.127 383.48 162.9 383.48C161.087 383.48 159.547 383.213 158.28 382.68C157.027 382.133 156.007 381.413 155.22 380.52C154.447 379.613 153.88 378.613 153.52 377.52C153.16 376.413 152.98 375.293 152.98 374.16C152.98 374.133 152.98 374.12 152.98 374.12C152.98 374.107 152.98 374.093 152.98 374.08H159.12C159.12 374.093 159.12 374.107 159.12 374.12C159.12 374.12 159.12 374.133 159.12 374.16C159.187 375.587 159.52 376.693 160.12 377.48C160.733 378.267 161.693 378.66 163 378.66C163.84 378.66 164.54 378.467 165.1 378.08C165.673 377.693 166.1 377.107 166.38 376.32C166.66 375.52 166.8 374.527 166.8 373.34C166.8 371.74 166.52 370.5 165.96 369.62C165.4 368.727 164.5 368.28 163.26 368.28C162.527 368.28 161.88 368.42 161.32 368.7C160.773 368.98 160.32 369.327 159.96 369.74C159.613 370.153 159.367 370.56 159.22 370.96L153.32 369.42L155.62 353.5H172.28V358.18ZM186.472 383.48C184.592 383.48 182.992 383.073 181.672 382.26C180.366 381.447 179.299 380.34 178.472 378.94C177.659 377.527 177.066 375.907 176.692 374.08C176.319 372.253 176.132 370.333 176.132 368.32C176.132 366.307 176.319 364.387 176.692 362.56C177.066 360.72 177.659 359.087 178.472 357.66C179.299 356.233 180.366 355.113 181.672 354.3C182.992 353.473 184.592 353.06 186.472 353.06C188.352 353.06 189.946 353.473 191.252 354.3C192.572 355.113 193.639 356.233 194.452 357.66C195.279 359.087 195.879 360.72 196.252 362.56C196.626 364.387 196.812 366.307 196.812 368.32C196.812 370.333 196.626 372.253 196.252 374.08C195.879 375.907 195.279 377.527 194.452 378.94C193.639 380.34 192.572 381.447 191.252 382.26C189.946 383.073 188.352 383.48 186.472 383.48ZM186.472 378.66C187.366 378.66 188.112 378.32 188.712 377.64C189.326 376.947 189.786 375.84 190.092 374.32C190.399 372.8 190.552 370.8 190.552 368.32C190.552 365.827 190.399 363.827 190.092 362.32C189.786 360.8 189.326 359.693 188.712 359C188.112 358.307 187.366 357.96 186.472 357.96C185.592 357.96 184.846 358.307 184.232 359C183.619 359.693 183.159 360.8 182.852 362.32C182.546 363.827 182.392 365.827 182.392 368.32C182.392 370.813 182.546 372.82 182.852 374.34C183.159 375.847 183.619 376.947 184.232 377.64C184.846 378.32 185.592 378.66 186.472 378.66ZM211.779 353.46V383H205.619V359.26C205.446 359.393 205.073 359.567 204.499 359.78C203.939 359.98 203.266 360.173 202.479 360.36C201.693 360.547 200.879 360.673 200.039 360.74V355.86C200.879 355.753 201.699 355.573 202.499 355.32C203.299 355.053 203.986 354.753 204.559 354.42C205.146 354.087 205.533 353.767 205.719 353.46H211.779ZM228.544 368.68L228.724 363.94L240.524 383H233.724L225.264 368.7L228.044 369.06L223.204 375.56L223.744 371.66V383H217.524V353.5H223.744V368.82L222.584 368.18L233.364 353.5H239.924L228.544 368.68Z" fill="#0A1429"/>
<circle cx="70" cy="346" r="45" fill="#F9FAFB"/>
<path d="M51.6667 346C51.6667 346 58.3333 332.667 70 332.667C81.6667 332.667 88.3333 346 88.3333 346C88.3333 346 81.6667 359.333 70 359.333C58.3333 359.333 51.6667 346 51.6667 346Z" stroke="#3366CC" stroke-width="2" stroke-linecap="round" stroke-linejoin="round"/>
<path d="M70 351C72.7614 351 75 348.761 75 346C75 343.239 72.7614 341 70 341C67.2386 341 65 343.239 65 346C65 348.761 67.2386 351 70 351Z" stroke="#3366CC" stroke-width="2" stroke-linecap="round" stroke-linejoin="round"/>
<defs>
<linearGradient id="paint0_linear_1_1965" x1="703.711" y1="62.0254" x2="711.678" y2="99.5084" gradientUnits="userSpaceOnUse">
<stop stop-color="#3366CC"/>
<stop offset="1" stop-color="#9DB6E7"/>
</linearGradient>
<linearGradient id="paint1_linear_1_1965" x1="699.509" y1="56.0897" x2="700.267" y2="59.6574" gradientUnits="userSpaceOnUse">
<stop stop-color="#3366CC"/>
<stop offset="1" stop-color="#9DB6E7"/>
</linearGradient>
<linearGradient id="paint2_linear_1_1965" x1="704.259" y1="58.0499" x2="706.534" y2="59.382" gradientUnits="userSpaceOnUse">
<stop stop-color="#3366CC"/>
<stop offset="1" stop-color="#9DB6E7"/>
</linearGradient>
<linearGradient id="paint3_linear_1_1965" x1="708.507" y1="61.7869" x2="709.291" y2="64.3041" gradientUnits="userSpaceOnUse">
<stop stop-color="#3366CC"/>
<stop offset="1" stop-color="#9DB6E7"/>
</linearGradient>
<linearGradient id="paint4_linear_1_1965" x1="693.639" y1="59.8365" x2="696.603" y2="61.9626" gradientUnits="userSpaceOnUse">
<stop stop-color="#3366CC"/>
<stop offset="1" stop-color="#9DB6E7"/>
</linearGradient>
<linearGradient id="paint5_linear_1_1965" x1="691.872" y1="66.4946" x2="695.494" y2="66.0699" gradientUnits="userSpaceOnUse">
<stop stop-color="#3366CC"/>
<stop offset="1" stop-color="#9DB6E7"/>
</linearGradient>
<clipPath id="clip0_1_1965">
<rect width="45" height="45" fill="white" transform="translate(680.314 60.1697) rotate(-12)"/>
</clipPath>
</defs>
</svg>
