<svg width="297" height="122" viewBox="0 0 297 122" fill="none" xmlns="http://www.w3.org/2000/svg">
<path d="M12.06 69.26V55.88H51.96L50.16 59C50.16 58.68 50.16 58.36 50.16 58.04C50.16 57.68 50.16 57.36 50.16 57.08C50.16 55.28 49.7 53.5 48.78 51.74C47.86 49.94 46.4 48.46 44.4 47.3C42.4 46.1 39.78 45.5 36.54 45.5C33.34 45.5 30.62 46.18 28.38 47.54C26.18 48.86 24.5 50.82 23.34 53.42C22.22 55.98 21.66 59.08 21.66 62.72C21.66 66.52 22.2 69.78 23.28 72.5C24.4 75.18 26.1 77.24 28.38 78.68C30.66 80.08 33.58 80.78 37.14 80.78C39.34 80.78 41.22 80.6 42.78 80.24C44.38 79.88 45.66 79.42 46.62 78.86C47.62 78.26 48.36 77.62 48.84 76.94C49.36 76.22 49.68 75.52 49.8 74.84H70.92C70.68 77.6 69.72 80.28 68.04 82.88C66.36 85.44 64.04 87.76 61.08 89.84C58.16 91.88 54.6 93.5 50.4 94.7C46.24 95.9 41.52 96.5 36.24 96.5C29 96.5 22.7 95.1 17.34 92.3C11.98 89.46 7.82 85.54 4.86 80.54C1.94 75.54 0.48 69.78 0.48 63.26C0.48 56.62 1.98 50.82 4.98 45.86C7.98 40.86 12.16 36.98 17.52 34.22C22.92 31.42 29.16 30.02 36.24 30.02C43.56 30.02 49.88 31.44 55.2 34.28C60.52 37.08 64.62 41.04 67.5 46.16C70.38 51.28 71.82 57.3 71.82 64.22C71.82 65.3 71.8 66.28 71.76 67.16C71.72 68.04 71.66 68.74 71.58 69.26H12.06ZM46.8 23.78H33.3L16.74 6.92H32.58L46.8 23.78ZM107.561 95V47.48H94.5413V31.28H107.561V28.16C107.561 23.48 108.221 19.52 109.541 16.28C110.861 13.04 112.621 10.38 114.821 8.3C117.021 6.22 119.441 4.6 122.081 3.44C124.761 2.28 127.461 1.48 130.181 1.03999C132.941 0.599997 135.501 0.379999 137.861 0.379999C140.741 0.379999 142.841 0.539997 144.161 0.859993C145.521 1.17999 146.441 1.43999 146.921 1.63999V17.96C146.441 17.8 145.581 17.62 144.341 17.42C143.101 17.18 141.761 17.06 140.321 17.06C138.121 17.06 136.281 17.34 134.801 17.9C133.321 18.42 132.161 19.2 131.321 20.24C130.481 21.28 129.861 22.52 129.461 23.96C129.101 25.36 128.921 26.94 128.921 28.7V31.28H145.541V47.48H128.921V95H107.561ZM147.116 95V31.28H168.296V95H147.116ZM168.416 23.78H154.916L138.356 6.92H154.196L168.416 23.78ZM220.386 1.22V95H199.326V1.22H220.386ZM236.333 69.26V55.88H276.233L274.433 59C274.433 58.68 274.433 58.36 274.433 58.04C274.433 57.68 274.433 57.36 274.433 57.08C274.433 55.28 273.973 53.5 273.053 51.74C272.133 49.94 270.673 48.46 268.673 47.3C266.673 46.1 264.053 45.5 260.813 45.5C257.613 45.5 254.893 46.18 252.653 47.54C250.453 48.86 248.773 50.82 247.613 53.42C246.493 55.98 245.933 59.08 245.933 62.72C245.933 66.52 246.473 69.78 247.553 72.5C248.673 75.18 250.373 77.24 252.653 78.68C254.933 80.08 257.853 80.78 261.413 80.78C263.613 80.78 265.493 80.6 267.053 80.24C268.653 79.88 269.933 79.42 270.893 78.86C271.893 78.26 272.633 77.62 273.113 76.94C273.633 76.22 273.953 75.52 274.073 74.84H295.193C294.953 77.6 293.993 80.28 292.313 82.88C290.633 85.44 288.313 87.76 285.353 89.84C282.433 91.88 278.873 93.5 274.673 94.7C270.513 95.9 265.793 96.5 260.513 96.5C253.273 96.5 246.973 95.1 241.613 92.3C236.253 89.46 232.093 85.54 229.133 80.54C226.213 75.54 224.753 69.78 224.753 63.26C224.753 56.62 226.253 50.82 229.253 45.86C232.253 40.86 236.433 36.98 241.793 34.22C247.193 31.42 253.433 30.02 260.513 30.02C267.833 30.02 274.153 31.44 279.473 34.28C284.793 37.08 288.893 41.04 291.773 46.16C294.653 51.28 296.093 57.3 296.093 64.22C296.093 65.3 296.073 66.28 296.033 67.16C295.993 68.04 295.933 68.74 295.853 69.26H236.333ZM261.173 121.04C257.973 121.04 255.173 120.2 252.773 118.52C250.373 116.84 249.173 114.44 249.173 111.32C249.173 108.24 250.373 105.86 252.773 104.18C255.173 102.5 257.973 101.66 261.173 101.66C264.413 101.66 267.233 102.5 269.633 104.18C272.033 105.86 273.233 108.26 273.233 111.38C273.233 114.5 272.013 116.88 269.573 118.52C267.173 120.2 264.373 121.04 261.173 121.04ZM265.138 24.36H251.638L235.078 7.5H250.918L265.138 24.36Z" fill="white"/>
</svg>
