<svg width="215" height="41" viewBox="0 0 215 41" fill="none" xmlns="http://www.w3.org/2000/svg">
<path d="M2.16 22.74V19.7H18.58L17.98 20.7C17.98 20.62 17.98 20.5467 17.98 20.48C17.98 20.4 17.98 20.3267 17.98 20.26C17.98 19.0333 17.72 17.9133 17.2 16.9C16.6933 15.8733 15.9333 15.0533 14.92 14.44C13.9067 13.8267 12.6533 13.52 11.16 13.52C9.65333 13.52 8.32667 13.84 7.18 14.48C6.03333 15.12 5.14 16.0267 4.5 17.2C3.86 18.36 3.54 19.7467 3.54 21.36C3.54 23 3.84667 24.4133 4.46 25.6C5.08667 26.7867 5.97333 27.7 7.12 28.34C8.26667 28.98 9.62667 29.3 11.2 29.3C12.32 29.3 13.2933 29.1867 14.12 28.96C14.9467 28.72 15.6267 28.4067 16.16 28.02C16.7067 27.62 17.12 27.1867 17.4 26.72C17.68 26.2533 17.8467 25.7867 17.9 25.32H21.3C21.2333 26.1733 20.9667 27.02 20.5 27.86C20.0333 28.7 19.3733 29.4667 18.52 30.16C17.6667 30.84 16.62 31.3867 15.38 31.8C14.14 32.2133 12.7133 32.42 11.1 32.42C8.96667 32.42 7.08667 31.9533 5.46 31.02C3.83333 30.0867 2.55333 28.7933 1.62 27.14C0.7 25.4867 0.24 23.5867 0.24 21.44C0.24 19.2667 0.706667 17.36 1.64 15.72C2.57333 14.0667 3.86 12.7733 5.5 11.84C7.14 10.9067 9.01333 10.44 11.12 10.44C13.2667 10.44 15.1267 10.9067 16.7 11.84C18.2733 12.7733 19.4867 14.0533 20.34 15.68C21.1933 17.2933 21.62 19.1333 21.62 21.2C21.62 21.4133 21.6133 21.6933 21.6 22.04C21.5867 22.3867 21.5667 22.62 21.54 22.74H2.16ZM13.32 7.36H10.54L5.38 2.5H8.52L13.32 7.36ZM30.2194 40.92C29.846 40.92 29.4994 40.9067 29.1794 40.88C28.8594 40.8533 28.606 40.82 28.4194 40.78V38.18C28.606 38.2333 28.866 38.28 29.1994 38.32C29.5194 38.36 29.8594 38.38 30.2194 38.38C31.1394 38.38 31.866 38.24 32.3994 37.96C32.9327 37.68 33.3194 37.3133 33.5594 36.86C33.8127 36.42 33.9727 35.9267 34.0394 35.38C34.1194 34.8467 34.1594 34.32 34.1594 33.8V10.76H37.5594V33.94C37.5594 34.82 37.4727 35.6733 37.2994 36.5C37.1394 37.3267 36.8127 38.0733 36.3194 38.74C35.826 39.4067 35.0927 39.9333 34.1194 40.32C33.146 40.72 31.846 40.92 30.2194 40.92ZM35.9394 5.88C35.3127 5.88 34.766 5.70667 34.2994 5.36C33.846 5 33.6194 4.51333 33.6194 3.9C33.6194 3.3 33.846 2.82667 34.2994 2.48C34.766 2.12 35.3127 1.94 35.9394 1.94C36.566 1.94 37.106 2.12 37.5594 2.48C38.0127 2.82667 38.2394 3.3 38.2394 3.9C38.2394 4.51333 38.0127 5 37.5594 5.36C37.106 5.70667 36.566 5.88 35.9394 5.88ZM43.4538 22.74V19.7H59.8738L59.2738 20.7C59.2738 20.62 59.2738 20.5467 59.2738 20.48C59.2738 20.4 59.2738 20.3267 59.2738 20.26C59.2738 19.0333 59.0138 17.9133 58.4938 16.9C57.9871 15.8733 57.2271 15.0533 56.2138 14.44C55.2004 13.8267 53.9471 13.52 52.4538 13.52C50.9471 13.52 49.6204 13.84 48.4738 14.48C47.3271 15.12 46.4338 16.0267 45.7938 17.2C45.1538 18.36 44.8338 19.7467 44.8338 21.36C44.8338 23 45.1404 24.4133 45.7538 25.6C46.3804 26.7867 47.2671 27.7 48.4138 28.34C49.5604 28.98 50.9204 29.3 52.4938 29.3C53.6138 29.3 54.5871 29.1867 55.4138 28.96C56.2404 28.72 56.9204 28.4067 57.4538 28.02C58.0004 27.62 58.4138 27.1867 58.6938 26.72C58.9738 26.2533 59.1404 25.7867 59.1938 25.32H62.5938C62.5271 26.1733 62.2604 27.02 61.7938 27.86C61.3271 28.7 60.6671 29.4667 59.8138 30.16C58.9604 30.84 57.9138 31.3867 56.6738 31.8C55.4338 32.2133 54.0071 32.42 52.3938 32.42C50.2604 32.42 48.3804 31.9533 46.7538 31.02C45.1271 30.0867 43.8471 28.7933 42.9138 27.14C41.9938 25.4867 41.5338 23.5867 41.5338 21.44C41.5338 19.2667 42.0004 17.36 42.9338 15.72C43.8671 14.0667 45.1538 12.7733 46.7938 11.84C48.4338 10.9067 50.3071 10.44 52.4138 10.44C54.5604 10.44 56.4204 10.9067 57.9938 11.84C59.5671 12.7733 60.7804 14.0533 61.6338 15.68C62.4871 17.2933 62.9138 19.1333 62.9138 21.2C62.9138 21.4133 62.9071 21.6933 62.8938 22.04C62.8804 22.3867 62.8604 22.62 62.8338 22.74H43.4538ZM52.4938 38.82C51.8804 38.82 51.3404 38.64 50.8738 38.28C50.4204 37.9333 50.1938 37.46 50.1938 36.86C50.1938 36.26 50.4204 35.78 50.8738 35.42C51.3404 35.0733 51.8804 34.9 52.4938 34.9C53.1071 34.9 53.6404 35.0733 54.0938 35.42C54.5604 35.78 54.7938 36.26 54.7938 36.86C54.7938 37.4733 54.5604 37.9533 54.0938 38.3C53.6404 38.6467 53.1071 38.82 52.4938 38.82ZM53.0212 7.36H50.2412L45.0812 2.5H48.2212L53.0212 7.36ZM73.4131 32V0.739998H76.6531V19.9L75.6731 19.46L85.8331 10.76H90.2331L80.0531 19.72L80.9531 17.98L90.3131 32H86.6531L78.7531 19.86L79.4531 20.26L76.1531 23.12L76.6531 21.5V32H73.4131ZM101.404 32.38C99.271 32.38 97.3844 31.9067 95.7444 30.96C94.1177 30 92.8377 28.6933 91.9044 27.04C90.9844 25.3733 90.5244 23.48 90.5244 21.36C90.5244 19.24 90.9844 17.36 91.9044 15.72C92.8377 14.08 94.1177 12.7933 95.7444 11.86C97.3844 10.9267 99.271 10.46 101.404 10.46C103.538 10.46 105.418 10.9267 107.044 11.86C108.684 12.7933 109.964 14.08 110.884 15.72C111.818 17.36 112.284 19.24 112.284 21.36C112.284 23.48 111.818 25.3733 110.884 27.04C109.964 28.6933 108.684 30 107.044 30.96C105.418 31.9067 103.538 32.38 101.404 32.38ZM101.404 29.26C102.871 29.26 104.164 28.9333 105.284 28.28C106.404 27.6267 107.278 26.7067 107.904 25.52C108.544 24.3333 108.864 22.9467 108.864 21.36C108.864 19.7733 108.544 18.4 107.904 17.24C107.278 16.0667 106.404 15.1667 105.284 14.54C104.164 13.9 102.871 13.58 101.404 13.58C99.951 13.58 98.6577 13.9 97.5244 14.54C96.4044 15.1667 95.5244 16.0667 94.8844 17.24C94.2577 18.4 93.9444 19.7733 93.9444 21.36C93.9444 22.9467 94.2577 24.3333 94.8844 25.52C95.5244 26.7067 96.4044 27.6267 97.5244 28.28C98.6577 28.9333 99.951 29.26 101.404 29.26ZM99.0644 7.36L103.844 2.5H106.984L101.824 7.36H99.0644ZM134.474 32.4C132.448 32.4 130.608 31.96 128.954 31.08C127.301 30.1867 125.988 28.9133 125.014 27.26C124.054 25.6067 123.574 23.64 123.574 21.36C123.574 19.08 124.054 17.1267 125.014 15.5C125.988 13.86 127.301 12.6067 128.954 11.74C130.608 10.8733 132.448 10.44 134.474 10.44C136.021 10.44 137.401 10.68 138.614 11.16C139.828 11.6267 140.854 12.2533 141.694 13.04C142.534 13.8267 143.174 14.6933 143.614 15.64C144.068 16.5733 144.294 17.5067 144.294 18.44C144.294 18.4533 144.294 18.4733 144.294 18.5C144.294 18.5267 144.294 18.5533 144.294 18.58H140.914C140.914 18.5133 140.908 18.44 140.894 18.36C140.881 18.2667 140.868 18.1733 140.854 18.08C140.748 17.1867 140.408 16.4067 139.834 15.74C139.261 15.06 138.514 14.5267 137.594 14.14C136.674 13.7533 135.628 13.56 134.454 13.56C133.134 13.56 131.908 13.8467 130.774 14.42C129.654 14.98 128.748 15.84 128.054 17C127.374 18.1467 127.034 19.6 127.034 21.36C127.034 23.1067 127.374 24.5667 128.054 25.74C128.734 26.9133 129.634 27.8 130.754 28.4C131.888 28.9867 133.121 29.28 134.454 29.28C135.894 29.28 137.081 29.0533 138.014 28.6C138.948 28.1467 139.648 27.5467 140.114 26.8C140.594 26.04 140.861 25.2267 140.914 24.36H144.294C144.294 25.32 144.081 26.28 143.654 27.24C143.228 28.1867 142.601 29.0533 141.774 29.84C140.948 30.6133 139.921 31.2333 138.694 31.7C137.481 32.1667 136.074 32.4 134.474 32.4ZM158.05 32.38C155.916 32.38 154.03 31.9067 152.39 30.96C150.763 30 149.483 28.6933 148.55 27.04C147.63 25.3733 147.17 23.48 147.17 21.36C147.17 19.24 147.63 17.36 148.55 15.72C149.483 14.08 150.763 12.7933 152.39 11.86C154.03 10.9267 155.916 10.46 158.05 10.46C160.183 10.46 162.063 10.9267 163.69 11.86C165.33 12.7933 166.61 14.08 167.53 15.72C168.463 17.36 168.93 19.24 168.93 21.36C168.93 23.48 168.463 25.3733 167.53 27.04C166.61 28.6933 165.33 30 163.69 30.96C162.063 31.9067 160.183 32.38 158.05 32.38ZM158.05 29.26C159.516 29.26 160.81 28.9333 161.93 28.28C163.05 27.6267 163.923 26.7067 164.55 25.52C165.19 24.3333 165.51 22.9467 165.51 21.36C165.51 19.7733 165.19 18.4 164.55 17.24C163.923 16.0667 163.05 15.1667 161.93 14.54C160.81 13.9 159.516 13.58 158.05 13.58C156.596 13.58 155.303 13.9 154.17 14.54C153.05 15.1667 152.17 16.0667 151.53 17.24C150.903 18.4 150.59 19.7733 150.59 21.36C150.59 22.9467 150.903 24.3333 151.53 25.52C152.17 26.7067 153.05 27.6267 154.17 28.28C155.303 28.9333 156.596 29.26 158.05 29.26ZM182.7 32.38C180.566 32.38 178.68 31.9067 177.04 30.96C175.413 30 174.133 28.6933 173.2 27.04C172.28 25.3733 171.82 23.48 171.82 21.36C171.82 19.24 172.28 17.36 173.2 15.72C174.133 14.08 175.413 12.7933 177.04 11.86C178.68 10.9267 180.566 10.46 182.7 10.46C184.833 10.46 186.713 10.9267 188.34 11.86C189.98 12.7933 191.26 14.08 192.18 15.72C193.113 17.36 193.58 19.24 193.58 21.36C193.58 23.48 193.113 25.3733 192.18 27.04C191.26 28.6933 189.98 30 188.34 30.96C186.713 31.9067 184.833 32.38 182.7 32.38ZM182.7 29.26C184.166 29.26 185.46 28.9333 186.58 28.28C187.7 27.6267 188.573 26.7067 189.2 25.52C189.84 24.3333 190.16 22.9467 190.16 21.36C190.16 19.7733 189.84 18.4 189.2 17.24C188.573 16.0667 187.7 15.1667 186.58 14.54C185.46 13.9 184.166 13.58 182.7 13.58C181.246 13.58 179.953 13.9 178.82 14.54C177.7 15.1667 176.82 16.0667 176.18 17.24C175.553 18.4 175.24 19.7733 175.24 21.36C175.24 22.9467 175.553 24.3333 176.18 25.52C176.82 26.7067 177.7 27.6267 178.82 28.28C179.953 28.9333 181.246 29.26 182.7 29.26ZM197.29 32V0.739998H200.53V19.9L199.55 19.46L209.71 10.76H214.11L203.93 19.72L204.83 17.98L214.19 32H210.53L202.63 19.86L203.33 20.26L200.03 23.12L200.53 21.5V32H197.29Z" fill="white"/>
</svg>
