<svg width="383" height="71" viewBox="0 0 383 71" fill="none" xmlns="http://www.w3.org/2000/svg">
<path d="M5.6918 39.39V32.845H31.6968L30.6468 34.595C30.6468 34.455 30.6468 34.3033 30.6468 34.14C30.6468 33.9533 30.6468 33.8017 30.6468 33.685C30.6468 32.075 30.2851 30.57 29.5618 29.17C28.8385 27.7467 27.7418 26.6033 26.2718 25.74C24.8018 24.8533 22.9351 24.41 20.6718 24.41C18.4318 24.41 16.4835 24.8883 14.8268 25.845C13.1935 26.7783 11.9218 28.1317 11.0118 29.905C10.1251 31.6783 9.6818 33.8017 9.6818 36.275C9.6818 38.8183 10.1135 41.0117 10.9768 42.855C11.8401 44.675 13.1001 46.075 14.7568 47.055C16.4368 48.0117 18.4785 48.49 20.8818 48.49C22.5151 48.49 23.9268 48.3383 25.1168 48.035C26.3068 47.7317 27.2751 47.3233 28.0218 46.81C28.7918 46.2733 29.3635 45.7017 29.7368 45.095C30.1335 44.4883 30.3668 43.8817 30.4368 43.275H39.6068C39.4668 44.8383 38.9418 46.3667 38.0318 47.86C37.1451 49.33 35.8968 50.6717 34.2868 51.885C32.6768 53.075 30.7168 54.0317 28.4068 54.755C26.1201 55.455 23.5068 55.805 20.5668 55.805C16.5768 55.805 13.0885 54.9883 10.1018 53.355C7.11513 51.7217 4.7818 49.4467 3.1018 46.53C1.44513 43.6133 0.6168 40.2767 0.6168 36.52C0.6168 32.67 1.4568 29.2983 3.1368 26.405C4.84013 23.5117 7.1968 21.26 10.2068 19.65C13.2168 18.0167 16.6701 17.2 20.5668 17.2C24.5801 17.2 28.0451 18.0167 30.9618 19.65C33.9018 21.2833 36.1651 23.5583 37.7518 26.475C39.3385 29.3683 40.1318 32.74 40.1318 36.59C40.1318 37.08 40.1201 37.605 40.0968 38.165C40.0735 38.725 40.0385 39.1333 39.9918 39.39H5.6918ZM25.5718 12.685H19.2018L9.8568 3.515H17.2068L25.5718 12.685ZM53.9858 70.855C53.3091 70.855 52.6675 70.8317 52.0608 70.785C51.4541 70.7617 50.9525 70.715 50.5558 70.645V63.785C50.9291 63.8783 51.4308 63.96 52.0608 64.03C52.6675 64.1 53.3091 64.135 53.9858 64.135C55.2925 64.135 56.3308 63.9483 57.1008 63.575C57.8708 63.2017 58.4425 62.7117 58.8158 62.105C59.2125 61.4983 59.4808 60.8333 59.6208 60.11C59.7608 59.41 59.8308 58.71 59.8308 58.01V17.83H69.0358V58.29C69.0358 59.83 68.8491 61.335 68.4758 62.805C68.1258 64.2983 67.4375 65.6517 66.4108 66.865C65.4075 68.0783 63.9025 69.0467 61.8958 69.77C59.9125 70.4933 57.2758 70.855 53.9858 70.855ZM64.5558 10.97C63.0625 10.97 61.7558 10.5733 60.6358 9.78C59.5391 8.96333 58.9908 7.83167 58.9908 6.385C58.9908 4.96166 59.5391 3.85333 60.6358 3.06C61.7558 2.26666 63.0625 1.87 64.5558 1.87C66.0491 1.87 67.3441 2.26666 68.4408 3.06C69.5375 3.85333 70.0858 4.96166 70.0858 6.385C70.0858 7.83167 69.5375 8.96333 68.4408 9.78C67.3441 10.5733 66.0491 10.97 64.5558 10.97ZM78.8445 39.39V32.845H104.85L103.8 34.595C103.8 34.455 103.8 34.3033 103.8 34.14C103.8 33.9533 103.8 33.8017 103.8 33.685C103.8 32.075 103.438 30.57 102.715 29.17C101.991 27.7467 100.895 26.6033 99.4245 25.74C97.9545 24.8533 96.0879 24.41 93.8245 24.41C91.5845 24.41 89.6362 24.8883 87.9795 25.845C86.3462 26.7783 85.0745 28.1317 84.1645 29.905C83.2779 31.6783 82.8345 33.8017 82.8345 36.275C82.8345 38.8183 83.2662 41.0117 84.1295 42.855C84.9929 44.675 86.2529 46.075 87.9095 47.055C89.5895 48.0117 91.6312 48.49 94.0345 48.49C95.6679 48.49 97.0795 48.3383 98.2695 48.035C99.4595 47.7317 100.428 47.3233 101.175 46.81C101.945 46.2733 102.516 45.7017 102.89 45.095C103.286 44.4883 103.52 43.8817 103.59 43.275H112.76C112.62 44.8383 112.095 46.3667 111.185 47.86C110.298 49.33 109.05 50.6717 107.44 51.885C105.83 53.075 103.87 54.0317 101.56 54.755C99.2729 55.455 96.6595 55.805 93.7195 55.805C89.7295 55.805 86.2412 54.9883 83.2545 53.355C80.2679 51.7217 77.9345 49.4467 76.2545 46.53C74.5979 43.6133 73.7695 40.2767 73.7695 36.52C73.7695 32.67 74.6095 29.2983 76.2895 26.405C77.9929 23.5117 80.3495 21.26 83.3595 19.65C86.3695 18.0167 89.8229 17.2 93.7195 17.2C97.7329 17.2 101.198 18.0167 104.115 19.65C107.055 21.2833 109.318 23.5583 110.905 26.475C112.491 29.3683 113.285 32.74 113.285 36.59C113.285 37.08 113.273 37.605 113.25 38.165C113.226 38.725 113.191 39.1333 113.145 39.39H78.8445ZM93.9995 68.545C92.5062 68.545 91.2112 68.1483 90.1145 67.355C89.0179 66.5617 88.4695 65.4533 88.4695 64.03C88.4695 62.5833 89.0179 61.4633 90.1145 60.67C91.2345 59.8767 92.5295 59.48 93.9995 59.48C95.4695 59.48 96.7529 59.8767 97.8495 60.67C98.9462 61.4633 99.4945 62.5833 99.4945 64.03C99.4945 65.4767 98.9462 66.585 97.8495 67.355C96.7529 68.1483 95.4695 68.545 93.9995 68.545ZM95.9158 12.545H89.5458L80.2008 3.375H87.5508L95.9158 12.545ZM129.974 55V0.294997H138.724V32.355L136.729 31.375L152.094 17.83H163.539L145.339 34.035L147.404 30.255L163.364 55H153.634L141.384 35.155L143.624 35.54L137.674 40.86L138.724 36.765V55H129.974ZM182.221 55.735C178.301 55.735 174.848 54.9183 171.861 53.285C168.874 51.6283 166.529 49.3417 164.826 46.425C163.146 43.5083 162.306 40.1717 162.306 36.415C162.306 32.635 163.146 29.31 164.826 26.44C166.529 23.5467 168.874 21.2833 171.861 19.65C174.848 18.0167 178.301 17.2 182.221 17.2C186.141 17.2 189.594 18.0167 192.581 19.65C195.568 21.2833 197.901 23.5467 199.581 26.44C201.284 29.31 202.136 32.635 202.136 36.415C202.136 40.1717 201.284 43.5083 199.581 46.425C197.901 49.3417 195.568 51.6283 192.581 53.285C189.594 54.9183 186.141 55.735 182.221 55.735ZM182.221 48.21C184.344 48.21 186.199 47.72 187.786 46.74C189.373 45.76 190.609 44.395 191.496 42.645C192.383 40.8717 192.826 38.795 192.826 36.415C192.826 34.035 192.383 31.9817 191.496 30.255C190.609 28.505 189.373 27.1517 187.786 26.195C186.199 25.2383 184.344 24.76 182.221 24.76C180.121 24.76 178.266 25.2383 176.656 26.195C175.069 27.1517 173.833 28.505 172.946 30.255C172.059 31.9817 171.616 34.035 171.616 36.415C171.616 38.795 172.059 40.8717 172.946 42.645C173.833 44.395 175.069 45.76 176.656 46.74C178.266 47.72 180.121 48.21 182.221 48.21ZM177.006 12.545L185.336 3.375H192.721L183.341 12.545H177.006ZM240.163 55.77C236.243 55.77 232.778 54.965 229.768 53.355C226.758 51.745 224.402 49.4817 222.698 46.565C220.995 43.6483 220.143 40.23 220.143 36.31C220.143 32.4133 220.995 29.03 222.698 26.16C224.402 23.29 226.758 21.085 229.768 19.545C232.778 17.9817 236.243 17.2 240.163 17.2C243.103 17.2 245.705 17.6317 247.968 18.495C250.232 19.3583 252.133 20.5133 253.673 21.96C255.237 23.3833 256.427 24.9583 257.243 26.685C258.06 28.3883 258.468 30.0917 258.468 31.795C258.468 31.8417 258.468 31.8883 258.468 31.935C258.468 31.9817 258.468 32.0283 258.468 32.075H249.333C249.333 31.9583 249.322 31.83 249.298 31.69C249.275 31.55 249.252 31.41 249.228 31.27C249.042 30.08 248.563 29.0067 247.793 28.05C247.023 27.07 245.997 26.2883 244.713 25.705C243.43 25.1217 241.878 24.83 240.058 24.83C238.122 24.83 236.348 25.2617 234.738 26.125C233.152 26.965 231.88 28.2367 230.923 29.94C229.99 31.6433 229.523 33.7667 229.523 36.31C229.523 38.83 229.99 40.9767 230.923 42.75C231.857 44.5 233.117 45.8417 234.703 46.775C236.313 47.685 238.098 48.14 240.058 48.14C242.135 48.14 243.827 47.825 245.133 47.195C246.463 46.5417 247.467 45.6783 248.143 44.605C248.82 43.5083 249.205 42.3183 249.298 41.035H258.468C258.468 42.7617 258.072 44.5 257.278 46.25C256.485 47.9767 255.318 49.5633 253.778 51.01C252.238 52.4567 250.325 53.6117 248.038 54.475C245.775 55.3383 243.15 55.77 240.163 55.77ZM281.555 55.735C277.635 55.735 274.182 54.9183 271.195 53.285C268.209 51.6283 265.864 49.3417 264.16 46.425C262.48 43.5083 261.64 40.1717 261.64 36.415C261.64 32.635 262.48 29.31 264.16 26.44C265.864 23.5467 268.209 21.2833 271.195 19.65C274.182 18.0167 277.635 17.2 281.555 17.2C285.475 17.2 288.929 18.0167 291.915 19.65C294.902 21.2833 297.235 23.5467 298.915 26.44C300.619 29.31 301.47 32.635 301.47 36.415C301.47 40.1717 300.619 43.5083 298.915 46.425C297.235 49.3417 294.902 51.6283 291.915 53.285C288.929 54.9183 285.475 55.735 281.555 55.735ZM281.555 48.21C283.679 48.21 285.534 47.72 287.12 46.74C288.707 45.76 289.944 44.395 290.83 42.645C291.717 40.8717 292.16 38.795 292.16 36.415C292.16 34.035 291.717 31.9817 290.83 30.255C289.944 28.505 288.707 27.1517 287.12 26.195C285.534 25.2383 283.679 24.76 281.555 24.76C279.455 24.76 277.6 25.2383 275.99 26.195C274.404 27.1517 273.167 28.505 272.28 30.255C271.394 31.9817 270.95 34.035 270.95 36.415C270.95 38.795 271.394 40.8717 272.28 42.645C273.167 44.395 274.404 45.76 275.99 46.74C277.6 47.72 279.455 48.21 281.555 48.21ZM324.556 55.735C320.636 55.735 317.183 54.9183 314.196 53.285C311.209 51.6283 308.864 49.3417 307.161 46.425C305.481 43.5083 304.641 40.1717 304.641 36.415C304.641 32.635 305.481 29.31 307.161 26.44C308.864 23.5467 311.209 21.2833 314.196 19.65C317.183 18.0167 320.636 17.2 324.556 17.2C328.476 17.2 331.929 18.0167 334.916 19.65C337.903 21.2833 340.236 23.5467 341.916 26.44C343.619 29.31 344.471 32.635 344.471 36.415C344.471 40.1717 343.619 43.5083 341.916 46.425C340.236 49.3417 337.903 51.6283 334.916 53.285C331.929 54.9183 328.476 55.735 324.556 55.735ZM324.556 48.21C326.679 48.21 328.534 47.72 330.121 46.74C331.708 45.76 332.944 44.395 333.831 42.645C334.718 40.8717 335.161 38.795 335.161 36.415C335.161 34.035 334.718 31.9817 333.831 30.255C332.944 28.505 331.708 27.1517 330.121 26.195C328.534 25.2383 326.679 24.76 324.556 24.76C322.456 24.76 320.601 25.2383 318.991 26.195C317.404 27.1517 316.168 28.505 315.281 30.255C314.394 31.9817 313.951 34.035 313.951 36.415C313.951 38.795 314.394 40.8717 315.281 42.645C316.168 44.395 317.404 45.76 318.991 46.74C320.601 47.72 322.456 48.21 324.556 48.21ZM349.287 55V0.294997H358.037V32.355L356.042 31.375L371.407 17.83H382.852L364.652 34.035L366.717 30.255L382.677 55H372.947L360.697 35.155L362.937 35.54L356.987 40.86L358.037 36.765V55H349.287Z" fill="white"/>
</svg>
