<svg width="163" height="65" viewBox="0 0 163 65" fill="none" xmlns="http://www.w3.org/2000/svg">
<path d="M7.032 37.272V30.136H28.312L27.352 31.8C27.352 31.6293 27.352 31.4587 27.352 31.288C27.352 31.096 27.352 30.9253 27.352 30.776C27.352 29.816 27.1067 28.8667 26.616 27.928C26.1253 26.968 25.3467 26.1787 24.28 25.56C23.2133 24.92 21.816 24.6 20.088 24.6C18.3813 24.6 16.9307 24.9627 15.736 25.688C14.5627 26.392 13.6667 27.4373 13.048 28.824C12.4507 30.1893 12.152 31.8427 12.152 33.784C12.152 35.8107 12.44 37.5493 13.016 39C13.6133 40.4293 14.52 41.528 15.736 42.296C16.952 43.0427 18.5093 43.416 20.408 43.416C21.5813 43.416 22.584 43.32 23.416 43.128C24.2693 42.936 24.952 42.6907 25.464 42.392C25.9973 42.072 26.392 41.7307 26.648 41.368C26.9253 40.984 27.096 40.6107 27.16 40.248H38.424C38.296 41.72 37.784 43.1493 36.888 44.536C35.992 45.9013 34.7547 47.1387 33.176 48.248C31.6187 49.336 29.72 50.2 27.48 50.84C25.2613 51.48 22.744 51.8 19.928 51.8C16.0667 51.8 12.7067 51.0533 9.848 49.56C6.98933 48.0453 4.77067 45.9547 3.192 43.288C1.63467 40.6213 0.856 37.5493 0.856 34.072C0.856 30.5307 1.656 27.4373 3.256 24.792C4.856 22.1253 7.08533 20.056 9.944 18.584C12.824 17.0907 16.152 16.344 19.928 16.344C23.832 16.344 27.2027 17.1013 30.04 18.616C32.8773 20.1093 35.064 22.2213 36.6 24.952C38.136 27.6827 38.904 30.8933 38.904 34.584C38.904 35.16 38.8933 35.6827 38.872 36.152C38.8507 36.6213 38.8187 36.9947 38.776 37.272H7.032ZM25.56 13.016H18.36L9.528 4.024H17.976L25.56 13.016ZM59.246 51V25.656H52.302V17.016H59.246V15.352C59.246 12.856 59.598 10.744 60.302 9.016C61.006 7.288 61.9447 5.86933 63.118 4.76C64.2913 3.65066 65.582 2.78666 66.99 2.168C68.4193 1.54933 69.8593 1.12266 71.31 0.887997C72.782 0.653332 74.1473 0.535999 75.406 0.535999C76.942 0.535999 78.062 0.621332 78.766 0.791996C79.4913 0.962663 79.982 1.10133 80.238 1.208V9.912C79.982 9.82666 79.5233 9.73066 78.862 9.624C78.2007 9.496 77.486 9.432 76.718 9.432C75.5447 9.432 74.5633 9.58133 73.774 9.88C72.9847 10.1573 72.366 10.5733 71.918 11.128C71.47 11.6827 71.1393 12.344 70.926 13.112C70.734 13.8587 70.638 14.7013 70.638 15.64V17.016H79.502V25.656H70.638V51H59.246ZM80.982 51V17.016H92.278V51H80.982ZM92.342 13.016H85.142L76.31 4.024H84.758L92.342 13.016ZM121.339 0.983997V51H110.107V0.983997H121.339ZM130.484 37.272V30.136H151.765L150.805 31.8C150.805 31.6293 150.805 31.4587 150.805 31.288C150.805 31.096 150.805 30.9253 150.805 30.776C150.805 29.816 150.559 28.8667 150.069 27.928C149.578 26.968 148.799 26.1787 147.733 25.56C146.666 24.92 145.269 24.6 143.541 24.6C141.834 24.6 140.383 24.9627 139.188 25.688C138.015 26.392 137.119 27.4373 136.5 28.824C135.903 30.1893 135.604 31.8427 135.604 33.784C135.604 35.8107 135.892 37.5493 136.469 39C137.066 40.4293 137.972 41.528 139.188 42.296C140.405 43.0427 141.962 43.416 143.861 43.416C145.034 43.416 146.037 43.32 146.868 43.128C147.722 42.936 148.405 42.6907 148.917 42.392C149.45 42.072 149.845 41.7307 150.101 41.368C150.378 40.984 150.549 40.6107 150.613 40.248H161.877C161.749 41.72 161.237 43.1493 160.34 44.536C159.445 45.9013 158.207 47.1387 156.629 48.248C155.071 49.336 153.173 50.2 150.933 50.84C148.714 51.48 146.197 51.8 143.381 51.8C139.519 51.8 136.159 51.0533 133.3 49.56C130.442 48.0453 128.223 45.9547 126.644 43.288C125.087 40.6213 124.308 37.5493 124.308 34.072C124.308 30.5307 125.108 27.4373 126.708 24.792C128.308 22.1253 130.538 20.056 133.396 18.584C136.277 17.0907 139.605 16.344 143.381 16.344C147.285 16.344 150.655 17.1013 153.493 18.616C156.33 20.1093 158.517 22.2213 160.053 24.952C161.589 27.6827 162.357 30.8933 162.357 34.584C162.357 35.16 162.346 35.6827 162.325 36.152C162.303 36.6213 162.271 36.9947 162.229 37.272H130.484ZM143.733 64.888C142.026 64.888 140.533 64.44 139.253 63.544C137.973 62.648 137.333 61.368 137.333 59.704C137.333 58.0613 137.973 56.792 139.253 55.896C140.533 55 142.026 54.552 143.733 54.552C145.461 54.552 146.965 55 148.245 55.896C149.525 56.792 150.165 58.072 150.165 59.736C150.165 61.4 149.514 62.6693 148.213 63.544C146.933 64.44 145.439 64.888 143.733 64.888ZM146.487 13.792H139.287L130.455 4.8H138.903L146.487 13.792Z" fill="white"/>
</svg>
