<svg width="48" height="48" viewBox="0 0 48 48" fill="none" xmlns="http://www.w3.org/2000/svg">
<path d="M37.6875 36.1885C37.1691 36.1885 36.7509 36.6059 36.7509 37.125C36.7509 37.5749 37.0664 37.9551 37.5 38.0427C38.0798 38.1598 38.6241 37.7221 38.6241 37.125C38.6241 36.6066 38.2067 36.1885 37.6875 36.1885Z" fill="white"/>
<path d="M46.125 17.5988V0.9375C46.125 0.419813 45.7052 0 45.1875 0H10.3125C9.79481 0 9.375 0.419813 9.375 0.9375V3.75H6.5625C6.04481 3.75 5.625 4.16981 5.625 4.6875V7.5H2.8125C2.29481 7.5 1.875 7.91981 1.875 8.4375V17.5988C0.783844 17.9858 0 19.0279 0 20.25V45.1875C0 46.7383 1.26169 48 2.8125 48H45.1875C46.7383 48 48 46.7383 48 45.1875V20.25C48 19.0279 47.2162 17.9858 46.125 17.5988ZM11.25 1.875H44.25V17.4375H42.375V4.6875C42.375 4.16981 41.9552 3.75 41.4375 3.75H11.25V1.875ZM7.5 5.625H40.5V17.4375H38.625V8.4375C38.625 7.91981 38.2052 7.5 37.6875 7.5H7.5V5.625ZM3.75 9.375H36.75V17.4375H23.0625V16.5C23.0625 14.9492 21.8008 13.6875 20.25 13.6875H8.4375C6.88669 13.6875 5.625 14.9492 5.625 16.5V17.4375H3.75V9.375ZM46.125 45.1875C46.125 45.7044 45.7044 46.125 45.1875 46.125H2.8125C2.29556 46.125 1.875 45.7044 1.875 45.1875V20.25C1.875 19.7331 2.29556 19.3125 2.8125 19.3125H6.5625C7.08019 19.3125 7.5 18.8927 7.5 18.375V16.5C7.5 15.9831 7.92056 15.5625 8.4375 15.5625H20.25C20.7669 15.5625 21.1875 15.9831 21.1875 16.5V18.375C21.1875 18.8927 21.6073 19.3125 22.125 19.3125C22.8101 19.3125 44.5052 19.3125 45.1875 19.3125C45.7044 19.3125 46.125 19.7331 46.125 20.25V45.1875Z" fill="white"/>
<path d="M41.4375 32.4375H20.25C19.7323 32.4375 19.3125 32.8573 19.3125 33.375V40.875C19.3125 41.3927 19.7323 41.8125 20.25 41.8125H41.4375C41.9552 41.8125 42.375 41.3927 42.375 40.875V33.375C42.375 32.8573 41.9552 32.4375 41.4375 32.4375ZM40.5 39.9375H21.1875V34.3125H40.5V39.9375Z" fill="white"/>
<path d="M33.9375 36.1875H24C23.4823 36.1875 23.0625 36.6073 23.0625 37.125C23.0625 37.6427 23.4823 38.0625 24 38.0625H33.9375C34.4552 38.0625 34.875 37.6427 34.875 37.125C34.875 36.6073 34.4552 36.1875 33.9375 36.1875Z" fill="white"/>
</svg>
