<svg width="44" height="44" viewBox="0 0 44 44" fill="none" xmlns="http://www.w3.org/2000/svg">
<circle cx="22" cy="22" r="22" fill="#F4F6FC"/>
<path d="M22.4902 11.8633C16.4526 11.8608 11.5625 16.7485 11.5625 22.7813C11.5625 27.5518 14.6216 31.6069 18.8818 33.0962C19.4556 33.2402 19.3677 32.8325 19.3677 32.5542V30.6621C16.0547 31.0503 15.9204 28.8579 15.6982 28.4917C15.249 27.7251 14.187 27.5298 14.5044 27.1636C15.2588 26.7754 16.0278 27.2612 16.9189 28.5772C17.5635 29.5317 18.8208 29.3706 19.458 29.2119C19.5972 28.6382 19.895 28.1255 20.3052 27.7275C16.8726 27.1123 15.4419 25.0176 15.4419 22.5273C15.4419 21.3188 15.8398 20.208 16.6211 19.312C16.123 17.835 16.6675 16.5703 16.7407 16.3823C18.1592 16.2554 19.6338 17.398 19.7485 17.4883C20.5542 17.271 21.4746 17.1563 22.5049 17.1563C23.54 17.1563 24.4629 17.2759 25.2759 17.4956C25.5518 17.2856 26.9189 16.3042 28.2373 16.4238C28.3081 16.6118 28.8403 17.8472 28.3716 19.3047C29.1626 20.2031 29.5654 21.3237 29.5654 22.5347C29.5654 25.0298 28.125 27.127 24.6826 27.7324C24.9775 28.0224 25.2116 28.3682 25.3713 28.7497C25.531 29.1311 25.6131 29.5406 25.6128 29.9541V32.7007C25.6323 32.9204 25.6128 33.1377 25.979 33.1377C30.3027 31.6802 33.4155 27.5957 33.4155 22.7837C33.4155 16.7485 28.5229 11.8633 22.4902 11.8633Z" fill="#0A1429"/>
</svg>
