<svg width="48" height="48" viewBox="0 0 48 48" fill="none" xmlns="http://www.w3.org/2000/svg">
<path d="M24.7188 43.4547H23.0991C22.7567 42.2645 21.8099 41.3283 20.6132 41.0014V36.2805C20.6132 35.7627 20.1934 35.343 19.6757 35.343C19.158 35.343 18.7382 35.7627 18.7382 36.2805V41.0014C17.2274 41.4141 16.1133 42.7978 16.1133 44.4376C16.1133 46.4019 17.7113 47.9999 19.6756 47.9999C21.3319 47.9999 22.7278 46.8636 23.1248 45.3296H24.7184C25.2361 45.3296 25.6559 44.9098 25.6559 44.3921C25.6561 43.8745 25.2364 43.4547 24.7188 43.4547ZM19.6758 46.1251C18.7454 46.1251 17.9884 45.3681 17.9884 44.4377C17.9884 43.5073 18.7454 42.7503 19.6758 42.7503C20.6062 42.7503 21.3632 43.5073 21.3632 44.4377C21.3632 45.3681 20.6062 46.1251 19.6758 46.1251Z" fill="#3366CC"/>
<path d="M13.2505 43.4548H0.938629C0.420942 43.4548 0.00112915 43.8746 0.00112915 44.3923C0.00112915 44.9101 0.420942 45.3298 0.938629 45.3298H13.2505C13.7682 45.3298 14.188 44.9101 14.188 44.3923C14.1879 43.8746 13.7681 43.4548 13.2505 43.4548Z" fill="#3366CC"/>
<path d="M31.6752 3.18726C30.1245 3.18726 28.8628 4.44885 28.8628 5.99966C28.8628 7.55047 30.1244 8.81207 31.6752 8.81207C33.2259 8.81207 34.4876 7.55047 34.4876 5.99966C34.4876 4.44885 33.2259 3.18726 31.6752 3.18726ZM31.6752 6.93707C31.1583 6.93707 30.7377 6.51651 30.7377 5.99957C30.7377 5.48263 31.1583 5.06207 31.6752 5.06207C32.1922 5.06207 32.6127 5.48263 32.6127 5.99957C32.6127 6.51651 32.1921 6.93707 31.6752 6.93707Z" fill="#3366CC"/>
<path d="M17.8321 5.06226H6.01894C5.50125 5.06226 5.08144 5.48197 5.08144 5.99976C5.08144 6.51754 5.50125 6.93726 6.01894 6.93726H17.8321C18.3498 6.93726 18.7696 6.51754 18.7696 5.99976C18.7696 5.48197 18.3498 5.06226 17.8321 5.06226Z" fill="#3366CC"/>
<path d="M26.3848 5.33719C26.2105 5.16291 25.9695 5.0625 25.7221 5.0625C25.4755 5.0625 25.2337 5.16281 25.0593 5.33719C24.8849 5.51156 24.7846 5.7525 24.7846 6C24.7846 6.24656 24.8848 6.48844 25.0593 6.66281C25.2337 6.83719 25.4755 6.9375 25.7221 6.9375C25.9687 6.9375 26.2105 6.83719 26.3848 6.66281C26.5592 6.48844 26.6596 6.24656 26.6596 6C26.6596 5.7525 26.5593 5.51063 26.3848 5.33719Z" fill="#3366CC"/>
<path d="M22.4325 5.33719C22.2573 5.16197 22.0154 5.0625 21.7698 5.0625C21.5232 5.0625 21.2813 5.16188 21.107 5.33719C20.9317 5.51156 20.8323 5.7525 20.8323 6C20.8323 6.24656 20.9317 6.48844 21.107 6.66281C21.2813 6.83719 21.5223 6.9375 21.7698 6.9375C22.0163 6.9375 22.2573 6.83719 22.4325 6.66281C22.6069 6.48844 22.7063 6.24656 22.7063 6C22.7063 5.7525 22.6069 5.51156 22.4325 5.33719Z" fill="#3366CC"/>
<path d="M31.6752 13.6868C30.1245 13.6868 28.8628 14.9484 28.8628 16.4992C28.8628 18.05 30.1244 19.3116 31.6752 19.3116C33.2259 19.3116 34.4876 18.05 34.4876 16.4992C34.4876 14.9484 33.2259 13.6868 31.6752 13.6868ZM31.6752 17.4366C31.1583 17.4366 30.7377 17.016 30.7377 16.4991C30.7377 15.9821 31.1583 15.5616 31.6752 15.5616C32.1922 15.5616 32.6127 15.9821 32.6127 16.4991C32.6127 17.016 32.1921 17.4366 31.6752 17.4366Z" fill="#3366CC"/>
<path d="M17.8321 15.5618H6.01894C5.50125 15.5618 5.08144 15.9815 5.08144 16.4993C5.08144 17.017 5.50125 17.4368 6.01894 17.4368H17.8321C18.3498 17.4368 18.7696 17.017 18.7696 16.4993C18.7696 15.9815 18.3498 15.5618 17.8321 15.5618Z" fill="#3366CC"/>
<path d="M26.3848 15.8367C26.2105 15.6624 25.9695 15.562 25.7221 15.562C25.4755 15.562 25.2337 15.6623 25.0593 15.8367C24.8849 16.0111 24.7846 16.2529 24.7846 16.4995C24.7846 16.7461 24.8848 16.9879 25.0593 17.1623C25.2346 17.3367 25.4755 17.437 25.7221 17.437C25.9687 17.437 26.2105 17.3367 26.3848 17.1623C26.5592 16.9879 26.6596 16.7461 26.6596 16.4995C26.6596 16.252 26.5593 16.0111 26.3848 15.8367Z" fill="#3366CC"/>
<path d="M22.4325 15.8367C22.2573 15.6615 22.0163 15.562 21.7698 15.562C21.5222 15.562 21.2813 15.6614 21.107 15.8367C20.9317 16.0111 20.8323 16.252 20.8323 16.4995C20.8323 16.7461 20.9317 16.9879 21.107 17.1623C21.2813 17.3367 21.5223 17.437 21.7698 17.437C22.0163 17.437 22.2573 17.3367 22.4325 17.1623C22.6069 16.9879 22.7063 16.7461 22.7063 16.4995C22.7063 16.252 22.6069 16.0111 22.4325 15.8367Z" fill="#3366CC"/>
<path d="M39.3743 16.6867C39.3743 14.4745 38.2067 12.5309 36.4561 11.4369C38.2067 10.343 39.3743 8.39934 39.3743 6.18722C39.3743 2.77556 36.5988 0 33.1871 0H6.18844C2.77678 0 0.0012207 2.77556 0.0012207 6.18722C0.0012207 8.39934 1.16888 10.343 2.91947 11.4369C1.16888 12.5309 0.0012207 14.4745 0.0012207 16.6867C0.0012207 18.8988 1.16888 20.8424 2.91947 21.9364C1.16897 23.0304 0.0012207 24.9741 0.0012207 27.1862C0.0012207 30.5978 2.77678 33.3734 6.18844 33.3734H24.7187C25.2364 33.3734 25.6562 32.9537 25.6562 32.4359C25.6562 31.9181 25.2364 31.4984 24.7187 31.4984H6.18835C3.81056 31.4984 1.87603 29.5639 1.87603 27.1861C1.87603 24.8083 3.81056 22.8738 6.18835 22.8738H33.187C34.2586 22.8738 35.2858 23.2693 36.0794 23.9875C36.4632 24.3349 37.056 24.3054 37.4034 23.9214C37.7509 23.5375 37.7213 22.9448 37.3374 22.5973C37.0628 22.3488 36.7683 22.1278 36.4584 21.9346C38.2078 20.8404 39.3743 18.8977 39.3743 16.6867ZM1.87613 6.18722C1.87613 3.80944 3.81066 1.87491 6.18844 1.87491H33.1871C35.5649 1.87491 37.4994 3.80944 37.4994 6.18722C37.4994 8.565 35.5649 10.4995 33.1871 10.4995H6.18835C3.81056 10.4995 1.87613 8.565 1.87613 6.18722ZM33.187 20.999H6.18835C3.81047 20.999 1.87603 19.0644 1.87603 16.6867C1.87603 14.3089 3.81056 12.3743 6.18835 12.3743H33.187C35.5648 12.3743 37.4993 14.3089 37.4993 16.6867C37.4993 19.0644 35.5648 20.999 33.187 20.999Z" fill="#3366CC"/>
<path d="M17.8321 26.0613H6.01894C5.50125 26.0613 5.08144 26.481 5.08144 26.9988C5.08144 27.5166 5.50125 27.9363 6.01894 27.9363H17.8321C18.3498 27.9363 18.7696 27.5166 18.7696 26.9988C18.7696 26.481 18.3498 26.0613 17.8321 26.0613Z" fill="#3366CC"/>
<path d="M26.3848 26.336C26.2105 26.1607 25.9687 26.0613 25.7221 26.0613C25.4755 26.0613 25.2337 26.1607 25.0593 26.336C24.8849 26.5103 24.7846 26.7522 24.7846 26.9988C24.7846 27.2453 24.8848 27.4863 25.0593 27.6616C25.2337 27.836 25.4755 27.9363 25.7221 27.9363C25.9687 27.9363 26.2105 27.836 26.3848 27.6616C26.5593 27.4872 26.6596 27.2453 26.6596 26.9988C26.6596 26.7513 26.5593 26.5103 26.3848 26.336Z" fill="#3366CC"/>
<path d="M22.4324 26.3362C22.2572 26.1609 22.0162 26.0615 21.7697 26.0615C21.5222 26.0614 21.2813 26.1609 21.1069 26.3362C20.9316 26.5106 20.8322 26.7515 20.8322 26.999C20.8322 27.2456 20.9316 27.4875 21.1069 27.6618C21.2812 27.8362 21.5231 27.9365 21.7697 27.9365C22.0153 27.9365 22.2572 27.8362 22.4324 27.6618C22.6068 27.4875 22.7062 27.2456 22.7062 26.999C22.7062 26.7515 22.6068 26.5106 22.4324 26.3362Z" fill="#3366CC"/>
<path d="M36.9368 31.1248C33.732 31.1248 31.1246 33.7321 31.1246 36.937C31.1246 40.1418 33.732 42.7492 36.9368 42.7492C40.1417 42.7492 42.7491 40.1418 42.7491 36.937C42.7491 33.732 40.1417 31.1248 36.9368 31.1248ZM36.9368 40.8743C34.7658 40.8743 32.9995 39.108 32.9995 36.937C32.9995 34.7659 34.7658 32.9997 36.9368 32.9997C39.1079 32.9997 40.8742 34.7659 40.8742 36.937C40.8742 39.108 39.1079 40.8743 36.9368 40.8743Z" fill="#3366CC"/>
<path d="M47.288 34.4827L45.9271 34.1437L45.2689 32.5556L45.991 31.3543C46.2128 30.9853 46.1547 30.5128 45.8504 30.2085L43.6654 28.0236C43.3609 27.7192 42.8884 27.6612 42.5195 27.8829L41.3183 28.6051L39.7303 27.9469L39.3912 26.5859C39.2873 26.1682 38.9121 25.875 38.4816 25.875H35.3922C34.9617 25.875 34.5865 26.1682 34.4826 26.5859L34.1435 27.9469L32.5554 28.6051L31.3543 27.8829C30.9855 27.6612 30.5128 27.7191 30.2084 28.0236L28.0234 30.2085C27.7191 30.5129 27.661 30.9855 27.8828 31.3543L28.6049 32.5556L27.9467 34.1437L26.5858 34.4827C26.1681 34.5867 25.8749 34.9619 25.8749 35.3924V38.4818C25.8749 38.9123 26.1681 39.2873 26.5858 39.3915L27.9467 39.7305L28.6049 41.3185L27.8828 42.5198C27.661 42.8888 27.7191 43.3613 28.0234 43.6657L30.2084 45.8506C30.5129 46.1551 30.9855 46.2128 31.3543 45.9912L32.5554 45.2691L34.1435 45.9273L34.4826 47.2883C34.5865 47.706 34.9617 47.9992 35.3922 47.9992H38.4816C38.9121 47.9992 39.2873 47.706 39.3912 47.2883L39.7303 45.9273L41.3183 45.2691L42.5195 45.9912C42.8884 46.2129 43.3611 46.1551 43.6654 45.8506L45.8504 43.6657C46.1547 43.3613 46.2128 42.8887 45.991 42.5198L45.2689 41.3185L45.9271 39.7305L47.288 39.3915C47.7057 39.2874 47.9989 38.9123 47.9989 38.4818V35.3924C47.9988 34.9618 47.7057 34.5867 47.288 34.4827ZM45.0154 38.0253C44.727 38.0972 44.4897 38.3015 44.3759 38.5761L43.3559 41.0374C43.2421 41.3121 43.2653 41.6244 43.4185 41.8793L44.0067 42.8578L42.8578 44.0067L41.8793 43.4184C41.6245 43.2653 41.312 43.2421 41.0374 43.3559L38.576 44.3758C38.3014 44.4896 38.097 44.7269 38.0252 45.0153L37.749 46.1239H36.1247L35.8485 45.0153C35.7767 44.7269 35.5723 44.4896 35.2977 44.3758L32.8363 43.3559C32.5613 43.242 32.2491 43.2653 31.9944 43.4184L31.0159 44.0067L29.867 42.8578L30.4552 41.8793C30.6084 41.6244 30.6316 41.3121 30.5178 41.0374L29.4978 38.5761C29.384 38.3015 29.1467 38.0972 28.8583 38.0253L27.7498 37.7491V36.1249L28.8583 35.8487C29.1467 35.7768 29.384 35.5725 29.4978 35.2979L30.5178 32.8366C30.6316 32.5619 30.6084 32.2495 30.4552 31.9947L29.867 31.0162L31.0159 29.8673L31.9944 30.4555C32.2493 30.6086 32.5618 30.632 32.8363 30.5181L35.2977 29.4982C35.5723 29.3843 35.7767 29.1471 35.8485 28.8587L36.1247 27.7501H37.7489L38.0251 28.8587C38.0969 29.1471 38.3013 29.3843 38.5759 29.4982L41.0373 30.5181C41.3122 30.6319 41.6244 30.6085 41.8792 30.4555L42.8577 29.8673L44.0066 31.0162L43.4184 31.9947C43.2652 32.2495 43.242 32.5619 43.3558 32.8366L44.3758 35.2979C44.4896 35.5725 44.7269 35.7768 45.0153 35.8487L46.1238 36.1249V37.7491H46.1239L45.0154 38.0253Z" fill="#3366CC"/>
</svg>
