<svg width="48" height="48" viewBox="0 0 48 48" fill="none" xmlns="http://www.w3.org/2000/svg">
<g clip-path="url(#clip0_1_1924)">
<path d="M47.746 0.83677C47.6975 0.538007 47.4633 0.303833 47.1646 0.255368C44.5764 -0.164513 41.9688 -0.0662692 39.4142 0.547569C38.5302 0.7599 38.8591 2.12697 39.7427 1.91474C41.9483 1.3848 44.1966 1.26856 46.4329 1.56844C47.1953 7.28113 45.1388 13.101 41.03 17.1248C42.1639 11.204 36.7987 5.83728 30.8766 6.97159C32.4816 5.36659 34.3057 4.03111 36.3732 3.08035C37.1991 2.70059 36.6116 1.42314 35.7856 1.8029C33.6614 2.77981 31.7462 4.11332 30.0931 5.76622L22.0123 13.8471L14.3643 12.8749C11.482 12.5088 8.53419 13.5163 6.47941 15.571L4.93057 17.1199C4.65599 17.3945 4.65608 17.8396 4.93057 18.1141L6.03656 19.2201C4.92466 20.4871 4.97228 22.4231 6.18102 23.6319C6.80977 24.2607 7.63575 24.5751 8.46164 24.5751C9.22265 24.5751 9.98329 24.3074 10.5901 23.7737L11.5975 24.781L11.1144 29.3124C11.0919 29.5237 11.1662 29.7337 11.3164 29.8841L18.1175 36.6852C18.2678 36.8353 18.4779 36.9098 18.6891 36.8871L23.2204 36.404L24.2279 37.4116C23.7102 38.0007 23.4267 38.7482 23.4267 39.5398C23.4267 40.4025 23.7626 41.2135 24.3724 41.8233C24.9816 42.4326 25.7916 42.7682 26.653 42.7682C27.4447 42.7682 28.1925 42.484 28.7815 41.9651L29.8872 43.0708C30.2187 43.3453 30.55 43.3453 30.8814 43.0708L32.4304 41.522C34.485 39.4673 35.4929 36.5197 35.1265 33.6373L34.1542 25.9891L42.2351 17.9084C46.6967 13.4468 48.7567 7.06496 47.746 0.83677ZM7.17546 22.6377C6.51541 21.9775 6.46929 20.9334 7.03494 20.2184L9.592 22.7755C8.87852 23.3425 7.83495 23.2972 7.17546 22.6377ZM26.6531 41.362C26.1672 41.362 25.7105 41.1726 25.3668 40.8288C25.0225 40.4846 24.833 40.0267 24.833 39.5396C24.833 39.124 24.9721 38.7304 25.2263 38.4098L27.7833 40.9667C27.4628 41.2224 27.0689 41.362 26.6531 41.362ZM28.2147 29.9887C27.572 30.6317 28.566 31.6257 29.209 30.9831L32.9022 27.2898L33.7316 33.8144C34.0436 36.2686 33.1856 38.7782 31.4363 40.5276L30.3845 41.5793L23.9772 35.1718C23.8269 35.0217 23.617 34.9475 23.4055 34.9699L18.8743 35.453L18.4295 35.0082L21.7202 31.7175C22.363 31.0746 21.3687 30.0804 20.7259 30.7231L17.4352 34.0138L13.9877 30.5663L28.593 15.9609C29.5424 15.0113 31.0873 15.0115 32.0368 15.9609C32.9694 16.8935 32.9716 18.4775 32.0367 19.412L23.3325 28.1165C22.6897 28.7594 23.6838 29.7534 24.3268 29.1108L33.0311 20.4064C34.5088 18.9287 34.5091 16.4445 33.0312 14.9665C31.5333 13.4687 29.0963 13.4688 27.5987 14.9665L12.9931 29.572L12.5483 29.1272L13.0314 24.5959C13.054 24.3846 12.9797 24.1745 12.8295 24.0241L6.42213 17.6168L7.47376 16.5651C9.22321 14.8157 11.7327 13.9576 14.1871 14.2697L20.7547 15.1046L17.0427 18.8167C16.3999 19.4596 17.3941 20.4538 18.037 19.8111L28.2367 9.61133C32.1033 6.79178 37.7791 8.57086 39.3667 13.0719C40.3813 15.9484 39.4348 18.7149 37.389 20.7705C34.3309 23.8432 31.2728 26.916 28.2147 29.9887Z" fill="#3366CC"/>
<path d="M0.706459 27.5881C0.886354 27.5881 1.06634 27.5195 1.20358 27.3823L2.9522 25.6336C3.595 24.9907 2.60075 23.9966 1.95795 24.6393L0.209333 26.3878C-0.208017 26.8053 0.116057 27.5881 0.706459 27.5881Z" fill="#3366CC"/>
<path d="M5.04494 25.9894L0.796915 30.2374C0.15411 30.8803 1.14827 31.8745 1.79117 31.2318L6.03919 26.9837C6.68209 26.3408 5.68784 25.3467 5.04494 25.9894Z" fill="#3366CC"/>
<path d="M22.2542 45.204L20.6256 46.7916C19.9736 47.4273 20.9581 48.4314 21.6072 47.7984L23.2358 46.2108C23.8866 45.5763 22.9049 44.5692 22.2542 45.204Z" fill="#3366CC"/>
<path d="M22.012 41.9622C21.7375 41.6877 21.2923 41.6877 21.0178 41.9622L16.7698 46.2102C16.1269 46.8531 17.1211 47.8473 17.764 47.2046L22.012 42.9566C22.2866 42.6819 22.2866 42.2368 22.012 41.9622Z" fill="#3366CC"/>
<path d="M10.995 37.0495C10.721 36.7743 10.2758 36.7735 10.0007 37.0474L0.210369 46.7968C-0.433936 47.4385 0.558629 48.4344 1.20256 47.7933L10.9929 38.0438C11.2681 37.7698 11.269 37.3246 10.995 37.0495Z" fill="#3366CC"/>
<path d="M2.10925 40.83C2.44064 41.1045 2.77212 41.1045 3.10351 40.83L10.6718 33.2619C11.3146 32.619 10.3203 31.6247 9.67751 32.2675L2.10925 39.8357C1.83468 40.1104 1.83468 40.5554 2.10925 40.83Z" fill="#3366CC"/>
<path d="M14.7397 37.3297L7.17146 44.8979C6.52865 45.5408 7.52281 46.535 8.16571 45.8922L15.734 38.3241C16.3768 37.6812 15.3825 36.687 14.7397 37.3297Z" fill="#3366CC"/>
</g>
<defs>
<clipPath id="clip0_1_1924">
<rect width="48" height="48" fill="white"/>
</clipPath>
</defs>
</svg>
