<svg width="44" height="44" viewBox="0 0 44 44" fill="none" xmlns="http://www.w3.org/2000/svg">
<circle cx="22" cy="22" r="22" fill="#F4F6FC"/>
<path d="M33.643 14.9376C32.808 15.3076 31.911 15.5576 30.968 15.6706C31.941 15.0884 32.669 14.172 33.016 13.0926C32.1019 13.6356 31.1014 14.0178 30.058 14.2226C29.3564 13.4734 28.4271 12.9769 27.4143 12.81C26.4016 12.6432 25.3621 12.8154 24.4572 13.2998C23.5524 13.7843 22.8328 14.5539 22.4102 15.4893C21.9875 16.4246 21.8855 17.4733 22.12 18.4726C20.2677 18.3796 18.4556 17.8981 16.8014 17.0595C15.1472 16.2208 13.6879 15.0437 12.518 13.6046C12.118 14.2946 11.888 15.0946 11.888 15.9466C11.8876 16.7136 12.0764 17.4688 12.4379 18.1453C12.7993 18.8218 13.3222 19.3986 13.96 19.8246C13.2203 19.801 12.4969 19.6011 11.85 19.2416V19.3016C11.8499 20.3773 12.222 21.4199 12.9032 22.2526C13.5843 23.0852 14.5326 23.6565 15.587 23.8696C14.9008 24.0553 14.1813 24.0826 13.483 23.9496C13.7805 24.8752 14.36 25.6846 15.1404 26.2645C15.9208 26.8444 16.8629 27.1657 17.835 27.1836C16.1848 28.479 14.1469 29.1817 12.049 29.1786C11.6774 29.1787 11.3061 29.157 10.937 29.1136C13.0665 30.4827 15.5454 31.2094 18.077 31.2066C26.647 31.2066 31.332 24.1086 31.332 17.9526C31.332 17.7526 31.327 17.5506 31.318 17.3506C32.2293 16.6915 33.0159 15.8755 33.641 14.9406L33.643 14.9376Z" fill="black"/>
</svg>
